%TF.GenerationSoftware,KiCad,Pcbnew,(6.0.0-0)*%
%TF.CreationDate,2022-11-12T17:46:12+01:00*%
%TF.ProjectId,phono_vorverstaerker,70686f6e-6f5f-4766-9f72-766572737461,rev?*%
%TF.SameCoordinates,Original*%
%TF.FileFunction,Copper,L1,Top*%
%TF.FilePolarity,Positive*%
%FSLAX46Y46*%
G04 Gerber Fmt 4.6, Leading zero omitted, Abs format (unit mm)*
G04 Created by KiCad (PCBNEW (6.0.0-0)) date 2022-11-12 17:46:12*
%MOMM*%
%LPD*%
G01*
G04 APERTURE LIST*
%TA.AperFunction,ComponentPad*%
%ADD10C,1.400000*%
%TD*%
%TA.AperFunction,ComponentPad*%
%ADD11O,1.400000X1.400000*%
%TD*%
%TA.AperFunction,ComponentPad*%
%ADD12O,1.300000X2.200000*%
%TD*%
%TA.AperFunction,ComponentPad*%
%ADD13O,2.200000X1.300000*%
%TD*%
%TA.AperFunction,ComponentPad*%
%ADD14C,2.000000*%
%TD*%
%TA.AperFunction,ComponentPad*%
%ADD15R,1.600000X1.600000*%
%TD*%
%TA.AperFunction,ComponentPad*%
%ADD16C,1.600000*%
%TD*%
%TA.AperFunction,ComponentPad*%
%ADD17O,1.600000X1.600000*%
%TD*%
%TA.AperFunction,ComponentPad*%
%ADD18C,4.000000*%
%TD*%
%TA.AperFunction,ComponentPad*%
%ADD19C,1.440000*%
%TD*%
%TA.AperFunction,ViaPad*%
%ADD20C,0.800000*%
%TD*%
%TA.AperFunction,Conductor*%
%ADD21C,0.250000*%
%TD*%
G04 APERTURE END LIST*
D10*
%TO.P,R11,1*%
%TO.N,GND*%
X65100000Y-175310000D03*
D11*
%TO.P,R11,2*%
%TO.N,Net-(C7-Pad2)*%
X65100000Y-167690000D03*
%TD*%
D12*
%TO.P,J5,S*%
%TO.N,GND*%
X79775000Y-175250000D03*
X68575000Y-175250000D03*
D13*
X74175000Y-165250000D03*
D14*
%TO.P,J5,T*%
%TO.N,Net-(J5-PadT)*%
X74175000Y-175250000D03*
%TD*%
D10*
%TO.P,R10,1*%
%TO.N,+2V5*%
X22720000Y-191600000D03*
D11*
%TO.P,R10,2*%
%TO.N,+5V*%
X15100000Y-191600000D03*
%TD*%
D15*
%TO.P,C7,1*%
%TO.N,Net-(U1-Pad13)*%
X59500000Y-168000000D03*
D16*
%TO.P,C7,2*%
%TO.N,Net-(C7-Pad2)*%
X62000000Y-168000000D03*
%TD*%
%TO.P,C5,1*%
%TO.N,GND*%
X68750000Y-184300000D03*
%TO.P,C5,2*%
%TO.N,Net-(U1-Pad12)*%
X66250000Y-184300000D03*
%TD*%
D13*
%TO.P,J2,S*%
%TO.N,GND*%
X74225000Y-197350000D03*
D12*
X68625000Y-187350000D03*
X79825000Y-187350000D03*
D14*
%TO.P,J2,T*%
%TO.N,Net-(C2-Pad1)*%
X74225000Y-187350000D03*
%TD*%
D15*
%TO.P,C9,1*%
%TO.N,+2V5*%
X26300000Y-193300000D03*
D16*
%TO.P,C9,2*%
%TO.N,GND*%
X28800000Y-193300000D03*
%TD*%
D15*
%TO.P,U1,1*%
%TO.N,Net-(U1-Pad1)*%
X40300000Y-189225000D03*
D17*
%TO.P,U1,2,-*%
%TO.N,Net-(U1-Pad2)*%
X40300000Y-186685000D03*
%TO.P,U1,3,+*%
%TO.N,Net-(U1-Pad3)*%
X40300000Y-184145000D03*
%TO.P,U1,4,V+*%
%TO.N,+5V*%
X40300000Y-181605000D03*
%TO.P,U1,5,+*%
%TO.N,Net-(U1-Pad5)*%
X40300000Y-179065000D03*
%TO.P,U1,6,-*%
%TO.N,Net-(U1-Pad6)*%
X40300000Y-176525000D03*
%TO.P,U1,7*%
%TO.N,Net-(U1-Pad7)*%
X40300000Y-173985000D03*
%TO.P,U1,8*%
%TO.N,Net-(U1-Pad8)*%
X32680000Y-173985000D03*
%TO.P,U1,9,-*%
X32680000Y-176525000D03*
%TO.P,U1,10,+*%
%TO.N,Net-(U1-Pad10)*%
X32680000Y-179065000D03*
%TO.P,U1,11,V-*%
%TO.N,GND*%
X32680000Y-181605000D03*
%TO.P,U1,12,+*%
%TO.N,Net-(U1-Pad12)*%
X32680000Y-184145000D03*
%TO.P,U1,13,-*%
%TO.N,Net-(U1-Pad13)*%
X32680000Y-186685000D03*
%TO.P,U1,14*%
X32680000Y-189225000D03*
%TD*%
D15*
%TO.P,C8,1*%
%TO.N,Net-(U1-Pad8)*%
X59694888Y-173700000D03*
D16*
%TO.P,C8,2*%
%TO.N,Net-(C8-Pad2)*%
X62194888Y-173700000D03*
%TD*%
D15*
%TO.P,J3,1,VBUS*%
%TO.N,Net-(J3-Pad1)*%
X27987500Y-182550000D03*
D16*
%TO.P,J3,2,D-*%
%TO.N,unconnected-(J3-Pad2)*%
X27987500Y-180050000D03*
%TO.P,J3,3,D+*%
%TO.N,unconnected-(J3-Pad3)*%
X25987500Y-180050000D03*
%TO.P,J3,4,GND*%
%TO.N,GND*%
X25987500Y-182550000D03*
D18*
%TO.P,J3,5,Shield*%
X23127500Y-175300000D03*
X23127500Y-187300000D03*
%TD*%
D16*
%TO.P,C1,1*%
%TO.N,Net-(C1-Pad1)*%
X59500000Y-188400000D03*
%TO.P,C1,2*%
%TO.N,Net-(U1-Pad5)*%
X59500000Y-190900000D03*
%TD*%
D19*
%TO.P,RV1,1,1*%
%TO.N,Net-(U1-Pad7)*%
X78150000Y-182400000D03*
%TO.P,RV1,2,2*%
X75610000Y-182400000D03*
%TO.P,RV1,3,3*%
%TO.N,Net-(U1-Pad6)*%
X73070000Y-182400000D03*
%TD*%
D10*
%TO.P,R14,1*%
%TO.N,Net-(J4-PadT)*%
X43600000Y-173110000D03*
D11*
%TO.P,R14,2*%
%TO.N,Net-(C7-Pad2)*%
X43600000Y-165490000D03*
%TD*%
D16*
%TO.P,C2,1*%
%TO.N,Net-(C2-Pad1)*%
X66200000Y-190900000D03*
%TO.P,C2,2*%
%TO.N,Net-(U1-Pad3)*%
X66200000Y-188400000D03*
%TD*%
D10*
%TO.P,R2,1*%
%TO.N,Net-(U1-Pad5)*%
X39110000Y-169100000D03*
D11*
%TO.P,R2,2*%
%TO.N,+5V*%
X31490000Y-169100000D03*
%TD*%
D10*
%TO.P,R1,1*%
%TO.N,+5V*%
X16290000Y-171500000D03*
D11*
%TO.P,R1,2*%
%TO.N,Net-(J3-Pad1)*%
X23910000Y-171500000D03*
%TD*%
D12*
%TO.P,J1,S*%
%TO.N,GND*%
X45625000Y-187350000D03*
X56825000Y-187350000D03*
D13*
X51225000Y-197350000D03*
D14*
%TO.P,J1,T*%
%TO.N,Net-(C1-Pad1)*%
X51225000Y-187350000D03*
%TD*%
D10*
%TO.P,R15,1*%
%TO.N,Net-(J5-PadT)*%
X79110000Y-178400000D03*
D11*
%TO.P,R15,2*%
%TO.N,Net-(C8-Pad2)*%
X71490000Y-178400000D03*
%TD*%
D10*
%TO.P,R3,1*%
%TO.N,GND*%
X31390000Y-166800000D03*
D11*
%TO.P,R3,2*%
%TO.N,Net-(U1-Pad5)*%
X39010000Y-166800000D03*
%TD*%
D10*
%TO.P,R12,1*%
%TO.N,GND*%
X64300000Y-185310000D03*
D11*
%TO.P,R12,2*%
%TO.N,Net-(C8-Pad2)*%
X64300000Y-177690000D03*
%TD*%
D10*
%TO.P,R8,1*%
%TO.N,Net-(U1-Pad12)*%
X59800000Y-185310000D03*
D11*
%TO.P,R8,2*%
%TO.N,Net-(U1-Pad7)*%
X59800000Y-177690000D03*
%TD*%
D10*
%TO.P,R6,1*%
%TO.N,+2V5*%
X63000000Y-196110000D03*
D11*
%TO.P,R6,2*%
%TO.N,Net-(U1-Pad6)*%
X63000000Y-188490000D03*
%TD*%
D10*
%TO.P,R4,1*%
%TO.N,Net-(U1-Pad3)*%
X33880000Y-192500000D03*
D11*
%TO.P,R4,2*%
%TO.N,+5V*%
X41500000Y-192500000D03*
%TD*%
D16*
%TO.P,C6,1*%
%TO.N,GND*%
X68950000Y-180400000D03*
%TO.P,C6,2*%
%TO.N,Net-(U1-Pad10)*%
X66450000Y-180400000D03*
%TD*%
D10*
%TO.P,R9,1*%
%TO.N,Net-(U1-Pad10)*%
X62100000Y-177690000D03*
D11*
%TO.P,R9,2*%
%TO.N,Net-(U1-Pad1)*%
X62100000Y-185310000D03*
%TD*%
D10*
%TO.P,R7,1*%
%TO.N,+2V5*%
X33880000Y-196700000D03*
D11*
%TO.P,R7,2*%
%TO.N,Net-(U1-Pad2)*%
X41500000Y-196700000D03*
%TD*%
D16*
%TO.P,C4,1*%
%TO.N,GND*%
X45700000Y-182800000D03*
%TO.P,C4,2*%
%TO.N,+5V*%
X43200000Y-182800000D03*
%TD*%
D12*
%TO.P,J4,S*%
%TO.N,GND*%
X45575000Y-175250000D03*
D13*
X51175000Y-165250000D03*
D12*
X56775000Y-175250000D03*
D14*
%TO.P,J4,T*%
%TO.N,Net-(J4-PadT)*%
X51175000Y-175250000D03*
%TD*%
D15*
%TO.P,C3,1*%
%TO.N,+5V*%
X19900000Y-168605113D03*
D16*
%TO.P,C3,2*%
%TO.N,GND*%
X19900000Y-166105113D03*
%TD*%
D10*
%TO.P,R5,1*%
%TO.N,GND*%
X41500000Y-194600000D03*
D11*
%TO.P,R5,2*%
%TO.N,Net-(U1-Pad3)*%
X33880000Y-194600000D03*
%TD*%
D19*
%TO.P,RV2,1,1*%
%TO.N,Net-(U1-Pad1)*%
X54440000Y-181400000D03*
%TO.P,RV2,2,2*%
X51900000Y-181400000D03*
%TO.P,RV2,3,3*%
%TO.N,Net-(U1-Pad2)*%
X49360000Y-181400000D03*
%TD*%
D10*
%TO.P,R13,1*%
%TO.N,GND*%
X15090000Y-193800000D03*
D11*
%TO.P,R13,2*%
%TO.N,+2V5*%
X22710000Y-193800000D03*
%TD*%
D20*
%TO.N,GND*%
X36300000Y-184200000D03*
X35800000Y-181000000D03*
X35500000Y-187500000D03*
X36900000Y-174900000D03*
X36600000Y-196300000D03*
%TD*%
D21*
%TO.N,Net-(C1-Pad1)*%
X58700001Y-189199999D02*
X59500000Y-188400000D01*
X51225000Y-187350000D02*
X53074999Y-189199999D01*
X53074999Y-189199999D02*
X58700001Y-189199999D01*
%TO.N,Net-(U1-Pad5)*%
X39010000Y-169000000D02*
X39110000Y-169100000D01*
X40300000Y-179065000D02*
X41306278Y-179065000D01*
X39010000Y-166800000D02*
X39010000Y-169000000D01*
X44575489Y-182334211D02*
X44575489Y-183265789D01*
X50959219Y-189649519D02*
X58249519Y-189649519D01*
X41306278Y-179065000D02*
X44575489Y-182334211D01*
X58249519Y-189649519D02*
X59500000Y-190900000D01*
X44575489Y-183265789D02*
X50959219Y-189649519D01*
%TO.N,Net-(C2-Pad1)*%
X66200000Y-190900000D02*
X70675000Y-190900000D01*
X70675000Y-190900000D02*
X74225000Y-187350000D01*
%TO.N,+5V*%
X31500000Y-184600000D02*
X31500000Y-183734700D01*
X16290000Y-171500000D02*
X19184887Y-168605113D01*
X42524511Y-196275633D02*
X42524511Y-197124367D01*
X40475489Y-195024367D02*
X41075633Y-195624511D01*
X41924367Y-197724511D02*
X40924511Y-197724511D01*
X32434700Y-182800000D02*
X39105000Y-182800000D01*
X19900000Y-186800000D02*
X15100000Y-191600000D01*
X33804511Y-186219211D02*
X32885300Y-185300000D01*
X19900000Y-168605113D02*
X19900000Y-186800000D01*
X42524511Y-197124367D02*
X41924367Y-197724511D01*
X31500000Y-183734700D02*
X32434700Y-182800000D01*
X39105000Y-182800000D02*
X40300000Y-181605000D01*
X40924511Y-197724511D02*
X33804511Y-190604511D01*
X41873389Y-195624511D02*
X42524511Y-196275633D01*
X32200000Y-185300000D02*
X31500000Y-184600000D01*
X32885300Y-185300000D02*
X32200000Y-185300000D01*
X19184887Y-168605113D02*
X19900000Y-168605113D01*
X30995113Y-168605113D02*
X31490000Y-169100000D01*
X41075633Y-195624511D02*
X41873389Y-195624511D01*
X40475489Y-193524511D02*
X40475489Y-195024367D01*
X41500000Y-192500000D02*
X40475489Y-193524511D01*
X19900000Y-168605113D02*
X30995113Y-168605113D01*
X33804511Y-190604511D02*
X33804511Y-186219211D01*
%TO.N,Net-(U1-Pad12)*%
X59800000Y-185310000D02*
X60624511Y-186134511D01*
X64661121Y-183500001D02*
X63275489Y-184885633D01*
X60624511Y-191365789D02*
X59965789Y-192024511D01*
X65450001Y-183500001D02*
X64661121Y-183500001D01*
X63275489Y-184885633D02*
X63275489Y-185734367D01*
X66250000Y-184300000D02*
X65450001Y-183500001D01*
X63275489Y-185734367D02*
X62675345Y-186334511D01*
X60824511Y-186334511D02*
X59800000Y-185310000D01*
X62675345Y-186334511D02*
X60824511Y-186334511D01*
X59965789Y-192024511D02*
X47255000Y-192024511D01*
X47255000Y-192024511D02*
X40500000Y-185269511D01*
X60624511Y-186134511D02*
X60624511Y-191365789D01*
X40500000Y-185269511D02*
X33804511Y-185269511D01*
X33804511Y-185269511D02*
X32680000Y-184145000D01*
%TO.N,Net-(U1-Pad10)*%
X33804511Y-177940489D02*
X32680000Y-179065000D01*
X61075489Y-178714511D02*
X41614511Y-178714511D01*
X62100000Y-177690000D02*
X61075489Y-178714511D01*
X64810000Y-180400000D02*
X66450000Y-180400000D01*
X62100000Y-177690000D02*
X64810000Y-180400000D01*
X41614511Y-178714511D02*
X40840489Y-177940489D01*
X40840489Y-177940489D02*
X33804511Y-177940489D01*
%TO.N,Net-(U1-Pad13)*%
X66124511Y-168175489D02*
X66124511Y-166924511D01*
X32975489Y-170124511D02*
X64175489Y-170124511D01*
X32680000Y-186685000D02*
X29600000Y-183605000D01*
X61000000Y-166500000D02*
X59500000Y-168000000D01*
X29600000Y-173500000D02*
X32975489Y-170124511D01*
X65700000Y-166500000D02*
X61000000Y-166500000D01*
X32680000Y-189225000D02*
X32680000Y-186685000D01*
X29600000Y-183605000D02*
X29600000Y-173500000D01*
X64175489Y-170124511D02*
X66124511Y-168175489D01*
X66124511Y-166924511D02*
X65700000Y-166500000D01*
%TO.N,Net-(C7-Pad2)*%
X60875489Y-169124511D02*
X62000000Y-168000000D01*
X52124511Y-169124511D02*
X60875489Y-169124511D01*
X62000000Y-168000000D02*
X64790000Y-168000000D01*
X48490000Y-165490000D02*
X52124511Y-169124511D01*
X64790000Y-168000000D02*
X65100000Y-167690000D01*
X43600000Y-165490000D02*
X48490000Y-165490000D01*
%TO.N,Net-(U1-Pad8)*%
X32680000Y-176525000D02*
X32680000Y-173985000D01*
X32680000Y-173985000D02*
X34579511Y-172085489D01*
X34579511Y-172085489D02*
X58080377Y-172085489D01*
X58080377Y-172085489D02*
X59694888Y-173700000D01*
%TO.N,Net-(C8-Pad2)*%
X62194888Y-173700000D02*
X62194888Y-175584888D01*
X62194888Y-175584888D02*
X64300000Y-177690000D01*
X65010000Y-178400000D02*
X64300000Y-177690000D01*
X71490000Y-178400000D02*
X65010000Y-178400000D01*
%TO.N,+2V5*%
X48225969Y-198174031D02*
X50290000Y-196110000D01*
X22720000Y-191600000D02*
X22720000Y-193790000D01*
X35354031Y-198174031D02*
X48225969Y-198174031D01*
X50290000Y-196110000D02*
X63000000Y-196110000D01*
X25800000Y-193800000D02*
X26300000Y-193300000D01*
X22720000Y-193790000D02*
X22710000Y-193800000D01*
X33880000Y-196700000D02*
X35354031Y-198174031D01*
X26300000Y-193300000D02*
X29700000Y-196700000D01*
X29700000Y-196700000D02*
X33880000Y-196700000D01*
X22710000Y-193800000D02*
X25800000Y-193800000D01*
%TO.N,Net-(J3-Pad1)*%
X27987500Y-182550000D02*
X29112011Y-181425489D01*
X29112011Y-176702011D02*
X23910000Y-171500000D01*
X29112011Y-181425489D02*
X29112011Y-176702011D01*
%TO.N,Net-(J4-PadT)*%
X43600000Y-173110000D02*
X49035000Y-173110000D01*
X49035000Y-173110000D02*
X51175000Y-175250000D01*
%TO.N,Net-(J5-PadT)*%
X75960000Y-175250000D02*
X79110000Y-178400000D01*
X74175000Y-175250000D02*
X75960000Y-175250000D01*
%TO.N,Net-(U1-Pad6)*%
X65564520Y-185925480D02*
X69544520Y-185925480D01*
X63000000Y-188490000D02*
X65564520Y-185925480D01*
X69544520Y-185925480D02*
X73070000Y-182400000D01*
%TO.N,Net-(U1-Pad2)*%
X40300000Y-186685000D02*
X39175489Y-187809511D01*
X39175489Y-194375489D02*
X41500000Y-196700000D01*
X39175489Y-187809511D02*
X39175489Y-194375489D01*
%TO.N,Net-(U1-Pad7)*%
X71495789Y-181355489D02*
X69040300Y-178900000D01*
X63124511Y-177963389D02*
X63124511Y-177265633D01*
X63124511Y-177265633D02*
X62458878Y-176600000D01*
X74565489Y-181355489D02*
X71495789Y-181355489D01*
X60890000Y-176600000D02*
X59800000Y-177690000D01*
X44005000Y-177690000D02*
X59800000Y-177690000D01*
X78150000Y-182400000D02*
X75610000Y-182400000D01*
X75610000Y-182400000D02*
X74565489Y-181355489D01*
X64061122Y-178900000D02*
X63124511Y-177963389D01*
X62458878Y-176600000D02*
X60890000Y-176600000D01*
X69040300Y-178900000D02*
X64061122Y-178900000D01*
X40300000Y-173985000D02*
X44005000Y-177690000D01*
%TO.N,Net-(U1-Pad1)*%
X58190000Y-181400000D02*
X62100000Y-185310000D01*
X54440000Y-181400000D02*
X58190000Y-181400000D01*
X51900000Y-181400000D02*
X54440000Y-181400000D01*
%TD*%
%TA.AperFunction,Conductor*%
%TO.N,GND*%
G36*
X49546738Y-164828002D02*
G01*
X49593231Y-164881658D01*
X49602196Y-164958582D01*
X49598288Y-164978230D01*
X49599440Y-164991106D01*
X49614596Y-164996000D01*
X52738294Y-164996000D01*
X52751256Y-164992194D01*
X52753192Y-164977278D01*
X52749422Y-164955337D01*
X52757599Y-164884813D01*
X52802606Y-164829906D01*
X52873602Y-164808000D01*
X72478617Y-164808000D01*
X72546738Y-164828002D01*
X72593231Y-164881658D01*
X72602196Y-164958582D01*
X72598288Y-164978230D01*
X72599440Y-164991106D01*
X72614596Y-164996000D01*
X75738294Y-164996000D01*
X75751256Y-164992194D01*
X75753192Y-164977278D01*
X75749422Y-164955337D01*
X75757599Y-164884813D01*
X75802606Y-164829906D01*
X75873602Y-164808000D01*
X80150672Y-164808000D01*
X80170057Y-164809500D01*
X80184858Y-164811805D01*
X80184861Y-164811805D01*
X80193730Y-164813186D01*
X80213054Y-164810659D01*
X80235570Y-164809747D01*
X80536100Y-164824512D01*
X80548394Y-164825722D01*
X80875139Y-164874191D01*
X80887249Y-164876599D01*
X81207674Y-164956861D01*
X81219507Y-164960451D01*
X81530494Y-165071725D01*
X81541918Y-165076456D01*
X81840523Y-165217685D01*
X81851428Y-165223514D01*
X82134745Y-165393328D01*
X82145026Y-165400198D01*
X82410329Y-165596960D01*
X82419887Y-165604804D01*
X82664630Y-165826626D01*
X82673374Y-165835370D01*
X82895196Y-166080113D01*
X82903040Y-166089671D01*
X83099802Y-166354974D01*
X83106672Y-166365255D01*
X83158205Y-166451233D01*
X83263936Y-166627633D01*
X83276486Y-166648572D01*
X83282313Y-166659473D01*
X83323347Y-166746233D01*
X83423544Y-166958082D01*
X83428275Y-166969506D01*
X83539549Y-167280493D01*
X83543138Y-167292324D01*
X83616117Y-167583671D01*
X83623399Y-167612743D01*
X83625809Y-167624861D01*
X83669402Y-167918738D01*
X83674277Y-167951601D01*
X83675489Y-167963902D01*
X83676624Y-167987015D01*
X83689890Y-168257062D01*
X83688543Y-168282624D01*
X83688195Y-168284857D01*
X83688195Y-168284861D01*
X83686814Y-168293730D01*
X83687978Y-168302632D01*
X83687978Y-168302635D01*
X83690936Y-168325251D01*
X83692000Y-168341589D01*
X83692000Y-194250672D01*
X83690500Y-194270056D01*
X83686814Y-194293730D01*
X83689274Y-194312539D01*
X83689341Y-194313050D01*
X83690253Y-194335570D01*
X83676630Y-194612865D01*
X83675489Y-194636094D01*
X83674278Y-194648394D01*
X83626221Y-194972367D01*
X83625811Y-194975130D01*
X83623401Y-194987249D01*
X83567339Y-195211063D01*
X83543139Y-195307674D01*
X83539549Y-195319507D01*
X83428275Y-195630494D01*
X83423544Y-195641918D01*
X83360793Y-195774594D01*
X83289782Y-195924736D01*
X83282315Y-195940523D01*
X83276488Y-195951424D01*
X83194066Y-196088937D01*
X83106672Y-196234745D01*
X83099802Y-196245026D01*
X82903040Y-196510329D01*
X82895196Y-196519887D01*
X82673374Y-196764630D01*
X82664630Y-196773374D01*
X82419887Y-196995196D01*
X82410329Y-197003040D01*
X82145026Y-197199802D01*
X82134745Y-197206672D01*
X82067090Y-197247223D01*
X81892696Y-197351751D01*
X81851428Y-197376486D01*
X81840527Y-197382313D01*
X81810322Y-197396599D01*
X81541918Y-197523544D01*
X81530494Y-197528275D01*
X81219507Y-197639549D01*
X81207676Y-197643138D01*
X80887249Y-197723401D01*
X80875139Y-197725809D01*
X80548394Y-197774278D01*
X80536098Y-197775489D01*
X80447344Y-197779849D01*
X80242938Y-197789890D01*
X80217376Y-197788543D01*
X80215143Y-197788195D01*
X80215139Y-197788195D01*
X80206270Y-197786814D01*
X80197368Y-197787978D01*
X80197365Y-197787978D01*
X80178083Y-197790500D01*
X80175728Y-197790808D01*
X80174749Y-197790936D01*
X80158411Y-197792000D01*
X75921383Y-197792000D01*
X75853262Y-197771998D01*
X75806769Y-197718342D01*
X75797804Y-197641418D01*
X75801712Y-197621770D01*
X75800560Y-197608894D01*
X75785404Y-197604000D01*
X72661706Y-197604000D01*
X72648744Y-197607806D01*
X72646808Y-197622722D01*
X72650578Y-197644663D01*
X72642401Y-197715187D01*
X72597394Y-197770094D01*
X72526398Y-197792000D01*
X52921383Y-197792000D01*
X52853262Y-197771998D01*
X52806769Y-197718342D01*
X52797804Y-197641418D01*
X52801712Y-197621770D01*
X52800560Y-197608894D01*
X52785404Y-197604000D01*
X51097000Y-197604000D01*
X51028879Y-197583998D01*
X50982386Y-197530342D01*
X50971000Y-197478000D01*
X50971000Y-197222000D01*
X50991002Y-197153879D01*
X51044658Y-197107386D01*
X51097000Y-197096000D01*
X52788294Y-197096000D01*
X52801256Y-197092194D01*
X52803192Y-197077278D01*
X52799313Y-197054700D01*
X52796334Y-197043583D01*
X52748200Y-196913111D01*
X52743388Y-196842278D01*
X52777635Y-196780087D01*
X52840068Y-196746285D01*
X52866412Y-196743500D01*
X61902685Y-196743500D01*
X61970806Y-196763502D01*
X62005898Y-196797230D01*
X62070699Y-196889776D01*
X62220224Y-197039301D01*
X62393442Y-197160589D01*
X62398420Y-197162910D01*
X62398423Y-197162912D01*
X62573943Y-197244758D01*
X62585090Y-197249956D01*
X62590398Y-197251378D01*
X62590400Y-197251379D01*
X62784030Y-197303262D01*
X62784032Y-197303262D01*
X62789345Y-197304686D01*
X63000000Y-197323116D01*
X63210655Y-197304686D01*
X63215968Y-197303262D01*
X63215970Y-197303262D01*
X63409600Y-197251379D01*
X63409602Y-197251378D01*
X63414910Y-197249956D01*
X63426057Y-197244758D01*
X63601577Y-197162912D01*
X63601580Y-197162910D01*
X63606558Y-197160589D01*
X63724179Y-197078230D01*
X72648288Y-197078230D01*
X72649440Y-197091106D01*
X72664596Y-197096000D01*
X73952885Y-197096000D01*
X73968124Y-197091525D01*
X73969329Y-197090135D01*
X73971000Y-197082452D01*
X73971000Y-197077885D01*
X74479000Y-197077885D01*
X74483475Y-197093124D01*
X74484865Y-197094329D01*
X74492548Y-197096000D01*
X75788294Y-197096000D01*
X75801256Y-197092194D01*
X75803192Y-197077278D01*
X75799313Y-197054700D01*
X75796334Y-197043583D01*
X75726669Y-196854748D01*
X75721719Y-196844370D01*
X75618809Y-196671394D01*
X75612045Y-196662085D01*
X75479335Y-196510757D01*
X75471000Y-196502847D01*
X75312931Y-196378236D01*
X75303280Y-196371968D01*
X75125164Y-196278257D01*
X75114521Y-196273848D01*
X74922316Y-196214167D01*
X74911054Y-196211773D01*
X74747678Y-196192437D01*
X74740272Y-196192000D01*
X74497115Y-196192000D01*
X74481876Y-196196475D01*
X74480671Y-196197865D01*
X74479000Y-196205548D01*
X74479000Y-197077885D01*
X73971000Y-197077885D01*
X73971000Y-196210115D01*
X73966525Y-196194876D01*
X73965135Y-196193671D01*
X73957452Y-196192000D01*
X73723908Y-196192000D01*
X73718119Y-196192266D01*
X73568824Y-196205984D01*
X73557503Y-196208082D01*
X73363797Y-196262713D01*
X73353050Y-196266837D01*
X73172534Y-196355859D01*
X73162727Y-196361869D01*
X73001451Y-196482299D01*
X72992911Y-196489989D01*
X72856280Y-196637794D01*
X72849279Y-196646919D01*
X72741875Y-196817144D01*
X72736654Y-196827391D01*
X72662072Y-197014332D01*
X72658803Y-197025369D01*
X72648288Y-197078230D01*
X63724179Y-197078230D01*
X63779776Y-197039301D01*
X63929301Y-196889776D01*
X64050589Y-196716558D01*
X64071650Y-196671394D01*
X64137633Y-196529892D01*
X64137634Y-196529891D01*
X64139956Y-196524910D01*
X64188009Y-196345576D01*
X64193262Y-196325970D01*
X64193262Y-196325968D01*
X64194686Y-196320655D01*
X64213116Y-196110000D01*
X64194686Y-195899345D01*
X64177036Y-195833473D01*
X64141379Y-195700400D01*
X64141378Y-195700398D01*
X64139956Y-195695090D01*
X64116379Y-195644528D01*
X64052912Y-195508423D01*
X64052910Y-195508420D01*
X64050589Y-195503442D01*
X63929301Y-195330224D01*
X63779776Y-195180699D01*
X63606558Y-195059411D01*
X63601580Y-195057090D01*
X63601577Y-195057088D01*
X63419892Y-194972367D01*
X63419891Y-194972366D01*
X63414910Y-194970044D01*
X63409602Y-194968622D01*
X63409600Y-194968621D01*
X63215970Y-194916738D01*
X63215968Y-194916738D01*
X63210655Y-194915314D01*
X63000000Y-194896884D01*
X62789345Y-194915314D01*
X62784032Y-194916738D01*
X62784030Y-194916738D01*
X62590400Y-194968621D01*
X62590398Y-194968622D01*
X62585090Y-194970044D01*
X62580109Y-194972366D01*
X62580108Y-194972367D01*
X62398423Y-195057088D01*
X62398420Y-195057090D01*
X62393442Y-195059411D01*
X62220224Y-195180699D01*
X62070699Y-195330224D01*
X62067540Y-195334736D01*
X62005898Y-195422770D01*
X61950441Y-195467099D01*
X61902685Y-195476500D01*
X50368768Y-195476500D01*
X50357585Y-195475973D01*
X50350092Y-195474298D01*
X50342166Y-195474547D01*
X50342165Y-195474547D01*
X50282002Y-195476438D01*
X50278044Y-195476500D01*
X50250144Y-195476500D01*
X50246154Y-195477004D01*
X50234320Y-195477936D01*
X50190111Y-195479326D01*
X50182495Y-195481539D01*
X50182493Y-195481539D01*
X50170652Y-195484979D01*
X50151293Y-195488988D01*
X50149983Y-195489154D01*
X50131203Y-195491526D01*
X50123837Y-195494442D01*
X50123831Y-195494444D01*
X50090098Y-195507800D01*
X50078868Y-195511645D01*
X50044017Y-195521770D01*
X50036407Y-195523981D01*
X50029584Y-195528016D01*
X50018966Y-195534295D01*
X50001213Y-195542992D01*
X49993568Y-195546019D01*
X49982383Y-195550448D01*
X49975968Y-195555109D01*
X49946612Y-195576437D01*
X49936695Y-195582951D01*
X49898638Y-195605458D01*
X49884317Y-195619779D01*
X49869284Y-195632619D01*
X49852893Y-195644528D01*
X49847842Y-195650634D01*
X49824702Y-195678605D01*
X49816712Y-195687384D01*
X48000469Y-197503626D01*
X47938157Y-197537652D01*
X47911374Y-197540531D01*
X43230837Y-197540531D01*
X43162716Y-197520529D01*
X43116223Y-197466873D01*
X43106119Y-197396599D01*
X43113684Y-197368151D01*
X43114389Y-197366370D01*
X43118206Y-197359427D01*
X43123244Y-197339804D01*
X43129648Y-197321101D01*
X43134544Y-197309787D01*
X43134544Y-197309786D01*
X43137692Y-197302512D01*
X43138931Y-197294689D01*
X43138934Y-197294679D01*
X43144610Y-197258843D01*
X43147016Y-197247223D01*
X43156039Y-197212078D01*
X43156039Y-197212077D01*
X43158011Y-197204397D01*
X43158011Y-197184143D01*
X43159562Y-197164432D01*
X43160835Y-197156398D01*
X43162731Y-197144424D01*
X43158570Y-197100405D01*
X43158011Y-197088548D01*
X43158011Y-196354401D01*
X43158538Y-196343218D01*
X43160213Y-196335725D01*
X43159907Y-196325970D01*
X43158073Y-196267635D01*
X43158011Y-196263677D01*
X43158011Y-196235777D01*
X43157507Y-196231786D01*
X43156574Y-196219944D01*
X43156393Y-196214167D01*
X43155185Y-196175744D01*
X43149532Y-196156285D01*
X43145523Y-196136926D01*
X43145357Y-196135616D01*
X43142985Y-196116836D01*
X43140069Y-196109470D01*
X43140067Y-196109464D01*
X43126711Y-196075731D01*
X43122866Y-196064501D01*
X43112741Y-196029650D01*
X43112741Y-196029649D01*
X43110530Y-196022040D01*
X43100216Y-196004599D01*
X43091519Y-195986846D01*
X43086983Y-195975391D01*
X43084063Y-195968016D01*
X43058074Y-195932245D01*
X43051558Y-195922325D01*
X43029053Y-195884271D01*
X43014732Y-195869950D01*
X43001891Y-195854916D01*
X42994643Y-195844940D01*
X42989983Y-195838526D01*
X42955912Y-195810340D01*
X42947133Y-195802351D01*
X42666552Y-195521770D01*
X42542931Y-195398148D01*
X42508906Y-195335838D01*
X42513971Y-195265023D01*
X42528815Y-195236783D01*
X42547001Y-195210812D01*
X42552479Y-195201323D01*
X42637159Y-195019723D01*
X42640907Y-195009429D01*
X42692769Y-194815878D01*
X42694671Y-194805091D01*
X42712135Y-194605475D01*
X42712135Y-194594525D01*
X42694671Y-194394909D01*
X42692769Y-194384122D01*
X42640907Y-194190571D01*
X42637159Y-194180277D01*
X42552479Y-193998677D01*
X42547001Y-193989189D01*
X42525689Y-193958752D01*
X42515212Y-193950377D01*
X42501764Y-193957446D01*
X41589095Y-194870115D01*
X41526783Y-194904141D01*
X41455968Y-194899076D01*
X41410905Y-194870115D01*
X41229885Y-194689095D01*
X41195859Y-194626783D01*
X41200924Y-194555968D01*
X41229885Y-194510905D01*
X42143276Y-193597514D01*
X42155824Y-193574534D01*
X42166716Y-193524465D01*
X42205033Y-193481637D01*
X42275265Y-193432460D01*
X42275268Y-193432458D01*
X42279776Y-193429301D01*
X42429301Y-193279776D01*
X42550589Y-193106558D01*
X42581393Y-193040500D01*
X42637633Y-192919892D01*
X42637634Y-192919891D01*
X42639956Y-192914910D01*
X42662296Y-192831538D01*
X42693262Y-192715970D01*
X42693262Y-192715968D01*
X42694686Y-192710655D01*
X42713116Y-192500000D01*
X42694686Y-192289345D01*
X42687279Y-192261703D01*
X42641379Y-192090400D01*
X42641378Y-192090398D01*
X42639956Y-192085090D01*
X42625818Y-192054771D01*
X42552912Y-191898423D01*
X42552910Y-191898420D01*
X42550589Y-191893442D01*
X42429301Y-191720224D01*
X42279776Y-191570699D01*
X42106558Y-191449411D01*
X42101580Y-191447090D01*
X42101577Y-191447088D01*
X41919892Y-191362367D01*
X41919891Y-191362366D01*
X41914910Y-191360044D01*
X41909602Y-191358622D01*
X41909600Y-191358621D01*
X41715970Y-191306738D01*
X41715968Y-191306738D01*
X41710655Y-191305314D01*
X41500000Y-191286884D01*
X41289345Y-191305314D01*
X41284032Y-191306738D01*
X41284030Y-191306738D01*
X41090400Y-191358621D01*
X41090398Y-191358622D01*
X41085090Y-191360044D01*
X41080109Y-191362366D01*
X41080108Y-191362367D01*
X40898423Y-191447088D01*
X40898420Y-191447090D01*
X40893442Y-191449411D01*
X40720224Y-191570699D01*
X40570699Y-191720224D01*
X40449411Y-191893442D01*
X40447090Y-191898420D01*
X40447088Y-191898423D01*
X40374182Y-192054771D01*
X40360044Y-192085090D01*
X40358622Y-192090398D01*
X40358621Y-192090400D01*
X40312721Y-192261703D01*
X40305314Y-192289345D01*
X40286884Y-192500000D01*
X40287363Y-192505475D01*
X40304835Y-192705175D01*
X40305314Y-192710655D01*
X40306736Y-192715961D01*
X40307547Y-192720561D01*
X40299679Y-192791121D01*
X40272557Y-192831538D01*
X40083236Y-193020859D01*
X40074950Y-193028399D01*
X40068471Y-193032511D01*
X40063043Y-193038291D01*
X40063042Y-193038292D01*
X40026839Y-193076844D01*
X39965627Y-193112810D01*
X39894687Y-193109973D01*
X39836543Y-193069233D01*
X39809654Y-193003525D01*
X39808989Y-192990592D01*
X39808989Y-190659500D01*
X39828991Y-190591379D01*
X39882647Y-190544886D01*
X39934989Y-190533500D01*
X41148134Y-190533500D01*
X41210316Y-190526745D01*
X41346705Y-190475615D01*
X41463261Y-190388261D01*
X41550615Y-190271705D01*
X41601745Y-190135316D01*
X41608500Y-190073134D01*
X41608500Y-188376866D01*
X41601745Y-188314684D01*
X41550615Y-188178295D01*
X41463261Y-188061739D01*
X41346705Y-187974385D01*
X41210316Y-187923255D01*
X41199526Y-187922083D01*
X41197394Y-187921197D01*
X41194778Y-187920575D01*
X41194879Y-187920152D01*
X41133965Y-187894845D01*
X41093537Y-187836483D01*
X41091078Y-187765529D01*
X41127371Y-187704510D01*
X41136031Y-187697511D01*
X41139793Y-187694354D01*
X41144300Y-187691198D01*
X41306198Y-187529300D01*
X41337589Y-187484470D01*
X41401075Y-187393802D01*
X41437523Y-187341749D01*
X41439848Y-187336763D01*
X41442479Y-187332206D01*
X41493861Y-187283212D01*
X41563574Y-187269774D01*
X41629485Y-187296160D01*
X41640694Y-187306109D01*
X46751343Y-192416758D01*
X46758887Y-192425048D01*
X46763000Y-192431529D01*
X46768777Y-192436954D01*
X46812667Y-192478169D01*
X46815509Y-192480924D01*
X46835231Y-192500646D01*
X46838355Y-192503069D01*
X46838359Y-192503073D01*
X46838424Y-192503123D01*
X46847445Y-192510828D01*
X46879679Y-192541097D01*
X46886627Y-192544916D01*
X46886629Y-192544918D01*
X46897432Y-192550857D01*
X46913959Y-192561713D01*
X46923698Y-192569268D01*
X46923700Y-192569269D01*
X46929960Y-192574125D01*
X46970540Y-192591685D01*
X46981188Y-192596902D01*
X47005976Y-192610529D01*
X47019940Y-192618206D01*
X47027616Y-192620177D01*
X47027619Y-192620178D01*
X47039562Y-192623244D01*
X47058266Y-192629648D01*
X47063064Y-192631724D01*
X47076855Y-192637692D01*
X47084678Y-192638931D01*
X47084688Y-192638934D01*
X47120524Y-192644610D01*
X47132144Y-192647016D01*
X47163959Y-192655184D01*
X47174970Y-192658011D01*
X47195224Y-192658011D01*
X47214934Y-192659562D01*
X47234943Y-192662731D01*
X47242835Y-192661985D01*
X47261580Y-192660213D01*
X47278962Y-192658570D01*
X47290819Y-192658011D01*
X59887022Y-192658011D01*
X59898205Y-192658538D01*
X59905698Y-192660213D01*
X59913624Y-192659964D01*
X59913625Y-192659964D01*
X59973775Y-192658073D01*
X59977734Y-192658011D01*
X60005645Y-192658011D01*
X60009580Y-192657514D01*
X60009645Y-192657506D01*
X60021482Y-192656573D01*
X60053740Y-192655559D01*
X60057759Y-192655433D01*
X60065678Y-192655184D01*
X60085132Y-192649532D01*
X60104489Y-192645524D01*
X60116719Y-192643979D01*
X60116720Y-192643979D01*
X60124586Y-192642985D01*
X60131957Y-192640066D01*
X60131959Y-192640066D01*
X60165701Y-192626707D01*
X60176931Y-192622862D01*
X60211772Y-192612740D01*
X60211773Y-192612740D01*
X60219382Y-192610529D01*
X60226201Y-192606496D01*
X60226206Y-192606494D01*
X60236817Y-192600218D01*
X60254565Y-192591523D01*
X60273406Y-192584063D01*
X60280959Y-192578576D01*
X60309176Y-192558075D01*
X60319096Y-192551559D01*
X60350324Y-192533091D01*
X60350327Y-192533089D01*
X60357151Y-192529053D01*
X60371472Y-192514732D01*
X60386506Y-192501891D01*
X60389109Y-192500000D01*
X60402896Y-192489983D01*
X60431087Y-192455906D01*
X60439077Y-192447127D01*
X61016758Y-191869446D01*
X61025048Y-191861902D01*
X61031529Y-191857789D01*
X61078170Y-191808121D01*
X61080924Y-191805280D01*
X61100646Y-191785558D01*
X61103123Y-191782365D01*
X61110828Y-191773344D01*
X61135670Y-191746889D01*
X61141097Y-191741110D01*
X61144918Y-191734160D01*
X61150857Y-191723357D01*
X61161713Y-191706830D01*
X61169268Y-191697091D01*
X61169269Y-191697089D01*
X61174125Y-191690829D01*
X61191685Y-191650249D01*
X61196902Y-191639601D01*
X61214386Y-191607798D01*
X61214387Y-191607796D01*
X61218206Y-191600849D01*
X61223244Y-191581226D01*
X61229648Y-191562523D01*
X61234544Y-191551209D01*
X61234544Y-191551208D01*
X61237692Y-191543934D01*
X61238931Y-191536111D01*
X61238934Y-191536101D01*
X61244610Y-191500265D01*
X61247016Y-191488645D01*
X61256039Y-191453500D01*
X61256039Y-191453499D01*
X61258011Y-191445819D01*
X61258011Y-191425565D01*
X61259562Y-191405854D01*
X61261491Y-191393675D01*
X61262731Y-191385846D01*
X61258570Y-191341827D01*
X61258011Y-191329970D01*
X61258011Y-190900000D01*
X64886502Y-190900000D01*
X64906457Y-191128087D01*
X64907880Y-191133399D01*
X64907881Y-191133402D01*
X64960934Y-191331395D01*
X64965716Y-191349243D01*
X64968039Y-191354224D01*
X64968039Y-191354225D01*
X65060151Y-191551762D01*
X65060154Y-191551767D01*
X65062477Y-191556749D01*
X65098222Y-191607798D01*
X65179138Y-191723357D01*
X65193802Y-191744300D01*
X65355700Y-191906198D01*
X65360208Y-191909355D01*
X65360211Y-191909357D01*
X65438389Y-191964098D01*
X65543251Y-192037523D01*
X65548233Y-192039846D01*
X65548238Y-192039849D01*
X65744482Y-192131358D01*
X65750757Y-192134284D01*
X65756065Y-192135706D01*
X65756067Y-192135707D01*
X65966598Y-192192119D01*
X65966600Y-192192119D01*
X65971913Y-192193543D01*
X66200000Y-192213498D01*
X66428087Y-192193543D01*
X66433400Y-192192119D01*
X66433402Y-192192119D01*
X66643933Y-192135707D01*
X66643935Y-192135706D01*
X66649243Y-192134284D01*
X66655518Y-192131358D01*
X66851762Y-192039849D01*
X66851767Y-192039846D01*
X66856749Y-192037523D01*
X66961611Y-191964098D01*
X67039789Y-191909357D01*
X67039792Y-191909355D01*
X67044300Y-191906198D01*
X67206198Y-191744300D01*
X67219897Y-191724736D01*
X67316181Y-191587229D01*
X67371638Y-191542901D01*
X67419394Y-191533500D01*
X70596233Y-191533500D01*
X70607416Y-191534027D01*
X70614909Y-191535702D01*
X70622835Y-191535453D01*
X70622836Y-191535453D01*
X70682986Y-191533562D01*
X70686945Y-191533500D01*
X70714856Y-191533500D01*
X70718791Y-191533003D01*
X70718856Y-191532995D01*
X70730693Y-191532062D01*
X70762951Y-191531048D01*
X70766970Y-191530922D01*
X70774889Y-191530673D01*
X70794343Y-191525021D01*
X70813700Y-191521013D01*
X70825930Y-191519468D01*
X70825931Y-191519468D01*
X70833797Y-191518474D01*
X70841168Y-191515555D01*
X70841170Y-191515555D01*
X70874912Y-191502196D01*
X70886142Y-191498351D01*
X70920983Y-191488229D01*
X70920984Y-191488229D01*
X70928593Y-191486018D01*
X70935412Y-191481985D01*
X70935417Y-191481983D01*
X70946028Y-191475707D01*
X70963776Y-191467012D01*
X70982617Y-191459552D01*
X70999773Y-191447088D01*
X71018387Y-191433564D01*
X71028307Y-191427048D01*
X71059535Y-191408580D01*
X71059538Y-191408578D01*
X71066362Y-191404542D01*
X71080683Y-191390221D01*
X71095717Y-191377380D01*
X71105694Y-191370131D01*
X71112107Y-191365472D01*
X71140298Y-191331395D01*
X71148288Y-191322616D01*
X73646540Y-188824364D01*
X73708852Y-188790338D01*
X73765049Y-188790940D01*
X73983476Y-188843380D01*
X73983482Y-188843381D01*
X73988289Y-188844535D01*
X74225000Y-188863165D01*
X74461711Y-188844535D01*
X74466518Y-188843381D01*
X74466524Y-188843380D01*
X74612391Y-188808360D01*
X74692594Y-188789105D01*
X74712000Y-188781067D01*
X74907389Y-188700135D01*
X74907393Y-188700133D01*
X74911963Y-188698240D01*
X74916965Y-188695175D01*
X75110202Y-188576759D01*
X75110208Y-188576755D01*
X75114416Y-188574176D01*
X75294969Y-188419969D01*
X75307346Y-188405478D01*
X75410393Y-188284825D01*
X75449176Y-188239416D01*
X75451755Y-188235208D01*
X75451759Y-188235202D01*
X75570654Y-188041183D01*
X75573240Y-188036963D01*
X75585993Y-188006176D01*
X75650230Y-187851092D01*
X78667000Y-187851092D01*
X78667266Y-187856881D01*
X78680984Y-188006176D01*
X78683082Y-188017497D01*
X78737713Y-188211203D01*
X78741837Y-188221950D01*
X78830859Y-188402466D01*
X78836869Y-188412273D01*
X78957299Y-188573549D01*
X78964989Y-188582089D01*
X79112794Y-188718720D01*
X79121919Y-188725721D01*
X79292144Y-188833125D01*
X79302391Y-188838346D01*
X79489332Y-188912928D01*
X79500369Y-188916197D01*
X79553230Y-188926712D01*
X79566106Y-188925560D01*
X79570067Y-188913294D01*
X80079000Y-188913294D01*
X80082806Y-188926256D01*
X80097722Y-188928192D01*
X80120300Y-188924313D01*
X80131417Y-188921334D01*
X80320252Y-188851669D01*
X80330630Y-188846719D01*
X80503606Y-188743809D01*
X80512915Y-188737045D01*
X80664243Y-188604335D01*
X80672153Y-188596000D01*
X80796764Y-188437931D01*
X80803032Y-188428280D01*
X80896743Y-188250164D01*
X80901152Y-188239521D01*
X80960833Y-188047316D01*
X80963227Y-188036054D01*
X80982563Y-187872678D01*
X80983000Y-187865272D01*
X80983000Y-187622115D01*
X80978525Y-187606876D01*
X80977135Y-187605671D01*
X80969452Y-187604000D01*
X80097115Y-187604000D01*
X80081876Y-187608475D01*
X80080671Y-187609865D01*
X80079000Y-187617548D01*
X80079000Y-188913294D01*
X79570067Y-188913294D01*
X79571000Y-188910404D01*
X79571000Y-187622115D01*
X79566525Y-187606876D01*
X79565135Y-187605671D01*
X79557452Y-187604000D01*
X78685115Y-187604000D01*
X78669876Y-187608475D01*
X78668671Y-187609865D01*
X78667000Y-187617548D01*
X78667000Y-187851092D01*
X75650230Y-187851092D01*
X75662211Y-187822167D01*
X75662212Y-187822165D01*
X75664105Y-187817594D01*
X75696922Y-187680900D01*
X75718380Y-187591524D01*
X75718381Y-187591518D01*
X75719535Y-187586711D01*
X75738165Y-187350000D01*
X75719535Y-187113289D01*
X75715385Y-187096000D01*
X75711036Y-187077885D01*
X78667000Y-187077885D01*
X78671475Y-187093124D01*
X78672865Y-187094329D01*
X78680548Y-187096000D01*
X79552885Y-187096000D01*
X79568124Y-187091525D01*
X79569329Y-187090135D01*
X79571000Y-187082452D01*
X79571000Y-187077885D01*
X80079000Y-187077885D01*
X80083475Y-187093124D01*
X80084865Y-187094329D01*
X80092548Y-187096000D01*
X80964885Y-187096000D01*
X80980124Y-187091525D01*
X80981329Y-187090135D01*
X80983000Y-187082452D01*
X80983000Y-186848908D01*
X80982734Y-186843119D01*
X80969016Y-186693824D01*
X80966918Y-186682503D01*
X80912287Y-186488797D01*
X80908163Y-186478050D01*
X80819141Y-186297534D01*
X80813131Y-186287727D01*
X80692701Y-186126451D01*
X80685011Y-186117911D01*
X80537206Y-185981280D01*
X80528081Y-185974279D01*
X80357856Y-185866875D01*
X80347609Y-185861654D01*
X80160668Y-185787072D01*
X80149631Y-185783803D01*
X80096770Y-185773288D01*
X80083894Y-185774440D01*
X80079000Y-185789596D01*
X80079000Y-187077885D01*
X79571000Y-187077885D01*
X79571000Y-185786706D01*
X79567194Y-185773744D01*
X79552278Y-185771808D01*
X79529700Y-185775687D01*
X79518583Y-185778666D01*
X79329748Y-185848331D01*
X79319370Y-185853281D01*
X79146394Y-185956191D01*
X79137085Y-185962955D01*
X78985757Y-186095665D01*
X78977847Y-186104000D01*
X78853236Y-186262069D01*
X78846968Y-186271720D01*
X78753257Y-186449836D01*
X78748848Y-186460479D01*
X78689167Y-186652684D01*
X78686773Y-186663946D01*
X78667437Y-186827322D01*
X78667000Y-186834728D01*
X78667000Y-187077885D01*
X75711036Y-187077885D01*
X75673788Y-186922740D01*
X75664105Y-186882406D01*
X75647832Y-186843119D01*
X75575135Y-186667611D01*
X75575133Y-186667607D01*
X75573240Y-186663037D01*
X75509541Y-186559090D01*
X75451759Y-186464798D01*
X75451755Y-186464792D01*
X75449176Y-186460584D01*
X75294969Y-186280031D01*
X75114416Y-186125824D01*
X75110208Y-186123245D01*
X75110202Y-186123241D01*
X74916183Y-186004346D01*
X74911963Y-186001760D01*
X74907393Y-185999867D01*
X74907389Y-185999865D01*
X74697167Y-185912789D01*
X74697165Y-185912788D01*
X74692594Y-185910895D01*
X74612391Y-185891640D01*
X74466524Y-185856620D01*
X74466518Y-185856619D01*
X74461711Y-185855465D01*
X74225000Y-185836835D01*
X73988289Y-185855465D01*
X73983482Y-185856619D01*
X73983476Y-185856620D01*
X73837609Y-185891640D01*
X73757406Y-185910895D01*
X73752835Y-185912788D01*
X73752833Y-185912789D01*
X73542611Y-185999865D01*
X73542607Y-185999867D01*
X73538037Y-186001760D01*
X73533817Y-186004346D01*
X73339798Y-186123241D01*
X73339792Y-186123245D01*
X73335584Y-186125824D01*
X73155031Y-186280031D01*
X73000824Y-186460584D01*
X72998245Y-186464792D01*
X72998241Y-186464798D01*
X72940459Y-186559090D01*
X72876760Y-186663037D01*
X72874867Y-186667607D01*
X72874865Y-186667611D01*
X72802168Y-186843119D01*
X72785895Y-186882406D01*
X72776212Y-186922740D01*
X72734616Y-187096000D01*
X72730465Y-187113289D01*
X72711835Y-187350000D01*
X72730465Y-187586711D01*
X72731619Y-187591518D01*
X72731620Y-187591524D01*
X72784060Y-187809951D01*
X72780513Y-187880859D01*
X72750636Y-187928460D01*
X70449500Y-190229595D01*
X70387188Y-190263621D01*
X70360405Y-190266500D01*
X67419394Y-190266500D01*
X67351273Y-190246498D01*
X67316181Y-190212771D01*
X67209357Y-190060211D01*
X67209355Y-190060208D01*
X67206198Y-190055700D01*
X67044300Y-189893802D01*
X67039792Y-189890645D01*
X67039789Y-189890643D01*
X66861253Y-189765631D01*
X66856749Y-189762477D01*
X66851767Y-189760154D01*
X66849973Y-189759118D01*
X66800981Y-189707734D01*
X66787546Y-189638021D01*
X66813934Y-189572110D01*
X66849973Y-189540882D01*
X66851767Y-189539846D01*
X66856749Y-189537523D01*
X66985162Y-189447607D01*
X67039789Y-189409357D01*
X67039792Y-189409355D01*
X67044300Y-189406198D01*
X67206198Y-189244300D01*
X67215879Y-189230475D01*
X67313136Y-189091577D01*
X67337523Y-189056749D01*
X67339846Y-189051767D01*
X67339849Y-189051762D01*
X67431961Y-188854225D01*
X67431961Y-188854224D01*
X67434284Y-188849243D01*
X67440951Y-188824364D01*
X67492119Y-188633402D01*
X67492119Y-188633400D01*
X67493543Y-188628087D01*
X67494023Y-188622603D01*
X67494024Y-188622596D01*
X67496681Y-188592235D01*
X67522544Y-188526117D01*
X67580049Y-188484478D01*
X67650936Y-188480538D01*
X67712700Y-188515548D01*
X67723160Y-188527830D01*
X67757301Y-188573551D01*
X67764989Y-188582089D01*
X67912794Y-188718720D01*
X67921919Y-188725721D01*
X68092144Y-188833125D01*
X68102391Y-188838346D01*
X68289332Y-188912928D01*
X68300369Y-188916197D01*
X68353230Y-188926712D01*
X68366106Y-188925560D01*
X68370067Y-188913294D01*
X68879000Y-188913294D01*
X68882806Y-188926256D01*
X68897722Y-188928192D01*
X68920300Y-188924313D01*
X68931417Y-188921334D01*
X69120252Y-188851669D01*
X69130630Y-188846719D01*
X69303606Y-188743809D01*
X69312915Y-188737045D01*
X69464243Y-188604335D01*
X69472153Y-188596000D01*
X69596764Y-188437931D01*
X69603032Y-188428280D01*
X69696743Y-188250164D01*
X69701152Y-188239521D01*
X69760833Y-188047316D01*
X69763227Y-188036054D01*
X69782563Y-187872678D01*
X69783000Y-187865272D01*
X69783000Y-187622115D01*
X69778525Y-187606876D01*
X69777135Y-187605671D01*
X69769452Y-187604000D01*
X68897115Y-187604000D01*
X68881876Y-187608475D01*
X68880671Y-187609865D01*
X68879000Y-187617548D01*
X68879000Y-188913294D01*
X68370067Y-188913294D01*
X68371000Y-188910404D01*
X68371000Y-187622115D01*
X68366525Y-187606876D01*
X68365135Y-187605671D01*
X68357452Y-187604000D01*
X67485115Y-187604000D01*
X67469876Y-187608475D01*
X67450266Y-187631106D01*
X67390541Y-187669491D01*
X67319544Y-187669492D01*
X67259818Y-187631109D01*
X67251828Y-187620866D01*
X67209357Y-187560211D01*
X67209355Y-187560208D01*
X67206198Y-187555700D01*
X67044300Y-187393802D01*
X67039792Y-187390645D01*
X67039789Y-187390643D01*
X66954384Y-187330842D01*
X66856749Y-187262477D01*
X66851767Y-187260154D01*
X66851762Y-187260151D01*
X66654225Y-187168039D01*
X66654224Y-187168039D01*
X66649243Y-187165716D01*
X66643935Y-187164294D01*
X66643933Y-187164293D01*
X66433402Y-187107881D01*
X66433400Y-187107881D01*
X66428087Y-187106457D01*
X66200000Y-187086502D01*
X65971913Y-187106457D01*
X65966600Y-187107881D01*
X65966598Y-187107881D01*
X65756067Y-187164293D01*
X65756065Y-187164294D01*
X65750757Y-187165716D01*
X65745776Y-187168039D01*
X65745775Y-187168039D01*
X65548238Y-187260151D01*
X65548233Y-187260154D01*
X65543251Y-187262477D01*
X65445616Y-187330842D01*
X65360211Y-187390643D01*
X65360208Y-187390645D01*
X65355700Y-187393802D01*
X65193802Y-187555700D01*
X65190645Y-187560208D01*
X65190643Y-187560211D01*
X65153836Y-187612777D01*
X65062477Y-187743251D01*
X65060154Y-187748233D01*
X65060151Y-187748238D01*
X64968039Y-187945775D01*
X64965716Y-187950757D01*
X64964294Y-187956065D01*
X64964293Y-187956067D01*
X64930978Y-188080400D01*
X64906457Y-188171913D01*
X64886502Y-188400000D01*
X64906457Y-188628087D01*
X64907881Y-188633400D01*
X64907881Y-188633402D01*
X64959050Y-188824364D01*
X64965716Y-188849243D01*
X64968039Y-188854224D01*
X64968039Y-188854225D01*
X65060151Y-189051762D01*
X65060154Y-189051767D01*
X65062477Y-189056749D01*
X65086864Y-189091577D01*
X65184122Y-189230475D01*
X65193802Y-189244300D01*
X65355700Y-189406198D01*
X65360208Y-189409355D01*
X65360211Y-189409357D01*
X65414838Y-189447607D01*
X65543251Y-189537523D01*
X65548233Y-189539846D01*
X65550027Y-189540882D01*
X65599019Y-189592266D01*
X65612454Y-189661979D01*
X65586066Y-189727890D01*
X65550027Y-189759118D01*
X65548233Y-189760154D01*
X65543251Y-189762477D01*
X65538747Y-189765631D01*
X65360211Y-189890643D01*
X65360208Y-189890645D01*
X65355700Y-189893802D01*
X65193802Y-190055700D01*
X65190645Y-190060208D01*
X65190643Y-190060211D01*
X65143555Y-190127460D01*
X65062477Y-190243251D01*
X65060154Y-190248233D01*
X65060151Y-190248238D01*
X64986242Y-190406738D01*
X64965716Y-190450757D01*
X64964294Y-190456065D01*
X64964293Y-190456067D01*
X64912766Y-190648367D01*
X64906457Y-190671913D01*
X64886502Y-190900000D01*
X61258011Y-190900000D01*
X61258011Y-187094011D01*
X61278013Y-187025890D01*
X61331669Y-186979397D01*
X61384011Y-186968011D01*
X62596578Y-186968011D01*
X62607761Y-186968538D01*
X62615254Y-186970213D01*
X62623180Y-186969964D01*
X62623181Y-186969964D01*
X62683331Y-186968073D01*
X62687290Y-186968011D01*
X62715201Y-186968011D01*
X62719136Y-186967514D01*
X62719201Y-186967506D01*
X62731038Y-186966573D01*
X62763296Y-186965559D01*
X62767315Y-186965433D01*
X62775234Y-186965184D01*
X62794688Y-186959532D01*
X62814045Y-186955524D01*
X62826275Y-186953979D01*
X62826276Y-186953979D01*
X62834142Y-186952985D01*
X62841513Y-186950066D01*
X62841515Y-186950066D01*
X62875257Y-186936707D01*
X62886487Y-186932862D01*
X62921328Y-186922740D01*
X62921329Y-186922740D01*
X62928938Y-186920529D01*
X62935757Y-186916496D01*
X62935762Y-186916494D01*
X62946373Y-186910218D01*
X62964121Y-186901523D01*
X62982962Y-186894063D01*
X62992384Y-186887218D01*
X63018732Y-186868075D01*
X63028652Y-186861559D01*
X63059880Y-186843091D01*
X63059883Y-186843089D01*
X63066707Y-186839053D01*
X63081028Y-186824732D01*
X63096062Y-186811891D01*
X63106038Y-186804643D01*
X63112452Y-186799983D01*
X63140633Y-186765918D01*
X63148623Y-186757137D01*
X63531834Y-186373927D01*
X63594146Y-186339902D01*
X63664962Y-186344967D01*
X63684002Y-186354972D01*
X63684420Y-186354248D01*
X63698677Y-186362479D01*
X63880280Y-186447161D01*
X63889929Y-186450673D01*
X63947099Y-186492768D01*
X63972436Y-186559090D01*
X63957894Y-186628581D01*
X63935929Y-186658167D01*
X63631122Y-186962973D01*
X63331537Y-187262558D01*
X63269225Y-187296583D01*
X63220559Y-187297547D01*
X63215965Y-187296737D01*
X63210655Y-187295314D01*
X63205182Y-187294835D01*
X63205181Y-187294835D01*
X63005475Y-187277363D01*
X63000000Y-187276884D01*
X62789345Y-187295314D01*
X62784032Y-187296738D01*
X62784030Y-187296738D01*
X62590400Y-187348621D01*
X62590398Y-187348622D01*
X62585090Y-187350044D01*
X62580109Y-187352366D01*
X62580108Y-187352367D01*
X62398423Y-187437088D01*
X62398420Y-187437090D01*
X62393442Y-187439411D01*
X62220224Y-187560699D01*
X62070699Y-187710224D01*
X61949411Y-187883442D01*
X61947090Y-187888420D01*
X61947088Y-187888423D01*
X61862367Y-188070108D01*
X61860044Y-188075090D01*
X61858622Y-188080398D01*
X61858621Y-188080400D01*
X61822383Y-188215643D01*
X61805314Y-188279345D01*
X61786884Y-188490000D01*
X61805314Y-188700655D01*
X61806738Y-188705968D01*
X61806738Y-188705970D01*
X61851223Y-188871988D01*
X61860044Y-188904910D01*
X61862366Y-188909891D01*
X61862367Y-188909892D01*
X61941515Y-189079624D01*
X61949411Y-189096558D01*
X62070699Y-189269776D01*
X62220224Y-189419301D01*
X62393442Y-189540589D01*
X62398420Y-189542910D01*
X62398423Y-189542912D01*
X62552603Y-189614807D01*
X62585090Y-189629956D01*
X62590398Y-189631378D01*
X62590400Y-189631379D01*
X62784030Y-189683262D01*
X62784032Y-189683262D01*
X62789345Y-189684686D01*
X63000000Y-189703116D01*
X63210655Y-189684686D01*
X63215968Y-189683262D01*
X63215970Y-189683262D01*
X63409600Y-189631379D01*
X63409602Y-189631378D01*
X63414910Y-189629956D01*
X63447397Y-189614807D01*
X63601577Y-189542912D01*
X63601580Y-189542910D01*
X63606558Y-189540589D01*
X63779776Y-189419301D01*
X63929301Y-189269776D01*
X64050589Y-189096558D01*
X64058486Y-189079624D01*
X64137633Y-188909892D01*
X64137634Y-188909891D01*
X64139956Y-188904910D01*
X64148778Y-188871988D01*
X64193262Y-188705970D01*
X64193262Y-188705968D01*
X64194686Y-188700655D01*
X64213116Y-188490000D01*
X64206989Y-188419969D01*
X64195165Y-188284816D01*
X64195164Y-188284812D01*
X64194686Y-188279345D01*
X64193264Y-188274039D01*
X64192453Y-188269439D01*
X64200321Y-188198879D01*
X64227443Y-188158462D01*
X65790020Y-186595885D01*
X65852332Y-186561859D01*
X65879115Y-186558980D01*
X67357404Y-186558980D01*
X67425525Y-186578982D01*
X67472018Y-186632638D01*
X67482531Y-186699790D01*
X67467436Y-186827324D01*
X67467000Y-186834728D01*
X67467000Y-187077885D01*
X67471475Y-187093124D01*
X67472865Y-187094329D01*
X67480548Y-187096000D01*
X69764885Y-187096000D01*
X69780124Y-187091525D01*
X69781329Y-187090135D01*
X69783000Y-187082452D01*
X69783000Y-186848908D01*
X69782734Y-186843119D01*
X69769016Y-186693824D01*
X69766920Y-186682513D01*
X69756357Y-186645060D01*
X69757118Y-186574067D01*
X69796140Y-186514756D01*
X69813467Y-186502418D01*
X69815529Y-186501198D01*
X69833296Y-186492492D01*
X69852137Y-186485032D01*
X69887907Y-186459044D01*
X69897827Y-186452528D01*
X69929055Y-186434060D01*
X69929058Y-186434058D01*
X69935882Y-186430022D01*
X69950203Y-186415701D01*
X69965237Y-186402860D01*
X69975214Y-186395611D01*
X69981627Y-186390952D01*
X70009818Y-186356875D01*
X70017808Y-186348096D01*
X72722071Y-183643833D01*
X72784383Y-183609807D01*
X72843776Y-183611221D01*
X72849484Y-183612750D01*
X72855858Y-183614458D01*
X73070000Y-183633193D01*
X73284142Y-183614458D01*
X73289455Y-183613034D01*
X73289457Y-183613034D01*
X73486467Y-183560245D01*
X73486469Y-183560244D01*
X73491777Y-183558822D01*
X73512240Y-183549280D01*
X73681616Y-183470299D01*
X73681619Y-183470297D01*
X73686597Y-183467976D01*
X73862681Y-183344681D01*
X74014681Y-183192681D01*
X74137976Y-183016596D01*
X74141155Y-183009780D01*
X74225805Y-182828247D01*
X74272723Y-182774962D01*
X74341000Y-182755501D01*
X74408960Y-182776043D01*
X74454195Y-182828247D01*
X74538846Y-183009780D01*
X74542024Y-183016596D01*
X74665319Y-183192681D01*
X74817319Y-183344681D01*
X74993403Y-183467976D01*
X74998381Y-183470297D01*
X74998384Y-183470299D01*
X75167760Y-183549280D01*
X75188223Y-183558822D01*
X75193531Y-183560244D01*
X75193533Y-183560245D01*
X75390543Y-183613034D01*
X75390545Y-183613034D01*
X75395858Y-183614458D01*
X75610000Y-183633193D01*
X75824142Y-183614458D01*
X75829455Y-183613034D01*
X75829457Y-183613034D01*
X76026467Y-183560245D01*
X76026469Y-183560244D01*
X76031777Y-183558822D01*
X76052240Y-183549280D01*
X76221616Y-183470299D01*
X76221619Y-183470297D01*
X76226597Y-183467976D01*
X76402681Y-183344681D01*
X76554681Y-183192681D01*
X76628518Y-183087230D01*
X76683975Y-183042901D01*
X76731731Y-183033500D01*
X77028269Y-183033500D01*
X77096390Y-183053502D01*
X77131482Y-183087230D01*
X77205319Y-183192681D01*
X77357319Y-183344681D01*
X77533403Y-183467976D01*
X77538381Y-183470297D01*
X77538384Y-183470299D01*
X77707760Y-183549280D01*
X77728223Y-183558822D01*
X77733531Y-183560244D01*
X77733533Y-183560245D01*
X77930543Y-183613034D01*
X77930545Y-183613034D01*
X77935858Y-183614458D01*
X78150000Y-183633193D01*
X78364142Y-183614458D01*
X78369455Y-183613034D01*
X78369457Y-183613034D01*
X78566467Y-183560245D01*
X78566469Y-183560244D01*
X78571777Y-183558822D01*
X78592240Y-183549280D01*
X78761616Y-183470299D01*
X78761619Y-183470297D01*
X78766597Y-183467976D01*
X78942681Y-183344681D01*
X79094681Y-183192681D01*
X79217976Y-183016596D01*
X79221155Y-183009780D01*
X79306499Y-182826759D01*
X79306500Y-182826757D01*
X79308822Y-182821777D01*
X79313039Y-182806041D01*
X79363034Y-182619457D01*
X79363034Y-182619455D01*
X79364458Y-182614142D01*
X79383193Y-182400000D01*
X79364458Y-182185858D01*
X79360029Y-182169327D01*
X79310245Y-181983533D01*
X79310244Y-181983531D01*
X79308822Y-181978223D01*
X79306499Y-181973241D01*
X79220299Y-181788385D01*
X79220297Y-181788382D01*
X79217976Y-181783404D01*
X79094681Y-181607319D01*
X78942681Y-181455319D01*
X78766597Y-181332024D01*
X78761619Y-181329703D01*
X78761616Y-181329701D01*
X78576759Y-181243501D01*
X78576758Y-181243500D01*
X78571777Y-181241178D01*
X78566469Y-181239756D01*
X78566467Y-181239755D01*
X78369457Y-181186966D01*
X78369455Y-181186966D01*
X78364142Y-181185542D01*
X78150000Y-181166807D01*
X77935858Y-181185542D01*
X77930545Y-181186966D01*
X77930543Y-181186966D01*
X77733533Y-181239755D01*
X77733531Y-181239756D01*
X77728223Y-181241178D01*
X77723243Y-181243500D01*
X77723241Y-181243501D01*
X77538385Y-181329701D01*
X77538382Y-181329703D01*
X77533404Y-181332024D01*
X77357319Y-181455319D01*
X77205319Y-181607319D01*
X77164182Y-181666069D01*
X77131482Y-181712770D01*
X77076025Y-181757099D01*
X77028269Y-181766500D01*
X76731731Y-181766500D01*
X76663610Y-181746498D01*
X76628518Y-181712770D01*
X76595818Y-181666069D01*
X76554681Y-181607319D01*
X76402681Y-181455319D01*
X76226597Y-181332024D01*
X76221619Y-181329703D01*
X76221616Y-181329701D01*
X76036759Y-181243501D01*
X76036758Y-181243500D01*
X76031777Y-181241178D01*
X76026469Y-181239756D01*
X76026467Y-181239755D01*
X75829457Y-181186966D01*
X75829455Y-181186966D01*
X75824142Y-181185542D01*
X75610000Y-181166807D01*
X75395858Y-181185542D01*
X75388465Y-181187523D01*
X75383773Y-181188780D01*
X75312797Y-181187087D01*
X75262072Y-181156167D01*
X75069141Y-180963236D01*
X75061601Y-180954950D01*
X75057489Y-180948471D01*
X75045486Y-180937199D01*
X75007838Y-180901846D01*
X75004996Y-180899091D01*
X74985259Y-180879354D01*
X74982062Y-180876874D01*
X74973040Y-180869169D01*
X74958209Y-180855242D01*
X74940810Y-180838903D01*
X74933864Y-180835084D01*
X74933861Y-180835082D01*
X74923055Y-180829141D01*
X74906536Y-180818290D01*
X74906072Y-180817930D01*
X74890530Y-180805875D01*
X74883261Y-180802730D01*
X74883257Y-180802727D01*
X74849952Y-180788315D01*
X74839302Y-180783098D01*
X74800549Y-180761794D01*
X74780926Y-180756756D01*
X74762223Y-180750352D01*
X74750909Y-180745456D01*
X74750908Y-180745456D01*
X74743634Y-180742308D01*
X74735811Y-180741069D01*
X74735801Y-180741066D01*
X74699965Y-180735390D01*
X74688345Y-180732984D01*
X74653200Y-180723961D01*
X74653199Y-180723961D01*
X74645519Y-180721989D01*
X74625265Y-180721989D01*
X74605554Y-180720438D01*
X74593375Y-180718509D01*
X74585546Y-180717269D01*
X74577654Y-180718015D01*
X74541528Y-180721430D01*
X74529670Y-180721989D01*
X71810383Y-180721989D01*
X71742262Y-180701987D01*
X71721288Y-180685084D01*
X70940993Y-179904789D01*
X70578727Y-179542522D01*
X70544702Y-179480212D01*
X70549767Y-179409397D01*
X70592314Y-179352561D01*
X70658834Y-179327750D01*
X70728208Y-179342841D01*
X70740088Y-179350212D01*
X70883442Y-179450589D01*
X70888420Y-179452910D01*
X70888423Y-179452912D01*
X71008561Y-179508933D01*
X71075090Y-179539956D01*
X71080398Y-179541378D01*
X71080400Y-179541379D01*
X71274030Y-179593262D01*
X71274032Y-179593262D01*
X71279345Y-179594686D01*
X71490000Y-179613116D01*
X71700655Y-179594686D01*
X71705968Y-179593262D01*
X71705970Y-179593262D01*
X71899600Y-179541379D01*
X71899602Y-179541378D01*
X71904910Y-179539956D01*
X71971439Y-179508933D01*
X72091577Y-179452912D01*
X72091580Y-179452910D01*
X72096558Y-179450589D01*
X72269776Y-179329301D01*
X72419301Y-179179776D01*
X72540589Y-179006558D01*
X72585545Y-178910151D01*
X72627633Y-178819892D01*
X72627634Y-178819891D01*
X72629956Y-178814910D01*
X72645619Y-178756457D01*
X72683262Y-178615970D01*
X72683262Y-178615968D01*
X72684686Y-178610655D01*
X72703116Y-178400000D01*
X72684686Y-178189345D01*
X72655572Y-178080690D01*
X72631379Y-177990400D01*
X72631378Y-177990398D01*
X72629956Y-177985090D01*
X72540589Y-177793442D01*
X72419301Y-177620224D01*
X72269776Y-177470699D01*
X72096558Y-177349411D01*
X72091580Y-177347090D01*
X72091577Y-177347088D01*
X71909892Y-177262367D01*
X71909891Y-177262366D01*
X71904910Y-177260044D01*
X71899602Y-177258622D01*
X71899600Y-177258621D01*
X71705970Y-177206738D01*
X71705968Y-177206738D01*
X71700655Y-177205314D01*
X71490000Y-177186884D01*
X71279345Y-177205314D01*
X71274032Y-177206738D01*
X71274030Y-177206738D01*
X71080400Y-177258621D01*
X71080398Y-177258622D01*
X71075090Y-177260044D01*
X71070109Y-177262366D01*
X71070108Y-177262367D01*
X70888423Y-177347088D01*
X70888420Y-177347090D01*
X70883442Y-177349411D01*
X70710224Y-177470699D01*
X70560699Y-177620224D01*
X70518280Y-177680805D01*
X70495898Y-177712770D01*
X70440441Y-177757099D01*
X70392685Y-177766500D01*
X65635267Y-177766500D01*
X65567146Y-177746498D01*
X65520653Y-177692842D01*
X65509746Y-177651482D01*
X65507011Y-177620224D01*
X65494686Y-177479345D01*
X65491523Y-177467540D01*
X65441379Y-177280400D01*
X65441378Y-177280398D01*
X65439956Y-177275090D01*
X65432940Y-177260044D01*
X65352912Y-177088423D01*
X65352910Y-177088420D01*
X65350589Y-177083442D01*
X65229301Y-176910224D01*
X65079776Y-176760699D01*
X65063342Y-176749192D01*
X65019014Y-176693735D01*
X65011706Y-176623116D01*
X65043737Y-176559756D01*
X65104939Y-176523771D01*
X65124633Y-176520459D01*
X65305091Y-176504671D01*
X65315878Y-176502769D01*
X65509429Y-176450907D01*
X65519723Y-176447159D01*
X65701323Y-176362479D01*
X65710811Y-176357001D01*
X65741248Y-176335689D01*
X65749623Y-176325212D01*
X65742554Y-176311764D01*
X65112812Y-175682022D01*
X65098868Y-175674408D01*
X65097035Y-175674539D01*
X65090420Y-175678790D01*
X64456724Y-176312486D01*
X64449109Y-176326431D01*
X64450335Y-176343571D01*
X64435243Y-176412945D01*
X64385041Y-176463147D01*
X64313677Y-176478080D01*
X64305479Y-176477363D01*
X64305475Y-176477363D01*
X64300000Y-176476884D01*
X64294525Y-176477363D01*
X64094816Y-176494835D01*
X64094812Y-176494836D01*
X64089345Y-176495314D01*
X64084039Y-176496736D01*
X64079439Y-176497547D01*
X64008879Y-176489679D01*
X63968462Y-176462557D01*
X62865293Y-175359388D01*
X62841314Y-175315475D01*
X63887865Y-175315475D01*
X63905329Y-175515091D01*
X63907231Y-175525878D01*
X63959093Y-175719429D01*
X63962841Y-175729723D01*
X64047521Y-175911323D01*
X64052999Y-175920811D01*
X64074311Y-175951248D01*
X64084788Y-175959623D01*
X64098236Y-175952554D01*
X64727978Y-175322812D01*
X64734356Y-175311132D01*
X65464408Y-175311132D01*
X65464539Y-175312965D01*
X65468790Y-175319580D01*
X66102486Y-175953276D01*
X66114261Y-175959706D01*
X66126276Y-175950410D01*
X66147001Y-175920811D01*
X66152479Y-175911323D01*
X66227195Y-175751092D01*
X67417000Y-175751092D01*
X67417266Y-175756881D01*
X67430984Y-175906176D01*
X67433082Y-175917497D01*
X67487713Y-176111203D01*
X67491837Y-176121950D01*
X67580859Y-176302466D01*
X67586869Y-176312273D01*
X67707299Y-176473549D01*
X67714989Y-176482089D01*
X67862794Y-176618720D01*
X67871919Y-176625721D01*
X68042144Y-176733125D01*
X68052391Y-176738346D01*
X68239332Y-176812928D01*
X68250369Y-176816197D01*
X68303230Y-176826712D01*
X68316106Y-176825560D01*
X68320067Y-176813294D01*
X68829000Y-176813294D01*
X68832806Y-176826256D01*
X68847722Y-176828192D01*
X68870300Y-176824313D01*
X68881417Y-176821334D01*
X69070252Y-176751669D01*
X69080630Y-176746719D01*
X69253606Y-176643809D01*
X69262915Y-176637045D01*
X69414243Y-176504335D01*
X69422153Y-176496000D01*
X69546764Y-176337931D01*
X69553032Y-176328280D01*
X69646743Y-176150164D01*
X69651152Y-176139521D01*
X69710833Y-175947316D01*
X69713227Y-175936054D01*
X69732563Y-175772678D01*
X69733000Y-175765272D01*
X69733000Y-175522115D01*
X69728525Y-175506876D01*
X69727135Y-175505671D01*
X69719452Y-175504000D01*
X68847115Y-175504000D01*
X68831876Y-175508475D01*
X68830671Y-175509865D01*
X68829000Y-175517548D01*
X68829000Y-176813294D01*
X68320067Y-176813294D01*
X68321000Y-176810404D01*
X68321000Y-175522115D01*
X68316525Y-175506876D01*
X68315135Y-175505671D01*
X68307452Y-175504000D01*
X67435115Y-175504000D01*
X67419876Y-175508475D01*
X67418671Y-175509865D01*
X67417000Y-175517548D01*
X67417000Y-175751092D01*
X66227195Y-175751092D01*
X66237159Y-175729723D01*
X66240907Y-175719429D01*
X66292769Y-175525878D01*
X66294671Y-175515091D01*
X66312135Y-175315475D01*
X66312135Y-175304525D01*
X66307365Y-175250000D01*
X72661835Y-175250000D01*
X72680465Y-175486711D01*
X72681619Y-175491518D01*
X72681620Y-175491524D01*
X72705952Y-175592874D01*
X72735895Y-175717594D01*
X72737788Y-175722165D01*
X72737789Y-175722167D01*
X72820070Y-175920811D01*
X72826760Y-175936963D01*
X72829346Y-175941183D01*
X72948241Y-176135202D01*
X72948245Y-176135208D01*
X72950824Y-176139416D01*
X73105031Y-176319969D01*
X73285584Y-176474176D01*
X73289792Y-176476755D01*
X73289798Y-176476759D01*
X73413179Y-176552367D01*
X73488037Y-176598240D01*
X73492607Y-176600133D01*
X73492611Y-176600135D01*
X73702833Y-176687211D01*
X73707406Y-176689105D01*
X73787609Y-176708360D01*
X73933476Y-176743380D01*
X73933482Y-176743381D01*
X73938289Y-176744535D01*
X74175000Y-176763165D01*
X74411711Y-176744535D01*
X74416518Y-176743381D01*
X74416524Y-176743380D01*
X74562391Y-176708360D01*
X74642594Y-176689105D01*
X74647167Y-176687211D01*
X74857389Y-176600135D01*
X74857393Y-176600133D01*
X74861963Y-176598240D01*
X74936821Y-176552367D01*
X75060202Y-176476759D01*
X75060208Y-176476755D01*
X75064416Y-176474176D01*
X75244969Y-176319969D01*
X75399176Y-176139416D01*
X75401755Y-176135208D01*
X75401759Y-176135202D01*
X75519133Y-175943665D01*
X75571781Y-175896034D01*
X75626566Y-175883500D01*
X75645406Y-175883500D01*
X75713527Y-175903502D01*
X75734501Y-175920405D01*
X77882557Y-178068462D01*
X77916583Y-178130774D01*
X77917547Y-178179439D01*
X77916736Y-178184039D01*
X77915314Y-178189345D01*
X77914836Y-178194812D01*
X77914835Y-178194816D01*
X77912176Y-178225211D01*
X77896884Y-178400000D01*
X77915314Y-178610655D01*
X77916738Y-178615968D01*
X77916738Y-178615970D01*
X77954382Y-178756457D01*
X77970044Y-178814910D01*
X77972366Y-178819891D01*
X77972367Y-178819892D01*
X78014456Y-178910151D01*
X78059411Y-179006558D01*
X78180699Y-179179776D01*
X78330224Y-179329301D01*
X78503442Y-179450589D01*
X78508420Y-179452910D01*
X78508423Y-179452912D01*
X78628561Y-179508933D01*
X78695090Y-179539956D01*
X78700398Y-179541378D01*
X78700400Y-179541379D01*
X78894030Y-179593262D01*
X78894032Y-179593262D01*
X78899345Y-179594686D01*
X79110000Y-179613116D01*
X79320655Y-179594686D01*
X79325968Y-179593262D01*
X79325970Y-179593262D01*
X79519600Y-179541379D01*
X79519602Y-179541378D01*
X79524910Y-179539956D01*
X79591439Y-179508933D01*
X79711577Y-179452912D01*
X79711580Y-179452910D01*
X79716558Y-179450589D01*
X79889776Y-179329301D01*
X80039301Y-179179776D01*
X80160589Y-179006558D01*
X80205545Y-178910151D01*
X80247633Y-178819892D01*
X80247634Y-178819891D01*
X80249956Y-178814910D01*
X80265619Y-178756457D01*
X80303262Y-178615970D01*
X80303262Y-178615968D01*
X80304686Y-178610655D01*
X80323116Y-178400000D01*
X80304686Y-178189345D01*
X80275572Y-178080690D01*
X80251379Y-177990400D01*
X80251378Y-177990398D01*
X80249956Y-177985090D01*
X80160589Y-177793442D01*
X80039301Y-177620224D01*
X79889776Y-177470699D01*
X79716558Y-177349411D01*
X79711580Y-177347090D01*
X79711577Y-177347088D01*
X79529892Y-177262367D01*
X79529891Y-177262366D01*
X79524910Y-177260044D01*
X79519602Y-177258622D01*
X79519600Y-177258621D01*
X79325970Y-177206738D01*
X79325968Y-177206738D01*
X79320655Y-177205314D01*
X79110000Y-177186884D01*
X79104525Y-177187363D01*
X78904816Y-177204835D01*
X78904812Y-177204836D01*
X78899345Y-177205314D01*
X78894039Y-177206736D01*
X78889439Y-177207547D01*
X78818879Y-177199679D01*
X78778462Y-177172557D01*
X77356997Y-175751092D01*
X78617000Y-175751092D01*
X78617266Y-175756881D01*
X78630984Y-175906176D01*
X78633082Y-175917497D01*
X78687713Y-176111203D01*
X78691837Y-176121950D01*
X78780859Y-176302466D01*
X78786869Y-176312273D01*
X78907299Y-176473549D01*
X78914989Y-176482089D01*
X79062794Y-176618720D01*
X79071919Y-176625721D01*
X79242144Y-176733125D01*
X79252391Y-176738346D01*
X79439332Y-176812928D01*
X79450369Y-176816197D01*
X79503230Y-176826712D01*
X79516106Y-176825560D01*
X79520067Y-176813294D01*
X80029000Y-176813294D01*
X80032806Y-176826256D01*
X80047722Y-176828192D01*
X80070300Y-176824313D01*
X80081417Y-176821334D01*
X80270252Y-176751669D01*
X80280630Y-176746719D01*
X80453606Y-176643809D01*
X80462915Y-176637045D01*
X80614243Y-176504335D01*
X80622153Y-176496000D01*
X80746764Y-176337931D01*
X80753032Y-176328280D01*
X80846743Y-176150164D01*
X80851152Y-176139521D01*
X80910833Y-175947316D01*
X80913227Y-175936054D01*
X80932563Y-175772678D01*
X80933000Y-175765272D01*
X80933000Y-175522115D01*
X80928525Y-175506876D01*
X80927135Y-175505671D01*
X80919452Y-175504000D01*
X80047115Y-175504000D01*
X80031876Y-175508475D01*
X80030671Y-175509865D01*
X80029000Y-175517548D01*
X80029000Y-176813294D01*
X79520067Y-176813294D01*
X79521000Y-176810404D01*
X79521000Y-175522115D01*
X79516525Y-175506876D01*
X79515135Y-175505671D01*
X79507452Y-175504000D01*
X78635115Y-175504000D01*
X78619876Y-175508475D01*
X78618671Y-175509865D01*
X78617000Y-175517548D01*
X78617000Y-175751092D01*
X77356997Y-175751092D01*
X76583790Y-174977885D01*
X78617000Y-174977885D01*
X78621475Y-174993124D01*
X78622865Y-174994329D01*
X78630548Y-174996000D01*
X79502885Y-174996000D01*
X79518124Y-174991525D01*
X79519329Y-174990135D01*
X79521000Y-174982452D01*
X79521000Y-174977885D01*
X80029000Y-174977885D01*
X80033475Y-174993124D01*
X80034865Y-174994329D01*
X80042548Y-174996000D01*
X80914885Y-174996000D01*
X80930124Y-174991525D01*
X80931329Y-174990135D01*
X80933000Y-174982452D01*
X80933000Y-174748908D01*
X80932734Y-174743119D01*
X80919016Y-174593824D01*
X80916918Y-174582503D01*
X80862287Y-174388797D01*
X80858163Y-174378050D01*
X80769141Y-174197534D01*
X80763131Y-174187727D01*
X80642701Y-174026451D01*
X80635011Y-174017911D01*
X80487206Y-173881280D01*
X80478081Y-173874279D01*
X80307856Y-173766875D01*
X80297609Y-173761654D01*
X80110668Y-173687072D01*
X80099631Y-173683803D01*
X80046770Y-173673288D01*
X80033894Y-173674440D01*
X80029000Y-173689596D01*
X80029000Y-174977885D01*
X79521000Y-174977885D01*
X79521000Y-173686706D01*
X79517194Y-173673744D01*
X79502278Y-173671808D01*
X79479700Y-173675687D01*
X79468583Y-173678666D01*
X79279748Y-173748331D01*
X79269370Y-173753281D01*
X79096394Y-173856191D01*
X79087085Y-173862955D01*
X78935757Y-173995665D01*
X78927847Y-174004000D01*
X78803236Y-174162069D01*
X78796968Y-174171720D01*
X78703257Y-174349836D01*
X78698848Y-174360479D01*
X78639167Y-174552684D01*
X78636773Y-174563946D01*
X78617437Y-174727322D01*
X78617000Y-174734728D01*
X78617000Y-174977885D01*
X76583790Y-174977885D01*
X76463652Y-174857747D01*
X76456112Y-174849461D01*
X76452000Y-174842982D01*
X76402348Y-174796356D01*
X76399507Y-174793602D01*
X76379770Y-174773865D01*
X76376573Y-174771385D01*
X76367551Y-174763680D01*
X76357127Y-174753891D01*
X76335321Y-174733414D01*
X76328375Y-174729595D01*
X76328372Y-174729593D01*
X76317566Y-174723652D01*
X76301047Y-174712801D01*
X76292534Y-174706198D01*
X76285041Y-174700386D01*
X76277772Y-174697241D01*
X76277768Y-174697238D01*
X76244463Y-174682826D01*
X76233813Y-174677609D01*
X76195060Y-174656305D01*
X76175437Y-174651267D01*
X76156734Y-174644863D01*
X76145420Y-174639967D01*
X76145419Y-174639967D01*
X76138145Y-174636819D01*
X76130322Y-174635580D01*
X76130312Y-174635577D01*
X76094476Y-174629901D01*
X76082856Y-174627495D01*
X76047711Y-174618472D01*
X76047710Y-174618472D01*
X76040030Y-174616500D01*
X76019776Y-174616500D01*
X76000065Y-174614949D01*
X75987886Y-174613020D01*
X75980057Y-174611780D01*
X75972165Y-174612526D01*
X75936039Y-174615941D01*
X75924181Y-174616500D01*
X75626566Y-174616500D01*
X75558445Y-174596498D01*
X75519133Y-174556335D01*
X75401759Y-174364798D01*
X75401755Y-174364792D01*
X75399176Y-174360584D01*
X75244969Y-174180031D01*
X75064416Y-174025824D01*
X75060208Y-174023245D01*
X75060202Y-174023241D01*
X74866183Y-173904346D01*
X74861963Y-173901760D01*
X74857393Y-173899867D01*
X74857389Y-173899865D01*
X74647167Y-173812789D01*
X74647165Y-173812788D01*
X74642594Y-173810895D01*
X74515594Y-173780405D01*
X74416524Y-173756620D01*
X74416518Y-173756619D01*
X74411711Y-173755465D01*
X74175000Y-173736835D01*
X73938289Y-173755465D01*
X73933482Y-173756619D01*
X73933476Y-173756620D01*
X73834406Y-173780405D01*
X73707406Y-173810895D01*
X73702835Y-173812788D01*
X73702833Y-173812789D01*
X73492611Y-173899865D01*
X73492607Y-173899867D01*
X73488037Y-173901760D01*
X73483817Y-173904346D01*
X73289798Y-174023241D01*
X73289792Y-174023245D01*
X73285584Y-174025824D01*
X73105031Y-174180031D01*
X72950824Y-174360584D01*
X72948245Y-174364792D01*
X72948241Y-174364798D01*
X72829346Y-174558817D01*
X72826760Y-174563037D01*
X72824867Y-174567607D01*
X72824865Y-174567611D01*
X72741968Y-174767745D01*
X72735895Y-174782406D01*
X72721352Y-174842982D01*
X72683032Y-175002598D01*
X72680465Y-175013289D01*
X72661835Y-175250000D01*
X66307365Y-175250000D01*
X66294671Y-175104909D01*
X66292769Y-175094122D01*
X66261623Y-174977885D01*
X67417000Y-174977885D01*
X67421475Y-174993124D01*
X67422865Y-174994329D01*
X67430548Y-174996000D01*
X68302885Y-174996000D01*
X68318124Y-174991525D01*
X68319329Y-174990135D01*
X68321000Y-174982452D01*
X68321000Y-174977885D01*
X68829000Y-174977885D01*
X68833475Y-174993124D01*
X68834865Y-174994329D01*
X68842548Y-174996000D01*
X69714885Y-174996000D01*
X69730124Y-174991525D01*
X69731329Y-174990135D01*
X69733000Y-174982452D01*
X69733000Y-174748908D01*
X69732734Y-174743119D01*
X69719016Y-174593824D01*
X69716918Y-174582503D01*
X69662287Y-174388797D01*
X69658163Y-174378050D01*
X69569141Y-174197534D01*
X69563131Y-174187727D01*
X69442701Y-174026451D01*
X69435011Y-174017911D01*
X69287206Y-173881280D01*
X69278081Y-173874279D01*
X69107856Y-173766875D01*
X69097609Y-173761654D01*
X68910668Y-173687072D01*
X68899631Y-173683803D01*
X68846770Y-173673288D01*
X68833894Y-173674440D01*
X68829000Y-173689596D01*
X68829000Y-174977885D01*
X68321000Y-174977885D01*
X68321000Y-173686706D01*
X68317194Y-173673744D01*
X68302278Y-173671808D01*
X68279700Y-173675687D01*
X68268583Y-173678666D01*
X68079748Y-173748331D01*
X68069370Y-173753281D01*
X67896394Y-173856191D01*
X67887085Y-173862955D01*
X67735757Y-173995665D01*
X67727847Y-174004000D01*
X67603236Y-174162069D01*
X67596968Y-174171720D01*
X67503257Y-174349836D01*
X67498848Y-174360479D01*
X67439167Y-174552684D01*
X67436773Y-174563946D01*
X67417437Y-174727322D01*
X67417000Y-174734728D01*
X67417000Y-174977885D01*
X66261623Y-174977885D01*
X66240907Y-174900571D01*
X66237159Y-174890277D01*
X66152479Y-174708677D01*
X66147001Y-174699189D01*
X66125689Y-174668752D01*
X66115212Y-174660377D01*
X66101764Y-174667446D01*
X65472022Y-175297188D01*
X65464408Y-175311132D01*
X64734356Y-175311132D01*
X64735592Y-175308868D01*
X64735461Y-175307035D01*
X64731210Y-175300420D01*
X64097514Y-174666724D01*
X64085739Y-174660294D01*
X64073724Y-174669590D01*
X64052999Y-174699189D01*
X64047521Y-174708677D01*
X63962841Y-174890277D01*
X63959093Y-174900571D01*
X63907231Y-175094122D01*
X63905329Y-175104909D01*
X63887865Y-175304525D01*
X63887865Y-175315475D01*
X62841314Y-175315475D01*
X62831267Y-175297076D01*
X62828388Y-175270293D01*
X62828388Y-174919394D01*
X62848390Y-174851273D01*
X62882117Y-174816181D01*
X63034677Y-174709357D01*
X63034680Y-174709355D01*
X63039188Y-174706198D01*
X63201086Y-174544300D01*
X63209413Y-174532409D01*
X63258986Y-174461611D01*
X63332411Y-174356749D01*
X63334734Y-174351767D01*
X63334737Y-174351762D01*
X63361304Y-174294788D01*
X64450377Y-174294788D01*
X64457446Y-174308236D01*
X65087188Y-174937978D01*
X65101132Y-174945592D01*
X65102965Y-174945461D01*
X65109580Y-174941210D01*
X65743276Y-174307514D01*
X65749706Y-174295739D01*
X65740410Y-174283724D01*
X65710811Y-174262999D01*
X65701323Y-174257521D01*
X65519723Y-174172841D01*
X65509429Y-174169093D01*
X65315878Y-174117231D01*
X65305091Y-174115329D01*
X65105475Y-174097865D01*
X65094525Y-174097865D01*
X64894909Y-174115329D01*
X64884122Y-174117231D01*
X64690571Y-174169093D01*
X64680277Y-174172841D01*
X64498677Y-174257521D01*
X64489189Y-174262999D01*
X64458752Y-174284311D01*
X64450377Y-174294788D01*
X63361304Y-174294788D01*
X63426849Y-174154225D01*
X63426849Y-174154224D01*
X63429172Y-174149243D01*
X63444254Y-174092959D01*
X63487007Y-173933402D01*
X63487007Y-173933400D01*
X63488431Y-173928087D01*
X63508386Y-173700000D01*
X63488431Y-173471913D01*
X63487007Y-173466598D01*
X63430595Y-173256067D01*
X63430594Y-173256065D01*
X63429172Y-173250757D01*
X63412749Y-173215537D01*
X63334737Y-173048238D01*
X63334734Y-173048233D01*
X63332411Y-173043251D01*
X63231647Y-172899345D01*
X63204245Y-172860211D01*
X63204243Y-172860208D01*
X63201086Y-172855700D01*
X63039188Y-172693802D01*
X63034680Y-172690645D01*
X63034677Y-172690643D01*
X62903394Y-172598718D01*
X62851637Y-172562477D01*
X62846655Y-172560154D01*
X62846650Y-172560151D01*
X62649113Y-172468039D01*
X62649112Y-172468039D01*
X62644131Y-172465716D01*
X62638823Y-172464294D01*
X62638821Y-172464293D01*
X62428290Y-172407881D01*
X62428288Y-172407881D01*
X62422975Y-172406457D01*
X62194888Y-172386502D01*
X61966801Y-172406457D01*
X61961488Y-172407881D01*
X61961486Y-172407881D01*
X61750955Y-172464293D01*
X61750953Y-172464294D01*
X61745645Y-172465716D01*
X61740664Y-172468039D01*
X61740663Y-172468039D01*
X61543126Y-172560151D01*
X61543121Y-172560154D01*
X61538139Y-172562477D01*
X61486382Y-172598718D01*
X61355099Y-172690643D01*
X61355096Y-172690645D01*
X61350588Y-172693802D01*
X61204888Y-172839502D01*
X61142576Y-172873528D01*
X61071761Y-172868463D01*
X61014925Y-172825916D01*
X60997756Y-172789263D01*
X60996633Y-172789684D01*
X60952508Y-172671981D01*
X60945503Y-172653295D01*
X60858149Y-172536739D01*
X60741593Y-172449385D01*
X60605204Y-172398255D01*
X60543022Y-172391500D01*
X59334483Y-172391500D01*
X59266362Y-172371498D01*
X59245388Y-172354595D01*
X58584029Y-171693236D01*
X58576489Y-171684950D01*
X58572377Y-171678471D01*
X58522725Y-171631845D01*
X58519884Y-171629091D01*
X58500147Y-171609354D01*
X58496950Y-171606874D01*
X58487928Y-171599169D01*
X58474493Y-171586553D01*
X58455698Y-171568903D01*
X58448752Y-171565084D01*
X58448749Y-171565082D01*
X58437943Y-171559141D01*
X58421424Y-171548290D01*
X58420960Y-171547930D01*
X58405418Y-171535875D01*
X58398149Y-171532730D01*
X58398145Y-171532727D01*
X58364840Y-171518315D01*
X58354190Y-171513098D01*
X58315437Y-171491794D01*
X58295814Y-171486756D01*
X58277111Y-171480352D01*
X58265797Y-171475456D01*
X58265796Y-171475456D01*
X58258522Y-171472308D01*
X58250699Y-171471069D01*
X58250689Y-171471066D01*
X58214853Y-171465390D01*
X58203233Y-171462984D01*
X58168088Y-171453961D01*
X58168087Y-171453961D01*
X58160407Y-171451989D01*
X58140153Y-171451989D01*
X58120442Y-171450438D01*
X58108263Y-171448509D01*
X58100434Y-171447269D01*
X58071163Y-171450036D01*
X58056416Y-171451430D01*
X58044558Y-171451989D01*
X34658278Y-171451989D01*
X34647095Y-171451462D01*
X34639602Y-171449787D01*
X34631676Y-171450036D01*
X34631675Y-171450036D01*
X34571525Y-171451927D01*
X34567566Y-171451989D01*
X34539655Y-171451989D01*
X34535721Y-171452486D01*
X34535720Y-171452486D01*
X34535655Y-171452494D01*
X34523818Y-171453427D01*
X34492001Y-171454427D01*
X34487540Y-171454567D01*
X34479621Y-171454816D01*
X34461965Y-171459945D01*
X34460169Y-171460467D01*
X34440817Y-171464475D01*
X34433746Y-171465369D01*
X34420714Y-171467015D01*
X34413345Y-171469932D01*
X34413343Y-171469933D01*
X34379608Y-171483289D01*
X34368380Y-171487134D01*
X34325918Y-171499471D01*
X34319096Y-171503505D01*
X34319090Y-171503508D01*
X34308479Y-171509783D01*
X34290729Y-171518479D01*
X34279267Y-171523017D01*
X34279262Y-171523020D01*
X34271894Y-171525937D01*
X34254481Y-171538588D01*
X34236136Y-171551916D01*
X34226218Y-171558432D01*
X34214974Y-171565082D01*
X34188148Y-171580947D01*
X34173824Y-171595271D01*
X34158792Y-171608110D01*
X34142404Y-171620017D01*
X34114223Y-171654082D01*
X34106233Y-171662862D01*
X33093247Y-172675848D01*
X33030935Y-172709874D01*
X32971542Y-172708460D01*
X32908087Y-172691457D01*
X32680000Y-172671502D01*
X32451913Y-172691457D01*
X32446600Y-172692881D01*
X32446598Y-172692881D01*
X32236067Y-172749293D01*
X32236065Y-172749294D01*
X32230757Y-172750716D01*
X32225776Y-172753039D01*
X32225775Y-172753039D01*
X32028238Y-172845151D01*
X32028233Y-172845154D01*
X32023251Y-172847477D01*
X31958602Y-172892745D01*
X31840211Y-172975643D01*
X31840208Y-172975645D01*
X31835700Y-172978802D01*
X31673802Y-173140700D01*
X31670645Y-173145208D01*
X31670643Y-173145211D01*
X31644721Y-173182232D01*
X31542477Y-173328251D01*
X31540154Y-173333233D01*
X31540151Y-173333238D01*
X31450774Y-173524910D01*
X31445716Y-173535757D01*
X31444294Y-173541065D01*
X31444293Y-173541067D01*
X31387883Y-173751591D01*
X31386457Y-173756913D01*
X31366502Y-173985000D01*
X31386457Y-174213087D01*
X31387880Y-174218398D01*
X31387881Y-174218402D01*
X31405542Y-174284311D01*
X31445716Y-174434243D01*
X31448039Y-174439224D01*
X31448039Y-174439225D01*
X31540151Y-174636762D01*
X31540154Y-174636767D01*
X31542477Y-174641749D01*
X31587605Y-174706198D01*
X31633289Y-174771441D01*
X31673802Y-174829300D01*
X31835700Y-174991198D01*
X31840208Y-174994355D01*
X31840211Y-174994357D01*
X31992771Y-175101181D01*
X32037099Y-175156638D01*
X32046500Y-175204394D01*
X32046500Y-175305606D01*
X32026498Y-175373727D01*
X31992771Y-175408819D01*
X31840211Y-175515643D01*
X31840208Y-175515645D01*
X31835700Y-175518802D01*
X31673802Y-175680700D01*
X31670645Y-175685208D01*
X31670643Y-175685211D01*
X31635208Y-175735818D01*
X31542477Y-175868251D01*
X31540154Y-175873233D01*
X31540151Y-175873238D01*
X31448039Y-176070775D01*
X31445716Y-176075757D01*
X31444294Y-176081065D01*
X31444293Y-176081067D01*
X31423154Y-176159959D01*
X31386457Y-176296913D01*
X31366502Y-176525000D01*
X31386457Y-176753087D01*
X31387881Y-176758400D01*
X31387881Y-176758402D01*
X31443083Y-176964415D01*
X31445716Y-176974243D01*
X31448039Y-176979224D01*
X31448039Y-176979225D01*
X31540151Y-177176762D01*
X31540154Y-177176767D01*
X31542477Y-177181749D01*
X31604347Y-177270108D01*
X31670122Y-177364044D01*
X31673802Y-177369300D01*
X31835700Y-177531198D01*
X31840208Y-177534355D01*
X31840211Y-177534357D01*
X31893814Y-177571890D01*
X32023251Y-177662523D01*
X32028233Y-177664846D01*
X32028238Y-177664849D01*
X32062457Y-177680805D01*
X32115742Y-177727722D01*
X32135203Y-177795999D01*
X32114661Y-177863959D01*
X32062457Y-177909195D01*
X32028238Y-177925151D01*
X32028233Y-177925154D01*
X32023251Y-177927477D01*
X31940971Y-177985090D01*
X31840211Y-178055643D01*
X31840208Y-178055645D01*
X31835700Y-178058802D01*
X31673802Y-178220700D01*
X31542477Y-178408251D01*
X31540154Y-178413233D01*
X31540151Y-178413238D01*
X31450650Y-178605175D01*
X31445716Y-178615757D01*
X31444294Y-178621065D01*
X31444293Y-178621067D01*
X31392518Y-178814293D01*
X31386457Y-178836913D01*
X31366502Y-179065000D01*
X31386457Y-179293087D01*
X31387881Y-179298400D01*
X31387881Y-179298402D01*
X31401765Y-179350215D01*
X31445716Y-179514243D01*
X31448039Y-179519224D01*
X31448039Y-179519225D01*
X31540151Y-179716762D01*
X31540154Y-179716767D01*
X31542477Y-179721749D01*
X31673802Y-179909300D01*
X31835700Y-180071198D01*
X31840208Y-180074355D01*
X31840211Y-180074357D01*
X31870919Y-180095859D01*
X32023251Y-180202523D01*
X32028233Y-180204846D01*
X32028238Y-180204849D01*
X32063049Y-180221081D01*
X32116334Y-180267998D01*
X32135795Y-180336275D01*
X32115253Y-180404235D01*
X32063049Y-180449471D01*
X32028489Y-180465586D01*
X32018993Y-180471069D01*
X31840533Y-180596028D01*
X31832125Y-180603084D01*
X31678084Y-180757125D01*
X31671028Y-180765533D01*
X31546069Y-180943993D01*
X31540586Y-180953489D01*
X31448510Y-181150947D01*
X31444764Y-181161239D01*
X31398606Y-181333503D01*
X31398942Y-181347599D01*
X31406884Y-181351000D01*
X33947967Y-181351000D01*
X33961498Y-181347027D01*
X33962727Y-181338478D01*
X33915236Y-181161239D01*
X33911490Y-181150947D01*
X33819414Y-180953489D01*
X33813931Y-180943993D01*
X33688972Y-180765533D01*
X33681916Y-180757125D01*
X33527875Y-180603084D01*
X33519467Y-180596028D01*
X33341007Y-180471069D01*
X33331511Y-180465586D01*
X33296951Y-180449471D01*
X33243666Y-180402554D01*
X33224205Y-180334277D01*
X33244747Y-180266317D01*
X33296951Y-180221081D01*
X33331762Y-180204849D01*
X33331767Y-180204846D01*
X33336749Y-180202523D01*
X33489081Y-180095859D01*
X33519789Y-180074357D01*
X33519792Y-180074355D01*
X33524300Y-180071198D01*
X33686198Y-179909300D01*
X33817523Y-179721749D01*
X33819846Y-179716767D01*
X33819849Y-179716762D01*
X33911961Y-179519225D01*
X33911961Y-179519224D01*
X33914284Y-179514243D01*
X33958236Y-179350215D01*
X33972119Y-179298402D01*
X33972119Y-179298400D01*
X33973543Y-179293087D01*
X33993498Y-179065000D01*
X33973543Y-178836913D01*
X33972119Y-178831598D01*
X33972118Y-178831591D01*
X33956541Y-178773459D01*
X33958230Y-178702483D01*
X33989152Y-178651752D01*
X34030010Y-178610894D01*
X34092322Y-178576868D01*
X34119105Y-178573989D01*
X38912701Y-178573989D01*
X38980822Y-178593991D01*
X39027315Y-178647647D01*
X39037419Y-178717921D01*
X39034410Y-178732593D01*
X39006457Y-178836913D01*
X38986502Y-179065000D01*
X39006457Y-179293087D01*
X39007881Y-179298400D01*
X39007881Y-179298402D01*
X39021765Y-179350215D01*
X39065716Y-179514243D01*
X39068039Y-179519224D01*
X39068039Y-179519225D01*
X39160151Y-179716762D01*
X39160154Y-179716767D01*
X39162477Y-179721749D01*
X39293802Y-179909300D01*
X39455700Y-180071198D01*
X39460208Y-180074355D01*
X39460211Y-180074357D01*
X39490919Y-180095859D01*
X39643251Y-180202523D01*
X39648233Y-180204846D01*
X39648238Y-180204849D01*
X39682457Y-180220805D01*
X39735742Y-180267722D01*
X39755203Y-180335999D01*
X39734661Y-180403959D01*
X39682457Y-180449195D01*
X39648238Y-180465151D01*
X39648233Y-180465154D01*
X39643251Y-180467477D01*
X39605468Y-180493933D01*
X39460211Y-180595643D01*
X39460208Y-180595645D01*
X39455700Y-180598802D01*
X39293802Y-180760700D01*
X39290645Y-180765208D01*
X39290643Y-180765211D01*
X39235902Y-180843389D01*
X39162477Y-180948251D01*
X39160154Y-180953233D01*
X39160151Y-180953238D01*
X39081687Y-181121507D01*
X39065716Y-181155757D01*
X39064294Y-181161065D01*
X39064293Y-181161067D01*
X39007881Y-181371598D01*
X39006457Y-181376913D01*
X38986502Y-181605000D01*
X39006457Y-181833087D01*
X39023460Y-181896541D01*
X39021770Y-181967518D01*
X38990848Y-182018247D01*
X38879500Y-182129595D01*
X38817188Y-182163621D01*
X38790405Y-182166500D01*
X34047894Y-182166500D01*
X33979773Y-182146498D01*
X33933280Y-182092842D01*
X33923176Y-182022568D01*
X33926187Y-182007889D01*
X33961394Y-181876497D01*
X33961058Y-181862401D01*
X33953116Y-181859000D01*
X31412033Y-181859000D01*
X31398502Y-181862973D01*
X31397273Y-181871522D01*
X31444764Y-182048761D01*
X31448510Y-182059053D01*
X31540586Y-182256511D01*
X31546069Y-182266007D01*
X31671028Y-182444467D01*
X31678084Y-182452875D01*
X31692907Y-182467698D01*
X31726933Y-182530010D01*
X31721868Y-182600825D01*
X31692907Y-182645888D01*
X31107747Y-183231048D01*
X31099461Y-183238588D01*
X31092982Y-183242700D01*
X31087557Y-183248477D01*
X31046357Y-183292351D01*
X31043602Y-183295193D01*
X31023865Y-183314930D01*
X31021385Y-183318127D01*
X31013682Y-183327147D01*
X30983414Y-183359379D01*
X30979595Y-183366325D01*
X30979593Y-183366328D01*
X30973652Y-183377134D01*
X30962801Y-183393653D01*
X30950386Y-183409659D01*
X30947241Y-183416928D01*
X30947238Y-183416932D01*
X30932826Y-183450237D01*
X30927609Y-183460887D01*
X30906305Y-183499640D01*
X30904334Y-183507315D01*
X30904334Y-183507316D01*
X30901267Y-183519262D01*
X30894863Y-183537966D01*
X30892876Y-183542559D01*
X30886819Y-183556555D01*
X30885580Y-183564378D01*
X30885577Y-183564388D01*
X30879901Y-183600224D01*
X30877495Y-183611844D01*
X30870588Y-183638747D01*
X30866500Y-183654670D01*
X30866500Y-183671405D01*
X30846498Y-183739526D01*
X30792842Y-183786019D01*
X30722568Y-183796123D01*
X30657988Y-183766629D01*
X30651405Y-183760500D01*
X30270405Y-183379500D01*
X30236379Y-183317188D01*
X30233500Y-183290405D01*
X30233500Y-173814594D01*
X30253502Y-173746473D01*
X30270405Y-173725499D01*
X33200988Y-170794916D01*
X33263300Y-170760890D01*
X33290083Y-170758011D01*
X64096722Y-170758011D01*
X64107905Y-170758538D01*
X64115398Y-170760213D01*
X64123324Y-170759964D01*
X64123325Y-170759964D01*
X64183475Y-170758073D01*
X64187434Y-170758011D01*
X64215345Y-170758011D01*
X64219280Y-170757514D01*
X64219345Y-170757506D01*
X64231182Y-170756573D01*
X64263440Y-170755559D01*
X64267459Y-170755433D01*
X64275378Y-170755184D01*
X64294832Y-170749532D01*
X64314189Y-170745524D01*
X64326419Y-170743979D01*
X64326420Y-170743979D01*
X64334286Y-170742985D01*
X64341657Y-170740066D01*
X64341659Y-170740066D01*
X64375401Y-170726707D01*
X64386631Y-170722862D01*
X64421472Y-170712740D01*
X64421473Y-170712740D01*
X64429082Y-170710529D01*
X64435901Y-170706496D01*
X64435906Y-170706494D01*
X64446517Y-170700218D01*
X64464265Y-170691523D01*
X64483106Y-170684063D01*
X64518876Y-170658075D01*
X64528796Y-170651559D01*
X64560024Y-170633091D01*
X64560027Y-170633089D01*
X64566851Y-170629053D01*
X64581172Y-170614732D01*
X64596206Y-170601891D01*
X64606183Y-170594642D01*
X64612596Y-170589983D01*
X64640787Y-170555906D01*
X64648777Y-170547127D01*
X66516758Y-168679146D01*
X66525048Y-168671602D01*
X66531529Y-168667489D01*
X66541615Y-168656749D01*
X66578169Y-168617822D01*
X66580924Y-168614980D01*
X66600645Y-168595259D01*
X66603123Y-168592064D01*
X66610829Y-168583042D01*
X66635669Y-168556590D01*
X66641097Y-168550810D01*
X66650857Y-168533057D01*
X66661710Y-168516534D01*
X66669264Y-168506795D01*
X66674124Y-168500530D01*
X66691687Y-168459946D01*
X66696894Y-168449316D01*
X66718206Y-168410549D01*
X66720177Y-168402872D01*
X66720179Y-168402867D01*
X66723243Y-168390931D01*
X66729649Y-168372219D01*
X66732769Y-168365011D01*
X66737692Y-168353634D01*
X66742188Y-168325251D01*
X66744608Y-168309970D01*
X66747015Y-168298349D01*
X66756039Y-168263200D01*
X66756039Y-168263199D01*
X66758011Y-168255519D01*
X66758011Y-168235258D01*
X66759562Y-168215547D01*
X66761490Y-168203374D01*
X66762730Y-168195546D01*
X66758570Y-168151535D01*
X66758011Y-168139678D01*
X66758011Y-167003278D01*
X66758538Y-166992095D01*
X66760213Y-166984602D01*
X66759739Y-166969506D01*
X66758073Y-166916525D01*
X66758011Y-166912566D01*
X66758011Y-166884655D01*
X66757506Y-166880655D01*
X66756573Y-166868812D01*
X66755433Y-166832540D01*
X66755184Y-166824621D01*
X66749533Y-166805169D01*
X66745525Y-166785817D01*
X66743978Y-166773574D01*
X66742985Y-166765714D01*
X66739386Y-166756624D01*
X66726711Y-166724608D01*
X66722866Y-166713381D01*
X66722232Y-166711198D01*
X66710529Y-166670918D01*
X66706495Y-166664096D01*
X66706492Y-166664090D01*
X66700217Y-166653479D01*
X66691521Y-166635729D01*
X66686983Y-166624267D01*
X66686980Y-166624262D01*
X66684063Y-166616894D01*
X66660253Y-166584122D01*
X66658084Y-166581136D01*
X66651568Y-166571218D01*
X66634827Y-166542912D01*
X66629053Y-166533148D01*
X66614729Y-166518824D01*
X66601887Y-166503789D01*
X66589983Y-166487404D01*
X66555917Y-166459222D01*
X66547138Y-166451233D01*
X66203652Y-166107747D01*
X66196112Y-166099461D01*
X66192000Y-166092982D01*
X66183180Y-166084699D01*
X66142349Y-166046357D01*
X66139507Y-166043602D01*
X66119770Y-166023865D01*
X66116573Y-166021385D01*
X66107551Y-166013680D01*
X66094116Y-166001064D01*
X66075321Y-165983414D01*
X66068375Y-165979595D01*
X66068372Y-165979593D01*
X66057566Y-165973652D01*
X66041047Y-165962801D01*
X66040280Y-165962206D01*
X66025041Y-165950386D01*
X66017772Y-165947241D01*
X66017768Y-165947238D01*
X65984463Y-165932826D01*
X65973813Y-165927609D01*
X65935060Y-165906305D01*
X65915437Y-165901267D01*
X65896734Y-165894863D01*
X65885420Y-165889967D01*
X65885419Y-165889967D01*
X65878145Y-165886819D01*
X65870322Y-165885580D01*
X65870312Y-165885577D01*
X65834476Y-165879901D01*
X65822856Y-165877495D01*
X65787711Y-165868472D01*
X65787710Y-165868472D01*
X65780030Y-165866500D01*
X65759776Y-165866500D01*
X65740065Y-165864949D01*
X65737534Y-165864548D01*
X65720057Y-165861780D01*
X65712165Y-165862526D01*
X65676039Y-165865941D01*
X65664181Y-165866500D01*
X61078763Y-165866500D01*
X61067579Y-165865973D01*
X61060091Y-165864299D01*
X61052168Y-165864548D01*
X60992033Y-165866438D01*
X60988075Y-165866500D01*
X60960144Y-165866500D01*
X60956229Y-165866995D01*
X60956225Y-165866995D01*
X60956167Y-165867003D01*
X60956138Y-165867006D01*
X60944296Y-165867939D01*
X60900110Y-165869327D01*
X60882744Y-165874372D01*
X60880658Y-165874978D01*
X60861306Y-165878986D01*
X60854235Y-165879880D01*
X60841203Y-165881526D01*
X60833834Y-165884443D01*
X60833832Y-165884444D01*
X60800097Y-165897800D01*
X60788869Y-165901645D01*
X60746407Y-165913982D01*
X60739585Y-165918016D01*
X60739579Y-165918019D01*
X60728968Y-165924294D01*
X60711218Y-165932990D01*
X60699756Y-165937528D01*
X60699751Y-165937531D01*
X60692383Y-165940448D01*
X60674995Y-165953081D01*
X60656625Y-165966427D01*
X60646707Y-165972943D01*
X60635463Y-165979593D01*
X60608637Y-165995458D01*
X60594313Y-166009782D01*
X60579281Y-166022621D01*
X60562893Y-166034528D01*
X60534712Y-166068593D01*
X60526722Y-166077373D01*
X59949500Y-166654595D01*
X59887188Y-166688621D01*
X59860405Y-166691500D01*
X58651866Y-166691500D01*
X58589684Y-166698255D01*
X58453295Y-166749385D01*
X58336739Y-166836739D01*
X58249385Y-166953295D01*
X58198255Y-167089684D01*
X58191500Y-167151866D01*
X58191500Y-168365011D01*
X58171498Y-168433132D01*
X58117842Y-168479625D01*
X58065500Y-168491011D01*
X52439105Y-168491011D01*
X52370984Y-168471009D01*
X52350010Y-168454106D01*
X50513565Y-166617660D01*
X50479539Y-166555348D01*
X50484604Y-166484532D01*
X50527151Y-166427697D01*
X50593671Y-166402886D01*
X50617471Y-166403438D01*
X50652327Y-166407564D01*
X50659728Y-166408000D01*
X50902885Y-166408000D01*
X50918124Y-166403525D01*
X50919329Y-166402135D01*
X50921000Y-166394452D01*
X50921000Y-166389885D01*
X51429000Y-166389885D01*
X51433475Y-166405124D01*
X51434865Y-166406329D01*
X51442548Y-166408000D01*
X51676092Y-166408000D01*
X51681881Y-166407734D01*
X51831176Y-166394016D01*
X51842497Y-166391918D01*
X52036203Y-166337287D01*
X52046950Y-166333163D01*
X52227466Y-166244141D01*
X52237273Y-166238131D01*
X52398549Y-166117701D01*
X52407089Y-166110011D01*
X52543720Y-165962206D01*
X52550721Y-165953081D01*
X52658125Y-165782856D01*
X52663346Y-165772609D01*
X52737928Y-165585668D01*
X52741197Y-165574631D01*
X52751523Y-165522722D01*
X72596808Y-165522722D01*
X72600687Y-165545300D01*
X72603666Y-165556417D01*
X72673331Y-165745252D01*
X72678281Y-165755630D01*
X72781191Y-165928606D01*
X72787955Y-165937915D01*
X72920665Y-166089243D01*
X72929000Y-166097153D01*
X73087069Y-166221764D01*
X73096720Y-166228032D01*
X73274836Y-166321743D01*
X73285479Y-166326152D01*
X73477684Y-166385833D01*
X73488946Y-166388227D01*
X73652322Y-166407563D01*
X73659728Y-166408000D01*
X73902885Y-166408000D01*
X73918124Y-166403525D01*
X73919329Y-166402135D01*
X73921000Y-166394452D01*
X73921000Y-166389885D01*
X74429000Y-166389885D01*
X74433475Y-166405124D01*
X74434865Y-166406329D01*
X74442548Y-166408000D01*
X74676092Y-166408000D01*
X74681881Y-166407734D01*
X74831176Y-166394016D01*
X74842497Y-166391918D01*
X75036203Y-166337287D01*
X75046950Y-166333163D01*
X75227466Y-166244141D01*
X75237273Y-166238131D01*
X75398549Y-166117701D01*
X75407089Y-166110011D01*
X75543720Y-165962206D01*
X75550721Y-165953081D01*
X75658125Y-165782856D01*
X75663346Y-165772609D01*
X75737928Y-165585668D01*
X75741197Y-165574631D01*
X75751712Y-165521770D01*
X75750560Y-165508894D01*
X75735404Y-165504000D01*
X74447115Y-165504000D01*
X74431876Y-165508475D01*
X74430671Y-165509865D01*
X74429000Y-165517548D01*
X74429000Y-166389885D01*
X73921000Y-166389885D01*
X73921000Y-165522115D01*
X73916525Y-165506876D01*
X73915135Y-165505671D01*
X73907452Y-165504000D01*
X72611706Y-165504000D01*
X72598744Y-165507806D01*
X72596808Y-165522722D01*
X52751523Y-165522722D01*
X52751712Y-165521770D01*
X52750560Y-165508894D01*
X52735404Y-165504000D01*
X51447115Y-165504000D01*
X51431876Y-165508475D01*
X51430671Y-165509865D01*
X51429000Y-165517548D01*
X51429000Y-166389885D01*
X50921000Y-166389885D01*
X50921000Y-165522115D01*
X50916525Y-165506876D01*
X50915135Y-165505671D01*
X50907452Y-165504000D01*
X49611706Y-165504000D01*
X49596466Y-165508475D01*
X49595916Y-165509110D01*
X49536190Y-165547493D01*
X49465193Y-165547493D01*
X49411597Y-165515692D01*
X48993652Y-165097747D01*
X48986112Y-165089461D01*
X48982000Y-165082982D01*
X48975051Y-165076456D01*
X48932349Y-165036357D01*
X48929507Y-165033602D01*
X48919000Y-165023095D01*
X48884974Y-164960783D01*
X48890039Y-164889968D01*
X48932586Y-164833132D01*
X48999106Y-164808321D01*
X49008095Y-164808000D01*
X49478617Y-164808000D01*
X49546738Y-164828002D01*
G37*
%TD.AperFunction*%
%TA.AperFunction,Conductor*%
G36*
X19152615Y-164828002D02*
G01*
X19199108Y-164881658D01*
X19209212Y-164951932D01*
X19182917Y-165012670D01*
X19178576Y-165018101D01*
X19185644Y-165031547D01*
X19887188Y-165733091D01*
X19901132Y-165740705D01*
X19902965Y-165740574D01*
X19909580Y-165736323D01*
X20615077Y-165030826D01*
X20621507Y-165019051D01*
X20615356Y-165011100D01*
X20589492Y-164944982D01*
X20603481Y-164875377D01*
X20652881Y-164824384D01*
X20715013Y-164808000D01*
X42386809Y-164808000D01*
X42454930Y-164828002D01*
X42501423Y-164881658D01*
X42511527Y-164951932D01*
X42501004Y-164987249D01*
X42462369Y-165070103D01*
X42460044Y-165075090D01*
X42405314Y-165279345D01*
X42386884Y-165490000D01*
X42405314Y-165700655D01*
X42406738Y-165705968D01*
X42406738Y-165705970D01*
X42455197Y-165886819D01*
X42460044Y-165904910D01*
X42462366Y-165909891D01*
X42462367Y-165909892D01*
X42546200Y-166089671D01*
X42549411Y-166096558D01*
X42670699Y-166269776D01*
X42820224Y-166419301D01*
X42993442Y-166540589D01*
X42998420Y-166542910D01*
X42998423Y-166542912D01*
X43143321Y-166610479D01*
X43185090Y-166629956D01*
X43190398Y-166631378D01*
X43190400Y-166631379D01*
X43384030Y-166683262D01*
X43384032Y-166683262D01*
X43389345Y-166684686D01*
X43600000Y-166703116D01*
X43810655Y-166684686D01*
X43815968Y-166683262D01*
X43815970Y-166683262D01*
X44009600Y-166631379D01*
X44009602Y-166631378D01*
X44014910Y-166629956D01*
X44056679Y-166610479D01*
X44201577Y-166542912D01*
X44201580Y-166542910D01*
X44206558Y-166540589D01*
X44379776Y-166419301D01*
X44529301Y-166269776D01*
X44594102Y-166177230D01*
X44649559Y-166132901D01*
X44697315Y-166123500D01*
X48175406Y-166123500D01*
X48243527Y-166143502D01*
X48264501Y-166160405D01*
X51380011Y-169275916D01*
X51414037Y-169338228D01*
X51408972Y-169409044D01*
X51366425Y-169465879D01*
X51299905Y-169490690D01*
X51290916Y-169491011D01*
X40420566Y-169491011D01*
X40352445Y-169471009D01*
X40305952Y-169417353D01*
X40295848Y-169347079D01*
X40298860Y-169332397D01*
X40303262Y-169315971D01*
X40303263Y-169315967D01*
X40304686Y-169310655D01*
X40323116Y-169100000D01*
X40304686Y-168889345D01*
X40294298Y-168850575D01*
X40251379Y-168690400D01*
X40251378Y-168690398D01*
X40249956Y-168685090D01*
X40239055Y-168661712D01*
X40162912Y-168498423D01*
X40162910Y-168498420D01*
X40160589Y-168493442D01*
X40039301Y-168320224D01*
X39889776Y-168170699D01*
X39716558Y-168049411D01*
X39711570Y-168047085D01*
X39706807Y-168044335D01*
X39708105Y-168042088D01*
X39662981Y-168002376D01*
X39643500Y-167935073D01*
X39643500Y-167897315D01*
X39663502Y-167829194D01*
X39697230Y-167794102D01*
X39745367Y-167760396D01*
X39789776Y-167729301D01*
X39939301Y-167579776D01*
X40060589Y-167406558D01*
X40079269Y-167366500D01*
X40147633Y-167219892D01*
X40147634Y-167219891D01*
X40149956Y-167214910D01*
X40204686Y-167010655D01*
X40223116Y-166800000D01*
X40204686Y-166589345D01*
X40203262Y-166584030D01*
X40151379Y-166390400D01*
X40151378Y-166390398D01*
X40149956Y-166385090D01*
X40120417Y-166321743D01*
X40062912Y-166198423D01*
X40062910Y-166198420D01*
X40060589Y-166193442D01*
X39939301Y-166020224D01*
X39789776Y-165870699D01*
X39616558Y-165749411D01*
X39611580Y-165747090D01*
X39611577Y-165747088D01*
X39429892Y-165662367D01*
X39429891Y-165662366D01*
X39424910Y-165660044D01*
X39419602Y-165658622D01*
X39419600Y-165658621D01*
X39225970Y-165606738D01*
X39225968Y-165606738D01*
X39220655Y-165605314D01*
X39010000Y-165586884D01*
X38799345Y-165605314D01*
X38794032Y-165606738D01*
X38794030Y-165606738D01*
X38600400Y-165658621D01*
X38600398Y-165658622D01*
X38595090Y-165660044D01*
X38590109Y-165662366D01*
X38590108Y-165662367D01*
X38408423Y-165747088D01*
X38408420Y-165747090D01*
X38403442Y-165749411D01*
X38230224Y-165870699D01*
X38080699Y-166020224D01*
X37959411Y-166193442D01*
X37957090Y-166198420D01*
X37957088Y-166198423D01*
X37899583Y-166321743D01*
X37870044Y-166385090D01*
X37868622Y-166390398D01*
X37868621Y-166390400D01*
X37816738Y-166584030D01*
X37815314Y-166589345D01*
X37796884Y-166800000D01*
X37815314Y-167010655D01*
X37870044Y-167214910D01*
X37872366Y-167219891D01*
X37872367Y-167219892D01*
X37940732Y-167366500D01*
X37959411Y-167406558D01*
X38080699Y-167579776D01*
X38230224Y-167729301D01*
X38274633Y-167760396D01*
X38322770Y-167794102D01*
X38367099Y-167849559D01*
X38376500Y-167897315D01*
X38376500Y-168073740D01*
X38356498Y-168141861D01*
X38332528Y-168169085D01*
X38330224Y-168170699D01*
X38180699Y-168320224D01*
X38059411Y-168493442D01*
X38057090Y-168498420D01*
X38057088Y-168498423D01*
X37980945Y-168661712D01*
X37970044Y-168685090D01*
X37968622Y-168690398D01*
X37968621Y-168690400D01*
X37925702Y-168850575D01*
X37915314Y-168889345D01*
X37896884Y-169100000D01*
X37915314Y-169310655D01*
X37916737Y-169315967D01*
X37916738Y-169315971D01*
X37921140Y-169332397D01*
X37919452Y-169403374D01*
X37879659Y-169462171D01*
X37814395Y-169490120D01*
X37799434Y-169491011D01*
X33054252Y-169491011D01*
X33043068Y-169490484D01*
X33035580Y-169488810D01*
X33027657Y-169489059D01*
X32967522Y-169490949D01*
X32963564Y-169491011D01*
X32935633Y-169491011D01*
X32931718Y-169491506D01*
X32931714Y-169491506D01*
X32931656Y-169491514D01*
X32931627Y-169491517D01*
X32919785Y-169492450D01*
X32875599Y-169493838D01*
X32858233Y-169498883D01*
X32856147Y-169499489D01*
X32836795Y-169503497D01*
X32832801Y-169504002D01*
X32816695Y-169506037D01*
X32816435Y-169503976D01*
X32756311Y-169501914D01*
X32697935Y-169461506D01*
X32670673Y-169395952D01*
X32674226Y-169349694D01*
X32683261Y-169315977D01*
X32683263Y-169315966D01*
X32684686Y-169310655D01*
X32703116Y-169100000D01*
X32684686Y-168889345D01*
X32674298Y-168850575D01*
X32631379Y-168690400D01*
X32631378Y-168690398D01*
X32629956Y-168685090D01*
X32619055Y-168661712D01*
X32542912Y-168498423D01*
X32542910Y-168498420D01*
X32540589Y-168493442D01*
X32419301Y-168320224D01*
X32269776Y-168170699D01*
X32096558Y-168049411D01*
X32091582Y-168047091D01*
X32091574Y-168047086D01*
X32063361Y-168033931D01*
X32010076Y-167987015D01*
X31990614Y-167918738D01*
X32011155Y-167850778D01*
X32020959Y-167840657D01*
X32019937Y-167839840D01*
X32039623Y-167815212D01*
X32032554Y-167801764D01*
X31402812Y-167172022D01*
X31388868Y-167164408D01*
X31387035Y-167164539D01*
X31380420Y-167168790D01*
X30746724Y-167802486D01*
X30739110Y-167816430D01*
X30740554Y-167836624D01*
X30725463Y-167905998D01*
X30675261Y-167956200D01*
X30614875Y-167971613D01*
X21334500Y-167971613D01*
X21266379Y-167951611D01*
X21219886Y-167897955D01*
X21208500Y-167845613D01*
X21208500Y-167756979D01*
X21201745Y-167694797D01*
X21150615Y-167558408D01*
X21063261Y-167441852D01*
X20946705Y-167354498D01*
X20810316Y-167303368D01*
X20766748Y-167298635D01*
X20751514Y-167296980D01*
X20751511Y-167296980D01*
X20748134Y-167296613D01*
X20744815Y-167296613D01*
X20677890Y-167272960D01*
X20642196Y-167226957D01*
X20640266Y-167227972D01*
X20634558Y-167217113D01*
X20634368Y-167216868D01*
X20634347Y-167216710D01*
X20614356Y-167178679D01*
X19912812Y-166477135D01*
X19898868Y-166469521D01*
X19897035Y-166469652D01*
X19890420Y-166473903D01*
X19184923Y-167179400D01*
X19162129Y-167221142D01*
X19159953Y-167231142D01*
X19109747Y-167281340D01*
X19056186Y-167296564D01*
X19055281Y-167296613D01*
X19051866Y-167296613D01*
X19048470Y-167296982D01*
X19048468Y-167296982D01*
X19036121Y-167298323D01*
X18989684Y-167303368D01*
X18853295Y-167354498D01*
X18736739Y-167441852D01*
X18649385Y-167558408D01*
X18598255Y-167694797D01*
X18591500Y-167756979D01*
X18591500Y-168250405D01*
X18571498Y-168318526D01*
X18554595Y-168339500D01*
X16621538Y-170272557D01*
X16559226Y-170306583D01*
X16510561Y-170307547D01*
X16505961Y-170306736D01*
X16500655Y-170305314D01*
X16495188Y-170304836D01*
X16495184Y-170304835D01*
X16295475Y-170287363D01*
X16290000Y-170286884D01*
X16079345Y-170305314D01*
X16074032Y-170306738D01*
X16074030Y-170306738D01*
X15880400Y-170358621D01*
X15880398Y-170358622D01*
X15875090Y-170360044D01*
X15870109Y-170362366D01*
X15870108Y-170362367D01*
X15688423Y-170447088D01*
X15688420Y-170447090D01*
X15683442Y-170449411D01*
X15510224Y-170570699D01*
X15360699Y-170720224D01*
X15239411Y-170893442D01*
X15150044Y-171085090D01*
X15148622Y-171090398D01*
X15148621Y-171090400D01*
X15097969Y-171279437D01*
X15095314Y-171289345D01*
X15076884Y-171500000D01*
X15095314Y-171710655D01*
X15096738Y-171715968D01*
X15096738Y-171715970D01*
X15127705Y-171831538D01*
X15150044Y-171914910D01*
X15239411Y-172106558D01*
X15360699Y-172279776D01*
X15510224Y-172429301D01*
X15683442Y-172550589D01*
X15688420Y-172552910D01*
X15688423Y-172552912D01*
X15870108Y-172637633D01*
X15875090Y-172639956D01*
X15880398Y-172641378D01*
X15880400Y-172641379D01*
X16074030Y-172693262D01*
X16074032Y-172693262D01*
X16079345Y-172694686D01*
X16290000Y-172713116D01*
X16500655Y-172694686D01*
X16505968Y-172693262D01*
X16505970Y-172693262D01*
X16699600Y-172641379D01*
X16699602Y-172641378D01*
X16704910Y-172639956D01*
X16709892Y-172637633D01*
X16891577Y-172552912D01*
X16891580Y-172552910D01*
X16896558Y-172550589D01*
X17069776Y-172429301D01*
X17219301Y-172279776D01*
X17340589Y-172106558D01*
X17429956Y-171914910D01*
X17452296Y-171831538D01*
X17483262Y-171715970D01*
X17483262Y-171715968D01*
X17484686Y-171710655D01*
X17503116Y-171500000D01*
X17484686Y-171289345D01*
X17483262Y-171284029D01*
X17482452Y-171279437D01*
X17490321Y-171208877D01*
X17517443Y-171168461D01*
X18779116Y-169906788D01*
X18841428Y-169872762D01*
X18912440Y-169877901D01*
X18982282Y-169904084D01*
X18982288Y-169904086D01*
X18989684Y-169906858D01*
X19051866Y-169913613D01*
X19140500Y-169913613D01*
X19208621Y-169933615D01*
X19255114Y-169987271D01*
X19266500Y-170039613D01*
X19266500Y-186485406D01*
X19246498Y-186553527D01*
X19229595Y-186574501D01*
X15431538Y-190372557D01*
X15369226Y-190406583D01*
X15320561Y-190407547D01*
X15315961Y-190406736D01*
X15310655Y-190405314D01*
X15305188Y-190404836D01*
X15305184Y-190404835D01*
X15105475Y-190387363D01*
X15100000Y-190386884D01*
X14889345Y-190405314D01*
X14884032Y-190406738D01*
X14884030Y-190406738D01*
X14690400Y-190458621D01*
X14690398Y-190458622D01*
X14685090Y-190460044D01*
X14680109Y-190462366D01*
X14680108Y-190462367D01*
X14498423Y-190547088D01*
X14498420Y-190547090D01*
X14493442Y-190549411D01*
X14320224Y-190670699D01*
X14170699Y-190820224D01*
X14049411Y-190993442D01*
X14047090Y-190998420D01*
X14047088Y-190998423D01*
X13967313Y-191169502D01*
X13960044Y-191185090D01*
X13958622Y-191190398D01*
X13958621Y-191190400D01*
X13921223Y-191329970D01*
X13905314Y-191389345D01*
X13886884Y-191600000D01*
X13905314Y-191810655D01*
X13906738Y-191815968D01*
X13906738Y-191815970D01*
X13956325Y-192001029D01*
X13960044Y-192014910D01*
X13962366Y-192019891D01*
X13962367Y-192019892D01*
X14030531Y-192166069D01*
X14049411Y-192206558D01*
X14170699Y-192379776D01*
X14320224Y-192529301D01*
X14377303Y-192569268D01*
X14418214Y-192597914D01*
X14462543Y-192653371D01*
X14469852Y-192723990D01*
X14444366Y-192779798D01*
X14440377Y-192784788D01*
X14447446Y-192798236D01*
X15077188Y-193427978D01*
X15091132Y-193435592D01*
X15092965Y-193435461D01*
X15099580Y-193431210D01*
X15733276Y-192797514D01*
X15740107Y-192785005D01*
X15715235Y-192721420D01*
X15729224Y-192651815D01*
X15768482Y-192607230D01*
X15879776Y-192529301D01*
X16029301Y-192379776D01*
X16150589Y-192206558D01*
X16169470Y-192166069D01*
X16237633Y-192019892D01*
X16237634Y-192019891D01*
X16239956Y-192014910D01*
X16243676Y-192001029D01*
X16293262Y-191815970D01*
X16293262Y-191815968D01*
X16294686Y-191810655D01*
X16313116Y-191600000D01*
X16310633Y-191571623D01*
X16295165Y-191394816D01*
X16295164Y-191394812D01*
X16294686Y-191389345D01*
X16293264Y-191384039D01*
X16292453Y-191379439D01*
X16300321Y-191308879D01*
X16327443Y-191268462D01*
X18349918Y-189245987D01*
X21546221Y-189245987D01*
X21555048Y-189257605D01*
X21777781Y-189419430D01*
X21784461Y-189423670D01*
X22054072Y-189571890D01*
X22061207Y-189575247D01*
X22347270Y-189688508D01*
X22354796Y-189690953D01*
X22652779Y-189767462D01*
X22660550Y-189768945D01*
X22965778Y-189807503D01*
X22973669Y-189808000D01*
X23281331Y-189808000D01*
X23289222Y-189807503D01*
X23594450Y-189768945D01*
X23602221Y-189767462D01*
X23900204Y-189690953D01*
X23907730Y-189688508D01*
X24193793Y-189575247D01*
X24200928Y-189571890D01*
X24470539Y-189423670D01*
X24477219Y-189419430D01*
X24700323Y-189257336D01*
X24708746Y-189246413D01*
X24701842Y-189233552D01*
X23140312Y-187672022D01*
X23126368Y-187664408D01*
X23124535Y-187664539D01*
X23117920Y-187668790D01*
X21552834Y-189233876D01*
X21546221Y-189245987D01*
X18349918Y-189245987D01*
X20292253Y-187303652D01*
X20300539Y-187296112D01*
X20307018Y-187292000D01*
X20353644Y-187242348D01*
X20356398Y-187239507D01*
X20376135Y-187219770D01*
X20378615Y-187216573D01*
X20386320Y-187207551D01*
X20397587Y-187195553D01*
X20458800Y-187159587D01*
X20529740Y-187162426D01*
X20587884Y-187203166D01*
X20614772Y-187268875D01*
X20615188Y-187289718D01*
X20614790Y-187296044D01*
X20614790Y-187303958D01*
X20634107Y-187610994D01*
X20635100Y-187618855D01*
X20692746Y-187921046D01*
X20694717Y-187928723D01*
X20789784Y-188221309D01*
X20792699Y-188228672D01*
X20923689Y-188507041D01*
X20927501Y-188513974D01*
X21092351Y-188773736D01*
X21096995Y-188780129D01*
X21171997Y-188870790D01*
X21184514Y-188879245D01*
X21195252Y-188873038D01*
X22755478Y-187312812D01*
X22761856Y-187301132D01*
X23491908Y-187301132D01*
X23492039Y-187302965D01*
X23496290Y-187309580D01*
X25058645Y-188871935D01*
X25071907Y-188879177D01*
X25082012Y-188871988D01*
X25158005Y-188780129D01*
X25162649Y-188773736D01*
X25327499Y-188513974D01*
X25331311Y-188507041D01*
X25462301Y-188228672D01*
X25465216Y-188221309D01*
X25560283Y-187928723D01*
X25562254Y-187921046D01*
X25619900Y-187618855D01*
X25620893Y-187610994D01*
X25640210Y-187303958D01*
X25640210Y-187296042D01*
X25620893Y-186989006D01*
X25619900Y-186981145D01*
X25562254Y-186678954D01*
X25560283Y-186671277D01*
X25465216Y-186378691D01*
X25462301Y-186371328D01*
X25331311Y-186092959D01*
X25327499Y-186086026D01*
X25162649Y-185826264D01*
X25158005Y-185819871D01*
X25083003Y-185729210D01*
X25070486Y-185720755D01*
X25059748Y-185726962D01*
X23499522Y-187287188D01*
X23491908Y-187301132D01*
X22761856Y-187301132D01*
X22763092Y-187298868D01*
X22762961Y-187297035D01*
X22758710Y-187290420D01*
X21196355Y-185728065D01*
X21183093Y-185720823D01*
X21172988Y-185728012D01*
X21096995Y-185819871D01*
X21092351Y-185826264D01*
X20927501Y-186086026D01*
X20923689Y-186092959D01*
X20792699Y-186371328D01*
X20789784Y-186378691D01*
X20779333Y-186410856D01*
X20739259Y-186469462D01*
X20673863Y-186497099D01*
X20603906Y-186484992D01*
X20551600Y-186436986D01*
X20533500Y-186371920D01*
X20533500Y-185353587D01*
X21546254Y-185353587D01*
X21553158Y-185366448D01*
X23114688Y-186927978D01*
X23128632Y-186935592D01*
X23130465Y-186935461D01*
X23137080Y-186931210D01*
X24702166Y-185366124D01*
X24708779Y-185354013D01*
X24699952Y-185342395D01*
X24477219Y-185180570D01*
X24470539Y-185176330D01*
X24200928Y-185028110D01*
X24193793Y-185024753D01*
X23907730Y-184911492D01*
X23900204Y-184909047D01*
X23602221Y-184832538D01*
X23594450Y-184831055D01*
X23289222Y-184792497D01*
X23281331Y-184792000D01*
X22973669Y-184792000D01*
X22965778Y-184792497D01*
X22660550Y-184831055D01*
X22652779Y-184832538D01*
X22354796Y-184909047D01*
X22347270Y-184911492D01*
X22061207Y-185024753D01*
X22054072Y-185028110D01*
X21784461Y-185176330D01*
X21777781Y-185180570D01*
X21554677Y-185342664D01*
X21546254Y-185353587D01*
X20533500Y-185353587D01*
X20533500Y-182555475D01*
X24674983Y-182555475D01*
X24693972Y-182772519D01*
X24695875Y-182783312D01*
X24752264Y-182993761D01*
X24756010Y-183004053D01*
X24848086Y-183201511D01*
X24853569Y-183211006D01*
X24890009Y-183263048D01*
X24900488Y-183271424D01*
X24913934Y-183264356D01*
X25615478Y-182562812D01*
X25623092Y-182548868D01*
X25622961Y-182547035D01*
X25618710Y-182540420D01*
X24913213Y-181834923D01*
X24901438Y-181828493D01*
X24889423Y-181837789D01*
X24853569Y-181888994D01*
X24848086Y-181898489D01*
X24756010Y-182095947D01*
X24752264Y-182106239D01*
X24695875Y-182316688D01*
X24693972Y-182327481D01*
X24674983Y-182544525D01*
X24674983Y-182555475D01*
X20533500Y-182555475D01*
X20533500Y-177245987D01*
X21546221Y-177245987D01*
X21555048Y-177257605D01*
X21777781Y-177419430D01*
X21784461Y-177423670D01*
X22054072Y-177571890D01*
X22061207Y-177575247D01*
X22347270Y-177688508D01*
X22354796Y-177690953D01*
X22652779Y-177767462D01*
X22660550Y-177768945D01*
X22965778Y-177807503D01*
X22973669Y-177808000D01*
X23281331Y-177808000D01*
X23289222Y-177807503D01*
X23594450Y-177768945D01*
X23602221Y-177767462D01*
X23900204Y-177690953D01*
X23907730Y-177688508D01*
X24193793Y-177575247D01*
X24200928Y-177571890D01*
X24470539Y-177423670D01*
X24477219Y-177419430D01*
X24700323Y-177257336D01*
X24708746Y-177246413D01*
X24701842Y-177233552D01*
X23140312Y-175672022D01*
X23126368Y-175664408D01*
X23124535Y-175664539D01*
X23117920Y-175668790D01*
X21552834Y-177233876D01*
X21546221Y-177245987D01*
X20533500Y-177245987D01*
X20533500Y-176228080D01*
X20553502Y-176159959D01*
X20607158Y-176113466D01*
X20677432Y-176103362D01*
X20742012Y-176132856D01*
X20779333Y-176189144D01*
X20789784Y-176221309D01*
X20792699Y-176228672D01*
X20923689Y-176507041D01*
X20927501Y-176513974D01*
X21092351Y-176773736D01*
X21096995Y-176780129D01*
X21171997Y-176870790D01*
X21184514Y-176879245D01*
X21195252Y-176873038D01*
X22755478Y-175312812D01*
X22763092Y-175298868D01*
X22762961Y-175297035D01*
X22758710Y-175290420D01*
X21196355Y-173728065D01*
X21183093Y-173720823D01*
X21172988Y-173728012D01*
X21096995Y-173819871D01*
X21092351Y-173826264D01*
X20927501Y-174086026D01*
X20923689Y-174092959D01*
X20792699Y-174371328D01*
X20789784Y-174378691D01*
X20779333Y-174410856D01*
X20739259Y-174469462D01*
X20673863Y-174497099D01*
X20603906Y-174484992D01*
X20551600Y-174436986D01*
X20533500Y-174371920D01*
X20533500Y-170039613D01*
X20553502Y-169971492D01*
X20607158Y-169924999D01*
X20659500Y-169913613D01*
X20748134Y-169913613D01*
X20810316Y-169906858D01*
X20946705Y-169855728D01*
X21063261Y-169768374D01*
X21150615Y-169651818D01*
X21201745Y-169515429D01*
X21208500Y-169453247D01*
X21208500Y-169364613D01*
X21228502Y-169296492D01*
X21282158Y-169249999D01*
X21334500Y-169238613D01*
X30179327Y-169238613D01*
X30247448Y-169258615D01*
X30293941Y-169312271D01*
X30301034Y-169332001D01*
X30309772Y-169364613D01*
X30343402Y-169490120D01*
X30350044Y-169514910D01*
X30352366Y-169519891D01*
X30352367Y-169519892D01*
X30409965Y-169643410D01*
X30439411Y-169706558D01*
X30560699Y-169879776D01*
X30710224Y-170029301D01*
X30883442Y-170150589D01*
X30888420Y-170152910D01*
X30888423Y-170152912D01*
X31070108Y-170237633D01*
X31075090Y-170239956D01*
X31080398Y-170241378D01*
X31080400Y-170241379D01*
X31274030Y-170293262D01*
X31274032Y-170293262D01*
X31279345Y-170294686D01*
X31490000Y-170313116D01*
X31584559Y-170304843D01*
X31654164Y-170318832D01*
X31705156Y-170368231D01*
X31721347Y-170437357D01*
X31697595Y-170504263D01*
X31684636Y-170519459D01*
X29207747Y-172996348D01*
X29199461Y-173003888D01*
X29192982Y-173008000D01*
X29187557Y-173013777D01*
X29146357Y-173057651D01*
X29143602Y-173060493D01*
X29123865Y-173080230D01*
X29121385Y-173083427D01*
X29113682Y-173092447D01*
X29083414Y-173124679D01*
X29079595Y-173131625D01*
X29079593Y-173131628D01*
X29073652Y-173142434D01*
X29062801Y-173158953D01*
X29050386Y-173174959D01*
X29047241Y-173182228D01*
X29047238Y-173182232D01*
X29032826Y-173215537D01*
X29027609Y-173226187D01*
X29006305Y-173264940D01*
X29004334Y-173272615D01*
X29004334Y-173272616D01*
X29001267Y-173284562D01*
X28994863Y-173303266D01*
X28986819Y-173321855D01*
X28985580Y-173329678D01*
X28985577Y-173329688D01*
X28979901Y-173365524D01*
X28977495Y-173377144D01*
X28966500Y-173419970D01*
X28966500Y-173440224D01*
X28964949Y-173459934D01*
X28961780Y-173479943D01*
X28962526Y-173487835D01*
X28965941Y-173523961D01*
X28966500Y-173535819D01*
X28966500Y-175356406D01*
X28946498Y-175424527D01*
X28892842Y-175471020D01*
X28822568Y-175481124D01*
X28757988Y-175451630D01*
X28751405Y-175445501D01*
X27022463Y-173716558D01*
X25137443Y-171831538D01*
X25103417Y-171769226D01*
X25102453Y-171720561D01*
X25103264Y-171715961D01*
X25104686Y-171710655D01*
X25105166Y-171705175D01*
X25122637Y-171505475D01*
X25123116Y-171500000D01*
X25104686Y-171289345D01*
X25102031Y-171279437D01*
X25051379Y-171090400D01*
X25051378Y-171090398D01*
X25049956Y-171085090D01*
X24960589Y-170893442D01*
X24839301Y-170720224D01*
X24689776Y-170570699D01*
X24516558Y-170449411D01*
X24511580Y-170447090D01*
X24511577Y-170447088D01*
X24329892Y-170362367D01*
X24329891Y-170362366D01*
X24324910Y-170360044D01*
X24319602Y-170358622D01*
X24319600Y-170358621D01*
X24125970Y-170306738D01*
X24125968Y-170306738D01*
X24120655Y-170305314D01*
X23910000Y-170286884D01*
X23699345Y-170305314D01*
X23694032Y-170306738D01*
X23694030Y-170306738D01*
X23500400Y-170358621D01*
X23500398Y-170358622D01*
X23495090Y-170360044D01*
X23490109Y-170362366D01*
X23490108Y-170362367D01*
X23308423Y-170447088D01*
X23308420Y-170447090D01*
X23303442Y-170449411D01*
X23130224Y-170570699D01*
X22980699Y-170720224D01*
X22859411Y-170893442D01*
X22770044Y-171085090D01*
X22768622Y-171090398D01*
X22768621Y-171090400D01*
X22717969Y-171279437D01*
X22715314Y-171289345D01*
X22696884Y-171500000D01*
X22715314Y-171710655D01*
X22716738Y-171715968D01*
X22716738Y-171715970D01*
X22747705Y-171831538D01*
X22770044Y-171914910D01*
X22859411Y-172106558D01*
X22980699Y-172279776D01*
X23130224Y-172429301D01*
X23303442Y-172550589D01*
X23308425Y-172552912D01*
X23313195Y-172555667D01*
X23312264Y-172557279D01*
X23359332Y-172598718D01*
X23378796Y-172666994D01*
X23358257Y-172734955D01*
X23304236Y-172781023D01*
X23252800Y-172792000D01*
X22973669Y-172792000D01*
X22965778Y-172792497D01*
X22660550Y-172831055D01*
X22652779Y-172832538D01*
X22354796Y-172909047D01*
X22347270Y-172911492D01*
X22061207Y-173024753D01*
X22054072Y-173028110D01*
X21784461Y-173176330D01*
X21777781Y-173180570D01*
X21554677Y-173342664D01*
X21546254Y-173353587D01*
X21553158Y-173366448D01*
X25058645Y-176871935D01*
X25071907Y-176879177D01*
X25082012Y-176871988D01*
X25158005Y-176780129D01*
X25162649Y-176773736D01*
X25327499Y-176513974D01*
X25331311Y-176507041D01*
X25462301Y-176228672D01*
X25465216Y-176221309D01*
X25560283Y-175928723D01*
X25562254Y-175921046D01*
X25619900Y-175618855D01*
X25620893Y-175610994D01*
X25640210Y-175303958D01*
X25640210Y-175296042D01*
X25620893Y-174989006D01*
X25619900Y-174981145D01*
X25562254Y-174678954D01*
X25560283Y-174671277D01*
X25465216Y-174378691D01*
X25462301Y-174371328D01*
X25393617Y-174225367D01*
X25382711Y-174155213D01*
X25411464Y-174090300D01*
X25470748Y-174051236D01*
X25541740Y-174050425D01*
X25596720Y-174082624D01*
X28441606Y-176927510D01*
X28475632Y-176989822D01*
X28478511Y-177016605D01*
X28478511Y-178662701D01*
X28458509Y-178730822D01*
X28404853Y-178777315D01*
X28334579Y-178787419D01*
X28319907Y-178784410D01*
X28215587Y-178756457D01*
X27987500Y-178736502D01*
X27759413Y-178756457D01*
X27754100Y-178757881D01*
X27754098Y-178757881D01*
X27543567Y-178814293D01*
X27543565Y-178814294D01*
X27538257Y-178815716D01*
X27533276Y-178818039D01*
X27533275Y-178818039D01*
X27335738Y-178910151D01*
X27335733Y-178910154D01*
X27330751Y-178912477D01*
X27323659Y-178917443D01*
X27147711Y-179040643D01*
X27147708Y-179040645D01*
X27143200Y-179043802D01*
X27076595Y-179110407D01*
X27014283Y-179144433D01*
X26943468Y-179139368D01*
X26898405Y-179110407D01*
X26831800Y-179043802D01*
X26827292Y-179040645D01*
X26827289Y-179040643D01*
X26651341Y-178917443D01*
X26644249Y-178912477D01*
X26639267Y-178910154D01*
X26639262Y-178910151D01*
X26441725Y-178818039D01*
X26441724Y-178818039D01*
X26436743Y-178815716D01*
X26431435Y-178814294D01*
X26431433Y-178814293D01*
X26220902Y-178757881D01*
X26220900Y-178757881D01*
X26215587Y-178756457D01*
X25987500Y-178736502D01*
X25759413Y-178756457D01*
X25754100Y-178757881D01*
X25754098Y-178757881D01*
X25543567Y-178814293D01*
X25543565Y-178814294D01*
X25538257Y-178815716D01*
X25533276Y-178818039D01*
X25533275Y-178818039D01*
X25335738Y-178910151D01*
X25335733Y-178910154D01*
X25330751Y-178912477D01*
X25323659Y-178917443D01*
X25147711Y-179040643D01*
X25147708Y-179040645D01*
X25143200Y-179043802D01*
X24981302Y-179205700D01*
X24978145Y-179210208D01*
X24978143Y-179210211D01*
X24936698Y-179269401D01*
X24849977Y-179393251D01*
X24847654Y-179398233D01*
X24847651Y-179398238D01*
X24755605Y-179595634D01*
X24753216Y-179600757D01*
X24751794Y-179606065D01*
X24751793Y-179606067D01*
X24695381Y-179816598D01*
X24693957Y-179821913D01*
X24674002Y-180050000D01*
X24693957Y-180278087D01*
X24695381Y-180283400D01*
X24695381Y-180283402D01*
X24744198Y-180465586D01*
X24753216Y-180499243D01*
X24755539Y-180504224D01*
X24755539Y-180504225D01*
X24847651Y-180701762D01*
X24847654Y-180701767D01*
X24849977Y-180706749D01*
X24906043Y-180786819D01*
X24977480Y-180888841D01*
X24981302Y-180894300D01*
X25143200Y-181056198D01*
X25147708Y-181059355D01*
X25147711Y-181059357D01*
X25224390Y-181113048D01*
X25330751Y-181187523D01*
X25335735Y-181189847D01*
X25338028Y-181191171D01*
X25387021Y-181242553D01*
X25400457Y-181312267D01*
X25374071Y-181378178D01*
X25338028Y-181409409D01*
X25326498Y-181416066D01*
X25274452Y-181452509D01*
X25266076Y-181462988D01*
X25273144Y-181476434D01*
X26257615Y-182460905D01*
X26291641Y-182523217D01*
X26286576Y-182594032D01*
X26257615Y-182639095D01*
X25272423Y-183624287D01*
X25265993Y-183636062D01*
X25275289Y-183648077D01*
X25326494Y-183683931D01*
X25335989Y-183689414D01*
X25533447Y-183781490D01*
X25543739Y-183785236D01*
X25754188Y-183841625D01*
X25764981Y-183843528D01*
X25982025Y-183862517D01*
X25992975Y-183862517D01*
X26210019Y-183843528D01*
X26220812Y-183841625D01*
X26431261Y-183785236D01*
X26441553Y-183781490D01*
X26639011Y-183689414D01*
X26648511Y-183683929D01*
X26649410Y-183683299D01*
X26649870Y-183683144D01*
X26653268Y-183681182D01*
X26653662Y-183681865D01*
X26716684Y-183660612D01*
X26785544Y-183677898D01*
X26811303Y-183700934D01*
X26812507Y-183699730D01*
X26818858Y-183706081D01*
X26824239Y-183713261D01*
X26831419Y-183718642D01*
X26831422Y-183718645D01*
X26833113Y-183719912D01*
X26940795Y-183800615D01*
X27077184Y-183851745D01*
X27139366Y-183858500D01*
X28835634Y-183858500D01*
X28897816Y-183851745D01*
X28902714Y-183849909D01*
X28972434Y-183853550D01*
X29030077Y-183894996D01*
X29038592Y-183907929D01*
X29040448Y-183912617D01*
X29045108Y-183919031D01*
X29066436Y-183948387D01*
X29072952Y-183958307D01*
X29095458Y-183996362D01*
X29109779Y-184010683D01*
X29122619Y-184025716D01*
X29134528Y-184042107D01*
X29140634Y-184047158D01*
X29168605Y-184070298D01*
X29177384Y-184078288D01*
X31370848Y-186271752D01*
X31404874Y-186334064D01*
X31403459Y-186393459D01*
X31387882Y-186451591D01*
X31387881Y-186451598D01*
X31386457Y-186456913D01*
X31366502Y-186685000D01*
X31386457Y-186913087D01*
X31387881Y-186918400D01*
X31387881Y-186918402D01*
X31443860Y-187127315D01*
X31445716Y-187134243D01*
X31448039Y-187139224D01*
X31448039Y-187139225D01*
X31540151Y-187336762D01*
X31540154Y-187336767D01*
X31542477Y-187341749D01*
X31603159Y-187428411D01*
X31642412Y-187484470D01*
X31673802Y-187529300D01*
X31835700Y-187691198D01*
X31840208Y-187694355D01*
X31840211Y-187694357D01*
X31992771Y-187801181D01*
X32037099Y-187856638D01*
X32046500Y-187904394D01*
X32046500Y-188005606D01*
X32026498Y-188073727D01*
X31992771Y-188108819D01*
X31840211Y-188215643D01*
X31840208Y-188215645D01*
X31835700Y-188218802D01*
X31673802Y-188380700D01*
X31670645Y-188385208D01*
X31670643Y-188385211D01*
X31660288Y-188400000D01*
X31542477Y-188568251D01*
X31540154Y-188573233D01*
X31540151Y-188573238D01*
X31460613Y-188743809D01*
X31445716Y-188775757D01*
X31444294Y-188781065D01*
X31444293Y-188781067D01*
X31404871Y-188928192D01*
X31386457Y-188996913D01*
X31366502Y-189225000D01*
X31386457Y-189453087D01*
X31387881Y-189458400D01*
X31387881Y-189458402D01*
X31434231Y-189631379D01*
X31445716Y-189674243D01*
X31448039Y-189679224D01*
X31448039Y-189679225D01*
X31540151Y-189876762D01*
X31540154Y-189876767D01*
X31542477Y-189881749D01*
X31615902Y-189986611D01*
X31667438Y-190060211D01*
X31673802Y-190069300D01*
X31835700Y-190231198D01*
X31840208Y-190234355D01*
X31840211Y-190234357D01*
X31909708Y-190283019D01*
X32023251Y-190362523D01*
X32028233Y-190364846D01*
X32028238Y-190364849D01*
X32223858Y-190456067D01*
X32230757Y-190459284D01*
X32236065Y-190460706D01*
X32236067Y-190460707D01*
X32446598Y-190517119D01*
X32446600Y-190517119D01*
X32451913Y-190518543D01*
X32680000Y-190538498D01*
X32908087Y-190518543D01*
X32913400Y-190517119D01*
X32913402Y-190517119D01*
X33012270Y-190490627D01*
X33083246Y-190492317D01*
X33142042Y-190532111D01*
X33169990Y-190597375D01*
X33170818Y-190608362D01*
X33170948Y-190612484D01*
X33171011Y-190616456D01*
X33171011Y-190644367D01*
X33171508Y-190648301D01*
X33171508Y-190648302D01*
X33171516Y-190648367D01*
X33172449Y-190660204D01*
X33173838Y-190704400D01*
X33179489Y-190723850D01*
X33183498Y-190743211D01*
X33186037Y-190763308D01*
X33188956Y-190770679D01*
X33188956Y-190770681D01*
X33202315Y-190804423D01*
X33206160Y-190815653D01*
X33207488Y-190820224D01*
X33218493Y-190858104D01*
X33222526Y-190864923D01*
X33222528Y-190864928D01*
X33228804Y-190875539D01*
X33237499Y-190893287D01*
X33244959Y-190912128D01*
X33249621Y-190918544D01*
X33249621Y-190918545D01*
X33270947Y-190947898D01*
X33277463Y-190957818D01*
X33299969Y-190995873D01*
X33314290Y-191010194D01*
X33327130Y-191025227D01*
X33339039Y-191041618D01*
X33345145Y-191046669D01*
X33373116Y-191069809D01*
X33381895Y-191077799D01*
X33473598Y-191169502D01*
X33507624Y-191231814D01*
X33502559Y-191302629D01*
X33460012Y-191359465D01*
X33437757Y-191372790D01*
X33345849Y-191415647D01*
X33278423Y-191447088D01*
X33278420Y-191447090D01*
X33273442Y-191449411D01*
X33100224Y-191570699D01*
X32950699Y-191720224D01*
X32829411Y-191893442D01*
X32827090Y-191898420D01*
X32827088Y-191898423D01*
X32754182Y-192054771D01*
X32740044Y-192085090D01*
X32738622Y-192090398D01*
X32738621Y-192090400D01*
X32692721Y-192261703D01*
X32685314Y-192289345D01*
X32666884Y-192500000D01*
X32685314Y-192710655D01*
X32686738Y-192715968D01*
X32686738Y-192715970D01*
X32717705Y-192831538D01*
X32740044Y-192914910D01*
X32742366Y-192919891D01*
X32742367Y-192919892D01*
X32798608Y-193040500D01*
X32829411Y-193106558D01*
X32950699Y-193279776D01*
X33100224Y-193429301D01*
X33125199Y-193446789D01*
X33169526Y-193502243D01*
X33176835Y-193572862D01*
X33144805Y-193636223D01*
X33125204Y-193653208D01*
X33100224Y-193670699D01*
X32950699Y-193820224D01*
X32829411Y-193993442D01*
X32827090Y-193998420D01*
X32827088Y-193998423D01*
X32821384Y-194010655D01*
X32740044Y-194185090D01*
X32738622Y-194190398D01*
X32738621Y-194190400D01*
X32705894Y-194312539D01*
X32685314Y-194389345D01*
X32666884Y-194600000D01*
X32685314Y-194810655D01*
X32686738Y-194815968D01*
X32686738Y-194815970D01*
X32732376Y-194986291D01*
X32740044Y-195014910D01*
X32742366Y-195019891D01*
X32742367Y-195019892D01*
X32817353Y-195180699D01*
X32829411Y-195206558D01*
X32950699Y-195379776D01*
X33100224Y-195529301D01*
X33125199Y-195546789D01*
X33169526Y-195602243D01*
X33176835Y-195672862D01*
X33144805Y-195736223D01*
X33125204Y-195753208D01*
X33100224Y-195770699D01*
X32950699Y-195920224D01*
X32942282Y-195932245D01*
X32885898Y-196012770D01*
X32830441Y-196057099D01*
X32782685Y-196066500D01*
X30014594Y-196066500D01*
X29946473Y-196046498D01*
X29925499Y-196029595D01*
X28723384Y-194827480D01*
X28689359Y-194765169D01*
X28694424Y-194694354D01*
X28736971Y-194637518D01*
X28801498Y-194612865D01*
X29022520Y-194593528D01*
X29033312Y-194591625D01*
X29243761Y-194535236D01*
X29254053Y-194531490D01*
X29451511Y-194439414D01*
X29461006Y-194433931D01*
X29513048Y-194397491D01*
X29521424Y-194387012D01*
X29514356Y-194373566D01*
X28441922Y-193301132D01*
X29164408Y-193301132D01*
X29164539Y-193302965D01*
X29168790Y-193309580D01*
X29874287Y-194015077D01*
X29886062Y-194021507D01*
X29898077Y-194012211D01*
X29933931Y-193961006D01*
X29939414Y-193951511D01*
X30031490Y-193754053D01*
X30035236Y-193743761D01*
X30091625Y-193533312D01*
X30093528Y-193522519D01*
X30112517Y-193305475D01*
X30112517Y-193294525D01*
X30093528Y-193077481D01*
X30091625Y-193066688D01*
X30035236Y-192856239D01*
X30031490Y-192845947D01*
X29939414Y-192648489D01*
X29933931Y-192638994D01*
X29897491Y-192586952D01*
X29887012Y-192578576D01*
X29873566Y-192585644D01*
X29172022Y-193287188D01*
X29164408Y-193301132D01*
X28441922Y-193301132D01*
X27725713Y-192584923D01*
X27683971Y-192562129D01*
X27673971Y-192559953D01*
X27623773Y-192509747D01*
X27608549Y-192456186D01*
X27608500Y-192455281D01*
X27608500Y-192451866D01*
X27601745Y-192389684D01*
X27550615Y-192253295D01*
X27520407Y-192212988D01*
X28078576Y-192212988D01*
X28085644Y-192226434D01*
X28787188Y-192927978D01*
X28801132Y-192935592D01*
X28802965Y-192935461D01*
X28809580Y-192931210D01*
X29515077Y-192225713D01*
X29521507Y-192213938D01*
X29512211Y-192201923D01*
X29461006Y-192166069D01*
X29451511Y-192160586D01*
X29254053Y-192068510D01*
X29243761Y-192064764D01*
X29033312Y-192008375D01*
X29022519Y-192006472D01*
X28805475Y-191987483D01*
X28794525Y-191987483D01*
X28577481Y-192006472D01*
X28566688Y-192008375D01*
X28356239Y-192064764D01*
X28345947Y-192068510D01*
X28148489Y-192160586D01*
X28138994Y-192166069D01*
X28086952Y-192202509D01*
X28078576Y-192212988D01*
X27520407Y-192212988D01*
X27463261Y-192136739D01*
X27346705Y-192049385D01*
X27210316Y-191998255D01*
X27148134Y-191991500D01*
X25451866Y-191991500D01*
X25389684Y-191998255D01*
X25253295Y-192049385D01*
X25136739Y-192136739D01*
X25049385Y-192253295D01*
X24998255Y-192389684D01*
X24991500Y-192451866D01*
X24991500Y-193040500D01*
X24971498Y-193108621D01*
X24917842Y-193155114D01*
X24865500Y-193166500D01*
X23807315Y-193166500D01*
X23739194Y-193146498D01*
X23704102Y-193112770D01*
X23683670Y-193083590D01*
X23639301Y-193020224D01*
X23489776Y-192870699D01*
X23407230Y-192812900D01*
X23362901Y-192757443D01*
X23353500Y-192709687D01*
X23353500Y-192697315D01*
X23373502Y-192629194D01*
X23407230Y-192594102D01*
X23428225Y-192579401D01*
X23499776Y-192529301D01*
X23649301Y-192379776D01*
X23770589Y-192206558D01*
X23789470Y-192166069D01*
X23857633Y-192019892D01*
X23857634Y-192019891D01*
X23859956Y-192014910D01*
X23863676Y-192001029D01*
X23913262Y-191815970D01*
X23913262Y-191815968D01*
X23914686Y-191810655D01*
X23933116Y-191600000D01*
X23914686Y-191389345D01*
X23898777Y-191329970D01*
X23861379Y-191190400D01*
X23861378Y-191190398D01*
X23859956Y-191185090D01*
X23852687Y-191169502D01*
X23772912Y-190998423D01*
X23772910Y-190998420D01*
X23770589Y-190993442D01*
X23649301Y-190820224D01*
X23499776Y-190670699D01*
X23326558Y-190549411D01*
X23321580Y-190547090D01*
X23321577Y-190547088D01*
X23139892Y-190462367D01*
X23139891Y-190462366D01*
X23134910Y-190460044D01*
X23129602Y-190458622D01*
X23129600Y-190458621D01*
X22935970Y-190406738D01*
X22935968Y-190406738D01*
X22930655Y-190405314D01*
X22720000Y-190386884D01*
X22509345Y-190405314D01*
X22504032Y-190406738D01*
X22504030Y-190406738D01*
X22310400Y-190458621D01*
X22310398Y-190458622D01*
X22305090Y-190460044D01*
X22300109Y-190462366D01*
X22300108Y-190462367D01*
X22118423Y-190547088D01*
X22118420Y-190547090D01*
X22113442Y-190549411D01*
X21940224Y-190670699D01*
X21790699Y-190820224D01*
X21669411Y-190993442D01*
X21667090Y-190998420D01*
X21667088Y-190998423D01*
X21587313Y-191169502D01*
X21580044Y-191185090D01*
X21578622Y-191190398D01*
X21578621Y-191190400D01*
X21541223Y-191329970D01*
X21525314Y-191389345D01*
X21506884Y-191600000D01*
X21525314Y-191810655D01*
X21526738Y-191815968D01*
X21526738Y-191815970D01*
X21576325Y-192001029D01*
X21580044Y-192014910D01*
X21582366Y-192019891D01*
X21582367Y-192019892D01*
X21650531Y-192166069D01*
X21669411Y-192206558D01*
X21790699Y-192379776D01*
X21940224Y-192529301D01*
X22031607Y-192593288D01*
X22075934Y-192648742D01*
X22083243Y-192719362D01*
X22051213Y-192782722D01*
X22031613Y-192799706D01*
X21930224Y-192870699D01*
X21780699Y-193020224D01*
X21659411Y-193193442D01*
X21657090Y-193198420D01*
X21657088Y-193198423D01*
X21607169Y-193305475D01*
X21570044Y-193385090D01*
X21568622Y-193390398D01*
X21568621Y-193390400D01*
X21516738Y-193584030D01*
X21515314Y-193589345D01*
X21496884Y-193800000D01*
X21515314Y-194010655D01*
X21516738Y-194015968D01*
X21516738Y-194015970D01*
X21563477Y-194190400D01*
X21570044Y-194214910D01*
X21572366Y-194219891D01*
X21572367Y-194219892D01*
X21653940Y-194394825D01*
X21659411Y-194406558D01*
X21780699Y-194579776D01*
X21930224Y-194729301D01*
X22103442Y-194850589D01*
X22108420Y-194852910D01*
X22108423Y-194852912D01*
X22289092Y-194937159D01*
X22295090Y-194939956D01*
X22300398Y-194941378D01*
X22300400Y-194941379D01*
X22494030Y-194993262D01*
X22494032Y-194993262D01*
X22499345Y-194994686D01*
X22710000Y-195013116D01*
X22920655Y-194994686D01*
X22925968Y-194993262D01*
X22925970Y-194993262D01*
X23119600Y-194941379D01*
X23119602Y-194941378D01*
X23124910Y-194939956D01*
X23130908Y-194937159D01*
X23311577Y-194852912D01*
X23311580Y-194852910D01*
X23316558Y-194850589D01*
X23489776Y-194729301D01*
X23639301Y-194579776D01*
X23704102Y-194487230D01*
X23759559Y-194442901D01*
X23807315Y-194433500D01*
X25056587Y-194433500D01*
X25124708Y-194453502D01*
X25136620Y-194463102D01*
X25136739Y-194463261D01*
X25253295Y-194550615D01*
X25389684Y-194601745D01*
X25451866Y-194608500D01*
X26660406Y-194608500D01*
X26728527Y-194628502D01*
X26749501Y-194645405D01*
X27974045Y-195869950D01*
X29196348Y-197092253D01*
X29203888Y-197100539D01*
X29208000Y-197107018D01*
X29213777Y-197112443D01*
X29257651Y-197153643D01*
X29260493Y-197156398D01*
X29280230Y-197176135D01*
X29283427Y-197178615D01*
X29292447Y-197186318D01*
X29324679Y-197216586D01*
X29331625Y-197220405D01*
X29331628Y-197220407D01*
X29342434Y-197226348D01*
X29358953Y-197237199D01*
X29374959Y-197249614D01*
X29382228Y-197252759D01*
X29382232Y-197252762D01*
X29415537Y-197267174D01*
X29426187Y-197272391D01*
X29464940Y-197293695D01*
X29472615Y-197295666D01*
X29472616Y-197295666D01*
X29484562Y-197298733D01*
X29503267Y-197305137D01*
X29521855Y-197313181D01*
X29529678Y-197314420D01*
X29529688Y-197314423D01*
X29565524Y-197320099D01*
X29577144Y-197322505D01*
X29612289Y-197331528D01*
X29619970Y-197333500D01*
X29640224Y-197333500D01*
X29659934Y-197335051D01*
X29679943Y-197338220D01*
X29687835Y-197337474D01*
X29723961Y-197334059D01*
X29735819Y-197333500D01*
X32782685Y-197333500D01*
X32850806Y-197353502D01*
X32885898Y-197387230D01*
X32950699Y-197479776D01*
X33047828Y-197576905D01*
X33081854Y-197639217D01*
X33076789Y-197710032D01*
X33034242Y-197766868D01*
X32967722Y-197791679D01*
X32958733Y-197792000D01*
X16249328Y-197792000D01*
X16229943Y-197790500D01*
X16215142Y-197788195D01*
X16215139Y-197788195D01*
X16206270Y-197786814D01*
X16186946Y-197789341D01*
X16164430Y-197790253D01*
X15863900Y-197775488D01*
X15851606Y-197774278D01*
X15524861Y-197725809D01*
X15512751Y-197723401D01*
X15192324Y-197643138D01*
X15180493Y-197639549D01*
X14869506Y-197528275D01*
X14858082Y-197523544D01*
X14589678Y-197396599D01*
X14559473Y-197382313D01*
X14548572Y-197376486D01*
X14507305Y-197351751D01*
X14332910Y-197247223D01*
X14265255Y-197206672D01*
X14254974Y-197199802D01*
X13989671Y-197003040D01*
X13980113Y-196995196D01*
X13735370Y-196773374D01*
X13726626Y-196764630D01*
X13504804Y-196519887D01*
X13496960Y-196510329D01*
X13300198Y-196245026D01*
X13293328Y-196234745D01*
X13205934Y-196088937D01*
X13123512Y-195951424D01*
X13117685Y-195940523D01*
X13110219Y-195924736D01*
X13039207Y-195774594D01*
X12976456Y-195641918D01*
X12971725Y-195630494D01*
X12860451Y-195319507D01*
X12856861Y-195307674D01*
X12832661Y-195211063D01*
X12776599Y-194987249D01*
X12774189Y-194975130D01*
X12773780Y-194972367D01*
X12750327Y-194814261D01*
X14440294Y-194814261D01*
X14449590Y-194826276D01*
X14479189Y-194847001D01*
X14488677Y-194852479D01*
X14670277Y-194937159D01*
X14680571Y-194940907D01*
X14874122Y-194992769D01*
X14884909Y-194994671D01*
X15084525Y-195012135D01*
X15095475Y-195012135D01*
X15295091Y-194994671D01*
X15305878Y-194992769D01*
X15499429Y-194940907D01*
X15509723Y-194937159D01*
X15691323Y-194852479D01*
X15700811Y-194847001D01*
X15731248Y-194825689D01*
X15739623Y-194815212D01*
X15732554Y-194801764D01*
X15102812Y-194172022D01*
X15088868Y-194164408D01*
X15087035Y-194164539D01*
X15080420Y-194168790D01*
X14446724Y-194802486D01*
X14440294Y-194814261D01*
X12750327Y-194814261D01*
X12725722Y-194648394D01*
X12724511Y-194636093D01*
X12723138Y-194608131D01*
X12715351Y-194449623D01*
X12710293Y-194346665D01*
X12711886Y-194319586D01*
X12712264Y-194317340D01*
X12712265Y-194317331D01*
X12713071Y-194312539D01*
X12713224Y-194300000D01*
X12709273Y-194272412D01*
X12708000Y-194254549D01*
X12708000Y-193805475D01*
X13877865Y-193805475D01*
X13895329Y-194005091D01*
X13897231Y-194015878D01*
X13949093Y-194209429D01*
X13952841Y-194219723D01*
X14037521Y-194401323D01*
X14042999Y-194410811D01*
X14064311Y-194441248D01*
X14074788Y-194449623D01*
X14088236Y-194442554D01*
X14717978Y-193812812D01*
X14724356Y-193801132D01*
X15454408Y-193801132D01*
X15454539Y-193802965D01*
X15458790Y-193809580D01*
X16092486Y-194443276D01*
X16104261Y-194449706D01*
X16116276Y-194440410D01*
X16137001Y-194410811D01*
X16142479Y-194401323D01*
X16227159Y-194219723D01*
X16230907Y-194209429D01*
X16282769Y-194015878D01*
X16284671Y-194005091D01*
X16302135Y-193805475D01*
X16302135Y-193794525D01*
X16284671Y-193594909D01*
X16282769Y-193584122D01*
X16230907Y-193390571D01*
X16227159Y-193380277D01*
X16142479Y-193198677D01*
X16137001Y-193189189D01*
X16115689Y-193158752D01*
X16105212Y-193150377D01*
X16091764Y-193157446D01*
X15462022Y-193787188D01*
X15454408Y-193801132D01*
X14724356Y-193801132D01*
X14725592Y-193798868D01*
X14725461Y-193797035D01*
X14721210Y-193790420D01*
X14087514Y-193156724D01*
X14075739Y-193150294D01*
X14063724Y-193159590D01*
X14042999Y-193189189D01*
X14037521Y-193198677D01*
X13952841Y-193380277D01*
X13949093Y-193390571D01*
X13897231Y-193584122D01*
X13895329Y-193594909D01*
X13877865Y-193794525D01*
X13877865Y-193805475D01*
X12708000Y-193805475D01*
X12708000Y-168353207D01*
X12709746Y-168332303D01*
X12712264Y-168317335D01*
X12713071Y-168312539D01*
X12713224Y-168300000D01*
X12711048Y-168284804D01*
X12709927Y-168260763D01*
X12711668Y-168225341D01*
X12724512Y-167963900D01*
X12725723Y-167951601D01*
X12730598Y-167918738D01*
X12774191Y-167624861D01*
X12776601Y-167612743D01*
X12783884Y-167583671D01*
X12856862Y-167292324D01*
X12860451Y-167280493D01*
X12971725Y-166969506D01*
X12976456Y-166958082D01*
X13076653Y-166746233D01*
X13117687Y-166659473D01*
X13123514Y-166648572D01*
X13136065Y-166627633D01*
X13241795Y-166451233D01*
X13293328Y-166365255D01*
X13300198Y-166354974D01*
X13481447Y-166110588D01*
X18587483Y-166110588D01*
X18606472Y-166327632D01*
X18608375Y-166338425D01*
X18664764Y-166548874D01*
X18668510Y-166559166D01*
X18760586Y-166756624D01*
X18766069Y-166766119D01*
X18802509Y-166818161D01*
X18812988Y-166826537D01*
X18826434Y-166819469D01*
X19527978Y-166117925D01*
X19534356Y-166106245D01*
X20264408Y-166106245D01*
X20264539Y-166108078D01*
X20268790Y-166114693D01*
X20974287Y-166820190D01*
X20986062Y-166826620D01*
X20998077Y-166817324D01*
X21006374Y-166805475D01*
X30177865Y-166805475D01*
X30195329Y-167005091D01*
X30197231Y-167015878D01*
X30249093Y-167209429D01*
X30252841Y-167219723D01*
X30337521Y-167401323D01*
X30342999Y-167410811D01*
X30364311Y-167441248D01*
X30374788Y-167449623D01*
X30388236Y-167442554D01*
X31017978Y-166812812D01*
X31024356Y-166801132D01*
X31754408Y-166801132D01*
X31754539Y-166802965D01*
X31758790Y-166809580D01*
X32392486Y-167443276D01*
X32404261Y-167449706D01*
X32416276Y-167440410D01*
X32437001Y-167410811D01*
X32442479Y-167401323D01*
X32527159Y-167219723D01*
X32530907Y-167209429D01*
X32582769Y-167015878D01*
X32584671Y-167005091D01*
X32602135Y-166805475D01*
X32602135Y-166794525D01*
X32584671Y-166594909D01*
X32582769Y-166584122D01*
X32530907Y-166390571D01*
X32527159Y-166380277D01*
X32442479Y-166198677D01*
X32437001Y-166189189D01*
X32415689Y-166158752D01*
X32405212Y-166150377D01*
X32391764Y-166157446D01*
X31762022Y-166787188D01*
X31754408Y-166801132D01*
X31024356Y-166801132D01*
X31025592Y-166798868D01*
X31025461Y-166797035D01*
X31021210Y-166790420D01*
X30387514Y-166156724D01*
X30375739Y-166150294D01*
X30363724Y-166159590D01*
X30342999Y-166189189D01*
X30337521Y-166198677D01*
X30252841Y-166380277D01*
X30249093Y-166390571D01*
X30197231Y-166584122D01*
X30195329Y-166594909D01*
X30177865Y-166794525D01*
X30177865Y-166805475D01*
X21006374Y-166805475D01*
X21033931Y-166766119D01*
X21039414Y-166756624D01*
X21131490Y-166559166D01*
X21135236Y-166548874D01*
X21191625Y-166338425D01*
X21193528Y-166327632D01*
X21212517Y-166110588D01*
X21212517Y-166099638D01*
X21193528Y-165882594D01*
X21191625Y-165871801D01*
X21168310Y-165784788D01*
X30740377Y-165784788D01*
X30747446Y-165798236D01*
X31377188Y-166427978D01*
X31391132Y-166435592D01*
X31392965Y-166435461D01*
X31399580Y-166431210D01*
X32033276Y-165797514D01*
X32039706Y-165785739D01*
X32030410Y-165773724D01*
X32000811Y-165752999D01*
X31991323Y-165747521D01*
X31809723Y-165662841D01*
X31799429Y-165659093D01*
X31605878Y-165607231D01*
X31595091Y-165605329D01*
X31395475Y-165587865D01*
X31384525Y-165587865D01*
X31184909Y-165605329D01*
X31174122Y-165607231D01*
X30980571Y-165659093D01*
X30970277Y-165662841D01*
X30788677Y-165747521D01*
X30779189Y-165752999D01*
X30748752Y-165774311D01*
X30740377Y-165784788D01*
X21168310Y-165784788D01*
X21135236Y-165661352D01*
X21131490Y-165651060D01*
X21039414Y-165453602D01*
X21033931Y-165444107D01*
X20997491Y-165392065D01*
X20987012Y-165383689D01*
X20973566Y-165390757D01*
X20272022Y-166092301D01*
X20264408Y-166106245D01*
X19534356Y-166106245D01*
X19535592Y-166103981D01*
X19535461Y-166102148D01*
X19531210Y-166095533D01*
X18825713Y-165390036D01*
X18813938Y-165383606D01*
X18801923Y-165392902D01*
X18766069Y-165444107D01*
X18760586Y-165453602D01*
X18668510Y-165651060D01*
X18664764Y-165661352D01*
X18608375Y-165871801D01*
X18606472Y-165882594D01*
X18587483Y-166099638D01*
X18587483Y-166110588D01*
X13481447Y-166110588D01*
X13496960Y-166089671D01*
X13504804Y-166080113D01*
X13726626Y-165835370D01*
X13735370Y-165826626D01*
X13980113Y-165604804D01*
X13989671Y-165596960D01*
X14254974Y-165400198D01*
X14265255Y-165393328D01*
X14548572Y-165223514D01*
X14559477Y-165217685D01*
X14858082Y-165076456D01*
X14869506Y-165071725D01*
X15180493Y-164960451D01*
X15192326Y-164956861D01*
X15512751Y-164876599D01*
X15524861Y-164874191D01*
X15851606Y-164825722D01*
X15863902Y-164824511D01*
X15952656Y-164820151D01*
X16157062Y-164810110D01*
X16182624Y-164811457D01*
X16184857Y-164811805D01*
X16184861Y-164811805D01*
X16193730Y-164813186D01*
X16202632Y-164812022D01*
X16202635Y-164812022D01*
X16222791Y-164809386D01*
X16225252Y-164809064D01*
X16241589Y-164808000D01*
X19084494Y-164808000D01*
X19152615Y-164828002D01*
G37*
%TD.AperFunction*%
%TA.AperFunction,Conductor*%
G36*
X35190362Y-192890043D02*
G01*
X35210498Y-192906402D01*
X39629532Y-197325436D01*
X39663558Y-197387748D01*
X39658493Y-197458563D01*
X39615946Y-197515399D01*
X39549426Y-197540210D01*
X39540437Y-197540531D01*
X35668626Y-197540531D01*
X35600505Y-197520529D01*
X35579530Y-197503626D01*
X35107442Y-197031537D01*
X35073417Y-196969225D01*
X35072453Y-196920559D01*
X35073263Y-196915965D01*
X35074686Y-196910655D01*
X35076908Y-196885264D01*
X35092637Y-196705475D01*
X35093116Y-196700000D01*
X35074686Y-196489345D01*
X35072798Y-196482299D01*
X35021379Y-196290400D01*
X35021378Y-196290398D01*
X35019956Y-196285090D01*
X35011817Y-196267635D01*
X34932912Y-196098423D01*
X34932910Y-196098420D01*
X34930589Y-196093442D01*
X34809301Y-195920224D01*
X34659776Y-195770699D01*
X34634801Y-195753211D01*
X34590474Y-195697757D01*
X34583165Y-195627138D01*
X34615195Y-195563777D01*
X34634796Y-195546792D01*
X34659776Y-195529301D01*
X34809301Y-195379776D01*
X34930589Y-195206558D01*
X34942648Y-195180699D01*
X35017633Y-195019892D01*
X35017634Y-195019891D01*
X35019956Y-195014910D01*
X35027625Y-194986291D01*
X35073262Y-194815970D01*
X35073262Y-194815968D01*
X35074686Y-194810655D01*
X35093116Y-194600000D01*
X35074686Y-194389345D01*
X35054106Y-194312539D01*
X35021379Y-194190400D01*
X35021378Y-194190398D01*
X35019956Y-194185090D01*
X34938616Y-194010655D01*
X34932912Y-193998423D01*
X34932910Y-193998420D01*
X34930589Y-193993442D01*
X34809301Y-193820224D01*
X34659776Y-193670699D01*
X34634801Y-193653211D01*
X34590474Y-193597757D01*
X34583165Y-193527138D01*
X34615195Y-193463777D01*
X34634796Y-193446792D01*
X34659776Y-193429301D01*
X34809301Y-193279776D01*
X34930589Y-193106558D01*
X35007209Y-192942246D01*
X35054125Y-192888962D01*
X35122402Y-192869501D01*
X35190362Y-192890043D01*
G37*
%TD.AperFunction*%
%TA.AperFunction,Conductor*%
G36*
X39091218Y-185923013D02*
G01*
X39137711Y-185976669D01*
X39147815Y-186046943D01*
X39137292Y-186082260D01*
X39120668Y-186117911D01*
X39070095Y-186226367D01*
X39065716Y-186235757D01*
X39064294Y-186241065D01*
X39064293Y-186241067D01*
X39008353Y-186449836D01*
X39006457Y-186456913D01*
X38986502Y-186685000D01*
X39006457Y-186913087D01*
X39007879Y-186918392D01*
X39007881Y-186918406D01*
X39023459Y-186976539D01*
X39021771Y-187047516D01*
X38990848Y-187098248D01*
X38885929Y-187203166D01*
X38783231Y-187305864D01*
X38774952Y-187313398D01*
X38768471Y-187317511D01*
X38721846Y-187367162D01*
X38719091Y-187370004D01*
X38699354Y-187389741D01*
X38696874Y-187392938D01*
X38689171Y-187401958D01*
X38658903Y-187434190D01*
X38655084Y-187441136D01*
X38655082Y-187441139D01*
X38649141Y-187451945D01*
X38638290Y-187468464D01*
X38625875Y-187484470D01*
X38622730Y-187491739D01*
X38622727Y-187491743D01*
X38608315Y-187525048D01*
X38603098Y-187535698D01*
X38581794Y-187574451D01*
X38579823Y-187582126D01*
X38579823Y-187582127D01*
X38576756Y-187594073D01*
X38570352Y-187612777D01*
X38568288Y-187617548D01*
X38562308Y-187631366D01*
X38561069Y-187639189D01*
X38561066Y-187639199D01*
X38555390Y-187675035D01*
X38552984Y-187686655D01*
X38551818Y-187691198D01*
X38541989Y-187729481D01*
X38541989Y-187749735D01*
X38540438Y-187769445D01*
X38537269Y-187789454D01*
X38538015Y-187797346D01*
X38541430Y-187833472D01*
X38541989Y-187845330D01*
X38541989Y-194141895D01*
X38521987Y-194210016D01*
X38468331Y-194256509D01*
X38398057Y-194266613D01*
X38333477Y-194237119D01*
X38326894Y-194230990D01*
X36485589Y-192389684D01*
X34474916Y-190379011D01*
X34440890Y-190316699D01*
X34438011Y-190289916D01*
X34438011Y-186297979D01*
X34438538Y-186286796D01*
X34440213Y-186279303D01*
X34438073Y-186211212D01*
X34438011Y-186207255D01*
X34438011Y-186179355D01*
X34437507Y-186175364D01*
X34436574Y-186163522D01*
X34435434Y-186127247D01*
X34435185Y-186119322D01*
X34432386Y-186109688D01*
X34429532Y-186099863D01*
X34425523Y-186080504D01*
X34423979Y-186068281D01*
X34423979Y-186068280D01*
X34422985Y-186060414D01*
X34422022Y-186057982D01*
X34424375Y-185989389D01*
X34464783Y-185931014D01*
X34530337Y-185903752D01*
X34543983Y-185903011D01*
X39023097Y-185903011D01*
X39091218Y-185923013D01*
G37*
%TD.AperFunction*%
%TA.AperFunction,Conductor*%
G36*
X41324468Y-179995196D02*
G01*
X41369531Y-180024157D01*
X42732860Y-181387486D01*
X42766886Y-181449798D01*
X42761821Y-181520613D01*
X42719274Y-181577449D01*
X42697015Y-181590776D01*
X42548238Y-181660151D01*
X42548233Y-181660154D01*
X42543251Y-181662477D01*
X42471070Y-181713019D01*
X42360211Y-181790643D01*
X42360208Y-181790645D01*
X42355700Y-181793802D01*
X42193802Y-181955700D01*
X42190645Y-181960208D01*
X42190643Y-181960211D01*
X42168056Y-181992469D01*
X42062477Y-182143251D01*
X42060154Y-182148233D01*
X42060151Y-182148238D01*
X41968549Y-182344681D01*
X41965716Y-182350757D01*
X41964294Y-182356065D01*
X41964293Y-182356067D01*
X41907881Y-182566598D01*
X41906457Y-182571913D01*
X41886502Y-182800000D01*
X41906457Y-183028087D01*
X41907881Y-183033400D01*
X41907881Y-183033402D01*
X41960841Y-183231048D01*
X41965716Y-183249243D01*
X41968039Y-183254224D01*
X41968039Y-183254225D01*
X42060151Y-183451762D01*
X42060154Y-183451767D01*
X42062477Y-183456749D01*
X42134946Y-183560245D01*
X42190087Y-183638994D01*
X42193802Y-183644300D01*
X42355700Y-183806198D01*
X42360208Y-183809355D01*
X42360211Y-183809357D01*
X42412467Y-183845947D01*
X42543251Y-183937523D01*
X42548233Y-183939846D01*
X42548238Y-183939849D01*
X42727806Y-184023582D01*
X42750757Y-184034284D01*
X42756065Y-184035706D01*
X42756067Y-184035707D01*
X42966598Y-184092119D01*
X42966600Y-184092119D01*
X42971913Y-184093543D01*
X43200000Y-184113498D01*
X43428087Y-184093543D01*
X43433400Y-184092119D01*
X43433402Y-184092119D01*
X43643933Y-184035707D01*
X43643935Y-184035706D01*
X43649243Y-184034284D01*
X43672194Y-184023582D01*
X43851762Y-183939849D01*
X43851767Y-183939846D01*
X43856749Y-183937523D01*
X44044300Y-183806198D01*
X44048197Y-183802301D01*
X44051044Y-183799912D01*
X44116084Y-183771446D01*
X44186189Y-183782662D01*
X44221133Y-183807337D01*
X45972666Y-185558870D01*
X46006692Y-185621182D01*
X46001627Y-185691997D01*
X45959080Y-185748833D01*
X45894801Y-185773464D01*
X45883894Y-185774440D01*
X45879000Y-185789596D01*
X45879000Y-187077885D01*
X45883475Y-187093124D01*
X45884865Y-187094329D01*
X45892548Y-187096000D01*
X46764885Y-187096000D01*
X46780124Y-187091525D01*
X46781329Y-187090135D01*
X46783000Y-187082452D01*
X46783000Y-186848908D01*
X46782734Y-186843119D01*
X46769016Y-186693819D01*
X46765931Y-186677175D01*
X46773185Y-186606550D01*
X46817470Y-186551058D01*
X46884726Y-186528318D01*
X46953600Y-186545549D01*
X46978916Y-186565120D01*
X50455562Y-190041766D01*
X50463106Y-190050056D01*
X50467219Y-190056537D01*
X50472996Y-190061962D01*
X50516886Y-190103177D01*
X50519728Y-190105932D01*
X50539450Y-190125654D01*
X50542574Y-190128077D01*
X50542578Y-190128081D01*
X50542643Y-190128131D01*
X50551664Y-190135836D01*
X50583898Y-190166105D01*
X50590846Y-190169924D01*
X50590848Y-190169926D01*
X50601651Y-190175865D01*
X50618178Y-190186721D01*
X50627917Y-190194276D01*
X50627919Y-190194277D01*
X50634179Y-190199133D01*
X50674759Y-190216693D01*
X50685407Y-190221910D01*
X50724159Y-190243214D01*
X50731835Y-190245185D01*
X50731838Y-190245186D01*
X50743781Y-190248252D01*
X50762486Y-190254656D01*
X50781074Y-190262700D01*
X50788897Y-190263939D01*
X50788907Y-190263942D01*
X50824743Y-190269618D01*
X50836363Y-190272024D01*
X50871508Y-190281047D01*
X50879189Y-190283019D01*
X50899443Y-190283019D01*
X50919153Y-190284570D01*
X50939162Y-190287739D01*
X50947054Y-190286993D01*
X50983180Y-190283578D01*
X50995038Y-190283019D01*
X57934925Y-190283019D01*
X58003046Y-190303021D01*
X58024020Y-190319924D01*
X58190848Y-190486752D01*
X58224874Y-190549064D01*
X58223459Y-190608459D01*
X58207882Y-190666591D01*
X58207881Y-190666598D01*
X58206457Y-190671913D01*
X58186502Y-190900000D01*
X58206457Y-191128087D01*
X58223154Y-191190400D01*
X58234408Y-191232399D01*
X58232718Y-191303376D01*
X58192924Y-191362172D01*
X58127660Y-191390120D01*
X58112701Y-191391011D01*
X47569594Y-191391011D01*
X47501473Y-191371009D01*
X47480499Y-191354106D01*
X45268329Y-189141936D01*
X45234303Y-189079624D01*
X45239368Y-189008809D01*
X45281915Y-188951973D01*
X45346194Y-188927342D01*
X45366106Y-188925560D01*
X45370067Y-188913294D01*
X45879000Y-188913294D01*
X45882806Y-188926256D01*
X45897722Y-188928192D01*
X45920300Y-188924313D01*
X45931417Y-188921334D01*
X46120252Y-188851669D01*
X46130630Y-188846719D01*
X46303606Y-188743809D01*
X46312915Y-188737045D01*
X46464243Y-188604335D01*
X46472153Y-188596000D01*
X46596764Y-188437931D01*
X46603032Y-188428280D01*
X46696743Y-188250164D01*
X46701152Y-188239521D01*
X46760833Y-188047316D01*
X46763227Y-188036054D01*
X46782563Y-187872678D01*
X46783000Y-187865272D01*
X46783000Y-187622115D01*
X46778525Y-187606876D01*
X46777135Y-187605671D01*
X46769452Y-187604000D01*
X45897115Y-187604000D01*
X45881876Y-187608475D01*
X45880671Y-187609865D01*
X45879000Y-187617548D01*
X45879000Y-188913294D01*
X45370067Y-188913294D01*
X45371000Y-188910404D01*
X45371000Y-187622115D01*
X45366525Y-187606876D01*
X45365135Y-187605671D01*
X45357452Y-187604000D01*
X44485115Y-187604000D01*
X44469876Y-187608475D01*
X44468671Y-187609865D01*
X44467000Y-187617548D01*
X44467000Y-187851092D01*
X44467266Y-187856881D01*
X44480984Y-188006176D01*
X44483082Y-188017493D01*
X44485256Y-188025204D01*
X44484494Y-188096196D01*
X44445472Y-188155507D01*
X44380579Y-188184306D01*
X44310417Y-188173449D01*
X44274893Y-188148499D01*
X43204279Y-187077885D01*
X44467000Y-187077885D01*
X44471475Y-187093124D01*
X44472865Y-187094329D01*
X44480548Y-187096000D01*
X45352885Y-187096000D01*
X45368124Y-187091525D01*
X45369329Y-187090135D01*
X45371000Y-187082452D01*
X45371000Y-185786706D01*
X45367194Y-185773744D01*
X45352278Y-185771808D01*
X45329700Y-185775687D01*
X45318583Y-185778666D01*
X45129748Y-185848331D01*
X45119370Y-185853281D01*
X44946394Y-185956191D01*
X44937085Y-185962955D01*
X44785757Y-186095665D01*
X44777847Y-186104000D01*
X44653236Y-186262069D01*
X44646968Y-186271720D01*
X44553257Y-186449836D01*
X44548848Y-186460479D01*
X44489167Y-186652684D01*
X44486773Y-186663946D01*
X44467437Y-186827322D01*
X44467000Y-186834728D01*
X44467000Y-187077885D01*
X43204279Y-187077885D01*
X41300041Y-185173647D01*
X41266015Y-185111335D01*
X41271080Y-185040519D01*
X41298786Y-184997410D01*
X41298774Y-184997400D01*
X41298852Y-184997307D01*
X41300041Y-184995457D01*
X41306198Y-184989300D01*
X41437523Y-184801749D01*
X41439846Y-184796767D01*
X41439849Y-184796762D01*
X41531961Y-184599225D01*
X41531961Y-184599224D01*
X41534284Y-184594243D01*
X41560626Y-184495936D01*
X41592119Y-184378402D01*
X41592120Y-184378399D01*
X41593543Y-184373087D01*
X41613498Y-184145000D01*
X41593543Y-183916913D01*
X41576081Y-183851745D01*
X41535707Y-183701067D01*
X41535706Y-183701065D01*
X41534284Y-183695757D01*
X41529194Y-183684842D01*
X41439849Y-183493238D01*
X41439846Y-183493233D01*
X41437523Y-183488251D01*
X41306198Y-183300700D01*
X41144300Y-183138802D01*
X41139792Y-183135645D01*
X41139789Y-183135643D01*
X41022479Y-183053502D01*
X40956749Y-183007477D01*
X40951767Y-183005154D01*
X40951762Y-183005151D01*
X40917543Y-182989195D01*
X40864258Y-182942278D01*
X40844797Y-182874001D01*
X40865339Y-182806041D01*
X40917543Y-182760805D01*
X40951762Y-182744849D01*
X40951767Y-182744846D01*
X40956749Y-182742523D01*
X41132505Y-182619457D01*
X41139789Y-182614357D01*
X41139792Y-182614355D01*
X41144300Y-182611198D01*
X41306198Y-182449300D01*
X41344708Y-182394303D01*
X41379453Y-182344681D01*
X41437523Y-182261749D01*
X41439846Y-182256767D01*
X41439849Y-182256762D01*
X41531961Y-182059225D01*
X41531961Y-182059224D01*
X41534284Y-182054243D01*
X41542772Y-182022568D01*
X41592119Y-181838402D01*
X41592120Y-181838398D01*
X41593543Y-181833087D01*
X41613498Y-181605000D01*
X41593543Y-181376913D01*
X41592119Y-181371598D01*
X41535707Y-181161067D01*
X41535706Y-181161065D01*
X41534284Y-181155757D01*
X41518313Y-181121507D01*
X41439849Y-180953238D01*
X41439846Y-180953233D01*
X41437523Y-180948251D01*
X41364098Y-180843389D01*
X41309357Y-180765211D01*
X41309355Y-180765208D01*
X41306198Y-180760700D01*
X41144300Y-180598802D01*
X41139792Y-180595645D01*
X41139789Y-180595643D01*
X40994532Y-180493933D01*
X40956749Y-180467477D01*
X40951767Y-180465154D01*
X40951762Y-180465151D01*
X40917543Y-180449195D01*
X40864258Y-180402278D01*
X40844797Y-180334001D01*
X40865339Y-180266041D01*
X40917543Y-180220805D01*
X40951762Y-180204849D01*
X40951767Y-180204846D01*
X40956749Y-180202523D01*
X41109081Y-180095859D01*
X41139789Y-180074357D01*
X41139792Y-180074355D01*
X41144300Y-180071198D01*
X41191341Y-180024157D01*
X41253653Y-179990131D01*
X41324468Y-179995196D01*
G37*
%TD.AperFunction*%
%TA.AperFunction,Conductor*%
G36*
X61884029Y-178883262D02*
G01*
X61889345Y-178884686D01*
X62100000Y-178903116D01*
X62105475Y-178902637D01*
X62305184Y-178885165D01*
X62305188Y-178885164D01*
X62310655Y-178884686D01*
X62315961Y-178883264D01*
X62320561Y-178882453D01*
X62391121Y-178890321D01*
X62431538Y-178917443D01*
X64306348Y-180792253D01*
X64313888Y-180800539D01*
X64318000Y-180807018D01*
X64323777Y-180812443D01*
X64367651Y-180853643D01*
X64370493Y-180856398D01*
X64390230Y-180876135D01*
X64393427Y-180878615D01*
X64402447Y-180886318D01*
X64434679Y-180916586D01*
X64441625Y-180920405D01*
X64441628Y-180920407D01*
X64452434Y-180926348D01*
X64468953Y-180937199D01*
X64484959Y-180949614D01*
X64492228Y-180952759D01*
X64492232Y-180952762D01*
X64525537Y-180967174D01*
X64536187Y-180972391D01*
X64574940Y-180993695D01*
X64582615Y-180995666D01*
X64582616Y-180995666D01*
X64594562Y-180998733D01*
X64613266Y-181005137D01*
X64619298Y-181007747D01*
X64631855Y-181013181D01*
X64639678Y-181014420D01*
X64639688Y-181014423D01*
X64675524Y-181020099D01*
X64687144Y-181022505D01*
X64722289Y-181031528D01*
X64729970Y-181033500D01*
X64750224Y-181033500D01*
X64769934Y-181035051D01*
X64789943Y-181038220D01*
X64797835Y-181037474D01*
X64833961Y-181034059D01*
X64845819Y-181033500D01*
X65230606Y-181033500D01*
X65298727Y-181053502D01*
X65333819Y-181087229D01*
X65440643Y-181239789D01*
X65443802Y-181244300D01*
X65605700Y-181406198D01*
X65610208Y-181409355D01*
X65610211Y-181409357D01*
X65621198Y-181417050D01*
X65793251Y-181537523D01*
X65798233Y-181539846D01*
X65798238Y-181539849D01*
X65945810Y-181608662D01*
X66000757Y-181634284D01*
X66006065Y-181635706D01*
X66006067Y-181635707D01*
X66216598Y-181692119D01*
X66216600Y-181692119D01*
X66221913Y-181693543D01*
X66450000Y-181713498D01*
X66678087Y-181693543D01*
X66683400Y-181692119D01*
X66683402Y-181692119D01*
X66893933Y-181635707D01*
X66893935Y-181635706D01*
X66899243Y-181634284D01*
X66954190Y-181608662D01*
X67101762Y-181539849D01*
X67101767Y-181539846D01*
X67106749Y-181537523D01*
X67180243Y-181486062D01*
X68228493Y-181486062D01*
X68237789Y-181498077D01*
X68288994Y-181533931D01*
X68298489Y-181539414D01*
X68495947Y-181631490D01*
X68506239Y-181635236D01*
X68716688Y-181691625D01*
X68727481Y-181693528D01*
X68944525Y-181712517D01*
X68955475Y-181712517D01*
X69172519Y-181693528D01*
X69183312Y-181691625D01*
X69393761Y-181635236D01*
X69404053Y-181631490D01*
X69601511Y-181539414D01*
X69611006Y-181533931D01*
X69663048Y-181497491D01*
X69671424Y-181487012D01*
X69664356Y-181473566D01*
X68962812Y-180772022D01*
X68948868Y-180764408D01*
X68947035Y-180764539D01*
X68940420Y-180768790D01*
X68234923Y-181474287D01*
X68228493Y-181486062D01*
X67180243Y-181486062D01*
X67278802Y-181417050D01*
X67289789Y-181409357D01*
X67289792Y-181409355D01*
X67294300Y-181406198D01*
X67456198Y-181244300D01*
X67459381Y-181239755D01*
X67555619Y-181102312D01*
X67587523Y-181056749D01*
X67589847Y-181051765D01*
X67591171Y-181049472D01*
X67642553Y-181000479D01*
X67712267Y-180987043D01*
X67778178Y-181013429D01*
X67809409Y-181049472D01*
X67816066Y-181061002D01*
X67852509Y-181113048D01*
X67862988Y-181121424D01*
X67876434Y-181114356D01*
X68860905Y-180129885D01*
X68923217Y-180095859D01*
X68994032Y-180100924D01*
X69039095Y-180129885D01*
X70024287Y-181115077D01*
X70036062Y-181121507D01*
X70048077Y-181112211D01*
X70087088Y-181056498D01*
X70088487Y-181057478D01*
X70134255Y-181013823D01*
X70203966Y-181000374D01*
X70269882Y-181026750D01*
X70281106Y-181036711D01*
X70992137Y-181747742D01*
X70999677Y-181756028D01*
X71003789Y-181762507D01*
X71009566Y-181767932D01*
X71053440Y-181809132D01*
X71056282Y-181811887D01*
X71076019Y-181831624D01*
X71079216Y-181834104D01*
X71088236Y-181841807D01*
X71120468Y-181872075D01*
X71127414Y-181875894D01*
X71127417Y-181875896D01*
X71138223Y-181881837D01*
X71154742Y-181892688D01*
X71170748Y-181905103D01*
X71178017Y-181908248D01*
X71178021Y-181908251D01*
X71211326Y-181922663D01*
X71221976Y-181927880D01*
X71260729Y-181949184D01*
X71268404Y-181951155D01*
X71268405Y-181951155D01*
X71280351Y-181954222D01*
X71299056Y-181960626D01*
X71317644Y-181968670D01*
X71325467Y-181969909D01*
X71325477Y-181969912D01*
X71361313Y-181975588D01*
X71372933Y-181977994D01*
X71394508Y-181983533D01*
X71415759Y-181988989D01*
X71436013Y-181988989D01*
X71455723Y-181990540D01*
X71475732Y-181993709D01*
X71483624Y-181992963D01*
X71519750Y-181989548D01*
X71531608Y-181988989D01*
X71744086Y-181988989D01*
X71812207Y-182008991D01*
X71858700Y-182062647D01*
X71868804Y-182132921D01*
X71865793Y-182147600D01*
X71855542Y-182185858D01*
X71836807Y-182400000D01*
X71855542Y-182614142D01*
X71856966Y-182619457D01*
X71856967Y-182619460D01*
X71858779Y-182626224D01*
X71857089Y-182697200D01*
X71826167Y-182747929D01*
X70271044Y-184303052D01*
X70208733Y-184337077D01*
X70137918Y-184332012D01*
X70081082Y-184289465D01*
X70056429Y-184224937D01*
X70043528Y-184077481D01*
X70041625Y-184066688D01*
X69985236Y-183856239D01*
X69981490Y-183845947D01*
X69889414Y-183648489D01*
X69883931Y-183638994D01*
X69847491Y-183586952D01*
X69837012Y-183578576D01*
X69823566Y-183585644D01*
X68839095Y-184570115D01*
X68776783Y-184604141D01*
X68705968Y-184599076D01*
X68660905Y-184570115D01*
X67675713Y-183584923D01*
X67663938Y-183578493D01*
X67651923Y-183587789D01*
X67616066Y-183638998D01*
X67609409Y-183650528D01*
X67558027Y-183699521D01*
X67488313Y-183712958D01*
X67422402Y-183686571D01*
X67391171Y-183650528D01*
X67389847Y-183648235D01*
X67387523Y-183643251D01*
X67317018Y-183542559D01*
X67259357Y-183460211D01*
X67259355Y-183460208D01*
X67256198Y-183455700D01*
X67094300Y-183293802D01*
X67089792Y-183290645D01*
X67089789Y-183290643D01*
X66978886Y-183212988D01*
X68028576Y-183212988D01*
X68035644Y-183226434D01*
X68737188Y-183927978D01*
X68751132Y-183935592D01*
X68752965Y-183935461D01*
X68759580Y-183931210D01*
X69465077Y-183225713D01*
X69471507Y-183213938D01*
X69462211Y-183201923D01*
X69411006Y-183166069D01*
X69401511Y-183160586D01*
X69204053Y-183068510D01*
X69193761Y-183064764D01*
X68983312Y-183008375D01*
X68972519Y-183006472D01*
X68755475Y-182987483D01*
X68744525Y-182987483D01*
X68527481Y-183006472D01*
X68516688Y-183008375D01*
X68306239Y-183064764D01*
X68295947Y-183068510D01*
X68098489Y-183160586D01*
X68088994Y-183166069D01*
X68036952Y-183202509D01*
X68028576Y-183212988D01*
X66978886Y-183212988D01*
X66963920Y-183202509D01*
X66906749Y-183162477D01*
X66901767Y-183160154D01*
X66901762Y-183160151D01*
X66704225Y-183068039D01*
X66704224Y-183068039D01*
X66699243Y-183065716D01*
X66693935Y-183064294D01*
X66693933Y-183064293D01*
X66483402Y-183007881D01*
X66483400Y-183007881D01*
X66478087Y-183006457D01*
X66250000Y-182986502D01*
X66021913Y-183006457D01*
X65955794Y-183024174D01*
X65884820Y-183022484D01*
X65836934Y-182994319D01*
X65831102Y-182988843D01*
X65825322Y-182983415D01*
X65818376Y-182979596D01*
X65818373Y-182979594D01*
X65807567Y-182973653D01*
X65791048Y-182962802D01*
X65790584Y-182962442D01*
X65775042Y-182950387D01*
X65767773Y-182947242D01*
X65767769Y-182947239D01*
X65734464Y-182932827D01*
X65723814Y-182927610D01*
X65685061Y-182906306D01*
X65665438Y-182901268D01*
X65646735Y-182894864D01*
X65635421Y-182889968D01*
X65635420Y-182889968D01*
X65628146Y-182886820D01*
X65620323Y-182885581D01*
X65620313Y-182885578D01*
X65584477Y-182879902D01*
X65572857Y-182877496D01*
X65537712Y-182868473D01*
X65537711Y-182868473D01*
X65530031Y-182866501D01*
X65509777Y-182866501D01*
X65490066Y-182864950D01*
X65477887Y-182863021D01*
X65470058Y-182861781D01*
X65440787Y-182864548D01*
X65426040Y-182865942D01*
X65414182Y-182866501D01*
X64739889Y-182866501D01*
X64728706Y-182865974D01*
X64721213Y-182864299D01*
X64713287Y-182864548D01*
X64713286Y-182864548D01*
X64653123Y-182866439D01*
X64649165Y-182866501D01*
X64621265Y-182866501D01*
X64617275Y-182867005D01*
X64605441Y-182867937D01*
X64561232Y-182869327D01*
X64553616Y-182871540D01*
X64553614Y-182871540D01*
X64541773Y-182874980D01*
X64522414Y-182878989D01*
X64521104Y-182879155D01*
X64502324Y-182881527D01*
X64494958Y-182884443D01*
X64494952Y-182884445D01*
X64461219Y-182897801D01*
X64449989Y-182901646D01*
X64415138Y-182911771D01*
X64407528Y-182913982D01*
X64400705Y-182918017D01*
X64390087Y-182924296D01*
X64372334Y-182932993D01*
X64364689Y-182936020D01*
X64353504Y-182940449D01*
X64339826Y-182950387D01*
X64317733Y-182966438D01*
X64307816Y-182972952D01*
X64269759Y-182995459D01*
X64255438Y-183009780D01*
X64240405Y-183022620D01*
X64224014Y-183034529D01*
X64218963Y-183040635D01*
X64195823Y-183068606D01*
X64187833Y-183077385D01*
X62957325Y-184307892D01*
X62895013Y-184341918D01*
X62824197Y-184336853D01*
X62795960Y-184322011D01*
X62775796Y-184307892D01*
X62706558Y-184259411D01*
X62701580Y-184257090D01*
X62701577Y-184257088D01*
X62519892Y-184172367D01*
X62519891Y-184172366D01*
X62514910Y-184170044D01*
X62509602Y-184168622D01*
X62509600Y-184168621D01*
X62315970Y-184116738D01*
X62315968Y-184116738D01*
X62310655Y-184115314D01*
X62100000Y-184096884D01*
X62094525Y-184097363D01*
X61894816Y-184114835D01*
X61894812Y-184114836D01*
X61889345Y-184115314D01*
X61884039Y-184116736D01*
X61879439Y-184117547D01*
X61808879Y-184109679D01*
X61768462Y-184082557D01*
X58693652Y-181007747D01*
X58686112Y-180999461D01*
X58682000Y-180992982D01*
X58632348Y-180946356D01*
X58629507Y-180943602D01*
X58609770Y-180923865D01*
X58606573Y-180921385D01*
X58597551Y-180913680D01*
X58565321Y-180883414D01*
X58558375Y-180879595D01*
X58558372Y-180879593D01*
X58547566Y-180873652D01*
X58531047Y-180862801D01*
X58530583Y-180862441D01*
X58515041Y-180850386D01*
X58507772Y-180847241D01*
X58507768Y-180847238D01*
X58474463Y-180832826D01*
X58463813Y-180827609D01*
X58425060Y-180806305D01*
X58405437Y-180801267D01*
X58386734Y-180794863D01*
X58375420Y-180789967D01*
X58375419Y-180789967D01*
X58368145Y-180786819D01*
X58360322Y-180785580D01*
X58360312Y-180785577D01*
X58324476Y-180779901D01*
X58312856Y-180777495D01*
X58277711Y-180768472D01*
X58277710Y-180768472D01*
X58270030Y-180766500D01*
X58249776Y-180766500D01*
X58230065Y-180764949D01*
X58227477Y-180764539D01*
X58210057Y-180761780D01*
X58169541Y-180765610D01*
X58166039Y-180765941D01*
X58154181Y-180766500D01*
X55561731Y-180766500D01*
X55493610Y-180746498D01*
X55458518Y-180712770D01*
X55387840Y-180611831D01*
X55384681Y-180607319D01*
X55232681Y-180455319D01*
X55056597Y-180332024D01*
X55051619Y-180329703D01*
X55051616Y-180329701D01*
X54866759Y-180243501D01*
X54866758Y-180243500D01*
X54861777Y-180241178D01*
X54856469Y-180239756D01*
X54856467Y-180239755D01*
X54659457Y-180186966D01*
X54659455Y-180186966D01*
X54654142Y-180185542D01*
X54440000Y-180166807D01*
X54225858Y-180185542D01*
X54220545Y-180186966D01*
X54220543Y-180186966D01*
X54023533Y-180239755D01*
X54023531Y-180239756D01*
X54018223Y-180241178D01*
X54013243Y-180243500D01*
X54013241Y-180243501D01*
X53828385Y-180329701D01*
X53828382Y-180329703D01*
X53823404Y-180332024D01*
X53647319Y-180455319D01*
X53495319Y-180607319D01*
X53492160Y-180611831D01*
X53421482Y-180712770D01*
X53366025Y-180757099D01*
X53318269Y-180766500D01*
X53021731Y-180766500D01*
X52953610Y-180746498D01*
X52918518Y-180712770D01*
X52847840Y-180611831D01*
X52844681Y-180607319D01*
X52692681Y-180455319D01*
X52516597Y-180332024D01*
X52511619Y-180329703D01*
X52511616Y-180329701D01*
X52326759Y-180243501D01*
X52326758Y-180243500D01*
X52321777Y-180241178D01*
X52316469Y-180239756D01*
X52316467Y-180239755D01*
X52119457Y-180186966D01*
X52119455Y-180186966D01*
X52114142Y-180185542D01*
X51900000Y-180166807D01*
X51685858Y-180185542D01*
X51680545Y-180186966D01*
X51680543Y-180186966D01*
X51483533Y-180239755D01*
X51483531Y-180239756D01*
X51478223Y-180241178D01*
X51473243Y-180243500D01*
X51473241Y-180243501D01*
X51288385Y-180329701D01*
X51288382Y-180329703D01*
X51283404Y-180332024D01*
X51107319Y-180455319D01*
X50955319Y-180607319D01*
X50832024Y-180783404D01*
X50829703Y-180788382D01*
X50829701Y-180788385D01*
X50744195Y-180971753D01*
X50697277Y-181025038D01*
X50629000Y-181044499D01*
X50561040Y-181023957D01*
X50515805Y-180971753D01*
X50430299Y-180788385D01*
X50430297Y-180788382D01*
X50427976Y-180783404D01*
X50304681Y-180607319D01*
X50152681Y-180455319D01*
X49976597Y-180332024D01*
X49971619Y-180329703D01*
X49971616Y-180329701D01*
X49786759Y-180243501D01*
X49786758Y-180243500D01*
X49781777Y-180241178D01*
X49776469Y-180239756D01*
X49776467Y-180239755D01*
X49579457Y-180186966D01*
X49579455Y-180186966D01*
X49574142Y-180185542D01*
X49360000Y-180166807D01*
X49145858Y-180185542D01*
X49140545Y-180186966D01*
X49140543Y-180186966D01*
X48943533Y-180239755D01*
X48943531Y-180239756D01*
X48938223Y-180241178D01*
X48933243Y-180243500D01*
X48933241Y-180243501D01*
X48748385Y-180329701D01*
X48748382Y-180329703D01*
X48743404Y-180332024D01*
X48567319Y-180455319D01*
X48415319Y-180607319D01*
X48292024Y-180783404D01*
X48289703Y-180788382D01*
X48289701Y-180788385D01*
X48206330Y-180967174D01*
X48201178Y-180978223D01*
X48199756Y-180983531D01*
X48199755Y-180983533D01*
X48153498Y-181156167D01*
X48145542Y-181185858D01*
X48126807Y-181400000D01*
X48145542Y-181614142D01*
X48146966Y-181619455D01*
X48146966Y-181619457D01*
X48192836Y-181790643D01*
X48201178Y-181821777D01*
X48203500Y-181826757D01*
X48203501Y-181826759D01*
X48288478Y-182008991D01*
X48292024Y-182016596D01*
X48415319Y-182192681D01*
X48567319Y-182344681D01*
X48743403Y-182467976D01*
X48748381Y-182470297D01*
X48748384Y-182470299D01*
X48931045Y-182555475D01*
X48938223Y-182558822D01*
X48943531Y-182560244D01*
X48943533Y-182560245D01*
X49140543Y-182613034D01*
X49140545Y-182613034D01*
X49145858Y-182614458D01*
X49360000Y-182633193D01*
X49574142Y-182614458D01*
X49579455Y-182613034D01*
X49579457Y-182613034D01*
X49776467Y-182560245D01*
X49776469Y-182560244D01*
X49781777Y-182558822D01*
X49788955Y-182555475D01*
X49971616Y-182470299D01*
X49971619Y-182470297D01*
X49976597Y-182467976D01*
X50152681Y-182344681D01*
X50304681Y-182192681D01*
X50427976Y-182016596D01*
X50431523Y-182008991D01*
X50515805Y-181828247D01*
X50562723Y-181774962D01*
X50631000Y-181755501D01*
X50698960Y-181776043D01*
X50744195Y-181828247D01*
X50828478Y-182008991D01*
X50832024Y-182016596D01*
X50955319Y-182192681D01*
X51107319Y-182344681D01*
X51283403Y-182467976D01*
X51288381Y-182470297D01*
X51288384Y-182470299D01*
X51471045Y-182555475D01*
X51478223Y-182558822D01*
X51483531Y-182560244D01*
X51483533Y-182560245D01*
X51680543Y-182613034D01*
X51680545Y-182613034D01*
X51685858Y-182614458D01*
X51900000Y-182633193D01*
X52114142Y-182614458D01*
X52119455Y-182613034D01*
X52119457Y-182613034D01*
X52316467Y-182560245D01*
X52316469Y-182560244D01*
X52321777Y-182558822D01*
X52328955Y-182555475D01*
X52511616Y-182470299D01*
X52511619Y-182470297D01*
X52516597Y-182467976D01*
X52692681Y-182344681D01*
X52844681Y-182192681D01*
X52918518Y-182087230D01*
X52973975Y-182042901D01*
X53021731Y-182033500D01*
X53318269Y-182033500D01*
X53386390Y-182053502D01*
X53421482Y-182087230D01*
X53495319Y-182192681D01*
X53647319Y-182344681D01*
X53823403Y-182467976D01*
X53828381Y-182470297D01*
X53828384Y-182470299D01*
X54011045Y-182555475D01*
X54018223Y-182558822D01*
X54023531Y-182560244D01*
X54023533Y-182560245D01*
X54220543Y-182613034D01*
X54220545Y-182613034D01*
X54225858Y-182614458D01*
X54440000Y-182633193D01*
X54654142Y-182614458D01*
X54659455Y-182613034D01*
X54659457Y-182613034D01*
X54856467Y-182560245D01*
X54856469Y-182560244D01*
X54861777Y-182558822D01*
X54868955Y-182555475D01*
X55051616Y-182470299D01*
X55051619Y-182470297D01*
X55056597Y-182467976D01*
X55232681Y-182344681D01*
X55384681Y-182192681D01*
X55458518Y-182087230D01*
X55513975Y-182042901D01*
X55561731Y-182033500D01*
X57875406Y-182033500D01*
X57943527Y-182053502D01*
X57964501Y-182070405D01*
X59784549Y-183890454D01*
X59818575Y-183952766D01*
X59813510Y-184023582D01*
X59770963Y-184080417D01*
X59706435Y-184105070D01*
X59688645Y-184106626D01*
X59594826Y-184114834D01*
X59594821Y-184114835D01*
X59589345Y-184115314D01*
X59584032Y-184116738D01*
X59584030Y-184116738D01*
X59390400Y-184168621D01*
X59390398Y-184168622D01*
X59385090Y-184170044D01*
X59380109Y-184172366D01*
X59380108Y-184172367D01*
X59198423Y-184257088D01*
X59198420Y-184257090D01*
X59193442Y-184259411D01*
X59020224Y-184380699D01*
X58870699Y-184530224D01*
X58749411Y-184703442D01*
X58747090Y-184708420D01*
X58747088Y-184708423D01*
X58689904Y-184831055D01*
X58660044Y-184895090D01*
X58658622Y-184900398D01*
X58658621Y-184900400D01*
X58636009Y-184984789D01*
X58605314Y-185099345D01*
X58586884Y-185310000D01*
X58605314Y-185520655D01*
X58660044Y-185724910D01*
X58662366Y-185729891D01*
X58662367Y-185729892D01*
X58746232Y-185909740D01*
X58749411Y-185916558D01*
X58870699Y-186089776D01*
X59020224Y-186239301D01*
X59193442Y-186360589D01*
X59198420Y-186362910D01*
X59198423Y-186362912D01*
X59379096Y-186447161D01*
X59385090Y-186449956D01*
X59390398Y-186451378D01*
X59390400Y-186451379D01*
X59584030Y-186503262D01*
X59584032Y-186503262D01*
X59589345Y-186504686D01*
X59800000Y-186523116D01*
X59854030Y-186518389D01*
X59923634Y-186532378D01*
X59974627Y-186581778D01*
X59991011Y-186643910D01*
X59991011Y-187012701D01*
X59971009Y-187080822D01*
X59917353Y-187127315D01*
X59847079Y-187137419D01*
X59832407Y-187134410D01*
X59728087Y-187106457D01*
X59500000Y-187086502D01*
X59271913Y-187106457D01*
X59266600Y-187107881D01*
X59266598Y-187107881D01*
X59056067Y-187164293D01*
X59056065Y-187164294D01*
X59050757Y-187165716D01*
X59045776Y-187168039D01*
X59045775Y-187168039D01*
X58848238Y-187260151D01*
X58848233Y-187260154D01*
X58843251Y-187262477D01*
X58745616Y-187330842D01*
X58660211Y-187390643D01*
X58660208Y-187390645D01*
X58655700Y-187393802D01*
X58493802Y-187555700D01*
X58490645Y-187560208D01*
X58490643Y-187560211D01*
X58453836Y-187612777D01*
X58362477Y-187743251D01*
X58360154Y-187748233D01*
X58360151Y-187748238D01*
X58268039Y-187945775D01*
X58265716Y-187950757D01*
X58264294Y-187956065D01*
X58264293Y-187956067D01*
X58230978Y-188080400D01*
X58206457Y-188171913D01*
X58186502Y-188400000D01*
X58186981Y-188405475D01*
X58186981Y-188405478D01*
X58189084Y-188429519D01*
X58175094Y-188499124D01*
X58125694Y-188550115D01*
X58063563Y-188566499D01*
X57938978Y-188566499D01*
X57870857Y-188546497D01*
X57824364Y-188492841D01*
X57814260Y-188422567D01*
X57827470Y-188381832D01*
X57896741Y-188250169D01*
X57901152Y-188239521D01*
X57960833Y-188047316D01*
X57963227Y-188036054D01*
X57982563Y-187872678D01*
X57983000Y-187865272D01*
X57983000Y-187622115D01*
X57978525Y-187606876D01*
X57977135Y-187605671D01*
X57969452Y-187604000D01*
X55685115Y-187604000D01*
X55669876Y-187608475D01*
X55668671Y-187609865D01*
X55667000Y-187617548D01*
X55667000Y-187851092D01*
X55667266Y-187856881D01*
X55680984Y-188006176D01*
X55683082Y-188017497D01*
X55737713Y-188211203D01*
X55741837Y-188221950D01*
X55822132Y-188384770D01*
X55834322Y-188454713D01*
X55806763Y-188520142D01*
X55748205Y-188560286D01*
X55709126Y-188566499D01*
X53389593Y-188566499D01*
X53321472Y-188546497D01*
X53300498Y-188529594D01*
X52699364Y-187928460D01*
X52665338Y-187866148D01*
X52665940Y-187809951D01*
X52718380Y-187591524D01*
X52718381Y-187591518D01*
X52719535Y-187586711D01*
X52738165Y-187350000D01*
X52719535Y-187113289D01*
X52715385Y-187096000D01*
X52711036Y-187077885D01*
X55667000Y-187077885D01*
X55671475Y-187093124D01*
X55672865Y-187094329D01*
X55680548Y-187096000D01*
X56552885Y-187096000D01*
X56568124Y-187091525D01*
X56569329Y-187090135D01*
X56571000Y-187082452D01*
X56571000Y-187077885D01*
X57079000Y-187077885D01*
X57083475Y-187093124D01*
X57084865Y-187094329D01*
X57092548Y-187096000D01*
X57964885Y-187096000D01*
X57980124Y-187091525D01*
X57981329Y-187090135D01*
X57983000Y-187082452D01*
X57983000Y-186848908D01*
X57982734Y-186843119D01*
X57969016Y-186693824D01*
X57966918Y-186682503D01*
X57912287Y-186488797D01*
X57908163Y-186478050D01*
X57819141Y-186297534D01*
X57813131Y-186287727D01*
X57692701Y-186126451D01*
X57685011Y-186117911D01*
X57537206Y-185981280D01*
X57528081Y-185974279D01*
X57357856Y-185866875D01*
X57347609Y-185861654D01*
X57160668Y-185787072D01*
X57149631Y-185783803D01*
X57096770Y-185773288D01*
X57083894Y-185774440D01*
X57079000Y-185789596D01*
X57079000Y-187077885D01*
X56571000Y-187077885D01*
X56571000Y-185786706D01*
X56567194Y-185773744D01*
X56552278Y-185771808D01*
X56529700Y-185775687D01*
X56518583Y-185778666D01*
X56329748Y-185848331D01*
X56319370Y-185853281D01*
X56146394Y-185956191D01*
X56137085Y-185962955D01*
X55985757Y-186095665D01*
X55977847Y-186104000D01*
X55853236Y-186262069D01*
X55846968Y-186271720D01*
X55753257Y-186449836D01*
X55748848Y-186460479D01*
X55689167Y-186652684D01*
X55686773Y-186663946D01*
X55667437Y-186827322D01*
X55667000Y-186834728D01*
X55667000Y-187077885D01*
X52711036Y-187077885D01*
X52673788Y-186922740D01*
X52664105Y-186882406D01*
X52647832Y-186843119D01*
X52575135Y-186667611D01*
X52575133Y-186667607D01*
X52573240Y-186663037D01*
X52509541Y-186559090D01*
X52451759Y-186464798D01*
X52451755Y-186464792D01*
X52449176Y-186460584D01*
X52294969Y-186280031D01*
X52114416Y-186125824D01*
X52110208Y-186123245D01*
X52110202Y-186123241D01*
X51916183Y-186004346D01*
X51911963Y-186001760D01*
X51907393Y-185999867D01*
X51907389Y-185999865D01*
X51697167Y-185912789D01*
X51697165Y-185912788D01*
X51692594Y-185910895D01*
X51612391Y-185891640D01*
X51466524Y-185856620D01*
X51466518Y-185856619D01*
X51461711Y-185855465D01*
X51225000Y-185836835D01*
X50988289Y-185855465D01*
X50983482Y-185856619D01*
X50983476Y-185856620D01*
X50837609Y-185891640D01*
X50757406Y-185910895D01*
X50752835Y-185912788D01*
X50752833Y-185912789D01*
X50542611Y-185999865D01*
X50542607Y-185999867D01*
X50538037Y-186001760D01*
X50533817Y-186004346D01*
X50339798Y-186123241D01*
X50339792Y-186123245D01*
X50335584Y-186125824D01*
X50155031Y-186280031D01*
X50000824Y-186460584D01*
X49998245Y-186464792D01*
X49998241Y-186464798D01*
X49940459Y-186559090D01*
X49876760Y-186663037D01*
X49874867Y-186667607D01*
X49874865Y-186667611D01*
X49802168Y-186843119D01*
X49785895Y-186882406D01*
X49776212Y-186922740D01*
X49734616Y-187096000D01*
X49730465Y-187113289D01*
X49723047Y-187207551D01*
X49721881Y-187222361D01*
X49696596Y-187288702D01*
X49639458Y-187330842D01*
X49568608Y-187335401D01*
X49507174Y-187301570D01*
X46336711Y-184131106D01*
X46302685Y-184068794D01*
X46307750Y-183997978D01*
X46350297Y-183941143D01*
X46357344Y-183936496D01*
X46413048Y-183897491D01*
X46421424Y-183887012D01*
X46414356Y-183873566D01*
X45429885Y-182889095D01*
X45395859Y-182826783D01*
X45397694Y-182801132D01*
X46064408Y-182801132D01*
X46064539Y-182802965D01*
X46068790Y-182809580D01*
X46774287Y-183515077D01*
X46786062Y-183521507D01*
X46798077Y-183512211D01*
X46833931Y-183461006D01*
X46839414Y-183451511D01*
X46931490Y-183254053D01*
X46935236Y-183243761D01*
X46991625Y-183033312D01*
X46993528Y-183022519D01*
X47012517Y-182805475D01*
X47012517Y-182794525D01*
X46993528Y-182577481D01*
X46991625Y-182566688D01*
X46935236Y-182356239D01*
X46931490Y-182345947D01*
X46839414Y-182148489D01*
X46833931Y-182138994D01*
X46797491Y-182086952D01*
X46787012Y-182078576D01*
X46773566Y-182085644D01*
X46072022Y-182787188D01*
X46064408Y-182801132D01*
X45397694Y-182801132D01*
X45400924Y-182755968D01*
X45429885Y-182710905D01*
X46415077Y-181725713D01*
X46421507Y-181713938D01*
X46412211Y-181701923D01*
X46361006Y-181666069D01*
X46351511Y-181660586D01*
X46154053Y-181568510D01*
X46143761Y-181564764D01*
X45933312Y-181508375D01*
X45922519Y-181506472D01*
X45705475Y-181487483D01*
X45694525Y-181487483D01*
X45477481Y-181506472D01*
X45466688Y-181508375D01*
X45256239Y-181564764D01*
X45245947Y-181568510D01*
X45048483Y-181660589D01*
X45038997Y-181666067D01*
X44986944Y-181702514D01*
X44919670Y-181725202D01*
X44850810Y-181707917D01*
X44825579Y-181688396D01*
X42700289Y-179563106D01*
X42666263Y-179500794D01*
X42671328Y-179429979D01*
X42713875Y-179373143D01*
X42780395Y-179348332D01*
X42789384Y-179348011D01*
X60996722Y-179348011D01*
X61007905Y-179348538D01*
X61015398Y-179350213D01*
X61023324Y-179349964D01*
X61023325Y-179349964D01*
X61083475Y-179348073D01*
X61087434Y-179348011D01*
X61115345Y-179348011D01*
X61119280Y-179347514D01*
X61119345Y-179347506D01*
X61131182Y-179346573D01*
X61163440Y-179345559D01*
X61167459Y-179345433D01*
X61175378Y-179345184D01*
X61194832Y-179339532D01*
X61214189Y-179335524D01*
X61226419Y-179333979D01*
X61226420Y-179333979D01*
X61234286Y-179332985D01*
X61241657Y-179330066D01*
X61241659Y-179330066D01*
X61275401Y-179316707D01*
X61286631Y-179312862D01*
X61321472Y-179302740D01*
X61321473Y-179302740D01*
X61329082Y-179300529D01*
X61335901Y-179296496D01*
X61335906Y-179296494D01*
X61346517Y-179290218D01*
X61364265Y-179281523D01*
X61383106Y-179274063D01*
X61418876Y-179248075D01*
X61428796Y-179241559D01*
X61460024Y-179223091D01*
X61460027Y-179223089D01*
X61466851Y-179219053D01*
X61481172Y-179204732D01*
X61496206Y-179191891D01*
X61512596Y-179179983D01*
X61540787Y-179145906D01*
X61548777Y-179137127D01*
X61768461Y-178917443D01*
X61830773Y-178883417D01*
X61879437Y-178882452D01*
X61884029Y-178883262D01*
G37*
%TD.AperFunction*%
%TA.AperFunction,Conductor*%
G36*
X39058349Y-183453502D02*
G01*
X39104842Y-183507158D01*
X39114946Y-183577432D01*
X39104424Y-183612747D01*
X39084875Y-183654670D01*
X39071231Y-183683931D01*
X39065716Y-183695757D01*
X39064294Y-183701065D01*
X39064293Y-183701067D01*
X39023919Y-183851745D01*
X39006457Y-183916913D01*
X38986502Y-184145000D01*
X39006457Y-184373087D01*
X39023460Y-184436541D01*
X39034408Y-184477399D01*
X39032718Y-184548376D01*
X38992924Y-184607172D01*
X38927660Y-184635120D01*
X38912701Y-184636011D01*
X34119105Y-184636011D01*
X34050984Y-184616009D01*
X34030010Y-184599106D01*
X33989152Y-184558248D01*
X33955126Y-184495936D01*
X33956541Y-184436541D01*
X33972118Y-184378409D01*
X33972120Y-184378398D01*
X33973543Y-184373087D01*
X33993498Y-184145000D01*
X33973543Y-183916913D01*
X33956081Y-183851745D01*
X33915707Y-183701067D01*
X33915706Y-183701065D01*
X33914284Y-183695757D01*
X33908770Y-183683931D01*
X33895125Y-183654670D01*
X33875577Y-183612749D01*
X33864916Y-183542559D01*
X33893896Y-183477746D01*
X33953315Y-183438889D01*
X33989772Y-183433500D01*
X38990228Y-183433500D01*
X39058349Y-183453502D01*
G37*
%TD.AperFunction*%
%TA.AperFunction,Conductor*%
G36*
X39495251Y-172738991D02*
G01*
X39541744Y-172792647D01*
X39551848Y-172862921D01*
X39522354Y-172927501D01*
X39499401Y-172948202D01*
X39460211Y-172975643D01*
X39460208Y-172975645D01*
X39455700Y-172978802D01*
X39293802Y-173140700D01*
X39290645Y-173145208D01*
X39290643Y-173145211D01*
X39264721Y-173182232D01*
X39162477Y-173328251D01*
X39160154Y-173333233D01*
X39160151Y-173333238D01*
X39070774Y-173524910D01*
X39065716Y-173535757D01*
X39064294Y-173541065D01*
X39064293Y-173541067D01*
X39007883Y-173751591D01*
X39006457Y-173756913D01*
X38986502Y-173985000D01*
X39006457Y-174213087D01*
X39007880Y-174218398D01*
X39007881Y-174218402D01*
X39025542Y-174284311D01*
X39065716Y-174434243D01*
X39068039Y-174439224D01*
X39068039Y-174439225D01*
X39160151Y-174636762D01*
X39160154Y-174636767D01*
X39162477Y-174641749D01*
X39207605Y-174706198D01*
X39253289Y-174771441D01*
X39293802Y-174829300D01*
X39455700Y-174991198D01*
X39460208Y-174994355D01*
X39460211Y-174994357D01*
X39538389Y-175049098D01*
X39643251Y-175122523D01*
X39648233Y-175124846D01*
X39648238Y-175124849D01*
X39682457Y-175140805D01*
X39735742Y-175187722D01*
X39755203Y-175255999D01*
X39734661Y-175323959D01*
X39682457Y-175369195D01*
X39648238Y-175385151D01*
X39648233Y-175385154D01*
X39643251Y-175387477D01*
X39551631Y-175451630D01*
X39460211Y-175515643D01*
X39460208Y-175515645D01*
X39455700Y-175518802D01*
X39293802Y-175680700D01*
X39290645Y-175685208D01*
X39290643Y-175685211D01*
X39255208Y-175735818D01*
X39162477Y-175868251D01*
X39160154Y-175873233D01*
X39160151Y-175873238D01*
X39068039Y-176070775D01*
X39065716Y-176075757D01*
X39064294Y-176081065D01*
X39064293Y-176081067D01*
X39043154Y-176159959D01*
X39006457Y-176296913D01*
X38986502Y-176525000D01*
X39006457Y-176753087D01*
X39007881Y-176758400D01*
X39007881Y-176758402D01*
X39063083Y-176964415D01*
X39065716Y-176974243D01*
X39068039Y-176979224D01*
X39068039Y-176979225D01*
X39137292Y-177127739D01*
X39147953Y-177197931D01*
X39118973Y-177262744D01*
X39059553Y-177301600D01*
X39023097Y-177306989D01*
X33956903Y-177306989D01*
X33888782Y-177286987D01*
X33842289Y-177233331D01*
X33832185Y-177163057D01*
X33842708Y-177127739D01*
X33911961Y-176979225D01*
X33911961Y-176979224D01*
X33914284Y-176974243D01*
X33916918Y-176964415D01*
X33972119Y-176758402D01*
X33972119Y-176758400D01*
X33973543Y-176753087D01*
X33993498Y-176525000D01*
X33973543Y-176296913D01*
X33936846Y-176159959D01*
X33915707Y-176081067D01*
X33915706Y-176081065D01*
X33914284Y-176075757D01*
X33911961Y-176070775D01*
X33819849Y-175873238D01*
X33819846Y-175873233D01*
X33817523Y-175868251D01*
X33724792Y-175735818D01*
X33689357Y-175685211D01*
X33689355Y-175685208D01*
X33686198Y-175680700D01*
X33524300Y-175518802D01*
X33519792Y-175515645D01*
X33519789Y-175515643D01*
X33367229Y-175408819D01*
X33322901Y-175353362D01*
X33313500Y-175305606D01*
X33313500Y-175204394D01*
X33333502Y-175136273D01*
X33367229Y-175101181D01*
X33519789Y-174994357D01*
X33519792Y-174994355D01*
X33524300Y-174991198D01*
X33686198Y-174829300D01*
X33726712Y-174771441D01*
X33772395Y-174706198D01*
X33817523Y-174641749D01*
X33819846Y-174636767D01*
X33819849Y-174636762D01*
X33911961Y-174439225D01*
X33911961Y-174439224D01*
X33914284Y-174434243D01*
X33954459Y-174284311D01*
X33972119Y-174218402D01*
X33972120Y-174218398D01*
X33973543Y-174213087D01*
X33993498Y-173985000D01*
X33973543Y-173756913D01*
X33972119Y-173751598D01*
X33972118Y-173751591D01*
X33956541Y-173693459D01*
X33958230Y-173622483D01*
X33989152Y-173571752D01*
X34805010Y-172755894D01*
X34867322Y-172721868D01*
X34894105Y-172718989D01*
X39427130Y-172718989D01*
X39495251Y-172738991D01*
G37*
%TD.AperFunction*%
%TA.AperFunction,Conductor*%
G36*
X42357555Y-172738991D02*
G01*
X42404048Y-172792647D01*
X42414152Y-172862921D01*
X42411141Y-172877599D01*
X42405314Y-172899345D01*
X42386884Y-173110000D01*
X42405314Y-173320655D01*
X42406738Y-173325968D01*
X42406738Y-173325970D01*
X42417337Y-173365524D01*
X42460044Y-173524910D01*
X42462366Y-173529891D01*
X42462367Y-173529892D01*
X42538640Y-173693459D01*
X42549411Y-173716558D01*
X42670699Y-173889776D01*
X42820224Y-174039301D01*
X42993442Y-174160589D01*
X42998420Y-174162910D01*
X42998423Y-174162912D01*
X43165871Y-174240994D01*
X43185090Y-174249956D01*
X43190398Y-174251378D01*
X43190400Y-174251379D01*
X43384030Y-174303262D01*
X43384032Y-174303262D01*
X43389345Y-174304686D01*
X43600000Y-174323116D01*
X43810655Y-174304686D01*
X43815968Y-174303262D01*
X43815970Y-174303262D01*
X44009600Y-174251379D01*
X44009602Y-174251378D01*
X44014910Y-174249956D01*
X44034129Y-174240994D01*
X44201577Y-174162912D01*
X44201580Y-174162910D01*
X44206558Y-174160589D01*
X44379776Y-174039301D01*
X44397748Y-174021329D01*
X44460060Y-173987303D01*
X44530875Y-173992368D01*
X44587711Y-174034915D01*
X44612522Y-174101435D01*
X44598351Y-174169092D01*
X44503257Y-174349836D01*
X44498848Y-174360479D01*
X44439167Y-174552684D01*
X44436773Y-174563946D01*
X44417437Y-174727322D01*
X44417000Y-174734728D01*
X44417000Y-174977885D01*
X44421475Y-174993124D01*
X44422865Y-174994329D01*
X44430548Y-174996000D01*
X46714885Y-174996000D01*
X46730124Y-174991525D01*
X46731329Y-174990135D01*
X46733000Y-174982452D01*
X46733000Y-174748908D01*
X46732734Y-174743119D01*
X46719016Y-174593824D01*
X46716918Y-174582503D01*
X46662287Y-174388797D01*
X46658163Y-174378050D01*
X46569141Y-174197534D01*
X46563131Y-174187727D01*
X46442701Y-174026451D01*
X46435006Y-174017905D01*
X46374555Y-173962024D01*
X46338110Y-173901096D01*
X46340391Y-173830136D01*
X46380673Y-173771674D01*
X46446168Y-173744271D01*
X46460084Y-173743500D01*
X48720406Y-173743500D01*
X48788527Y-173763502D01*
X48809501Y-173780405D01*
X49700636Y-174671540D01*
X49734662Y-174733852D01*
X49734060Y-174790049D01*
X49683032Y-175002598D01*
X49680465Y-175013289D01*
X49661835Y-175250000D01*
X49680465Y-175486711D01*
X49681619Y-175491518D01*
X49681620Y-175491524D01*
X49705952Y-175592874D01*
X49735895Y-175717594D01*
X49737788Y-175722165D01*
X49737789Y-175722167D01*
X49820070Y-175920811D01*
X49826760Y-175936963D01*
X49829346Y-175941183D01*
X49948241Y-176135202D01*
X49948245Y-176135208D01*
X49950824Y-176139416D01*
X50105031Y-176319969D01*
X50285584Y-176474176D01*
X50289792Y-176476755D01*
X50289798Y-176476759D01*
X50413179Y-176552367D01*
X50488037Y-176598240D01*
X50492607Y-176600133D01*
X50492611Y-176600135D01*
X50702833Y-176687211D01*
X50707406Y-176689105D01*
X50787609Y-176708360D01*
X50933476Y-176743380D01*
X50933482Y-176743381D01*
X50938289Y-176744535D01*
X51175000Y-176763165D01*
X51411711Y-176744535D01*
X51416518Y-176743381D01*
X51416524Y-176743380D01*
X51562391Y-176708360D01*
X51642594Y-176689105D01*
X51647167Y-176687211D01*
X51857389Y-176600135D01*
X51857393Y-176600133D01*
X51861963Y-176598240D01*
X51936821Y-176552367D01*
X52060202Y-176476759D01*
X52060208Y-176476755D01*
X52064416Y-176474176D01*
X52244969Y-176319969D01*
X52399176Y-176139416D01*
X52401755Y-176135208D01*
X52401759Y-176135202D01*
X52520654Y-175941183D01*
X52523240Y-175936963D01*
X52529931Y-175920811D01*
X52612211Y-175722167D01*
X52612212Y-175722165D01*
X52614105Y-175717594D01*
X52644048Y-175592874D01*
X52668380Y-175491524D01*
X52668381Y-175491518D01*
X52669535Y-175486711D01*
X52688165Y-175250000D01*
X52669535Y-175013289D01*
X52666969Y-175002598D01*
X52661036Y-174977885D01*
X55617000Y-174977885D01*
X55621475Y-174993124D01*
X55622865Y-174994329D01*
X55630548Y-174996000D01*
X56502885Y-174996000D01*
X56518124Y-174991525D01*
X56519329Y-174990135D01*
X56521000Y-174982452D01*
X56521000Y-174977885D01*
X57029000Y-174977885D01*
X57033475Y-174993124D01*
X57034865Y-174994329D01*
X57042548Y-174996000D01*
X57914885Y-174996000D01*
X57930124Y-174991525D01*
X57931329Y-174990135D01*
X57933000Y-174982452D01*
X57933000Y-174748908D01*
X57932734Y-174743119D01*
X57919016Y-174593824D01*
X57916918Y-174582503D01*
X57862287Y-174388797D01*
X57858163Y-174378050D01*
X57769141Y-174197534D01*
X57763131Y-174187727D01*
X57642701Y-174026451D01*
X57635011Y-174017911D01*
X57487206Y-173881280D01*
X57478081Y-173874279D01*
X57307856Y-173766875D01*
X57297609Y-173761654D01*
X57110668Y-173687072D01*
X57099631Y-173683803D01*
X57046770Y-173673288D01*
X57033894Y-173674440D01*
X57029000Y-173689596D01*
X57029000Y-174977885D01*
X56521000Y-174977885D01*
X56521000Y-173686706D01*
X56517194Y-173673744D01*
X56502278Y-173671808D01*
X56479700Y-173675687D01*
X56468583Y-173678666D01*
X56279748Y-173748331D01*
X56269370Y-173753281D01*
X56096394Y-173856191D01*
X56087085Y-173862955D01*
X55935757Y-173995665D01*
X55927847Y-174004000D01*
X55803236Y-174162069D01*
X55796968Y-174171720D01*
X55703257Y-174349836D01*
X55698848Y-174360479D01*
X55639167Y-174552684D01*
X55636773Y-174563946D01*
X55617437Y-174727322D01*
X55617000Y-174734728D01*
X55617000Y-174977885D01*
X52661036Y-174977885D01*
X52628648Y-174842982D01*
X52614105Y-174782406D01*
X52608032Y-174767745D01*
X52525135Y-174567611D01*
X52525133Y-174567607D01*
X52523240Y-174563037D01*
X52520654Y-174558817D01*
X52401759Y-174364798D01*
X52401755Y-174364792D01*
X52399176Y-174360584D01*
X52244969Y-174180031D01*
X52064416Y-174025824D01*
X52060208Y-174023245D01*
X52060202Y-174023241D01*
X51866183Y-173904346D01*
X51861963Y-173901760D01*
X51857393Y-173899867D01*
X51857389Y-173899865D01*
X51647167Y-173812789D01*
X51647165Y-173812788D01*
X51642594Y-173810895D01*
X51515594Y-173780405D01*
X51416524Y-173756620D01*
X51416518Y-173756619D01*
X51411711Y-173755465D01*
X51175000Y-173736835D01*
X50938289Y-173755465D01*
X50933482Y-173756619D01*
X50933476Y-173756620D01*
X50715049Y-173809060D01*
X50644141Y-173805513D01*
X50596542Y-173775638D01*
X49754987Y-172934082D01*
X49720963Y-172871772D01*
X49726028Y-172800956D01*
X49768575Y-172744121D01*
X49835095Y-172719310D01*
X49844084Y-172718989D01*
X57765783Y-172718989D01*
X57833904Y-172738991D01*
X57854878Y-172755894D01*
X58349483Y-173250499D01*
X58383509Y-173312811D01*
X58386388Y-173339594D01*
X58386388Y-174548134D01*
X58393143Y-174610316D01*
X58444273Y-174746705D01*
X58531627Y-174863261D01*
X58648183Y-174950615D01*
X58784572Y-175001745D01*
X58846754Y-175008500D01*
X60543022Y-175008500D01*
X60605204Y-175001745D01*
X60741593Y-174950615D01*
X60858149Y-174863261D01*
X60945503Y-174746705D01*
X60996633Y-174610316D01*
X60998579Y-174611046D01*
X61028433Y-174558795D01*
X61091391Y-174525979D01*
X61162095Y-174532409D01*
X61204888Y-174560498D01*
X61350588Y-174706198D01*
X61355096Y-174709355D01*
X61355099Y-174709357D01*
X61507659Y-174816181D01*
X61551987Y-174871638D01*
X61561388Y-174919394D01*
X61561388Y-175506121D01*
X61560861Y-175517304D01*
X61559186Y-175524797D01*
X61559435Y-175532723D01*
X61559435Y-175532724D01*
X61561326Y-175592874D01*
X61561388Y-175596833D01*
X61561388Y-175624744D01*
X61561885Y-175628678D01*
X61561885Y-175628679D01*
X61561893Y-175628744D01*
X61562826Y-175640581D01*
X61564215Y-175684777D01*
X61569866Y-175704227D01*
X61573875Y-175723588D01*
X61576414Y-175743685D01*
X61579333Y-175751056D01*
X61579333Y-175751058D01*
X61592692Y-175784800D01*
X61596536Y-175796028D01*
X61599243Y-175805345D01*
X61599042Y-175876342D01*
X61560489Y-175935958D01*
X61495824Y-175965268D01*
X61478247Y-175966500D01*
X60968768Y-175966500D01*
X60957585Y-175965973D01*
X60950092Y-175964298D01*
X60942166Y-175964547D01*
X60942165Y-175964547D01*
X60882002Y-175966438D01*
X60878044Y-175966500D01*
X60850144Y-175966500D01*
X60846154Y-175967004D01*
X60834320Y-175967936D01*
X60790111Y-175969326D01*
X60782497Y-175971538D01*
X60782492Y-175971539D01*
X60770659Y-175974977D01*
X60751296Y-175978988D01*
X60731203Y-175981526D01*
X60723836Y-175984443D01*
X60723831Y-175984444D01*
X60690092Y-175997802D01*
X60678865Y-176001646D01*
X60636407Y-176013982D01*
X60629581Y-176018019D01*
X60618972Y-176024293D01*
X60601224Y-176032988D01*
X60582383Y-176040448D01*
X60575967Y-176045110D01*
X60575966Y-176045110D01*
X60546613Y-176066436D01*
X60536693Y-176072952D01*
X60505465Y-176091420D01*
X60505462Y-176091422D01*
X60498638Y-176095458D01*
X60484317Y-176109779D01*
X60469284Y-176122619D01*
X60452893Y-176134528D01*
X60447843Y-176140632D01*
X60447838Y-176140637D01*
X60424707Y-176168598D01*
X60416717Y-176177379D01*
X60131537Y-176462558D01*
X60069225Y-176496583D01*
X60020559Y-176497547D01*
X60015965Y-176496737D01*
X60010655Y-176495314D01*
X60005182Y-176494835D01*
X60005181Y-176494835D01*
X59805475Y-176477363D01*
X59800000Y-176476884D01*
X59589345Y-176495314D01*
X59584032Y-176496738D01*
X59584030Y-176496738D01*
X59390400Y-176548621D01*
X59390398Y-176548622D01*
X59385090Y-176550044D01*
X59380109Y-176552366D01*
X59380108Y-176552367D01*
X59198423Y-176637088D01*
X59198420Y-176637090D01*
X59193442Y-176639411D01*
X59020224Y-176760699D01*
X58870699Y-176910224D01*
X58832754Y-176964415D01*
X58805898Y-177002770D01*
X58750441Y-177047099D01*
X58702685Y-177056500D01*
X57149548Y-177056500D01*
X57081427Y-177036498D01*
X57034934Y-176982842D01*
X57024830Y-176912568D01*
X57054324Y-176847988D01*
X57105937Y-176812288D01*
X57270252Y-176751669D01*
X57280630Y-176746719D01*
X57453606Y-176643809D01*
X57462915Y-176637045D01*
X57614243Y-176504335D01*
X57622153Y-176496000D01*
X57746764Y-176337931D01*
X57753032Y-176328280D01*
X57846743Y-176150164D01*
X57851152Y-176139521D01*
X57910833Y-175947316D01*
X57913227Y-175936054D01*
X57932563Y-175772678D01*
X57933000Y-175765272D01*
X57933000Y-175522115D01*
X57928525Y-175506876D01*
X57927135Y-175505671D01*
X57919452Y-175504000D01*
X55635115Y-175504000D01*
X55619876Y-175508475D01*
X55618671Y-175509865D01*
X55617000Y-175517548D01*
X55617000Y-175751092D01*
X55617266Y-175756881D01*
X55630984Y-175906176D01*
X55633082Y-175917497D01*
X55687713Y-176111203D01*
X55691837Y-176121950D01*
X55780859Y-176302466D01*
X55786869Y-176312273D01*
X55907299Y-176473549D01*
X55914989Y-176482089D01*
X56062794Y-176618720D01*
X56071919Y-176625721D01*
X56242144Y-176733125D01*
X56252391Y-176738346D01*
X56440691Y-176813470D01*
X56496550Y-176857291D01*
X56519851Y-176924355D01*
X56503195Y-176993370D01*
X56451871Y-177042424D01*
X56394001Y-177056500D01*
X45949548Y-177056500D01*
X45881427Y-177036498D01*
X45834934Y-176982842D01*
X45824830Y-176912568D01*
X45854324Y-176847988D01*
X45905937Y-176812288D01*
X46070252Y-176751669D01*
X46080630Y-176746719D01*
X46253606Y-176643809D01*
X46262915Y-176637045D01*
X46414243Y-176504335D01*
X46422153Y-176496000D01*
X46546764Y-176337931D01*
X46553032Y-176328280D01*
X46646743Y-176150164D01*
X46651152Y-176139521D01*
X46710833Y-175947316D01*
X46713227Y-175936054D01*
X46732563Y-175772678D01*
X46733000Y-175765272D01*
X46733000Y-175522115D01*
X46728525Y-175506876D01*
X46727135Y-175505671D01*
X46719452Y-175504000D01*
X44435115Y-175504000D01*
X44419876Y-175508475D01*
X44418671Y-175509865D01*
X44417000Y-175517548D01*
X44417000Y-175751092D01*
X44417266Y-175756881D01*
X44430984Y-175906176D01*
X44433082Y-175917497D01*
X44487713Y-176111203D01*
X44491837Y-176121950D01*
X44580859Y-176302466D01*
X44586869Y-176312273D01*
X44707299Y-176473549D01*
X44714989Y-176482089D01*
X44862794Y-176618720D01*
X44871919Y-176625721D01*
X45042144Y-176733125D01*
X45052391Y-176738346D01*
X45240691Y-176813470D01*
X45296550Y-176857291D01*
X45319851Y-176924355D01*
X45303195Y-176993370D01*
X45251871Y-177042424D01*
X45194001Y-177056500D01*
X44319595Y-177056500D01*
X44251474Y-177036498D01*
X44230500Y-177019595D01*
X41609152Y-174398247D01*
X41575126Y-174335935D01*
X41576540Y-174276541D01*
X41593543Y-174213087D01*
X41613498Y-173985000D01*
X41593543Y-173756913D01*
X41592117Y-173751591D01*
X41535707Y-173541067D01*
X41535706Y-173541065D01*
X41534284Y-173535757D01*
X41529226Y-173524910D01*
X41439849Y-173333238D01*
X41439846Y-173333233D01*
X41437523Y-173328251D01*
X41335279Y-173182232D01*
X41309357Y-173145211D01*
X41309355Y-173145208D01*
X41306198Y-173140700D01*
X41144300Y-172978802D01*
X41139792Y-172975645D01*
X41139789Y-172975643D01*
X41100599Y-172948202D01*
X41056271Y-172892745D01*
X41048962Y-172822125D01*
X41080993Y-172758765D01*
X41142194Y-172722780D01*
X41172870Y-172718989D01*
X42289434Y-172718989D01*
X42357555Y-172738991D01*
G37*
%TD.AperFunction*%
%TD*%
M02*
