M48
; DRILL file {KiCad (6.0.0-0)} date 2022 November 12, Saturday 17:46:09
; FORMAT={-:-/ absolute / inch / decimal}
; #@! TF.CreationDate,2022-11-12T17:46:09+01:00
; #@! TF.GenerationSoftware,Kicad,Pcbnew,(6.0.0-0)
; #@! TF.FileFunction,Plated,1,2,PTH
FMAT,2
INCH
; #@! TA.AperFunction,Plated,PTH,ViaDrill
T1C0.0157
; #@! TA.AperFunction,Plated,PTH,ComponentDrill
T2C0.0276
; #@! TA.AperFunction,Plated,PTH,ComponentDrill
T3C0.0315
; #@! TA.AperFunction,Plated,PTH,ComponentDrill
T4C0.0374
; #@! TA.AperFunction,Plated,PTH,ComponentDrill
T5C0.0591
; #@! TA.AperFunction,Plated,PTH,ComponentDrill
T6C0.0906
%
G90
G05
T1
X1.3976Y-7.3819
X1.4094Y-7.126
X1.4291Y-7.252
X1.4409Y-7.7283
X1.4528Y-6.8858
T2
X0.5941Y-7.6299
X0.5945Y-7.5433
X0.6413Y-6.752
X0.8941Y-7.6299
X0.8945Y-7.5433
X0.9413Y-6.752
X1.2358Y-6.5669
X1.2398Y-6.6575
X1.3339Y-7.5787
X1.3339Y-7.6614
X1.3339Y-7.7441
X1.5358Y-6.5669
X1.5398Y-6.6575
X1.6339Y-7.5787
X1.6339Y-7.6614
X1.6339Y-7.7441
X1.7165Y-6.5154
X1.7165Y-6.8154
X2.3543Y-6.9957
X2.3543Y-7.2957
X2.4449Y-6.9957
X2.4449Y-7.2957
X2.4803Y-7.4209
X2.4803Y-7.7209
X2.5315Y-6.9957
X2.5315Y-7.2957
X2.563Y-6.602
X2.563Y-6.902
X2.8146Y-7.0236
X3.1146Y-7.0236
T3
X0.7835Y-6.5396
X0.7835Y-6.638
X1.0354Y-7.6102
X1.1339Y-7.6102
X1.2866Y-6.8498
X1.2866Y-6.9498
X1.2866Y-7.0498
X1.2866Y-7.1498
X1.2866Y-7.2498
X1.2866Y-7.3498
X1.2866Y-7.4498
X1.5866Y-6.8498
X1.5866Y-6.9498
X1.5866Y-7.0498
X1.5866Y-7.1498
X1.5866Y-7.2498
X1.5866Y-7.3498
X1.5866Y-7.4498
X1.7008Y-7.1969
X1.7992Y-7.1969
X1.9433Y-7.1417
X2.0433Y-7.1417
X2.1433Y-7.1417
X2.3425Y-6.6142
X2.3425Y-7.4173
X2.3425Y-7.5157
X2.3502Y-6.8386
X2.4409Y-6.6142
X2.4486Y-6.8386
X2.6063Y-7.4173
X2.6063Y-7.5157
X2.6083Y-7.2559
X2.6161Y-7.1024
X2.7067Y-7.2559
X2.7146Y-7.1024
X2.8768Y-7.1811
X2.9768Y-7.1811
X3.0768Y-7.1811
T4
X1.0231Y-7.0886
X1.0231Y-7.187
X1.1019Y-7.0886
X1.1019Y-7.187
T5
X2.0148Y-6.8996
X2.0167Y-7.376
X2.9203Y-6.8996
X2.9222Y-7.376
T6
X0.9105Y-6.9016
X0.9105Y-7.374
T3
G00X1.7943Y-6.9173
M15
G01X1.7943Y-6.8819
M16
G05
G00X1.7963Y-7.3583
M15
G01X1.7963Y-7.3937
M16
G05
G00X2.0325Y-6.5059
M15
G01X1.997Y-6.5059
M16
G05
G00X1.999Y-7.7697
M15
G01X2.0344Y-7.7697
M16
G05
G00X2.2352Y-6.9173
M15
G01X2.2352Y-6.8819
M16
G05
G00X2.2372Y-7.3583
M15
G01X2.2372Y-7.3937
M16
G05
G00X2.6998Y-6.9173
M15
G01X2.6998Y-6.8819
M16
G05
G00X2.7018Y-7.3583
M15
G01X2.7018Y-7.3937
M16
G05
G00X2.938Y-6.5059
M15
G01X2.9026Y-6.5059
M16
G05
G00X2.9045Y-7.7697
M15
G01X2.94Y-7.7697
M16
G05
G00X3.1407Y-6.9173
M15
G01X3.1407Y-6.8819
M16
G05
G00X3.1427Y-7.3583
M15
G01X3.1427Y-7.3937
M16
G05
T0
M30
