%TF.GenerationSoftware,KiCad,Pcbnew,(6.0.0-0)*%
%TF.CreationDate,2022-11-12T17:46:12+01:00*%
%TF.ProjectId,phono_vorverstaerker,70686f6e-6f5f-4766-9f72-766572737461,rev?*%
%TF.SameCoordinates,Original*%
%TF.FileFunction,Legend,Top*%
%TF.FilePolarity,Positive*%
%FSLAX46Y46*%
G04 Gerber Fmt 4.6, Leading zero omitted, Abs format (unit mm)*
G04 Created by KiCad (PCBNEW (6.0.0-0)) date 2022-11-12 17:46:12*
%MOMM*%
%LPD*%
G01*
G04 APERTURE LIST*
%ADD10C,0.150000*%
%ADD11C,0.120000*%
G04 APERTURE END LIST*
D10*
X58947380Y-197900000D02*
X58280714Y-197900000D01*
X57947380Y-197900000D02*
X57995000Y-197947619D01*
X58042619Y-197900000D01*
X57995000Y-197852380D01*
X57947380Y-197900000D01*
X58042619Y-197900000D01*
X58280714Y-197423809D02*
X58947380Y-197423809D01*
X58375952Y-197423809D02*
X58328333Y-197376190D01*
X58280714Y-197280952D01*
X58280714Y-197138095D01*
X58328333Y-197042857D01*
X58423571Y-196995238D01*
X58947380Y-196995238D01*
X58280714Y-196519047D02*
X59280714Y-196519047D01*
X58328333Y-196519047D02*
X58280714Y-196423809D01*
X58280714Y-196233333D01*
X58328333Y-196138095D01*
X58375952Y-196090476D01*
X58471190Y-196042857D01*
X58756904Y-196042857D01*
X58852142Y-196090476D01*
X58899761Y-196138095D01*
X58947380Y-196233333D01*
X58947380Y-196423809D01*
X58899761Y-196519047D01*
X58280714Y-195185714D02*
X58947380Y-195185714D01*
X58280714Y-195614285D02*
X58804523Y-195614285D01*
X58899761Y-195566666D01*
X58947380Y-195471428D01*
X58947380Y-195328571D01*
X58899761Y-195233333D01*
X58852142Y-195185714D01*
X58280714Y-194852380D02*
X58280714Y-194471428D01*
X57947380Y-194709523D02*
X58804523Y-194709523D01*
X58899761Y-194661904D01*
X58947380Y-194566666D01*
X58947380Y-194471428D01*
X58042619Y-193423809D02*
X57995000Y-193376190D01*
X57947380Y-193280952D01*
X57947380Y-193042857D01*
X57995000Y-192947619D01*
X58042619Y-192900000D01*
X58137857Y-192852380D01*
X58233095Y-192852380D01*
X58375952Y-192900000D01*
X58947380Y-193471428D01*
X58947380Y-192852380D01*
X81952380Y-171957142D02*
X81904761Y-172052380D01*
X81857142Y-172100000D01*
X81761904Y-172147619D01*
X81476190Y-172147619D01*
X81380952Y-172100000D01*
X81333333Y-172052380D01*
X81285714Y-171957142D01*
X81285714Y-171814285D01*
X81333333Y-171719047D01*
X81380952Y-171671428D01*
X81476190Y-171623809D01*
X81761904Y-171623809D01*
X81857142Y-171671428D01*
X81904761Y-171719047D01*
X81952380Y-171814285D01*
X81952380Y-171957142D01*
X81285714Y-170766666D02*
X81952380Y-170766666D01*
X81285714Y-171195238D02*
X81809523Y-171195238D01*
X81904761Y-171147619D01*
X81952380Y-171052380D01*
X81952380Y-170909523D01*
X81904761Y-170814285D01*
X81857142Y-170766666D01*
X81285714Y-170433333D02*
X81285714Y-170052380D01*
X80952380Y-170290476D02*
X81809523Y-170290476D01*
X81904761Y-170242857D01*
X81952380Y-170147619D01*
X81952380Y-170052380D01*
X81285714Y-169719047D02*
X82285714Y-169719047D01*
X81333333Y-169719047D02*
X81285714Y-169623809D01*
X81285714Y-169433333D01*
X81333333Y-169338095D01*
X81380952Y-169290476D01*
X81476190Y-169242857D01*
X81761904Y-169242857D01*
X81857142Y-169290476D01*
X81904761Y-169338095D01*
X81952380Y-169433333D01*
X81952380Y-169623809D01*
X81904761Y-169719047D01*
X81285714Y-168385714D02*
X81952380Y-168385714D01*
X81285714Y-168814285D02*
X81809523Y-168814285D01*
X81904761Y-168766666D01*
X81952380Y-168671428D01*
X81952380Y-168528571D01*
X81904761Y-168433333D01*
X81857142Y-168385714D01*
X81285714Y-168052380D02*
X81285714Y-167671428D01*
X80952380Y-167909523D02*
X81809523Y-167909523D01*
X81904761Y-167861904D01*
X81952380Y-167766666D01*
X81952380Y-167671428D01*
X81952380Y-166052380D02*
X81952380Y-166623809D01*
X81952380Y-166338095D02*
X80952380Y-166338095D01*
X81095238Y-166433333D01*
X81190476Y-166528571D01*
X81238095Y-166623809D01*
X81952380Y-196700000D02*
X81285714Y-196700000D01*
X80952380Y-196700000D02*
X81000000Y-196747619D01*
X81047619Y-196700000D01*
X81000000Y-196652380D01*
X80952380Y-196700000D01*
X81047619Y-196700000D01*
X81285714Y-196223809D02*
X81952380Y-196223809D01*
X81380952Y-196223809D02*
X81333333Y-196176190D01*
X81285714Y-196080952D01*
X81285714Y-195938095D01*
X81333333Y-195842857D01*
X81428571Y-195795238D01*
X81952380Y-195795238D01*
X81285714Y-195319047D02*
X82285714Y-195319047D01*
X81333333Y-195319047D02*
X81285714Y-195223809D01*
X81285714Y-195033333D01*
X81333333Y-194938095D01*
X81380952Y-194890476D01*
X81476190Y-194842857D01*
X81761904Y-194842857D01*
X81857142Y-194890476D01*
X81904761Y-194938095D01*
X81952380Y-195033333D01*
X81952380Y-195223809D01*
X81904761Y-195319047D01*
X81285714Y-193985714D02*
X81952380Y-193985714D01*
X81285714Y-194414285D02*
X81809523Y-194414285D01*
X81904761Y-194366666D01*
X81952380Y-194271428D01*
X81952380Y-194128571D01*
X81904761Y-194033333D01*
X81857142Y-193985714D01*
X81285714Y-193652380D02*
X81285714Y-193271428D01*
X80952380Y-193509523D02*
X81809523Y-193509523D01*
X81904761Y-193461904D01*
X81952380Y-193366666D01*
X81952380Y-193271428D01*
X81952380Y-191652380D02*
X81952380Y-192223809D01*
X81952380Y-191938095D02*
X80952380Y-191938095D01*
X81095238Y-192033333D01*
X81190476Y-192128571D01*
X81238095Y-192223809D01*
X48542857Y-177752380D02*
X48447619Y-177704761D01*
X48400000Y-177657142D01*
X48352380Y-177561904D01*
X48352380Y-177276190D01*
X48400000Y-177180952D01*
X48447619Y-177133333D01*
X48542857Y-177085714D01*
X48685714Y-177085714D01*
X48780952Y-177133333D01*
X48828571Y-177180952D01*
X48876190Y-177276190D01*
X48876190Y-177561904D01*
X48828571Y-177657142D01*
X48780952Y-177704761D01*
X48685714Y-177752380D01*
X48542857Y-177752380D01*
X49733333Y-177085714D02*
X49733333Y-177752380D01*
X49304761Y-177085714D02*
X49304761Y-177609523D01*
X49352380Y-177704761D01*
X49447619Y-177752380D01*
X49590476Y-177752380D01*
X49685714Y-177704761D01*
X49733333Y-177657142D01*
X50066666Y-177085714D02*
X50447619Y-177085714D01*
X50209523Y-176752380D02*
X50209523Y-177609523D01*
X50257142Y-177704761D01*
X50352380Y-177752380D01*
X50447619Y-177752380D01*
X50780952Y-177085714D02*
X50780952Y-178085714D01*
X50780952Y-177133333D02*
X50876190Y-177085714D01*
X51066666Y-177085714D01*
X51161904Y-177133333D01*
X51209523Y-177180952D01*
X51257142Y-177276190D01*
X51257142Y-177561904D01*
X51209523Y-177657142D01*
X51161904Y-177704761D01*
X51066666Y-177752380D01*
X50876190Y-177752380D01*
X50780952Y-177704761D01*
X52114285Y-177085714D02*
X52114285Y-177752380D01*
X51685714Y-177085714D02*
X51685714Y-177609523D01*
X51733333Y-177704761D01*
X51828571Y-177752380D01*
X51971428Y-177752380D01*
X52066666Y-177704761D01*
X52114285Y-177657142D01*
X52447619Y-177085714D02*
X52828571Y-177085714D01*
X52590476Y-176752380D02*
X52590476Y-177609523D01*
X52638095Y-177704761D01*
X52733333Y-177752380D01*
X52828571Y-177752380D01*
X53876190Y-176847619D02*
X53923809Y-176800000D01*
X54019047Y-176752380D01*
X54257142Y-176752380D01*
X54352380Y-176800000D01*
X54400000Y-176847619D01*
X54447619Y-176942857D01*
X54447619Y-177038095D01*
X54400000Y-177180952D01*
X53828571Y-177752380D01*
X54447619Y-177752380D01*
%TO.C,R11*%
X65552380Y-172142857D02*
X65076190Y-172476190D01*
X65552380Y-172714285D02*
X64552380Y-172714285D01*
X64552380Y-172333333D01*
X64600000Y-172238095D01*
X64647619Y-172190476D01*
X64742857Y-172142857D01*
X64885714Y-172142857D01*
X64980952Y-172190476D01*
X65028571Y-172238095D01*
X65076190Y-172333333D01*
X65076190Y-172714285D01*
X65552380Y-171190476D02*
X65552380Y-171761904D01*
X65552380Y-171476190D02*
X64552380Y-171476190D01*
X64695238Y-171571428D01*
X64790476Y-171666666D01*
X64838095Y-171761904D01*
X65552380Y-170238095D02*
X65552380Y-170809523D01*
X65552380Y-170523809D02*
X64552380Y-170523809D01*
X64695238Y-170619047D01*
X64790476Y-170714285D01*
X64838095Y-170809523D01*
%TO.C,J5*%
X74333333Y-170847619D02*
X74333333Y-170133333D01*
X74380952Y-169990476D01*
X74476190Y-169895238D01*
X74619047Y-169847619D01*
X74714285Y-169847619D01*
X73380952Y-170847619D02*
X73857142Y-170847619D01*
X73904761Y-170371428D01*
X73857142Y-170419047D01*
X73761904Y-170466666D01*
X73523809Y-170466666D01*
X73428571Y-170419047D01*
X73380952Y-170371428D01*
X73333333Y-170276190D01*
X73333333Y-170038095D01*
X73380952Y-169942857D01*
X73428571Y-169895238D01*
X73523809Y-169847619D01*
X73761904Y-169847619D01*
X73857142Y-169895238D01*
X73904761Y-169942857D01*
%TO.C,R10*%
X18167142Y-192152380D02*
X17833809Y-191676190D01*
X17595714Y-192152380D02*
X17595714Y-191152380D01*
X17976666Y-191152380D01*
X18071904Y-191200000D01*
X18119523Y-191247619D01*
X18167142Y-191342857D01*
X18167142Y-191485714D01*
X18119523Y-191580952D01*
X18071904Y-191628571D01*
X17976666Y-191676190D01*
X17595714Y-191676190D01*
X19119523Y-192152380D02*
X18548095Y-192152380D01*
X18833809Y-192152380D02*
X18833809Y-191152380D01*
X18738571Y-191295238D01*
X18643333Y-191390476D01*
X18548095Y-191438095D01*
X19738571Y-191152380D02*
X19833809Y-191152380D01*
X19929047Y-191200000D01*
X19976666Y-191247619D01*
X20024285Y-191342857D01*
X20071904Y-191533333D01*
X20071904Y-191771428D01*
X20024285Y-191961904D01*
X19976666Y-192057142D01*
X19929047Y-192104761D01*
X19833809Y-192152380D01*
X19738571Y-192152380D01*
X19643333Y-192104761D01*
X19595714Y-192057142D01*
X19548095Y-191961904D01*
X19500476Y-191771428D01*
X19500476Y-191533333D01*
X19548095Y-191342857D01*
X19595714Y-191247619D01*
X19643333Y-191200000D01*
X19738571Y-191152380D01*
%TO.C,C7*%
X58333333Y-165457142D02*
X58285714Y-165504761D01*
X58142857Y-165552380D01*
X58047619Y-165552380D01*
X57904761Y-165504761D01*
X57809523Y-165409523D01*
X57761904Y-165314285D01*
X57714285Y-165123809D01*
X57714285Y-164980952D01*
X57761904Y-164790476D01*
X57809523Y-164695238D01*
X57904761Y-164600000D01*
X58047619Y-164552380D01*
X58142857Y-164552380D01*
X58285714Y-164600000D01*
X58333333Y-164647619D01*
X58666666Y-164552380D02*
X59333333Y-164552380D01*
X58904761Y-165552380D01*
%TO.C,C5*%
X66433333Y-186557142D02*
X66385714Y-186604761D01*
X66242857Y-186652380D01*
X66147619Y-186652380D01*
X66004761Y-186604761D01*
X65909523Y-186509523D01*
X65861904Y-186414285D01*
X65814285Y-186223809D01*
X65814285Y-186080952D01*
X65861904Y-185890476D01*
X65909523Y-185795238D01*
X66004761Y-185700000D01*
X66147619Y-185652380D01*
X66242857Y-185652380D01*
X66385714Y-185700000D01*
X66433333Y-185747619D01*
X67338095Y-185652380D02*
X66861904Y-185652380D01*
X66814285Y-186128571D01*
X66861904Y-186080952D01*
X66957142Y-186033333D01*
X67195238Y-186033333D01*
X67290476Y-186080952D01*
X67338095Y-186128571D01*
X67385714Y-186223809D01*
X67385714Y-186461904D01*
X67338095Y-186557142D01*
X67290476Y-186604761D01*
X67195238Y-186652380D01*
X66957142Y-186652380D01*
X66861904Y-186604761D01*
X66814285Y-186557142D01*
%TO.C,J2*%
X74166666Y-192552380D02*
X74166666Y-193266666D01*
X74119047Y-193409523D01*
X74023809Y-193504761D01*
X73880952Y-193552380D01*
X73785714Y-193552380D01*
X74595238Y-192647619D02*
X74642857Y-192600000D01*
X74738095Y-192552380D01*
X74976190Y-192552380D01*
X75071428Y-192600000D01*
X75119047Y-192647619D01*
X75166666Y-192742857D01*
X75166666Y-192838095D01*
X75119047Y-192980952D01*
X74547619Y-193552380D01*
X75166666Y-193552380D01*
%TO.C,C9*%
X27383333Y-189907142D02*
X27335714Y-189954761D01*
X27192857Y-190002380D01*
X27097619Y-190002380D01*
X26954761Y-189954761D01*
X26859523Y-189859523D01*
X26811904Y-189764285D01*
X26764285Y-189573809D01*
X26764285Y-189430952D01*
X26811904Y-189240476D01*
X26859523Y-189145238D01*
X26954761Y-189050000D01*
X27097619Y-189002380D01*
X27192857Y-189002380D01*
X27335714Y-189050000D01*
X27383333Y-189097619D01*
X27859523Y-190002380D02*
X28050000Y-190002380D01*
X28145238Y-189954761D01*
X28192857Y-189907142D01*
X28288095Y-189764285D01*
X28335714Y-189573809D01*
X28335714Y-189192857D01*
X28288095Y-189097619D01*
X28240476Y-189050000D01*
X28145238Y-189002380D01*
X27954761Y-189002380D01*
X27859523Y-189050000D01*
X27811904Y-189097619D01*
X27764285Y-189192857D01*
X27764285Y-189430952D01*
X27811904Y-189526190D01*
X27859523Y-189573809D01*
X27954761Y-189621428D01*
X28145238Y-189621428D01*
X28240476Y-189573809D01*
X28288095Y-189526190D01*
X28335714Y-189430952D01*
%TO.C,U1*%
X36038095Y-186552380D02*
X36038095Y-187361904D01*
X36085714Y-187457142D01*
X36133333Y-187504761D01*
X36228571Y-187552380D01*
X36419047Y-187552380D01*
X36514285Y-187504761D01*
X36561904Y-187457142D01*
X36609523Y-187361904D01*
X36609523Y-186552380D01*
X37609523Y-187552380D02*
X37038095Y-187552380D01*
X37323809Y-187552380D02*
X37323809Y-186552380D01*
X37228571Y-186695238D01*
X37133333Y-186790476D01*
X37038095Y-186838095D01*
%TO.C,C8*%
X58533333Y-171457142D02*
X58485714Y-171504761D01*
X58342857Y-171552380D01*
X58247619Y-171552380D01*
X58104761Y-171504761D01*
X58009523Y-171409523D01*
X57961904Y-171314285D01*
X57914285Y-171123809D01*
X57914285Y-170980952D01*
X57961904Y-170790476D01*
X58009523Y-170695238D01*
X58104761Y-170600000D01*
X58247619Y-170552380D01*
X58342857Y-170552380D01*
X58485714Y-170600000D01*
X58533333Y-170647619D01*
X59104761Y-170980952D02*
X59009523Y-170933333D01*
X58961904Y-170885714D01*
X58914285Y-170790476D01*
X58914285Y-170742857D01*
X58961904Y-170647619D01*
X59009523Y-170600000D01*
X59104761Y-170552380D01*
X59295238Y-170552380D01*
X59390476Y-170600000D01*
X59438095Y-170647619D01*
X59485714Y-170742857D01*
X59485714Y-170790476D01*
X59438095Y-170885714D01*
X59390476Y-170933333D01*
X59295238Y-170980952D01*
X59104761Y-170980952D01*
X59009523Y-171028571D01*
X58961904Y-171076190D01*
X58914285Y-171171428D01*
X58914285Y-171361904D01*
X58961904Y-171457142D01*
X59009523Y-171504761D01*
X59104761Y-171552380D01*
X59295238Y-171552380D01*
X59390476Y-171504761D01*
X59438095Y-171457142D01*
X59485714Y-171361904D01*
X59485714Y-171171428D01*
X59438095Y-171076190D01*
X59390476Y-171028571D01*
X59295238Y-170980952D01*
%TO.C,J3*%
X19566666Y-184752380D02*
X19566666Y-185466666D01*
X19519047Y-185609523D01*
X19423809Y-185704761D01*
X19280952Y-185752380D01*
X19185714Y-185752380D01*
X19947619Y-184752380D02*
X20566666Y-184752380D01*
X20233333Y-185133333D01*
X20376190Y-185133333D01*
X20471428Y-185180952D01*
X20519047Y-185228571D01*
X20566666Y-185323809D01*
X20566666Y-185561904D01*
X20519047Y-185657142D01*
X20471428Y-185704761D01*
X20376190Y-185752380D01*
X20090476Y-185752380D01*
X19995238Y-185704761D01*
X19947619Y-185657142D01*
%TO.C,C1*%
X60757142Y-192866666D02*
X60804761Y-192914285D01*
X60852380Y-193057142D01*
X60852380Y-193152380D01*
X60804761Y-193295238D01*
X60709523Y-193390476D01*
X60614285Y-193438095D01*
X60423809Y-193485714D01*
X60280952Y-193485714D01*
X60090476Y-193438095D01*
X59995238Y-193390476D01*
X59900000Y-193295238D01*
X59852380Y-193152380D01*
X59852380Y-193057142D01*
X59900000Y-192914285D01*
X59947619Y-192866666D01*
X60852380Y-191914285D02*
X60852380Y-192485714D01*
X60852380Y-192200000D02*
X59852380Y-192200000D01*
X59995238Y-192295238D01*
X60090476Y-192390476D01*
X60138095Y-192485714D01*
%TO.C,RV1*%
X75014761Y-181252380D02*
X74681428Y-180776190D01*
X74443333Y-181252380D02*
X74443333Y-180252380D01*
X74824285Y-180252380D01*
X74919523Y-180300000D01*
X74967142Y-180347619D01*
X75014761Y-180442857D01*
X75014761Y-180585714D01*
X74967142Y-180680952D01*
X74919523Y-180728571D01*
X74824285Y-180776190D01*
X74443333Y-180776190D01*
X75300476Y-180252380D02*
X75633809Y-181252380D01*
X75967142Y-180252380D01*
X76824285Y-181252380D02*
X76252857Y-181252380D01*
X76538571Y-181252380D02*
X76538571Y-180252380D01*
X76443333Y-180395238D01*
X76348095Y-180490476D01*
X76252857Y-180538095D01*
%TO.C,R14*%
X44052380Y-169942857D02*
X43576190Y-170276190D01*
X44052380Y-170514285D02*
X43052380Y-170514285D01*
X43052380Y-170133333D01*
X43100000Y-170038095D01*
X43147619Y-169990476D01*
X43242857Y-169942857D01*
X43385714Y-169942857D01*
X43480952Y-169990476D01*
X43528571Y-170038095D01*
X43576190Y-170133333D01*
X43576190Y-170514285D01*
X44052380Y-168990476D02*
X44052380Y-169561904D01*
X44052380Y-169276190D02*
X43052380Y-169276190D01*
X43195238Y-169371428D01*
X43290476Y-169466666D01*
X43338095Y-169561904D01*
X43385714Y-168133333D02*
X44052380Y-168133333D01*
X43004761Y-168371428D02*
X43719047Y-168609523D01*
X43719047Y-167990476D01*
%TO.C,C2*%
X66657142Y-193366666D02*
X66704761Y-193414285D01*
X66752380Y-193557142D01*
X66752380Y-193652380D01*
X66704761Y-193795238D01*
X66609523Y-193890476D01*
X66514285Y-193938095D01*
X66323809Y-193985714D01*
X66180952Y-193985714D01*
X65990476Y-193938095D01*
X65895238Y-193890476D01*
X65800000Y-193795238D01*
X65752380Y-193652380D01*
X65752380Y-193557142D01*
X65800000Y-193414285D01*
X65847619Y-193366666D01*
X65847619Y-192985714D02*
X65800000Y-192938095D01*
X65752380Y-192842857D01*
X65752380Y-192604761D01*
X65800000Y-192509523D01*
X65847619Y-192461904D01*
X65942857Y-192414285D01*
X66038095Y-192414285D01*
X66180952Y-192461904D01*
X66752380Y-193033333D01*
X66752380Y-192414285D01*
%TO.C,R2*%
X35133333Y-169652380D02*
X34800000Y-169176190D01*
X34561904Y-169652380D02*
X34561904Y-168652380D01*
X34942857Y-168652380D01*
X35038095Y-168700000D01*
X35085714Y-168747619D01*
X35133333Y-168842857D01*
X35133333Y-168985714D01*
X35085714Y-169080952D01*
X35038095Y-169128571D01*
X34942857Y-169176190D01*
X34561904Y-169176190D01*
X35514285Y-168747619D02*
X35561904Y-168700000D01*
X35657142Y-168652380D01*
X35895238Y-168652380D01*
X35990476Y-168700000D01*
X36038095Y-168747619D01*
X36085714Y-168842857D01*
X36085714Y-168938095D01*
X36038095Y-169080952D01*
X35466666Y-169652380D01*
X36085714Y-169652380D01*
%TO.C,R1*%
X19833333Y-171952380D02*
X19500000Y-171476190D01*
X19261904Y-171952380D02*
X19261904Y-170952380D01*
X19642857Y-170952380D01*
X19738095Y-171000000D01*
X19785714Y-171047619D01*
X19833333Y-171142857D01*
X19833333Y-171285714D01*
X19785714Y-171380952D01*
X19738095Y-171428571D01*
X19642857Y-171476190D01*
X19261904Y-171476190D01*
X20785714Y-171952380D02*
X20214285Y-171952380D01*
X20500000Y-171952380D02*
X20500000Y-170952380D01*
X20404761Y-171095238D01*
X20309523Y-171190476D01*
X20214285Y-171238095D01*
%TO.C,J1*%
X50966666Y-193152380D02*
X50966666Y-193866666D01*
X50919047Y-194009523D01*
X50823809Y-194104761D01*
X50680952Y-194152380D01*
X50585714Y-194152380D01*
X51966666Y-194152380D02*
X51395238Y-194152380D01*
X51680952Y-194152380D02*
X51680952Y-193152380D01*
X51585714Y-193295238D01*
X51490476Y-193390476D01*
X51395238Y-193438095D01*
%TO.C,R15*%
X74657142Y-178852380D02*
X74323809Y-178376190D01*
X74085714Y-178852380D02*
X74085714Y-177852380D01*
X74466666Y-177852380D01*
X74561904Y-177900000D01*
X74609523Y-177947619D01*
X74657142Y-178042857D01*
X74657142Y-178185714D01*
X74609523Y-178280952D01*
X74561904Y-178328571D01*
X74466666Y-178376190D01*
X74085714Y-178376190D01*
X75609523Y-178852380D02*
X75038095Y-178852380D01*
X75323809Y-178852380D02*
X75323809Y-177852380D01*
X75228571Y-177995238D01*
X75133333Y-178090476D01*
X75038095Y-178138095D01*
X76514285Y-177852380D02*
X76038095Y-177852380D01*
X75990476Y-178328571D01*
X76038095Y-178280952D01*
X76133333Y-178233333D01*
X76371428Y-178233333D01*
X76466666Y-178280952D01*
X76514285Y-178328571D01*
X76561904Y-178423809D01*
X76561904Y-178661904D01*
X76514285Y-178757142D01*
X76466666Y-178804761D01*
X76371428Y-178852380D01*
X76133333Y-178852380D01*
X76038095Y-178804761D01*
X75990476Y-178757142D01*
%TO.C,R3*%
X35033333Y-167352380D02*
X34700000Y-166876190D01*
X34461904Y-167352380D02*
X34461904Y-166352380D01*
X34842857Y-166352380D01*
X34938095Y-166400000D01*
X34985714Y-166447619D01*
X35033333Y-166542857D01*
X35033333Y-166685714D01*
X34985714Y-166780952D01*
X34938095Y-166828571D01*
X34842857Y-166876190D01*
X34461904Y-166876190D01*
X35366666Y-166352380D02*
X35985714Y-166352380D01*
X35652380Y-166733333D01*
X35795238Y-166733333D01*
X35890476Y-166780952D01*
X35938095Y-166828571D01*
X35985714Y-166923809D01*
X35985714Y-167161904D01*
X35938095Y-167257142D01*
X35890476Y-167304761D01*
X35795238Y-167352380D01*
X35509523Y-167352380D01*
X35414285Y-167304761D01*
X35366666Y-167257142D01*
%TO.C,R12*%
X64852380Y-182142857D02*
X64376190Y-182476190D01*
X64852380Y-182714285D02*
X63852380Y-182714285D01*
X63852380Y-182333333D01*
X63900000Y-182238095D01*
X63947619Y-182190476D01*
X64042857Y-182142857D01*
X64185714Y-182142857D01*
X64280952Y-182190476D01*
X64328571Y-182238095D01*
X64376190Y-182333333D01*
X64376190Y-182714285D01*
X64852380Y-181190476D02*
X64852380Y-181761904D01*
X64852380Y-181476190D02*
X63852380Y-181476190D01*
X63995238Y-181571428D01*
X64090476Y-181666666D01*
X64138095Y-181761904D01*
X63947619Y-180809523D02*
X63900000Y-180761904D01*
X63852380Y-180666666D01*
X63852380Y-180428571D01*
X63900000Y-180333333D01*
X63947619Y-180285714D01*
X64042857Y-180238095D01*
X64138095Y-180238095D01*
X64280952Y-180285714D01*
X64852380Y-180857142D01*
X64852380Y-180238095D01*
%TO.C,R8*%
X60252380Y-181466666D02*
X59776190Y-181800000D01*
X60252380Y-182038095D02*
X59252380Y-182038095D01*
X59252380Y-181657142D01*
X59300000Y-181561904D01*
X59347619Y-181514285D01*
X59442857Y-181466666D01*
X59585714Y-181466666D01*
X59680952Y-181514285D01*
X59728571Y-181561904D01*
X59776190Y-181657142D01*
X59776190Y-182038095D01*
X59680952Y-180895238D02*
X59633333Y-180990476D01*
X59585714Y-181038095D01*
X59490476Y-181085714D01*
X59442857Y-181085714D01*
X59347619Y-181038095D01*
X59300000Y-180990476D01*
X59252380Y-180895238D01*
X59252380Y-180704761D01*
X59300000Y-180609523D01*
X59347619Y-180561904D01*
X59442857Y-180514285D01*
X59490476Y-180514285D01*
X59585714Y-180561904D01*
X59633333Y-180609523D01*
X59680952Y-180704761D01*
X59680952Y-180895238D01*
X59728571Y-180990476D01*
X59776190Y-181038095D01*
X59871428Y-181085714D01*
X60061904Y-181085714D01*
X60157142Y-181038095D01*
X60204761Y-180990476D01*
X60252380Y-180895238D01*
X60252380Y-180704761D01*
X60204761Y-180609523D01*
X60157142Y-180561904D01*
X60061904Y-180514285D01*
X59871428Y-180514285D01*
X59776190Y-180561904D01*
X59728571Y-180609523D01*
X59680952Y-180704761D01*
%TO.C,R6*%
X63552380Y-192566666D02*
X63076190Y-192900000D01*
X63552380Y-193138095D02*
X62552380Y-193138095D01*
X62552380Y-192757142D01*
X62600000Y-192661904D01*
X62647619Y-192614285D01*
X62742857Y-192566666D01*
X62885714Y-192566666D01*
X62980952Y-192614285D01*
X63028571Y-192661904D01*
X63076190Y-192757142D01*
X63076190Y-193138095D01*
X62552380Y-191709523D02*
X62552380Y-191900000D01*
X62600000Y-191995238D01*
X62647619Y-192042857D01*
X62790476Y-192138095D01*
X62980952Y-192185714D01*
X63361904Y-192185714D01*
X63457142Y-192138095D01*
X63504761Y-192090476D01*
X63552380Y-191995238D01*
X63552380Y-191804761D01*
X63504761Y-191709523D01*
X63457142Y-191661904D01*
X63361904Y-191614285D01*
X63123809Y-191614285D01*
X63028571Y-191661904D01*
X62980952Y-191709523D01*
X62933333Y-191804761D01*
X62933333Y-191995238D01*
X62980952Y-192090476D01*
X63028571Y-192138095D01*
X63123809Y-192185714D01*
%TO.C,R4*%
X37463333Y-192952380D02*
X37130000Y-192476190D01*
X36891904Y-192952380D02*
X36891904Y-191952380D01*
X37272857Y-191952380D01*
X37368095Y-192000000D01*
X37415714Y-192047619D01*
X37463333Y-192142857D01*
X37463333Y-192285714D01*
X37415714Y-192380952D01*
X37368095Y-192428571D01*
X37272857Y-192476190D01*
X36891904Y-192476190D01*
X38320476Y-192285714D02*
X38320476Y-192952380D01*
X38082380Y-191904761D02*
X37844285Y-192619047D01*
X38463333Y-192619047D01*
%TO.C,C6*%
X66233333Y-178857142D02*
X66185714Y-178904761D01*
X66042857Y-178952380D01*
X65947619Y-178952380D01*
X65804761Y-178904761D01*
X65709523Y-178809523D01*
X65661904Y-178714285D01*
X65614285Y-178523809D01*
X65614285Y-178380952D01*
X65661904Y-178190476D01*
X65709523Y-178095238D01*
X65804761Y-178000000D01*
X65947619Y-177952380D01*
X66042857Y-177952380D01*
X66185714Y-178000000D01*
X66233333Y-178047619D01*
X67090476Y-177952380D02*
X66900000Y-177952380D01*
X66804761Y-178000000D01*
X66757142Y-178047619D01*
X66661904Y-178190476D01*
X66614285Y-178380952D01*
X66614285Y-178761904D01*
X66661904Y-178857142D01*
X66709523Y-178904761D01*
X66804761Y-178952380D01*
X66995238Y-178952380D01*
X67090476Y-178904761D01*
X67138095Y-178857142D01*
X67185714Y-178761904D01*
X67185714Y-178523809D01*
X67138095Y-178428571D01*
X67090476Y-178380952D01*
X66995238Y-178333333D01*
X66804761Y-178333333D01*
X66709523Y-178380952D01*
X66661904Y-178428571D01*
X66614285Y-178523809D01*
%TO.C,R9*%
X62452380Y-181666666D02*
X61976190Y-182000000D01*
X62452380Y-182238095D02*
X61452380Y-182238095D01*
X61452380Y-181857142D01*
X61500000Y-181761904D01*
X61547619Y-181714285D01*
X61642857Y-181666666D01*
X61785714Y-181666666D01*
X61880952Y-181714285D01*
X61928571Y-181761904D01*
X61976190Y-181857142D01*
X61976190Y-182238095D01*
X62452380Y-181190476D02*
X62452380Y-181000000D01*
X62404761Y-180904761D01*
X62357142Y-180857142D01*
X62214285Y-180761904D01*
X62023809Y-180714285D01*
X61642857Y-180714285D01*
X61547619Y-180761904D01*
X61500000Y-180809523D01*
X61452380Y-180904761D01*
X61452380Y-181095238D01*
X61500000Y-181190476D01*
X61547619Y-181238095D01*
X61642857Y-181285714D01*
X61880952Y-181285714D01*
X61976190Y-181238095D01*
X62023809Y-181190476D01*
X62071428Y-181095238D01*
X62071428Y-180904761D01*
X62023809Y-180809523D01*
X61976190Y-180761904D01*
X61880952Y-180714285D01*
%TO.C,R7*%
X37523333Y-197252380D02*
X37190000Y-196776190D01*
X36951904Y-197252380D02*
X36951904Y-196252380D01*
X37332857Y-196252380D01*
X37428095Y-196300000D01*
X37475714Y-196347619D01*
X37523333Y-196442857D01*
X37523333Y-196585714D01*
X37475714Y-196680952D01*
X37428095Y-196728571D01*
X37332857Y-196776190D01*
X36951904Y-196776190D01*
X37856666Y-196252380D02*
X38523333Y-196252380D01*
X38094761Y-197252380D01*
%TO.C,C4*%
X44283333Y-185457142D02*
X44235714Y-185504761D01*
X44092857Y-185552380D01*
X43997619Y-185552380D01*
X43854761Y-185504761D01*
X43759523Y-185409523D01*
X43711904Y-185314285D01*
X43664285Y-185123809D01*
X43664285Y-184980952D01*
X43711904Y-184790476D01*
X43759523Y-184695238D01*
X43854761Y-184600000D01*
X43997619Y-184552380D01*
X44092857Y-184552380D01*
X44235714Y-184600000D01*
X44283333Y-184647619D01*
X45140476Y-184885714D02*
X45140476Y-185552380D01*
X44902380Y-184504761D02*
X44664285Y-185219047D01*
X45283333Y-185219047D01*
%TO.C,J4*%
X51733333Y-170647619D02*
X51733333Y-169933333D01*
X51780952Y-169790476D01*
X51876190Y-169695238D01*
X52019047Y-169647619D01*
X52114285Y-169647619D01*
X50828571Y-170314285D02*
X50828571Y-169647619D01*
X51066666Y-170695238D02*
X51304761Y-169980952D01*
X50685714Y-169980952D01*
%TO.C,C3*%
X16507142Y-167521779D02*
X16554761Y-167569398D01*
X16602380Y-167712255D01*
X16602380Y-167807493D01*
X16554761Y-167950351D01*
X16459523Y-168045589D01*
X16364285Y-168093208D01*
X16173809Y-168140827D01*
X16030952Y-168140827D01*
X15840476Y-168093208D01*
X15745238Y-168045589D01*
X15650000Y-167950351D01*
X15602380Y-167807493D01*
X15602380Y-167712255D01*
X15650000Y-167569398D01*
X15697619Y-167521779D01*
X15602380Y-167188446D02*
X15602380Y-166569398D01*
X15983333Y-166902732D01*
X15983333Y-166759874D01*
X16030952Y-166664636D01*
X16078571Y-166617017D01*
X16173809Y-166569398D01*
X16411904Y-166569398D01*
X16507142Y-166617017D01*
X16554761Y-166664636D01*
X16602380Y-166759874D01*
X16602380Y-167045589D01*
X16554761Y-167140827D01*
X16507142Y-167188446D01*
%TO.C,R5*%
X37523333Y-195052380D02*
X37190000Y-194576190D01*
X36951904Y-195052380D02*
X36951904Y-194052380D01*
X37332857Y-194052380D01*
X37428095Y-194100000D01*
X37475714Y-194147619D01*
X37523333Y-194242857D01*
X37523333Y-194385714D01*
X37475714Y-194480952D01*
X37428095Y-194528571D01*
X37332857Y-194576190D01*
X36951904Y-194576190D01*
X38428095Y-194052380D02*
X37951904Y-194052380D01*
X37904285Y-194528571D01*
X37951904Y-194480952D01*
X38047142Y-194433333D01*
X38285238Y-194433333D01*
X38380476Y-194480952D01*
X38428095Y-194528571D01*
X38475714Y-194623809D01*
X38475714Y-194861904D01*
X38428095Y-194957142D01*
X38380476Y-195004761D01*
X38285238Y-195052380D01*
X38047142Y-195052380D01*
X37951904Y-195004761D01*
X37904285Y-194957142D01*
%TO.C,RV2*%
X51094761Y-180452380D02*
X50761428Y-179976190D01*
X50523333Y-180452380D02*
X50523333Y-179452380D01*
X50904285Y-179452380D01*
X50999523Y-179500000D01*
X51047142Y-179547619D01*
X51094761Y-179642857D01*
X51094761Y-179785714D01*
X51047142Y-179880952D01*
X50999523Y-179928571D01*
X50904285Y-179976190D01*
X50523333Y-179976190D01*
X51380476Y-179452380D02*
X51713809Y-180452380D01*
X52047142Y-179452380D01*
X52332857Y-179547619D02*
X52380476Y-179500000D01*
X52475714Y-179452380D01*
X52713809Y-179452380D01*
X52809047Y-179500000D01*
X52856666Y-179547619D01*
X52904285Y-179642857D01*
X52904285Y-179738095D01*
X52856666Y-179880952D01*
X52285238Y-180452380D01*
X52904285Y-180452380D01*
%TO.C,R13*%
X18257142Y-194252380D02*
X17923809Y-193776190D01*
X17685714Y-194252380D02*
X17685714Y-193252380D01*
X18066666Y-193252380D01*
X18161904Y-193300000D01*
X18209523Y-193347619D01*
X18257142Y-193442857D01*
X18257142Y-193585714D01*
X18209523Y-193680952D01*
X18161904Y-193728571D01*
X18066666Y-193776190D01*
X17685714Y-193776190D01*
X19209523Y-194252380D02*
X18638095Y-194252380D01*
X18923809Y-194252380D02*
X18923809Y-193252380D01*
X18828571Y-193395238D01*
X18733333Y-193490476D01*
X18638095Y-193538095D01*
X19542857Y-193252380D02*
X20161904Y-193252380D01*
X19828571Y-193633333D01*
X19971428Y-193633333D01*
X20066666Y-193680952D01*
X20114285Y-193728571D01*
X20161904Y-193823809D01*
X20161904Y-194061904D01*
X20114285Y-194157142D01*
X20066666Y-194204761D01*
X19971428Y-194252380D01*
X19685714Y-194252380D01*
X19590476Y-194204761D01*
X19542857Y-194157142D01*
D11*
%TO.C,R11*%
X66020000Y-173420000D02*
X66020000Y-169580000D01*
X64180000Y-173420000D02*
X66020000Y-173420000D01*
X64180000Y-169580000D02*
X64180000Y-173420000D01*
X66020000Y-169580000D02*
X64180000Y-169580000D01*
X65100000Y-168630000D02*
X65100000Y-169580000D01*
X65100000Y-174370000D02*
X65100000Y-173420000D01*
%TO.C,J5*%
X80625000Y-176500000D02*
X67775000Y-176500000D01*
X67775000Y-176500000D02*
X67775000Y-164500000D01*
X67775000Y-164500000D02*
X80625000Y-164500000D01*
X80625000Y-164500000D02*
X80625000Y-176500000D01*
%TO.C,R10*%
X21780000Y-191600000D02*
X20830000Y-191600000D01*
X16040000Y-191600000D02*
X16990000Y-191600000D01*
X16990000Y-192520000D02*
X20830000Y-192520000D01*
X20830000Y-192520000D02*
X20830000Y-190680000D01*
X20830000Y-190680000D02*
X16990000Y-190680000D01*
X16990000Y-190680000D02*
X16990000Y-192520000D01*
%TO.C,C7*%
X62991000Y-169040000D02*
X62991000Y-169319000D01*
X63271000Y-167323000D02*
X63271000Y-168677000D01*
X61471000Y-169040000D02*
X61471000Y-170480000D01*
X62911000Y-169040000D02*
X62911000Y-169443000D01*
X61871000Y-165671000D02*
X61871000Y-166960000D01*
X62791000Y-166395000D02*
X62791000Y-166960000D01*
X62871000Y-166500000D02*
X62871000Y-166960000D01*
X61110000Y-169040000D02*
X61110000Y-170556000D01*
X62751000Y-169040000D02*
X62751000Y-169653000D01*
X62351000Y-165965000D02*
X62351000Y-166960000D01*
X60870000Y-165422000D02*
X60870000Y-170578000D01*
X61911000Y-169040000D02*
X61911000Y-170310000D01*
X60950000Y-165427000D02*
X60950000Y-170573000D01*
X60990000Y-165431000D02*
X60990000Y-166960000D01*
X61350000Y-169040000D02*
X61350000Y-170511000D01*
X61551000Y-169040000D02*
X61551000Y-170455000D01*
X61511000Y-169040000D02*
X61511000Y-170468000D01*
X62151000Y-169040000D02*
X62151000Y-170175000D01*
X62591000Y-166174000D02*
X62591000Y-166960000D01*
X62431000Y-166029000D02*
X62431000Y-166960000D01*
X63311000Y-167482000D02*
X63311000Y-168518000D01*
X60750000Y-165420000D02*
X60750000Y-170580000D01*
X62071000Y-165776000D02*
X62071000Y-166960000D01*
X62831000Y-166446000D02*
X62831000Y-166960000D01*
X61430000Y-169040000D02*
X61430000Y-170491000D01*
X61030000Y-165435000D02*
X61030000Y-166960000D01*
X60790000Y-165420000D02*
X60790000Y-170580000D01*
X61110000Y-165444000D02*
X61110000Y-166960000D01*
X62511000Y-166099000D02*
X62511000Y-166960000D01*
X61030000Y-169040000D02*
X61030000Y-170565000D01*
X61911000Y-165690000D02*
X61911000Y-166960000D01*
X61631000Y-165572000D02*
X61631000Y-166960000D01*
X61350000Y-165489000D02*
X61350000Y-166960000D01*
X61190000Y-165457000D02*
X61190000Y-166960000D01*
X61150000Y-165450000D02*
X61150000Y-166960000D01*
X62071000Y-169040000D02*
X62071000Y-170224000D01*
X62391000Y-165996000D02*
X62391000Y-166960000D01*
X63071000Y-166822000D02*
X63071000Y-169178000D01*
X61631000Y-169040000D02*
X61631000Y-170428000D01*
X62031000Y-165753000D02*
X62031000Y-166960000D01*
X62311000Y-165935000D02*
X62311000Y-166960000D01*
X61831000Y-165652000D02*
X61831000Y-166960000D01*
X61671000Y-169040000D02*
X61671000Y-170414000D01*
X62231000Y-165878000D02*
X62231000Y-166960000D01*
X61591000Y-165558000D02*
X61591000Y-166960000D01*
X61711000Y-165602000D02*
X61711000Y-166960000D01*
X61511000Y-165532000D02*
X61511000Y-166960000D01*
X60990000Y-169040000D02*
X60990000Y-170569000D01*
X62111000Y-169040000D02*
X62111000Y-170200000D01*
X60830000Y-165421000D02*
X60830000Y-170579000D01*
X61390000Y-169040000D02*
X61390000Y-170501000D01*
X62031000Y-169040000D02*
X62031000Y-170247000D01*
X57945225Y-166525000D02*
X58445225Y-166525000D01*
X62551000Y-166136000D02*
X62551000Y-166960000D01*
X62751000Y-166347000D02*
X62751000Y-166960000D01*
X61551000Y-165545000D02*
X61551000Y-166960000D01*
X61230000Y-165464000D02*
X61230000Y-166960000D01*
X61751000Y-165618000D02*
X61751000Y-166960000D01*
X62431000Y-169040000D02*
X62431000Y-169971000D01*
X63231000Y-167195000D02*
X63231000Y-168805000D01*
X62831000Y-169040000D02*
X62831000Y-169554000D01*
X62951000Y-166617000D02*
X62951000Y-166960000D01*
X62991000Y-166681000D02*
X62991000Y-166960000D01*
X62471000Y-166063000D02*
X62471000Y-166960000D01*
X62191000Y-169040000D02*
X62191000Y-170149000D01*
X61991000Y-169040000D02*
X61991000Y-170268000D01*
X62551000Y-169040000D02*
X62551000Y-169864000D01*
X61591000Y-169040000D02*
X61591000Y-170442000D01*
X61270000Y-165472000D02*
X61270000Y-166960000D01*
X62191000Y-165851000D02*
X62191000Y-166960000D01*
X62711000Y-166301000D02*
X62711000Y-166960000D01*
X62631000Y-166215000D02*
X62631000Y-166960000D01*
X62591000Y-169040000D02*
X62591000Y-169826000D01*
X61310000Y-165480000D02*
X61310000Y-166960000D01*
X61270000Y-169040000D02*
X61270000Y-170528000D01*
X61070000Y-169040000D02*
X61070000Y-170561000D01*
X62511000Y-169040000D02*
X62511000Y-169901000D01*
X58195225Y-166275000D02*
X58195225Y-166775000D01*
X61711000Y-169040000D02*
X61711000Y-170398000D01*
X61471000Y-165520000D02*
X61471000Y-166960000D01*
X63031000Y-166749000D02*
X63031000Y-166960000D01*
X61230000Y-169040000D02*
X61230000Y-170536000D01*
X62271000Y-169040000D02*
X62271000Y-170095000D01*
X63151000Y-166989000D02*
X63151000Y-169011000D01*
X63351000Y-167716000D02*
X63351000Y-168284000D01*
X61390000Y-165499000D02*
X61390000Y-166960000D01*
X62351000Y-169040000D02*
X62351000Y-170035000D01*
X62231000Y-169040000D02*
X62231000Y-170122000D01*
X61871000Y-169040000D02*
X61871000Y-170329000D01*
X61991000Y-165732000D02*
X61991000Y-166960000D01*
X62711000Y-169040000D02*
X62711000Y-169699000D01*
X61190000Y-169040000D02*
X61190000Y-170543000D01*
X61070000Y-165439000D02*
X61070000Y-166960000D01*
X62631000Y-169040000D02*
X62631000Y-169785000D01*
X61831000Y-169040000D02*
X61831000Y-170348000D01*
X60910000Y-165424000D02*
X60910000Y-170576000D01*
X61951000Y-165710000D02*
X61951000Y-166960000D01*
X62151000Y-165825000D02*
X62151000Y-166960000D01*
X63031000Y-169040000D02*
X63031000Y-169251000D01*
X63191000Y-167085000D02*
X63191000Y-168915000D01*
X61150000Y-169040000D02*
X61150000Y-170550000D01*
X61791000Y-165635000D02*
X61791000Y-166960000D01*
X62671000Y-166257000D02*
X62671000Y-166960000D01*
X61671000Y-165586000D02*
X61671000Y-166960000D01*
X61791000Y-169040000D02*
X61791000Y-170365000D01*
X62311000Y-169040000D02*
X62311000Y-170065000D01*
X62871000Y-169040000D02*
X62871000Y-169500000D01*
X62671000Y-169040000D02*
X62671000Y-169743000D01*
X63111000Y-166902000D02*
X63111000Y-169098000D01*
X62911000Y-166557000D02*
X62911000Y-166960000D01*
X61430000Y-165509000D02*
X61430000Y-166960000D01*
X61310000Y-169040000D02*
X61310000Y-170520000D01*
X62791000Y-169040000D02*
X62791000Y-169605000D01*
X62951000Y-169040000D02*
X62951000Y-169383000D01*
X61951000Y-169040000D02*
X61951000Y-170290000D01*
X61751000Y-169040000D02*
X61751000Y-170382000D01*
X62271000Y-165905000D02*
X62271000Y-166960000D01*
X62391000Y-169040000D02*
X62391000Y-170004000D01*
X62471000Y-169040000D02*
X62471000Y-169937000D01*
X62111000Y-165800000D02*
X62111000Y-166960000D01*
X63370000Y-168000000D02*
G75*
G03*
X63370000Y-168000000I-2620000J0D01*
G01*
%TO.C,C5*%
X65680000Y-183375000D02*
X65680000Y-183130000D01*
X65680000Y-185470000D02*
X65680000Y-185225000D01*
X69320000Y-183375000D02*
X69320000Y-183130000D01*
X69320000Y-185470000D02*
X69320000Y-185225000D01*
X69320000Y-183130000D02*
X65680000Y-183130000D01*
X69320000Y-185470000D02*
X65680000Y-185470000D01*
%TO.C,J2*%
X67775000Y-186100000D02*
X80625000Y-186100000D01*
X80625000Y-186100000D02*
X80625000Y-198100000D01*
X80625000Y-198100000D02*
X67775000Y-198100000D01*
X67775000Y-198100000D02*
X67775000Y-186100000D01*
%TO.C,C9*%
X28391000Y-194340000D02*
X28391000Y-195742000D01*
X28431000Y-190872000D02*
X28431000Y-192260000D01*
X28471000Y-194340000D02*
X28471000Y-195714000D01*
X27830000Y-190735000D02*
X27830000Y-192260000D01*
X28871000Y-194340000D02*
X28871000Y-195524000D01*
X28311000Y-194340000D02*
X28311000Y-195768000D01*
X27830000Y-194340000D02*
X27830000Y-195865000D01*
X28030000Y-190764000D02*
X28030000Y-192260000D01*
X29591000Y-191695000D02*
X29591000Y-192260000D01*
X28351000Y-194340000D02*
X28351000Y-195755000D01*
X29551000Y-191647000D02*
X29551000Y-192260000D01*
X28911000Y-191100000D02*
X28911000Y-192260000D01*
X30031000Y-192495000D02*
X30031000Y-194105000D01*
X28150000Y-190789000D02*
X28150000Y-192260000D01*
X27990000Y-194340000D02*
X27990000Y-195843000D01*
X29551000Y-194340000D02*
X29551000Y-194953000D01*
X29391000Y-194340000D02*
X29391000Y-195126000D01*
X29831000Y-194340000D02*
X29831000Y-194551000D01*
X28471000Y-190886000D02*
X28471000Y-192260000D01*
X29351000Y-194340000D02*
X29351000Y-195164000D01*
X29711000Y-194340000D02*
X29711000Y-194743000D01*
X29991000Y-192385000D02*
X29991000Y-194215000D01*
X28631000Y-190952000D02*
X28631000Y-192260000D01*
X28391000Y-190858000D02*
X28391000Y-192260000D01*
X28030000Y-194340000D02*
X28030000Y-195836000D01*
X30071000Y-192623000D02*
X30071000Y-193977000D01*
X28631000Y-194340000D02*
X28631000Y-195648000D01*
X28431000Y-194340000D02*
X28431000Y-195728000D01*
X28150000Y-194340000D02*
X28150000Y-195811000D01*
X29191000Y-194340000D02*
X29191000Y-195304000D01*
X29631000Y-191746000D02*
X29631000Y-192260000D01*
X30111000Y-192782000D02*
X30111000Y-193818000D01*
X29431000Y-191515000D02*
X29431000Y-192260000D01*
X29231000Y-191329000D02*
X29231000Y-192260000D01*
X29191000Y-191296000D02*
X29191000Y-192260000D01*
X27550000Y-190720000D02*
X27550000Y-195880000D01*
X28751000Y-194340000D02*
X28751000Y-195590000D01*
X29351000Y-191436000D02*
X29351000Y-192260000D01*
X29111000Y-191235000D02*
X29111000Y-192260000D01*
X28911000Y-194340000D02*
X28911000Y-195500000D01*
X28511000Y-190902000D02*
X28511000Y-192260000D01*
X29711000Y-191857000D02*
X29711000Y-192260000D01*
X29391000Y-191474000D02*
X29391000Y-192260000D01*
X28070000Y-190772000D02*
X28070000Y-192260000D01*
X28551000Y-190918000D02*
X28551000Y-192260000D01*
X29031000Y-191178000D02*
X29031000Y-192260000D01*
X28511000Y-194340000D02*
X28511000Y-195698000D01*
X28311000Y-190832000D02*
X28311000Y-192260000D01*
X29111000Y-194340000D02*
X29111000Y-195365000D01*
X28591000Y-194340000D02*
X28591000Y-195665000D01*
X30151000Y-193016000D02*
X30151000Y-193584000D01*
X29271000Y-194340000D02*
X29271000Y-195237000D01*
X24745225Y-191825000D02*
X25245225Y-191825000D01*
X27950000Y-194340000D02*
X27950000Y-195850000D01*
X29151000Y-194340000D02*
X29151000Y-195335000D01*
X28190000Y-190799000D02*
X28190000Y-192260000D01*
X28791000Y-191032000D02*
X28791000Y-192260000D01*
X27670000Y-190722000D02*
X27670000Y-195878000D01*
X28831000Y-191053000D02*
X28831000Y-192260000D01*
X29511000Y-194340000D02*
X29511000Y-194999000D01*
X29591000Y-194340000D02*
X29591000Y-194905000D01*
X24995225Y-191575000D02*
X24995225Y-192075000D01*
X29431000Y-194340000D02*
X29431000Y-195085000D01*
X29751000Y-191917000D02*
X29751000Y-192260000D01*
X28751000Y-191010000D02*
X28751000Y-192260000D01*
X27790000Y-194340000D02*
X27790000Y-195869000D01*
X29511000Y-191601000D02*
X29511000Y-192260000D01*
X28951000Y-194340000D02*
X28951000Y-195475000D01*
X29751000Y-194340000D02*
X29751000Y-194683000D01*
X28551000Y-194340000D02*
X28551000Y-195682000D01*
X29671000Y-191800000D02*
X29671000Y-192260000D01*
X28230000Y-190809000D02*
X28230000Y-192260000D01*
X28591000Y-190935000D02*
X28591000Y-192260000D01*
X28791000Y-194340000D02*
X28791000Y-195568000D01*
X28671000Y-194340000D02*
X28671000Y-195629000D01*
X29271000Y-191363000D02*
X29271000Y-192260000D01*
X27990000Y-190757000D02*
X27990000Y-192260000D01*
X28110000Y-194340000D02*
X28110000Y-195820000D01*
X27950000Y-190750000D02*
X27950000Y-192260000D01*
X29151000Y-191265000D02*
X29151000Y-192260000D01*
X28711000Y-194340000D02*
X28711000Y-195610000D01*
X29071000Y-191205000D02*
X29071000Y-192260000D01*
X27870000Y-190739000D02*
X27870000Y-192260000D01*
X28271000Y-190820000D02*
X28271000Y-192260000D01*
X29671000Y-194340000D02*
X29671000Y-194800000D01*
X28110000Y-190780000D02*
X28110000Y-192260000D01*
X29311000Y-194340000D02*
X29311000Y-195201000D01*
X28991000Y-194340000D02*
X28991000Y-195449000D01*
X29791000Y-191981000D02*
X29791000Y-192260000D01*
X29471000Y-191557000D02*
X29471000Y-192260000D01*
X27910000Y-194340000D02*
X27910000Y-195856000D01*
X29951000Y-192289000D02*
X29951000Y-194311000D01*
X29311000Y-191399000D02*
X29311000Y-192260000D01*
X28230000Y-194340000D02*
X28230000Y-195791000D01*
X27870000Y-194340000D02*
X27870000Y-195861000D01*
X29031000Y-194340000D02*
X29031000Y-195422000D01*
X28951000Y-191125000D02*
X28951000Y-192260000D01*
X29071000Y-194340000D02*
X29071000Y-195395000D01*
X27590000Y-190720000D02*
X27590000Y-195880000D01*
X28271000Y-194340000D02*
X28271000Y-195780000D01*
X29631000Y-194340000D02*
X29631000Y-194854000D01*
X28671000Y-190971000D02*
X28671000Y-192260000D01*
X28351000Y-190845000D02*
X28351000Y-192260000D01*
X27710000Y-190724000D02*
X27710000Y-195876000D01*
X27750000Y-190727000D02*
X27750000Y-195873000D01*
X29231000Y-194340000D02*
X29231000Y-195271000D01*
X27630000Y-190721000D02*
X27630000Y-195879000D01*
X28991000Y-191151000D02*
X28991000Y-192260000D01*
X27910000Y-190744000D02*
X27910000Y-192260000D01*
X28190000Y-194340000D02*
X28190000Y-195801000D01*
X28070000Y-194340000D02*
X28070000Y-195828000D01*
X28831000Y-194340000D02*
X28831000Y-195547000D01*
X29831000Y-192049000D02*
X29831000Y-192260000D01*
X27790000Y-190731000D02*
X27790000Y-192260000D01*
X28871000Y-191076000D02*
X28871000Y-192260000D01*
X29791000Y-194340000D02*
X29791000Y-194619000D01*
X29871000Y-192122000D02*
X29871000Y-194478000D01*
X28711000Y-190990000D02*
X28711000Y-192260000D01*
X29471000Y-194340000D02*
X29471000Y-195043000D01*
X29911000Y-192202000D02*
X29911000Y-194398000D01*
X30170000Y-193300000D02*
G75*
G03*
X30170000Y-193300000I-2620000J0D01*
G01*
%TO.C,U1*%
X39140000Y-172655000D02*
X33840000Y-172655000D01*
X39140000Y-190555000D02*
X39140000Y-172655000D01*
X33840000Y-190555000D02*
X35490000Y-190555000D01*
X33840000Y-172655000D02*
X33840000Y-190555000D01*
X37490000Y-190555000D02*
X39140000Y-190555000D01*
X37490000Y-190555000D02*
G75*
G03*
X35490000Y-190555000I-1000000J0D01*
G01*
%TO.C,C8*%
X58390113Y-171975000D02*
X58390113Y-172475000D01*
X61384888Y-174740000D02*
X61384888Y-176243000D01*
X61504888Y-174740000D02*
X61504888Y-176220000D01*
X62225888Y-174740000D02*
X62225888Y-175947000D01*
X62585888Y-171696000D02*
X62585888Y-172660000D01*
X62065888Y-174740000D02*
X62065888Y-176029000D01*
X62745888Y-174740000D02*
X62745888Y-175564000D01*
X61504888Y-171180000D02*
X61504888Y-172660000D01*
X61264888Y-171139000D02*
X61264888Y-172660000D01*
X61825888Y-174740000D02*
X61825888Y-176128000D01*
X61985888Y-174740000D02*
X61985888Y-176065000D01*
X61104888Y-171124000D02*
X61104888Y-176276000D01*
X62465888Y-171605000D02*
X62465888Y-172660000D01*
X61424888Y-174740000D02*
X61424888Y-176236000D01*
X61865888Y-174740000D02*
X61865888Y-176114000D01*
X61344888Y-174740000D02*
X61344888Y-176250000D01*
X63425888Y-172895000D02*
X63425888Y-174505000D01*
X61905888Y-171302000D02*
X61905888Y-172660000D01*
X62905888Y-172001000D02*
X62905888Y-172660000D01*
X61064888Y-171122000D02*
X61064888Y-176278000D01*
X63265888Y-172522000D02*
X63265888Y-174878000D01*
X62705888Y-171799000D02*
X62705888Y-172660000D01*
X61304888Y-171144000D02*
X61304888Y-172660000D01*
X62905888Y-174740000D02*
X62905888Y-175399000D01*
X62265888Y-171476000D02*
X62265888Y-172660000D01*
X61384888Y-171157000D02*
X61384888Y-172660000D01*
X62425888Y-171578000D02*
X62425888Y-172660000D01*
X62185888Y-171432000D02*
X62185888Y-172660000D01*
X63505888Y-173182000D02*
X63505888Y-174218000D01*
X62505888Y-174740000D02*
X62505888Y-175765000D01*
X60984888Y-171120000D02*
X60984888Y-176280000D01*
X63185888Y-174740000D02*
X63185888Y-175019000D01*
X63225888Y-174740000D02*
X63225888Y-174951000D01*
X61464888Y-174740000D02*
X61464888Y-176228000D01*
X61184888Y-171131000D02*
X61184888Y-172660000D01*
X62745888Y-171836000D02*
X62745888Y-172660000D01*
X62545888Y-174740000D02*
X62545888Y-175735000D01*
X61865888Y-171286000D02*
X61865888Y-172660000D01*
X62625888Y-171729000D02*
X62625888Y-172660000D01*
X62865888Y-171957000D02*
X62865888Y-172660000D01*
X61665888Y-174740000D02*
X61665888Y-176180000D01*
X62105888Y-174740000D02*
X62105888Y-176010000D01*
X61825888Y-171272000D02*
X61825888Y-172660000D01*
X62025888Y-174740000D02*
X62025888Y-176048000D01*
X63385888Y-172785000D02*
X63385888Y-174615000D01*
X62345888Y-171525000D02*
X62345888Y-172660000D01*
X63065888Y-172200000D02*
X63065888Y-172660000D01*
X61665888Y-171220000D02*
X61665888Y-172660000D01*
X63225888Y-172449000D02*
X63225888Y-172660000D01*
X61544888Y-174740000D02*
X61544888Y-176211000D01*
X63105888Y-172257000D02*
X63105888Y-172660000D01*
X62945888Y-174740000D02*
X62945888Y-175353000D01*
X62105888Y-171390000D02*
X62105888Y-172660000D01*
X61584888Y-171199000D02*
X61584888Y-172660000D01*
X61785888Y-174740000D02*
X61785888Y-176142000D01*
X61624888Y-174740000D02*
X61624888Y-176191000D01*
X62785888Y-174740000D02*
X62785888Y-175526000D01*
X63145888Y-174740000D02*
X63145888Y-175083000D01*
X61544888Y-171189000D02*
X61544888Y-172660000D01*
X61624888Y-171209000D02*
X61624888Y-172660000D01*
X61985888Y-171335000D02*
X61985888Y-172660000D01*
X61144888Y-171127000D02*
X61144888Y-176273000D01*
X63545888Y-173416000D02*
X63545888Y-173984000D01*
X61344888Y-171150000D02*
X61344888Y-172660000D01*
X61705888Y-171232000D02*
X61705888Y-172660000D01*
X62425888Y-174740000D02*
X62425888Y-175822000D01*
X61905888Y-174740000D02*
X61905888Y-176098000D01*
X62865888Y-174740000D02*
X62865888Y-175443000D01*
X61424888Y-171164000D02*
X61424888Y-172660000D01*
X60944888Y-171120000D02*
X60944888Y-176280000D01*
X62225888Y-171453000D02*
X62225888Y-172660000D01*
X62985888Y-174740000D02*
X62985888Y-175305000D01*
X63465888Y-173023000D02*
X63465888Y-174377000D01*
X62185888Y-174740000D02*
X62185888Y-175968000D01*
X62505888Y-171635000D02*
X62505888Y-172660000D01*
X61945888Y-174740000D02*
X61945888Y-176082000D01*
X62785888Y-171874000D02*
X62785888Y-172660000D01*
X62065888Y-171371000D02*
X62065888Y-172660000D01*
X62145888Y-174740000D02*
X62145888Y-175990000D01*
X62945888Y-172047000D02*
X62945888Y-172660000D01*
X63105888Y-174740000D02*
X63105888Y-175143000D01*
X63025888Y-172146000D02*
X63025888Y-172660000D01*
X62625888Y-174740000D02*
X62625888Y-175671000D01*
X61184888Y-174740000D02*
X61184888Y-176269000D01*
X61464888Y-171172000D02*
X61464888Y-172660000D01*
X63345888Y-172689000D02*
X63345888Y-174711000D01*
X62385888Y-174740000D02*
X62385888Y-175849000D01*
X62825888Y-171915000D02*
X62825888Y-172660000D01*
X61705888Y-174740000D02*
X61705888Y-176168000D01*
X62265888Y-174740000D02*
X62265888Y-175924000D01*
X61224888Y-174740000D02*
X61224888Y-176265000D01*
X62665888Y-174740000D02*
X62665888Y-175637000D01*
X62465888Y-174740000D02*
X62465888Y-175795000D01*
X63185888Y-172381000D02*
X63185888Y-172660000D01*
X61745888Y-174740000D02*
X61745888Y-176155000D01*
X62705888Y-174740000D02*
X62705888Y-175601000D01*
X61224888Y-171135000D02*
X61224888Y-172660000D01*
X61584888Y-174740000D02*
X61584888Y-176201000D01*
X63305888Y-172602000D02*
X63305888Y-174798000D01*
X62025888Y-171352000D02*
X62025888Y-172660000D01*
X61785888Y-171258000D02*
X61785888Y-172660000D01*
X61304888Y-174740000D02*
X61304888Y-176256000D01*
X61745888Y-171245000D02*
X61745888Y-172660000D01*
X63025888Y-174740000D02*
X63025888Y-175254000D01*
X61024888Y-171121000D02*
X61024888Y-176279000D01*
X63065888Y-174740000D02*
X63065888Y-175200000D01*
X62305888Y-174740000D02*
X62305888Y-175900000D01*
X61945888Y-171318000D02*
X61945888Y-172660000D01*
X62665888Y-171763000D02*
X62665888Y-172660000D01*
X62985888Y-172095000D02*
X62985888Y-172660000D01*
X62545888Y-171665000D02*
X62545888Y-172660000D01*
X58140113Y-172225000D02*
X58640113Y-172225000D01*
X62585888Y-174740000D02*
X62585888Y-175704000D01*
X62305888Y-171500000D02*
X62305888Y-172660000D01*
X62825888Y-174740000D02*
X62825888Y-175485000D01*
X63145888Y-172317000D02*
X63145888Y-172660000D01*
X61264888Y-174740000D02*
X61264888Y-176261000D01*
X62145888Y-171410000D02*
X62145888Y-172660000D01*
X62385888Y-171551000D02*
X62385888Y-172660000D01*
X62345888Y-174740000D02*
X62345888Y-175875000D01*
X63564888Y-173700000D02*
G75*
G03*
X63564888Y-173700000I-2620000J0D01*
G01*
%TO.C,J3*%
X12717500Y-175190000D02*
X12717500Y-187410000D01*
X12717500Y-187410000D02*
X20687500Y-187410000D01*
X29337500Y-175190000D02*
X25587500Y-175190000D01*
X30037500Y-183050000D02*
X30037500Y-182050000D01*
X29337500Y-175190000D02*
X29337500Y-187410000D01*
X12717500Y-175190000D02*
X20687500Y-175190000D01*
X30037500Y-182050000D02*
X29537500Y-182550000D01*
X29337500Y-187410000D02*
X25587500Y-187410000D01*
X29537500Y-182550000D02*
X30037500Y-183050000D01*
%TO.C,C1*%
X58575000Y-191470000D02*
X58330000Y-191470000D01*
X58330000Y-187830000D02*
X58330000Y-191470000D01*
X60670000Y-187830000D02*
X60670000Y-191470000D01*
X58575000Y-187830000D02*
X58330000Y-187830000D01*
X60670000Y-187830000D02*
X60425000Y-187830000D01*
X60670000Y-191470000D02*
X60425000Y-191470000D01*
%TO.C,RV1*%
X70725000Y-179870000D02*
X70725000Y-184940000D01*
X70725000Y-184940000D02*
X80495000Y-184940000D01*
X70725000Y-179870000D02*
X80495000Y-179870000D01*
X80495000Y-179870000D02*
X80495000Y-184940000D01*
%TO.C,R14*%
X44520000Y-167380000D02*
X42680000Y-167380000D01*
X42680000Y-167380000D02*
X42680000Y-171220000D01*
X43600000Y-166430000D02*
X43600000Y-167380000D01*
X42680000Y-171220000D02*
X44520000Y-171220000D01*
X43600000Y-172170000D02*
X43600000Y-171220000D01*
X44520000Y-171220000D02*
X44520000Y-167380000D01*
%TO.C,C2*%
X67370000Y-191470000D02*
X67370000Y-187830000D01*
X65030000Y-191470000D02*
X65030000Y-187830000D01*
X65030000Y-187830000D02*
X65275000Y-187830000D01*
X67125000Y-191470000D02*
X67370000Y-191470000D01*
X65030000Y-191470000D02*
X65275000Y-191470000D01*
X67125000Y-187830000D02*
X67370000Y-187830000D01*
%TO.C,R2*%
X37220000Y-168180000D02*
X33380000Y-168180000D01*
X33380000Y-170020000D02*
X37220000Y-170020000D01*
X38170000Y-169100000D02*
X37220000Y-169100000D01*
X33380000Y-168180000D02*
X33380000Y-170020000D01*
X37220000Y-170020000D02*
X37220000Y-168180000D01*
X32430000Y-169100000D02*
X33380000Y-169100000D01*
%TO.C,R1*%
X18180000Y-172420000D02*
X22020000Y-172420000D01*
X18180000Y-170580000D02*
X18180000Y-172420000D01*
X22970000Y-171500000D02*
X22020000Y-171500000D01*
X22020000Y-170580000D02*
X18180000Y-170580000D01*
X22020000Y-172420000D02*
X22020000Y-170580000D01*
X17230000Y-171500000D02*
X18180000Y-171500000D01*
%TO.C,J1*%
X44775000Y-186100000D02*
X57625000Y-186100000D01*
X57625000Y-186100000D02*
X57625000Y-198100000D01*
X57625000Y-198100000D02*
X44775000Y-198100000D01*
X44775000Y-198100000D02*
X44775000Y-186100000D01*
%TO.C,R15*%
X73380000Y-179320000D02*
X77220000Y-179320000D01*
X77220000Y-177480000D02*
X73380000Y-177480000D01*
X72430000Y-178400000D02*
X73380000Y-178400000D01*
X77220000Y-179320000D02*
X77220000Y-177480000D01*
X78170000Y-178400000D02*
X77220000Y-178400000D01*
X73380000Y-177480000D02*
X73380000Y-179320000D01*
%TO.C,R3*%
X32330000Y-166800000D02*
X33280000Y-166800000D01*
X37120000Y-165880000D02*
X33280000Y-165880000D01*
X37120000Y-167720000D02*
X37120000Y-165880000D01*
X33280000Y-165880000D02*
X33280000Y-167720000D01*
X33280000Y-167720000D02*
X37120000Y-167720000D01*
X38070000Y-166800000D02*
X37120000Y-166800000D01*
%TO.C,R12*%
X64300000Y-184370000D02*
X64300000Y-183420000D01*
X65220000Y-179580000D02*
X63380000Y-179580000D01*
X64300000Y-178630000D02*
X64300000Y-179580000D01*
X63380000Y-179580000D02*
X63380000Y-183420000D01*
X65220000Y-183420000D02*
X65220000Y-179580000D01*
X63380000Y-183420000D02*
X65220000Y-183420000D01*
%TO.C,R8*%
X58880000Y-183420000D02*
X60720000Y-183420000D01*
X60720000Y-183420000D02*
X60720000Y-179580000D01*
X59800000Y-184370000D02*
X59800000Y-183420000D01*
X60720000Y-179580000D02*
X58880000Y-179580000D01*
X58880000Y-179580000D02*
X58880000Y-183420000D01*
X59800000Y-178630000D02*
X59800000Y-179580000D01*
%TO.C,R6*%
X63000000Y-195170000D02*
X63000000Y-194220000D01*
X62080000Y-194220000D02*
X63920000Y-194220000D01*
X63920000Y-194220000D02*
X63920000Y-190380000D01*
X63920000Y-190380000D02*
X62080000Y-190380000D01*
X62080000Y-190380000D02*
X62080000Y-194220000D01*
X63000000Y-189430000D02*
X63000000Y-190380000D01*
%TO.C,R4*%
X39610000Y-193420000D02*
X39610000Y-191580000D01*
X40560000Y-192500000D02*
X39610000Y-192500000D01*
X35770000Y-191580000D02*
X35770000Y-193420000D01*
X39610000Y-191580000D02*
X35770000Y-191580000D01*
X34820000Y-192500000D02*
X35770000Y-192500000D01*
X35770000Y-193420000D02*
X39610000Y-193420000D01*
%TO.C,C6*%
X65880000Y-179475000D02*
X65880000Y-179230000D01*
X65880000Y-181570000D02*
X65880000Y-181325000D01*
X69520000Y-181570000D02*
X69520000Y-181325000D01*
X69520000Y-181570000D02*
X65880000Y-181570000D01*
X69520000Y-179230000D02*
X65880000Y-179230000D01*
X69520000Y-179475000D02*
X69520000Y-179230000D01*
%TO.C,R9*%
X63020000Y-183420000D02*
X63020000Y-179580000D01*
X62100000Y-178630000D02*
X62100000Y-179580000D01*
X63020000Y-179580000D02*
X61180000Y-179580000D01*
X61180000Y-179580000D02*
X61180000Y-183420000D01*
X62100000Y-184370000D02*
X62100000Y-183420000D01*
X61180000Y-183420000D02*
X63020000Y-183420000D01*
%TO.C,R7*%
X39610000Y-195780000D02*
X35770000Y-195780000D01*
X39610000Y-197620000D02*
X39610000Y-195780000D01*
X40560000Y-196700000D02*
X39610000Y-196700000D01*
X34820000Y-196700000D02*
X35770000Y-196700000D01*
X35770000Y-197620000D02*
X39610000Y-197620000D01*
X35770000Y-195780000D02*
X35770000Y-197620000D01*
%TO.C,C4*%
X46270000Y-181875000D02*
X46270000Y-181630000D01*
X42630000Y-181875000D02*
X42630000Y-181630000D01*
X46270000Y-183970000D02*
X46270000Y-183725000D01*
X42630000Y-183970000D02*
X42630000Y-183725000D01*
X46270000Y-183970000D02*
X42630000Y-183970000D01*
X46270000Y-181630000D02*
X42630000Y-181630000D01*
%TO.C,J4*%
X57625000Y-176500000D02*
X44775000Y-176500000D01*
X44775000Y-176500000D02*
X44775000Y-164500000D01*
X44775000Y-164500000D02*
X57625000Y-164500000D01*
X57625000Y-164500000D02*
X57625000Y-176500000D01*
%TO.C,C3*%
X17331000Y-167115113D02*
X18860000Y-167115113D01*
X17350000Y-166955113D02*
X18860000Y-166955113D01*
X20940000Y-166234113D02*
X22229000Y-166234113D01*
X20940000Y-166474113D02*
X22328000Y-166474113D01*
X20940000Y-165114113D02*
X21219000Y-165114113D01*
X17676000Y-166034113D02*
X18860000Y-166034113D01*
X17357000Y-166915113D02*
X18860000Y-166915113D01*
X17486000Y-166434113D02*
X18860000Y-166434113D01*
X20940000Y-166835113D02*
X22428000Y-166835113D01*
X17458000Y-166514113D02*
X18860000Y-166514113D01*
X18722000Y-165034113D02*
X21078000Y-165034113D01*
X18457000Y-165194113D02*
X18860000Y-165194113D01*
X20940000Y-165754113D02*
X21935000Y-165754113D01*
X20940000Y-166154113D02*
X22190000Y-166154113D01*
X18295000Y-165314113D02*
X18860000Y-165314113D01*
X20940000Y-166274113D02*
X22248000Y-166274113D01*
X18400000Y-165234113D02*
X18860000Y-165234113D01*
X20940000Y-166875113D02*
X22436000Y-166875113D01*
X20940000Y-166034113D02*
X22124000Y-166034113D01*
X17725000Y-165954113D02*
X18860000Y-165954113D01*
X17321000Y-167275113D02*
X22479000Y-167275113D01*
X20940000Y-166634113D02*
X22380000Y-166634113D01*
X17929000Y-165674113D02*
X18860000Y-165674113D01*
X17399000Y-166715113D02*
X18860000Y-166715113D01*
X20940000Y-166114113D02*
X22168000Y-166114113D01*
X17518000Y-166354113D02*
X18860000Y-166354113D01*
X20940000Y-166915113D02*
X22443000Y-166915113D01*
X17865000Y-165754113D02*
X18860000Y-165754113D01*
X20940000Y-165314113D02*
X21505000Y-165314113D01*
X20940000Y-165794113D02*
X21965000Y-165794113D01*
X17327000Y-167155113D02*
X22473000Y-167155113D01*
X18985000Y-164914113D02*
X20815000Y-164914113D01*
X17320000Y-167355113D02*
X22480000Y-167355113D01*
X17324000Y-167195113D02*
X22476000Y-167195113D01*
X17552000Y-166274113D02*
X18860000Y-166274113D01*
X20940000Y-165474113D02*
X21685000Y-165474113D01*
X20940000Y-165434113D02*
X21643000Y-165434113D01*
X20940000Y-166755113D02*
X22411000Y-166755113D01*
X20940000Y-165154113D02*
X21283000Y-165154113D01*
X17571000Y-166234113D02*
X18860000Y-166234113D01*
X20940000Y-166434113D02*
X22314000Y-166434113D01*
X20940000Y-166594113D02*
X22368000Y-166594113D01*
X18889000Y-164954113D02*
X20911000Y-164954113D01*
X18036000Y-165554113D02*
X18860000Y-165554113D01*
X17751000Y-165914113D02*
X18860000Y-165914113D01*
X17409000Y-166675113D02*
X18860000Y-166675113D01*
X17632000Y-166114113D02*
X18860000Y-166114113D01*
X17653000Y-166074113D02*
X18860000Y-166074113D01*
X20940000Y-166354113D02*
X22282000Y-166354113D01*
X20940000Y-166554113D02*
X22355000Y-166554113D01*
X19616000Y-164754113D02*
X20184000Y-164754113D01*
X19382000Y-164794113D02*
X20418000Y-164794113D01*
X17610000Y-166154113D02*
X18860000Y-166154113D01*
X17320000Y-167315113D02*
X22480000Y-167315113D01*
X18802000Y-164994113D02*
X20998000Y-164994113D01*
X17805000Y-165834113D02*
X18860000Y-165834113D01*
X18247000Y-165354113D02*
X18860000Y-165354113D01*
X20940000Y-165074113D02*
X21151000Y-165074113D01*
X17372000Y-166835113D02*
X18860000Y-166835113D01*
X20940000Y-166995113D02*
X22456000Y-166995113D01*
X20940000Y-166514113D02*
X22342000Y-166514113D01*
X17778000Y-165874113D02*
X18860000Y-165874113D01*
X20940000Y-165634113D02*
X21837000Y-165634113D01*
X18581000Y-165114113D02*
X18860000Y-165114113D01*
X17835000Y-165794113D02*
X18860000Y-165794113D01*
X17344000Y-166995113D02*
X18860000Y-166995113D01*
X20940000Y-167115113D02*
X22469000Y-167115113D01*
X18175000Y-169909888D02*
X18675000Y-169909888D01*
X20940000Y-165954113D02*
X22075000Y-165954113D01*
X18115000Y-165474113D02*
X18860000Y-165474113D01*
X20940000Y-166074113D02*
X22147000Y-166074113D01*
X17535000Y-166314113D02*
X18860000Y-166314113D01*
X20940000Y-165354113D02*
X21553000Y-165354113D01*
X20940000Y-165234113D02*
X21400000Y-165234113D01*
X17896000Y-165714113D02*
X18860000Y-165714113D01*
X18517000Y-165154113D02*
X18860000Y-165154113D01*
X17380000Y-166795113D02*
X18860000Y-166795113D01*
X20940000Y-165674113D02*
X21871000Y-165674113D01*
X20940000Y-165554113D02*
X21764000Y-165554113D01*
X17963000Y-165634113D02*
X18860000Y-165634113D01*
X17339000Y-167035113D02*
X18860000Y-167035113D01*
X18346000Y-165274113D02*
X18860000Y-165274113D01*
X20940000Y-165994113D02*
X22100000Y-165994113D01*
X18425000Y-170159888D02*
X18425000Y-169659888D01*
X20940000Y-165394113D02*
X21599000Y-165394113D01*
X17364000Y-166875113D02*
X18860000Y-166875113D01*
X17999000Y-165594113D02*
X18860000Y-165594113D01*
X18649000Y-165074113D02*
X18860000Y-165074113D01*
X20940000Y-167035113D02*
X22461000Y-167035113D01*
X17432000Y-166594113D02*
X18860000Y-166594113D01*
X20940000Y-165194113D02*
X21343000Y-165194113D01*
X17335000Y-167075113D02*
X18860000Y-167075113D01*
X20940000Y-165874113D02*
X22022000Y-165874113D01*
X17420000Y-166634113D02*
X18860000Y-166634113D01*
X18157000Y-165434113D02*
X18860000Y-165434113D01*
X17700000Y-165994113D02*
X18860000Y-165994113D01*
X20940000Y-167075113D02*
X22465000Y-167075113D01*
X17389000Y-166755113D02*
X18860000Y-166755113D01*
X20940000Y-166394113D02*
X22298000Y-166394113D01*
X20940000Y-165914113D02*
X22049000Y-165914113D01*
X17445000Y-166554113D02*
X18860000Y-166554113D01*
X20940000Y-166715113D02*
X22401000Y-166715113D01*
X20940000Y-165834113D02*
X21995000Y-165834113D01*
X17472000Y-166474113D02*
X18860000Y-166474113D01*
X20940000Y-166314113D02*
X22265000Y-166314113D01*
X19095000Y-164874113D02*
X20705000Y-164874113D01*
X17590000Y-166194113D02*
X18860000Y-166194113D01*
X20940000Y-165714113D02*
X21904000Y-165714113D01*
X20940000Y-165594113D02*
X21801000Y-165594113D01*
X20940000Y-165514113D02*
X21726000Y-165514113D01*
X20940000Y-165274113D02*
X21454000Y-165274113D01*
X17322000Y-167235113D02*
X22478000Y-167235113D01*
X19223000Y-164834113D02*
X20577000Y-164834113D01*
X20940000Y-166955113D02*
X22450000Y-166955113D01*
X20940000Y-166194113D02*
X22210000Y-166194113D01*
X20940000Y-166675113D02*
X22391000Y-166675113D01*
X20940000Y-166795113D02*
X22420000Y-166795113D01*
X18074000Y-165514113D02*
X18860000Y-165514113D01*
X17502000Y-166394113D02*
X18860000Y-166394113D01*
X18201000Y-165394113D02*
X18860000Y-165394113D01*
X22520000Y-167355113D02*
G75*
G03*
X22520000Y-167355113I-2620000J0D01*
G01*
%TO.C,R5*%
X35770000Y-195520000D02*
X39610000Y-195520000D01*
X35770000Y-193680000D02*
X35770000Y-195520000D01*
X39610000Y-195520000D02*
X39610000Y-193680000D01*
X39610000Y-193680000D02*
X35770000Y-193680000D01*
X34820000Y-194600000D02*
X35770000Y-194600000D01*
X40560000Y-194600000D02*
X39610000Y-194600000D01*
%TO.C,RV2*%
X47015000Y-178870000D02*
X56785000Y-178870000D01*
X47015000Y-183940000D02*
X56785000Y-183940000D01*
X56785000Y-178870000D02*
X56785000Y-183940000D01*
X47015000Y-178870000D02*
X47015000Y-183940000D01*
%TO.C,R13*%
X20820000Y-192880000D02*
X16980000Y-192880000D01*
X16980000Y-194720000D02*
X20820000Y-194720000D01*
X20820000Y-194720000D02*
X20820000Y-192880000D01*
X16030000Y-193800000D02*
X16980000Y-193800000D01*
X16980000Y-192880000D02*
X16980000Y-194720000D01*
X21770000Y-193800000D02*
X20820000Y-193800000D01*
%TD*%
M02*
