%TF.GenerationSoftware,KiCad,Pcbnew,(6.0.0-0)*%
%TF.CreationDate,2022-11-12T17:46:13+01:00*%
%TF.ProjectId,phono_vorverstaerker,70686f6e-6f5f-4766-9f72-766572737461,rev?*%
%TF.SameCoordinates,Original*%
%TF.FileFunction,Soldermask,Bot*%
%TF.FilePolarity,Negative*%
%FSLAX46Y46*%
G04 Gerber Fmt 4.6, Leading zero omitted, Abs format (unit mm)*
G04 Created by KiCad (PCBNEW (6.0.0-0)) date 2022-11-12 17:46:13*
%MOMM*%
%LPD*%
G01*
G04 APERTURE LIST*
%ADD10C,1.400000*%
%ADD11O,1.400000X1.400000*%
%ADD12O,1.300000X2.200000*%
%ADD13O,2.200000X1.300000*%
%ADD14C,2.000000*%
%ADD15R,1.600000X1.600000*%
%ADD16C,1.600000*%
%ADD17O,1.600000X1.600000*%
%ADD18C,4.000000*%
%ADD19C,1.440000*%
G04 APERTURE END LIST*
D10*
%TO.C,R11*%
X65100000Y-175310000D03*
D11*
X65100000Y-167690000D03*
%TD*%
D12*
%TO.C,J5*%
X79775000Y-175250000D03*
X68575000Y-175250000D03*
D13*
X74175000Y-165250000D03*
D14*
X74175000Y-175250000D03*
%TD*%
D10*
%TO.C,R10*%
X22720000Y-191600000D03*
D11*
X15100000Y-191600000D03*
%TD*%
D15*
%TO.C,C7*%
X59500000Y-168000000D03*
D16*
X62000000Y-168000000D03*
%TD*%
%TO.C,C5*%
X68750000Y-184300000D03*
X66250000Y-184300000D03*
%TD*%
D13*
%TO.C,J2*%
X74225000Y-197350000D03*
D12*
X68625000Y-187350000D03*
X79825000Y-187350000D03*
D14*
X74225000Y-187350000D03*
%TD*%
D15*
%TO.C,C9*%
X26300000Y-193300000D03*
D16*
X28800000Y-193300000D03*
%TD*%
D15*
%TO.C,U1*%
X40300000Y-189225000D03*
D17*
X40300000Y-186685000D03*
X40300000Y-184145000D03*
X40300000Y-181605000D03*
X40300000Y-179065000D03*
X40300000Y-176525000D03*
X40300000Y-173985000D03*
X32680000Y-173985000D03*
X32680000Y-176525000D03*
X32680000Y-179065000D03*
X32680000Y-181605000D03*
X32680000Y-184145000D03*
X32680000Y-186685000D03*
X32680000Y-189225000D03*
%TD*%
D15*
%TO.C,C8*%
X59694888Y-173700000D03*
D16*
X62194888Y-173700000D03*
%TD*%
D15*
%TO.C,J3*%
X27987500Y-182550000D03*
D16*
X27987500Y-180050000D03*
X25987500Y-180050000D03*
X25987500Y-182550000D03*
D18*
X23127500Y-175300000D03*
X23127500Y-187300000D03*
%TD*%
D16*
%TO.C,C1*%
X59500000Y-188400000D03*
X59500000Y-190900000D03*
%TD*%
D19*
%TO.C,RV1*%
X78150000Y-182400000D03*
X75610000Y-182400000D03*
X73070000Y-182400000D03*
%TD*%
D10*
%TO.C,R14*%
X43600000Y-173110000D03*
D11*
X43600000Y-165490000D03*
%TD*%
D16*
%TO.C,C2*%
X66200000Y-190900000D03*
X66200000Y-188400000D03*
%TD*%
D10*
%TO.C,R2*%
X39110000Y-169100000D03*
D11*
X31490000Y-169100000D03*
%TD*%
D10*
%TO.C,R1*%
X16290000Y-171500000D03*
D11*
X23910000Y-171500000D03*
%TD*%
D12*
%TO.C,J1*%
X45625000Y-187350000D03*
X56825000Y-187350000D03*
D13*
X51225000Y-197350000D03*
D14*
X51225000Y-187350000D03*
%TD*%
D10*
%TO.C,R15*%
X79110000Y-178400000D03*
D11*
X71490000Y-178400000D03*
%TD*%
D10*
%TO.C,R3*%
X31390000Y-166800000D03*
D11*
X39010000Y-166800000D03*
%TD*%
D10*
%TO.C,R12*%
X64300000Y-185310000D03*
D11*
X64300000Y-177690000D03*
%TD*%
D10*
%TO.C,R8*%
X59800000Y-185310000D03*
D11*
X59800000Y-177690000D03*
%TD*%
D10*
%TO.C,R6*%
X63000000Y-196110000D03*
D11*
X63000000Y-188490000D03*
%TD*%
D10*
%TO.C,R4*%
X33880000Y-192500000D03*
D11*
X41500000Y-192500000D03*
%TD*%
D16*
%TO.C,C6*%
X68950000Y-180400000D03*
X66450000Y-180400000D03*
%TD*%
D10*
%TO.C,R9*%
X62100000Y-177690000D03*
D11*
X62100000Y-185310000D03*
%TD*%
D10*
%TO.C,R7*%
X33880000Y-196700000D03*
D11*
X41500000Y-196700000D03*
%TD*%
D16*
%TO.C,C4*%
X45700000Y-182800000D03*
X43200000Y-182800000D03*
%TD*%
D12*
%TO.C,J4*%
X45575000Y-175250000D03*
D13*
X51175000Y-165250000D03*
D12*
X56775000Y-175250000D03*
D14*
X51175000Y-175250000D03*
%TD*%
D15*
%TO.C,C3*%
X19900000Y-168605113D03*
D16*
X19900000Y-166105113D03*
%TD*%
D10*
%TO.C,R5*%
X41500000Y-194600000D03*
D11*
X33880000Y-194600000D03*
%TD*%
D19*
%TO.C,RV2*%
X54440000Y-181400000D03*
X51900000Y-181400000D03*
X49360000Y-181400000D03*
%TD*%
D10*
%TO.C,R13*%
X15090000Y-193800000D03*
D11*
X22710000Y-193800000D03*
%TD*%
M02*
