%TF.GenerationSoftware,KiCad,Pcbnew,(6.0.0-0)*%
%TF.CreationDate,2022-11-12T17:46:12+01:00*%
%TF.ProjectId,phono_vorverstaerker,70686f6e-6f5f-4766-9f72-766572737461,rev?*%
%TF.SameCoordinates,Original*%
%TF.FileFunction,Copper,L2,Bot*%
%TF.FilePolarity,Positive*%
%FSLAX46Y46*%
G04 Gerber Fmt 4.6, Leading zero omitted, Abs format (unit mm)*
G04 Created by KiCad (PCBNEW (6.0.0-0)) date 2022-11-12 17:46:12*
%MOMM*%
%LPD*%
G01*
G04 APERTURE LIST*
%TA.AperFunction,ComponentPad*%
%ADD10C,1.400000*%
%TD*%
%TA.AperFunction,ComponentPad*%
%ADD11O,1.400000X1.400000*%
%TD*%
%TA.AperFunction,ComponentPad*%
%ADD12O,1.300000X2.200000*%
%TD*%
%TA.AperFunction,ComponentPad*%
%ADD13O,2.200000X1.300000*%
%TD*%
%TA.AperFunction,ComponentPad*%
%ADD14C,2.000000*%
%TD*%
%TA.AperFunction,ComponentPad*%
%ADD15R,1.600000X1.600000*%
%TD*%
%TA.AperFunction,ComponentPad*%
%ADD16C,1.600000*%
%TD*%
%TA.AperFunction,ComponentPad*%
%ADD17O,1.600000X1.600000*%
%TD*%
%TA.AperFunction,ComponentPad*%
%ADD18C,4.000000*%
%TD*%
%TA.AperFunction,ComponentPad*%
%ADD19C,1.440000*%
%TD*%
%TA.AperFunction,ViaPad*%
%ADD20C,0.800000*%
%TD*%
%TA.AperFunction,Conductor*%
%ADD21C,0.250000*%
%TD*%
G04 APERTURE END LIST*
D10*
%TO.P,R11,1*%
%TO.N,GND*%
X65100000Y-175310000D03*
D11*
%TO.P,R11,2*%
%TO.N,Net-(C7-Pad2)*%
X65100000Y-167690000D03*
%TD*%
D12*
%TO.P,J5,S*%
%TO.N,GND*%
X79775000Y-175250000D03*
X68575000Y-175250000D03*
D13*
X74175000Y-165250000D03*
D14*
%TO.P,J5,T*%
%TO.N,Net-(J5-PadT)*%
X74175000Y-175250000D03*
%TD*%
D10*
%TO.P,R10,1*%
%TO.N,+2V5*%
X22720000Y-191600000D03*
D11*
%TO.P,R10,2*%
%TO.N,+5V*%
X15100000Y-191600000D03*
%TD*%
D15*
%TO.P,C7,1*%
%TO.N,Net-(U1-Pad13)*%
X59500000Y-168000000D03*
D16*
%TO.P,C7,2*%
%TO.N,Net-(C7-Pad2)*%
X62000000Y-168000000D03*
%TD*%
%TO.P,C5,1*%
%TO.N,GND*%
X68750000Y-184300000D03*
%TO.P,C5,2*%
%TO.N,Net-(U1-Pad12)*%
X66250000Y-184300000D03*
%TD*%
D13*
%TO.P,J2,S*%
%TO.N,GND*%
X74225000Y-197350000D03*
D12*
X68625000Y-187350000D03*
X79825000Y-187350000D03*
D14*
%TO.P,J2,T*%
%TO.N,Net-(C2-Pad1)*%
X74225000Y-187350000D03*
%TD*%
D15*
%TO.P,C9,1*%
%TO.N,+2V5*%
X26300000Y-193300000D03*
D16*
%TO.P,C9,2*%
%TO.N,GND*%
X28800000Y-193300000D03*
%TD*%
D15*
%TO.P,U1,1*%
%TO.N,Net-(U1-Pad1)*%
X40300000Y-189225000D03*
D17*
%TO.P,U1,2,-*%
%TO.N,Net-(U1-Pad2)*%
X40300000Y-186685000D03*
%TO.P,U1,3,+*%
%TO.N,Net-(U1-Pad3)*%
X40300000Y-184145000D03*
%TO.P,U1,4,V+*%
%TO.N,+5V*%
X40300000Y-181605000D03*
%TO.P,U1,5,+*%
%TO.N,Net-(U1-Pad5)*%
X40300000Y-179065000D03*
%TO.P,U1,6,-*%
%TO.N,Net-(U1-Pad6)*%
X40300000Y-176525000D03*
%TO.P,U1,7*%
%TO.N,Net-(U1-Pad7)*%
X40300000Y-173985000D03*
%TO.P,U1,8*%
%TO.N,Net-(U1-Pad8)*%
X32680000Y-173985000D03*
%TO.P,U1,9,-*%
X32680000Y-176525000D03*
%TO.P,U1,10,+*%
%TO.N,Net-(U1-Pad10)*%
X32680000Y-179065000D03*
%TO.P,U1,11,V-*%
%TO.N,GND*%
X32680000Y-181605000D03*
%TO.P,U1,12,+*%
%TO.N,Net-(U1-Pad12)*%
X32680000Y-184145000D03*
%TO.P,U1,13,-*%
%TO.N,Net-(U1-Pad13)*%
X32680000Y-186685000D03*
%TO.P,U1,14*%
X32680000Y-189225000D03*
%TD*%
D15*
%TO.P,C8,1*%
%TO.N,Net-(U1-Pad8)*%
X59694888Y-173700000D03*
D16*
%TO.P,C8,2*%
%TO.N,Net-(C8-Pad2)*%
X62194888Y-173700000D03*
%TD*%
D15*
%TO.P,J3,1,VBUS*%
%TO.N,Net-(J3-Pad1)*%
X27987500Y-182550000D03*
D16*
%TO.P,J3,2,D-*%
%TO.N,unconnected-(J3-Pad2)*%
X27987500Y-180050000D03*
%TO.P,J3,3,D+*%
%TO.N,unconnected-(J3-Pad3)*%
X25987500Y-180050000D03*
%TO.P,J3,4,GND*%
%TO.N,GND*%
X25987500Y-182550000D03*
D18*
%TO.P,J3,5,Shield*%
X23127500Y-175300000D03*
X23127500Y-187300000D03*
%TD*%
D16*
%TO.P,C1,1*%
%TO.N,Net-(C1-Pad1)*%
X59500000Y-188400000D03*
%TO.P,C1,2*%
%TO.N,Net-(U1-Pad5)*%
X59500000Y-190900000D03*
%TD*%
D19*
%TO.P,RV1,1,1*%
%TO.N,Net-(U1-Pad7)*%
X78150000Y-182400000D03*
%TO.P,RV1,2,2*%
X75610000Y-182400000D03*
%TO.P,RV1,3,3*%
%TO.N,Net-(U1-Pad6)*%
X73070000Y-182400000D03*
%TD*%
D10*
%TO.P,R14,1*%
%TO.N,Net-(J4-PadT)*%
X43600000Y-173110000D03*
D11*
%TO.P,R14,2*%
%TO.N,Net-(C7-Pad2)*%
X43600000Y-165490000D03*
%TD*%
D16*
%TO.P,C2,1*%
%TO.N,Net-(C2-Pad1)*%
X66200000Y-190900000D03*
%TO.P,C2,2*%
%TO.N,Net-(U1-Pad3)*%
X66200000Y-188400000D03*
%TD*%
D10*
%TO.P,R2,1*%
%TO.N,Net-(U1-Pad5)*%
X39110000Y-169100000D03*
D11*
%TO.P,R2,2*%
%TO.N,+5V*%
X31490000Y-169100000D03*
%TD*%
D10*
%TO.P,R1,1*%
%TO.N,+5V*%
X16290000Y-171500000D03*
D11*
%TO.P,R1,2*%
%TO.N,Net-(J3-Pad1)*%
X23910000Y-171500000D03*
%TD*%
D12*
%TO.P,J1,S*%
%TO.N,GND*%
X45625000Y-187350000D03*
X56825000Y-187350000D03*
D13*
X51225000Y-197350000D03*
D14*
%TO.P,J1,T*%
%TO.N,Net-(C1-Pad1)*%
X51225000Y-187350000D03*
%TD*%
D10*
%TO.P,R15,1*%
%TO.N,Net-(J5-PadT)*%
X79110000Y-178400000D03*
D11*
%TO.P,R15,2*%
%TO.N,Net-(C8-Pad2)*%
X71490000Y-178400000D03*
%TD*%
D10*
%TO.P,R3,1*%
%TO.N,GND*%
X31390000Y-166800000D03*
D11*
%TO.P,R3,2*%
%TO.N,Net-(U1-Pad5)*%
X39010000Y-166800000D03*
%TD*%
D10*
%TO.P,R12,1*%
%TO.N,GND*%
X64300000Y-185310000D03*
D11*
%TO.P,R12,2*%
%TO.N,Net-(C8-Pad2)*%
X64300000Y-177690000D03*
%TD*%
D10*
%TO.P,R8,1*%
%TO.N,Net-(U1-Pad12)*%
X59800000Y-185310000D03*
D11*
%TO.P,R8,2*%
%TO.N,Net-(U1-Pad7)*%
X59800000Y-177690000D03*
%TD*%
D10*
%TO.P,R6,1*%
%TO.N,+2V5*%
X63000000Y-196110000D03*
D11*
%TO.P,R6,2*%
%TO.N,Net-(U1-Pad6)*%
X63000000Y-188490000D03*
%TD*%
D10*
%TO.P,R4,1*%
%TO.N,Net-(U1-Pad3)*%
X33880000Y-192500000D03*
D11*
%TO.P,R4,2*%
%TO.N,+5V*%
X41500000Y-192500000D03*
%TD*%
D16*
%TO.P,C6,1*%
%TO.N,GND*%
X68950000Y-180400000D03*
%TO.P,C6,2*%
%TO.N,Net-(U1-Pad10)*%
X66450000Y-180400000D03*
%TD*%
D10*
%TO.P,R9,1*%
%TO.N,Net-(U1-Pad10)*%
X62100000Y-177690000D03*
D11*
%TO.P,R9,2*%
%TO.N,Net-(U1-Pad1)*%
X62100000Y-185310000D03*
%TD*%
D10*
%TO.P,R7,1*%
%TO.N,+2V5*%
X33880000Y-196700000D03*
D11*
%TO.P,R7,2*%
%TO.N,Net-(U1-Pad2)*%
X41500000Y-196700000D03*
%TD*%
D16*
%TO.P,C4,1*%
%TO.N,GND*%
X45700000Y-182800000D03*
%TO.P,C4,2*%
%TO.N,+5V*%
X43200000Y-182800000D03*
%TD*%
D12*
%TO.P,J4,S*%
%TO.N,GND*%
X45575000Y-175250000D03*
D13*
X51175000Y-165250000D03*
D12*
X56775000Y-175250000D03*
D14*
%TO.P,J4,T*%
%TO.N,Net-(J4-PadT)*%
X51175000Y-175250000D03*
%TD*%
D15*
%TO.P,C3,1*%
%TO.N,+5V*%
X19900000Y-168605113D03*
D16*
%TO.P,C3,2*%
%TO.N,GND*%
X19900000Y-166105113D03*
%TD*%
D10*
%TO.P,R5,1*%
%TO.N,GND*%
X41500000Y-194600000D03*
D11*
%TO.P,R5,2*%
%TO.N,Net-(U1-Pad3)*%
X33880000Y-194600000D03*
%TD*%
D19*
%TO.P,RV2,1,1*%
%TO.N,Net-(U1-Pad1)*%
X54440000Y-181400000D03*
%TO.P,RV2,2,2*%
X51900000Y-181400000D03*
%TO.P,RV2,3,3*%
%TO.N,Net-(U1-Pad2)*%
X49360000Y-181400000D03*
%TD*%
D10*
%TO.P,R13,1*%
%TO.N,GND*%
X15090000Y-193800000D03*
D11*
%TO.P,R13,2*%
%TO.N,+2V5*%
X22710000Y-193800000D03*
%TD*%
D20*
%TO.N,GND*%
X36300000Y-184200000D03*
X35800000Y-181000000D03*
X35500000Y-187500000D03*
X36900000Y-174900000D03*
X36600000Y-196300000D03*
%TD*%
D21*
%TO.N,Net-(U1-Pad5)*%
X40300000Y-179065000D02*
X39110000Y-177875000D01*
X39110000Y-177875000D02*
X39110000Y-169100000D01*
%TO.N,Net-(U1-Pad3)*%
X57100000Y-190600000D02*
X58100000Y-189600000D01*
X39175489Y-189575489D02*
X39175489Y-190275489D01*
X33880000Y-192500000D02*
X33880000Y-194600000D01*
X33880000Y-192500000D02*
X36280000Y-190100000D01*
X39175489Y-190275489D02*
X39500000Y-190600000D01*
X58100000Y-189600000D02*
X65000000Y-189600000D01*
X65000000Y-189600000D02*
X66200000Y-188400000D01*
X36280000Y-190100000D02*
X39175489Y-190100000D01*
X39175489Y-185269511D02*
X39175489Y-189575489D01*
X39175489Y-190100000D02*
X39175489Y-189575489D01*
X39500000Y-190600000D02*
X57100000Y-190600000D01*
X40300000Y-184145000D02*
X39175489Y-185269511D01*
%TO.N,+5V*%
X33804511Y-175109511D02*
X40300000Y-181605000D01*
X40300000Y-181605000D02*
X42005000Y-181605000D01*
X33804511Y-171414511D02*
X33804511Y-175109511D01*
X42005000Y-181605000D02*
X43200000Y-182800000D01*
X31490000Y-169100000D02*
X33804511Y-171414511D01*
%TO.N,Net-(U1-Pad6)*%
X44130489Y-180355489D02*
X52350978Y-180355489D01*
X40300000Y-176525000D02*
X44130489Y-180355489D01*
X58762837Y-187200000D02*
X61710000Y-187200000D01*
X61710000Y-187200000D02*
X63000000Y-188490000D01*
X53395489Y-181832652D02*
X58762837Y-187200000D01*
X52350978Y-180355489D02*
X53395489Y-181400000D01*
X53395489Y-181400000D02*
X53395489Y-181832652D01*
%TO.N,Net-(U1-Pad2)*%
X43413323Y-185475960D02*
X47188322Y-185475960D01*
X47188322Y-185475960D02*
X49360000Y-183304282D01*
X42204283Y-186685000D02*
X43413323Y-185475960D01*
X49360000Y-183304282D02*
X49360000Y-181400000D01*
X40300000Y-186685000D02*
X42204283Y-186685000D01*
%TO.N,Net-(U1-Pad1)*%
X47374520Y-185925480D02*
X43599520Y-185925480D01*
X51900000Y-181400000D02*
X47374520Y-185925480D01*
X43599520Y-185925480D02*
X40300000Y-189225000D01*
%TD*%
%TA.AperFunction,Conductor*%
%TO.N,GND*%
G36*
X19152615Y-164828002D02*
G01*
X19199108Y-164881658D01*
X19209212Y-164951932D01*
X19182917Y-165012670D01*
X19178576Y-165018101D01*
X19185644Y-165031547D01*
X19887188Y-165733091D01*
X19901132Y-165740705D01*
X19902965Y-165740574D01*
X19909580Y-165736323D01*
X20615077Y-165030826D01*
X20621507Y-165019051D01*
X20615356Y-165011100D01*
X20589492Y-164944982D01*
X20603481Y-164875377D01*
X20652881Y-164824384D01*
X20715013Y-164808000D01*
X42386809Y-164808000D01*
X42454930Y-164828002D01*
X42501423Y-164881658D01*
X42511527Y-164951932D01*
X42501004Y-164987249D01*
X42480348Y-165031547D01*
X42460044Y-165075090D01*
X42405314Y-165279345D01*
X42386884Y-165490000D01*
X42405314Y-165700655D01*
X42406738Y-165705968D01*
X42406738Y-165705970D01*
X42420045Y-165755630D01*
X42460044Y-165904910D01*
X42462366Y-165909891D01*
X42462367Y-165909892D01*
X42546200Y-166089671D01*
X42549411Y-166096558D01*
X42670699Y-166269776D01*
X42820224Y-166419301D01*
X42993442Y-166540589D01*
X42998420Y-166542910D01*
X42998423Y-166542912D01*
X43180108Y-166627633D01*
X43185090Y-166629956D01*
X43190398Y-166631378D01*
X43190400Y-166631379D01*
X43384030Y-166683262D01*
X43384032Y-166683262D01*
X43389345Y-166684686D01*
X43600000Y-166703116D01*
X43810655Y-166684686D01*
X43815968Y-166683262D01*
X43815970Y-166683262D01*
X44009600Y-166631379D01*
X44009602Y-166631378D01*
X44014910Y-166629956D01*
X44019892Y-166627633D01*
X44201577Y-166542912D01*
X44201580Y-166542910D01*
X44206558Y-166540589D01*
X44379776Y-166419301D01*
X44529301Y-166269776D01*
X44650589Y-166096558D01*
X44653801Y-166089671D01*
X44737633Y-165909892D01*
X44737634Y-165909891D01*
X44739956Y-165904910D01*
X44779956Y-165755630D01*
X44793262Y-165705970D01*
X44793262Y-165705968D01*
X44794686Y-165700655D01*
X44810253Y-165522722D01*
X49596808Y-165522722D01*
X49600687Y-165545300D01*
X49603666Y-165556417D01*
X49673331Y-165745252D01*
X49678281Y-165755630D01*
X49781191Y-165928606D01*
X49787955Y-165937915D01*
X49920665Y-166089243D01*
X49929000Y-166097153D01*
X50087069Y-166221764D01*
X50096720Y-166228032D01*
X50274836Y-166321743D01*
X50285479Y-166326152D01*
X50477684Y-166385833D01*
X50488946Y-166388227D01*
X50652322Y-166407563D01*
X50659728Y-166408000D01*
X50902885Y-166408000D01*
X50918124Y-166403525D01*
X50919329Y-166402135D01*
X50921000Y-166394452D01*
X50921000Y-166389885D01*
X51429000Y-166389885D01*
X51433475Y-166405124D01*
X51434865Y-166406329D01*
X51442548Y-166408000D01*
X51676092Y-166408000D01*
X51681881Y-166407734D01*
X51831176Y-166394016D01*
X51842497Y-166391918D01*
X52036203Y-166337287D01*
X52046950Y-166333163D01*
X52227466Y-166244141D01*
X52237273Y-166238131D01*
X52398549Y-166117701D01*
X52407089Y-166110011D01*
X52543720Y-165962206D01*
X52550721Y-165953081D01*
X52658125Y-165782856D01*
X52663346Y-165772609D01*
X52737928Y-165585668D01*
X52741197Y-165574631D01*
X52751523Y-165522722D01*
X72596808Y-165522722D01*
X72600687Y-165545300D01*
X72603666Y-165556417D01*
X72673331Y-165745252D01*
X72678281Y-165755630D01*
X72781191Y-165928606D01*
X72787955Y-165937915D01*
X72920665Y-166089243D01*
X72929000Y-166097153D01*
X73087069Y-166221764D01*
X73096720Y-166228032D01*
X73274836Y-166321743D01*
X73285479Y-166326152D01*
X73477684Y-166385833D01*
X73488946Y-166388227D01*
X73652322Y-166407563D01*
X73659728Y-166408000D01*
X73902885Y-166408000D01*
X73918124Y-166403525D01*
X73919329Y-166402135D01*
X73921000Y-166394452D01*
X73921000Y-166389885D01*
X74429000Y-166389885D01*
X74433475Y-166405124D01*
X74434865Y-166406329D01*
X74442548Y-166408000D01*
X74676092Y-166408000D01*
X74681881Y-166407734D01*
X74831176Y-166394016D01*
X74842497Y-166391918D01*
X75036203Y-166337287D01*
X75046950Y-166333163D01*
X75227466Y-166244141D01*
X75237273Y-166238131D01*
X75398549Y-166117701D01*
X75407089Y-166110011D01*
X75543720Y-165962206D01*
X75550721Y-165953081D01*
X75658125Y-165782856D01*
X75663346Y-165772609D01*
X75737928Y-165585668D01*
X75741197Y-165574631D01*
X75751712Y-165521770D01*
X75750560Y-165508894D01*
X75735404Y-165504000D01*
X74447115Y-165504000D01*
X74431876Y-165508475D01*
X74430671Y-165509865D01*
X74429000Y-165517548D01*
X74429000Y-166389885D01*
X73921000Y-166389885D01*
X73921000Y-165522115D01*
X73916525Y-165506876D01*
X73915135Y-165505671D01*
X73907452Y-165504000D01*
X72611706Y-165504000D01*
X72598744Y-165507806D01*
X72596808Y-165522722D01*
X52751523Y-165522722D01*
X52751712Y-165521770D01*
X52750560Y-165508894D01*
X52735404Y-165504000D01*
X51447115Y-165504000D01*
X51431876Y-165508475D01*
X51430671Y-165509865D01*
X51429000Y-165517548D01*
X51429000Y-166389885D01*
X50921000Y-166389885D01*
X50921000Y-165522115D01*
X50916525Y-165506876D01*
X50915135Y-165505671D01*
X50907452Y-165504000D01*
X49611706Y-165504000D01*
X49598744Y-165507806D01*
X49596808Y-165522722D01*
X44810253Y-165522722D01*
X44813116Y-165490000D01*
X44794686Y-165279345D01*
X44739956Y-165075090D01*
X44719652Y-165031547D01*
X44698996Y-164987249D01*
X44688335Y-164917058D01*
X44717315Y-164852245D01*
X44776735Y-164813389D01*
X44813191Y-164808000D01*
X49478617Y-164808000D01*
X49546738Y-164828002D01*
X49593231Y-164881658D01*
X49602196Y-164958582D01*
X49598288Y-164978230D01*
X49599440Y-164991106D01*
X49614596Y-164996000D01*
X52738294Y-164996000D01*
X52751256Y-164992194D01*
X52753192Y-164977278D01*
X52749422Y-164955337D01*
X52757599Y-164884813D01*
X52802606Y-164829906D01*
X52873602Y-164808000D01*
X72478617Y-164808000D01*
X72546738Y-164828002D01*
X72593231Y-164881658D01*
X72602196Y-164958582D01*
X72598288Y-164978230D01*
X72599440Y-164991106D01*
X72614596Y-164996000D01*
X75738294Y-164996000D01*
X75751256Y-164992194D01*
X75753192Y-164977278D01*
X75749422Y-164955337D01*
X75757599Y-164884813D01*
X75802606Y-164829906D01*
X75873602Y-164808000D01*
X80150672Y-164808000D01*
X80170057Y-164809500D01*
X80184858Y-164811805D01*
X80184861Y-164811805D01*
X80193730Y-164813186D01*
X80213054Y-164810659D01*
X80235570Y-164809747D01*
X80536100Y-164824512D01*
X80548394Y-164825722D01*
X80875139Y-164874191D01*
X80887249Y-164876599D01*
X81207674Y-164956861D01*
X81219507Y-164960451D01*
X81530494Y-165071725D01*
X81541918Y-165076456D01*
X81840523Y-165217685D01*
X81851428Y-165223514D01*
X82134745Y-165393328D01*
X82145026Y-165400198D01*
X82410329Y-165596960D01*
X82419887Y-165604804D01*
X82664630Y-165826626D01*
X82673374Y-165835370D01*
X82895196Y-166080113D01*
X82903040Y-166089671D01*
X83099802Y-166354974D01*
X83106672Y-166365255D01*
X83169167Y-166469521D01*
X83269603Y-166637088D01*
X83276486Y-166648572D01*
X83282313Y-166659473D01*
X83304308Y-166705978D01*
X83423544Y-166958082D01*
X83428275Y-166969506D01*
X83539549Y-167280493D01*
X83543138Y-167292324D01*
X83616117Y-167583671D01*
X83623399Y-167612743D01*
X83625809Y-167624861D01*
X83674277Y-167951601D01*
X83675489Y-167963902D01*
X83676624Y-167987015D01*
X83689890Y-168257062D01*
X83688543Y-168282624D01*
X83688195Y-168284857D01*
X83688195Y-168284861D01*
X83686814Y-168293730D01*
X83687978Y-168302632D01*
X83687978Y-168302635D01*
X83690936Y-168325251D01*
X83692000Y-168341589D01*
X83692000Y-194250672D01*
X83690500Y-194270056D01*
X83686814Y-194293730D01*
X83689274Y-194312539D01*
X83689341Y-194313050D01*
X83690253Y-194335570D01*
X83676647Y-194612517D01*
X83675489Y-194636094D01*
X83674278Y-194648394D01*
X83626221Y-194972367D01*
X83625811Y-194975130D01*
X83623401Y-194987249D01*
X83559270Y-195243276D01*
X83543139Y-195307674D01*
X83539549Y-195319507D01*
X83428275Y-195630494D01*
X83423544Y-195641918D01*
X83360793Y-195774594D01*
X83289782Y-195924736D01*
X83282315Y-195940523D01*
X83276486Y-195951428D01*
X83106672Y-196234745D01*
X83099802Y-196245026D01*
X82903040Y-196510329D01*
X82895196Y-196519887D01*
X82673374Y-196764630D01*
X82664630Y-196773374D01*
X82419887Y-196995196D01*
X82410329Y-197003040D01*
X82145026Y-197199802D01*
X82134745Y-197206672D01*
X81851428Y-197376486D01*
X81840523Y-197382315D01*
X81541918Y-197523544D01*
X81530494Y-197528275D01*
X81219507Y-197639549D01*
X81207676Y-197643138D01*
X80887249Y-197723401D01*
X80875139Y-197725809D01*
X80548394Y-197774278D01*
X80536098Y-197775489D01*
X80447344Y-197779849D01*
X80242938Y-197789890D01*
X80217376Y-197788543D01*
X80215143Y-197788195D01*
X80215139Y-197788195D01*
X80206270Y-197786814D01*
X80197368Y-197787978D01*
X80197365Y-197787978D01*
X80178083Y-197790500D01*
X80175728Y-197790808D01*
X80174749Y-197790936D01*
X80158411Y-197792000D01*
X75921383Y-197792000D01*
X75853262Y-197771998D01*
X75806769Y-197718342D01*
X75797804Y-197641418D01*
X75801712Y-197621770D01*
X75800560Y-197608894D01*
X75785404Y-197604000D01*
X72661706Y-197604000D01*
X72648744Y-197607806D01*
X72646808Y-197622722D01*
X72650578Y-197644663D01*
X72642401Y-197715187D01*
X72597394Y-197770094D01*
X72526398Y-197792000D01*
X52921383Y-197792000D01*
X52853262Y-197771998D01*
X52806769Y-197718342D01*
X52797804Y-197641418D01*
X52801712Y-197621770D01*
X52800560Y-197608894D01*
X52785404Y-197604000D01*
X49661706Y-197604000D01*
X49648744Y-197607806D01*
X49646808Y-197622722D01*
X49650578Y-197644663D01*
X49642401Y-197715187D01*
X49597394Y-197770094D01*
X49526398Y-197792000D01*
X42421267Y-197792000D01*
X42353146Y-197771998D01*
X42306653Y-197718342D01*
X42296549Y-197648068D01*
X42326043Y-197583488D01*
X42332172Y-197576905D01*
X42429301Y-197479776D01*
X42550589Y-197306558D01*
X42576320Y-197251379D01*
X42637633Y-197119892D01*
X42637634Y-197119891D01*
X42639956Y-197114910D01*
X42646595Y-197090135D01*
X42649785Y-197078230D01*
X49648288Y-197078230D01*
X49649440Y-197091106D01*
X49664596Y-197096000D01*
X50952885Y-197096000D01*
X50968124Y-197091525D01*
X50969329Y-197090135D01*
X50971000Y-197082452D01*
X50971000Y-197077885D01*
X51479000Y-197077885D01*
X51483475Y-197093124D01*
X51484865Y-197094329D01*
X51492548Y-197096000D01*
X52788294Y-197096000D01*
X52801256Y-197092194D01*
X52803192Y-197077278D01*
X52799313Y-197054700D01*
X52796334Y-197043583D01*
X52726669Y-196854748D01*
X52721719Y-196844370D01*
X52618809Y-196671394D01*
X52612045Y-196662085D01*
X52479335Y-196510757D01*
X52471000Y-196502847D01*
X52312931Y-196378236D01*
X52303280Y-196371968D01*
X52125164Y-196278257D01*
X52114521Y-196273848D01*
X51922316Y-196214167D01*
X51911054Y-196211773D01*
X51747678Y-196192437D01*
X51740272Y-196192000D01*
X51497115Y-196192000D01*
X51481876Y-196196475D01*
X51480671Y-196197865D01*
X51479000Y-196205548D01*
X51479000Y-197077885D01*
X50971000Y-197077885D01*
X50971000Y-196210115D01*
X50966525Y-196194876D01*
X50965135Y-196193671D01*
X50957452Y-196192000D01*
X50723908Y-196192000D01*
X50718119Y-196192266D01*
X50568824Y-196205984D01*
X50557503Y-196208082D01*
X50363797Y-196262713D01*
X50353050Y-196266837D01*
X50172534Y-196355859D01*
X50162727Y-196361869D01*
X50001451Y-196482299D01*
X49992911Y-196489989D01*
X49856280Y-196637794D01*
X49849279Y-196646919D01*
X49741875Y-196817144D01*
X49736654Y-196827391D01*
X49662072Y-197014332D01*
X49658803Y-197025369D01*
X49648288Y-197078230D01*
X42649785Y-197078230D01*
X42693262Y-196915970D01*
X42693262Y-196915968D01*
X42694686Y-196910655D01*
X42713116Y-196700000D01*
X42694686Y-196489345D01*
X42692798Y-196482299D01*
X42641379Y-196290400D01*
X42641378Y-196290398D01*
X42639956Y-196285090D01*
X42634714Y-196273848D01*
X42558310Y-196110000D01*
X61786884Y-196110000D01*
X61805314Y-196320655D01*
X61860044Y-196524910D01*
X61862366Y-196529891D01*
X61862367Y-196529892D01*
X61928351Y-196671394D01*
X61949411Y-196716558D01*
X62070699Y-196889776D01*
X62220224Y-197039301D01*
X62393442Y-197160589D01*
X62398420Y-197162910D01*
X62398423Y-197162912D01*
X62492267Y-197206672D01*
X62585090Y-197249956D01*
X62590398Y-197251378D01*
X62590400Y-197251379D01*
X62784030Y-197303262D01*
X62784032Y-197303262D01*
X62789345Y-197304686D01*
X63000000Y-197323116D01*
X63210655Y-197304686D01*
X63215968Y-197303262D01*
X63215970Y-197303262D01*
X63409600Y-197251379D01*
X63409602Y-197251378D01*
X63414910Y-197249956D01*
X63507733Y-197206672D01*
X63601577Y-197162912D01*
X63601580Y-197162910D01*
X63606558Y-197160589D01*
X63724179Y-197078230D01*
X72648288Y-197078230D01*
X72649440Y-197091106D01*
X72664596Y-197096000D01*
X73952885Y-197096000D01*
X73968124Y-197091525D01*
X73969329Y-197090135D01*
X73971000Y-197082452D01*
X73971000Y-197077885D01*
X74479000Y-197077885D01*
X74483475Y-197093124D01*
X74484865Y-197094329D01*
X74492548Y-197096000D01*
X75788294Y-197096000D01*
X75801256Y-197092194D01*
X75803192Y-197077278D01*
X75799313Y-197054700D01*
X75796334Y-197043583D01*
X75726669Y-196854748D01*
X75721719Y-196844370D01*
X75618809Y-196671394D01*
X75612045Y-196662085D01*
X75479335Y-196510757D01*
X75471000Y-196502847D01*
X75312931Y-196378236D01*
X75303280Y-196371968D01*
X75125164Y-196278257D01*
X75114521Y-196273848D01*
X74922316Y-196214167D01*
X74911054Y-196211773D01*
X74747678Y-196192437D01*
X74740272Y-196192000D01*
X74497115Y-196192000D01*
X74481876Y-196196475D01*
X74480671Y-196197865D01*
X74479000Y-196205548D01*
X74479000Y-197077885D01*
X73971000Y-197077885D01*
X73971000Y-196210115D01*
X73966525Y-196194876D01*
X73965135Y-196193671D01*
X73957452Y-196192000D01*
X73723908Y-196192000D01*
X73718119Y-196192266D01*
X73568824Y-196205984D01*
X73557503Y-196208082D01*
X73363797Y-196262713D01*
X73353050Y-196266837D01*
X73172534Y-196355859D01*
X73162727Y-196361869D01*
X73001451Y-196482299D01*
X72992911Y-196489989D01*
X72856280Y-196637794D01*
X72849279Y-196646919D01*
X72741875Y-196817144D01*
X72736654Y-196827391D01*
X72662072Y-197014332D01*
X72658803Y-197025369D01*
X72648288Y-197078230D01*
X63724179Y-197078230D01*
X63779776Y-197039301D01*
X63929301Y-196889776D01*
X64050589Y-196716558D01*
X64071650Y-196671394D01*
X64137633Y-196529892D01*
X64137634Y-196529891D01*
X64139956Y-196524910D01*
X64194686Y-196320655D01*
X64213116Y-196110000D01*
X64194686Y-195899345D01*
X64161259Y-195774594D01*
X64141379Y-195700400D01*
X64141378Y-195700398D01*
X64139956Y-195695090D01*
X64137633Y-195690108D01*
X64052912Y-195508423D01*
X64052910Y-195508420D01*
X64050589Y-195503442D01*
X63929301Y-195330224D01*
X63779776Y-195180699D01*
X63606558Y-195059411D01*
X63601580Y-195057090D01*
X63601577Y-195057088D01*
X63419892Y-194972367D01*
X63419891Y-194972366D01*
X63414910Y-194970044D01*
X63409602Y-194968622D01*
X63409600Y-194968621D01*
X63215970Y-194916738D01*
X63215968Y-194916738D01*
X63210655Y-194915314D01*
X63000000Y-194896884D01*
X62789345Y-194915314D01*
X62784032Y-194916738D01*
X62784030Y-194916738D01*
X62590400Y-194968621D01*
X62590398Y-194968622D01*
X62585090Y-194970044D01*
X62580109Y-194972366D01*
X62580108Y-194972367D01*
X62398423Y-195057088D01*
X62398420Y-195057090D01*
X62393442Y-195059411D01*
X62220224Y-195180699D01*
X62070699Y-195330224D01*
X61949411Y-195503442D01*
X61947090Y-195508420D01*
X61947088Y-195508423D01*
X61862367Y-195690108D01*
X61860044Y-195695090D01*
X61858622Y-195700398D01*
X61858621Y-195700400D01*
X61838741Y-195774594D01*
X61805314Y-195899345D01*
X61786884Y-196110000D01*
X42558310Y-196110000D01*
X42552912Y-196098423D01*
X42552910Y-196098420D01*
X42550589Y-196093442D01*
X42429301Y-195920224D01*
X42279776Y-195770699D01*
X42275268Y-195767542D01*
X42275265Y-195767540D01*
X42205351Y-195718586D01*
X42161023Y-195663129D01*
X42155832Y-195627025D01*
X42142554Y-195601764D01*
X41512812Y-194972022D01*
X41498868Y-194964408D01*
X41497035Y-194964539D01*
X41490420Y-194968790D01*
X40856724Y-195602486D01*
X40844176Y-195625466D01*
X40833284Y-195675535D01*
X40794967Y-195718363D01*
X40724735Y-195767540D01*
X40724732Y-195767542D01*
X40720224Y-195770699D01*
X40570699Y-195920224D01*
X40449411Y-196093442D01*
X40447090Y-196098420D01*
X40447088Y-196098423D01*
X40365286Y-196273848D01*
X40360044Y-196285090D01*
X40358622Y-196290398D01*
X40358621Y-196290400D01*
X40307202Y-196482299D01*
X40305314Y-196489345D01*
X40286884Y-196700000D01*
X40305314Y-196910655D01*
X40306738Y-196915968D01*
X40306738Y-196915970D01*
X40353406Y-197090135D01*
X40360044Y-197114910D01*
X40362366Y-197119891D01*
X40362367Y-197119892D01*
X40423681Y-197251379D01*
X40449411Y-197306558D01*
X40570699Y-197479776D01*
X40667828Y-197576905D01*
X40701854Y-197639217D01*
X40696789Y-197710032D01*
X40654242Y-197766868D01*
X40587722Y-197791679D01*
X40578733Y-197792000D01*
X34801267Y-197792000D01*
X34733146Y-197771998D01*
X34686653Y-197718342D01*
X34676549Y-197648068D01*
X34706043Y-197583488D01*
X34712172Y-197576905D01*
X34809301Y-197479776D01*
X34930589Y-197306558D01*
X34956320Y-197251379D01*
X35017633Y-197119892D01*
X35017634Y-197119891D01*
X35019956Y-197114910D01*
X35026595Y-197090135D01*
X35073262Y-196915970D01*
X35073262Y-196915968D01*
X35074686Y-196910655D01*
X35093116Y-196700000D01*
X35074686Y-196489345D01*
X35072798Y-196482299D01*
X35021379Y-196290400D01*
X35021378Y-196290398D01*
X35019956Y-196285090D01*
X35014714Y-196273848D01*
X34932912Y-196098423D01*
X34932910Y-196098420D01*
X34930589Y-196093442D01*
X34809301Y-195920224D01*
X34659776Y-195770699D01*
X34634801Y-195753211D01*
X34590474Y-195697757D01*
X34583165Y-195627138D01*
X34615195Y-195563777D01*
X34634796Y-195546792D01*
X34659776Y-195529301D01*
X34809301Y-195379776D01*
X34930589Y-195206558D01*
X34942648Y-195180699D01*
X35017633Y-195019892D01*
X35017634Y-195019891D01*
X35019956Y-195014910D01*
X35031356Y-194972367D01*
X35073262Y-194815970D01*
X35073262Y-194815968D01*
X35074686Y-194810655D01*
X35092637Y-194605475D01*
X40287865Y-194605475D01*
X40305329Y-194805091D01*
X40307231Y-194815878D01*
X40359093Y-195009429D01*
X40362841Y-195019723D01*
X40447521Y-195201323D01*
X40452999Y-195210811D01*
X40474311Y-195241248D01*
X40484788Y-195249623D01*
X40498236Y-195242554D01*
X41127978Y-194612812D01*
X41134356Y-194601132D01*
X41864408Y-194601132D01*
X41864539Y-194602965D01*
X41868790Y-194609580D01*
X42502486Y-195243276D01*
X42514261Y-195249706D01*
X42526276Y-195240410D01*
X42547001Y-195210811D01*
X42552479Y-195201323D01*
X42637159Y-195019723D01*
X42640907Y-195009429D01*
X42692769Y-194815878D01*
X42694671Y-194805091D01*
X42712135Y-194605475D01*
X42712135Y-194594525D01*
X42694671Y-194394909D01*
X42692769Y-194384122D01*
X42640907Y-194190571D01*
X42637159Y-194180277D01*
X42552479Y-193998677D01*
X42547001Y-193989189D01*
X42525689Y-193958752D01*
X42515212Y-193950377D01*
X42501764Y-193957446D01*
X41872022Y-194587188D01*
X41864408Y-194601132D01*
X41134356Y-194601132D01*
X41135592Y-194598868D01*
X41135461Y-194597035D01*
X41131210Y-194590420D01*
X40497514Y-193956724D01*
X40485739Y-193950294D01*
X40473724Y-193959590D01*
X40452999Y-193989189D01*
X40447521Y-193998677D01*
X40362841Y-194180277D01*
X40359093Y-194190571D01*
X40307231Y-194384122D01*
X40305329Y-194394909D01*
X40287865Y-194594525D01*
X40287865Y-194605475D01*
X35092637Y-194605475D01*
X35093116Y-194600000D01*
X35074686Y-194389345D01*
X35054106Y-194312539D01*
X35021379Y-194190400D01*
X35021378Y-194190398D01*
X35019956Y-194185090D01*
X34969968Y-194077890D01*
X34932912Y-193998423D01*
X34932910Y-193998420D01*
X34930589Y-193993442D01*
X34809301Y-193820224D01*
X34659776Y-193670699D01*
X34634801Y-193653211D01*
X34590474Y-193597757D01*
X34583165Y-193527138D01*
X34615195Y-193463777D01*
X34634796Y-193446792D01*
X34659776Y-193429301D01*
X34809301Y-193279776D01*
X34930589Y-193106558D01*
X34968744Y-193024736D01*
X35017633Y-192919892D01*
X35017634Y-192919891D01*
X35019956Y-192914910D01*
X35055376Y-192782723D01*
X35073262Y-192715970D01*
X35073262Y-192715968D01*
X35074686Y-192710655D01*
X35093116Y-192500000D01*
X35074686Y-192289345D01*
X35073262Y-192284029D01*
X35072452Y-192279437D01*
X35080321Y-192208877D01*
X35107443Y-192168461D01*
X36505499Y-190770405D01*
X36567811Y-190736379D01*
X36594594Y-190733500D01*
X38685405Y-190733500D01*
X38753526Y-190753502D01*
X38774501Y-190770405D01*
X38996353Y-190992258D01*
X39003887Y-191000537D01*
X39008000Y-191007018D01*
X39029095Y-191026827D01*
X39057652Y-191053644D01*
X39060494Y-191056399D01*
X39080230Y-191076135D01*
X39083427Y-191078615D01*
X39092447Y-191086318D01*
X39124679Y-191116586D01*
X39131625Y-191120405D01*
X39131628Y-191120407D01*
X39142434Y-191126348D01*
X39158953Y-191137199D01*
X39174959Y-191149614D01*
X39182228Y-191152759D01*
X39182232Y-191152762D01*
X39215537Y-191167174D01*
X39226187Y-191172391D01*
X39264940Y-191193695D01*
X39272615Y-191195666D01*
X39272616Y-191195666D01*
X39284562Y-191198733D01*
X39303267Y-191205137D01*
X39321855Y-191213181D01*
X39329678Y-191214420D01*
X39329688Y-191214423D01*
X39365524Y-191220099D01*
X39377144Y-191222505D01*
X39408959Y-191230673D01*
X39419970Y-191233500D01*
X39440224Y-191233500D01*
X39459934Y-191235051D01*
X39479943Y-191238220D01*
X39487835Y-191237474D01*
X39506580Y-191235702D01*
X39523962Y-191234059D01*
X39535819Y-191233500D01*
X40802175Y-191233500D01*
X40870296Y-191253502D01*
X40916789Y-191307158D01*
X40926893Y-191377432D01*
X40897399Y-191442012D01*
X40874446Y-191462712D01*
X40720224Y-191570699D01*
X40570699Y-191720224D01*
X40449411Y-191893442D01*
X40447090Y-191898420D01*
X40447088Y-191898423D01*
X40374182Y-192054771D01*
X40360044Y-192085090D01*
X40358622Y-192090398D01*
X40358621Y-192090400D01*
X40312721Y-192261703D01*
X40305314Y-192289345D01*
X40286884Y-192500000D01*
X40305314Y-192710655D01*
X40306738Y-192715968D01*
X40306738Y-192715970D01*
X40324625Y-192782723D01*
X40360044Y-192914910D01*
X40362366Y-192919891D01*
X40362367Y-192919892D01*
X40411257Y-193024736D01*
X40449411Y-193106558D01*
X40570699Y-193279776D01*
X40720224Y-193429301D01*
X40724732Y-193432458D01*
X40724735Y-193432460D01*
X40794649Y-193481414D01*
X40838977Y-193536871D01*
X40844168Y-193572975D01*
X40857446Y-193598236D01*
X41487188Y-194227978D01*
X41501132Y-194235592D01*
X41502965Y-194235461D01*
X41509580Y-194231210D01*
X42143276Y-193597514D01*
X42155824Y-193574534D01*
X42166716Y-193524465D01*
X42205033Y-193481637D01*
X42275265Y-193432460D01*
X42275268Y-193432458D01*
X42279776Y-193429301D01*
X42429301Y-193279776D01*
X42550589Y-193106558D01*
X42588744Y-193024736D01*
X42637633Y-192919892D01*
X42637634Y-192919891D01*
X42639956Y-192914910D01*
X42675376Y-192782723D01*
X42693262Y-192715970D01*
X42693262Y-192715968D01*
X42694686Y-192710655D01*
X42713116Y-192500000D01*
X42694686Y-192289345D01*
X42687279Y-192261703D01*
X42641379Y-192090400D01*
X42641378Y-192090398D01*
X42639956Y-192085090D01*
X42625818Y-192054771D01*
X42552912Y-191898423D01*
X42552910Y-191898420D01*
X42550589Y-191893442D01*
X42429301Y-191720224D01*
X42279776Y-191570699D01*
X42125555Y-191462713D01*
X42081226Y-191407256D01*
X42073917Y-191336637D01*
X42105947Y-191273276D01*
X42167149Y-191237291D01*
X42197825Y-191233500D01*
X57021233Y-191233500D01*
X57032416Y-191234027D01*
X57039909Y-191235702D01*
X57047835Y-191235453D01*
X57047836Y-191235453D01*
X57107986Y-191233562D01*
X57111945Y-191233500D01*
X57139856Y-191233500D01*
X57143791Y-191233003D01*
X57143856Y-191232995D01*
X57155693Y-191232062D01*
X57187951Y-191231048D01*
X57191970Y-191230922D01*
X57199889Y-191230673D01*
X57219343Y-191225021D01*
X57238700Y-191221013D01*
X57250930Y-191219468D01*
X57250931Y-191219468D01*
X57258797Y-191218474D01*
X57266168Y-191215555D01*
X57266170Y-191215555D01*
X57299912Y-191202196D01*
X57311142Y-191198351D01*
X57345983Y-191188229D01*
X57345984Y-191188229D01*
X57353593Y-191186018D01*
X57360412Y-191181985D01*
X57360417Y-191181983D01*
X57371028Y-191175707D01*
X57388776Y-191167012D01*
X57407617Y-191159552D01*
X57443387Y-191133564D01*
X57453307Y-191127048D01*
X57484535Y-191108580D01*
X57484538Y-191108578D01*
X57491362Y-191104542D01*
X57505683Y-191090221D01*
X57520717Y-191077380D01*
X57530694Y-191070131D01*
X57537107Y-191065472D01*
X57565298Y-191031395D01*
X57573288Y-191022616D01*
X57988751Y-190607153D01*
X58051063Y-190573127D01*
X58121878Y-190578192D01*
X58178714Y-190620739D01*
X58203525Y-190687259D01*
X58203367Y-190707230D01*
X58186502Y-190900000D01*
X58206457Y-191128087D01*
X58207881Y-191133400D01*
X58207881Y-191133402D01*
X58254544Y-191307547D01*
X58265716Y-191349243D01*
X58268039Y-191354224D01*
X58268039Y-191354225D01*
X58360151Y-191551762D01*
X58360154Y-191551767D01*
X58362477Y-191556749D01*
X58435902Y-191661611D01*
X58476944Y-191720224D01*
X58493802Y-191744300D01*
X58655700Y-191906198D01*
X58660208Y-191909355D01*
X58660211Y-191909357D01*
X58738389Y-191964098D01*
X58843251Y-192037523D01*
X58848233Y-192039846D01*
X58848238Y-192039849D01*
X59044482Y-192131358D01*
X59050757Y-192134284D01*
X59056065Y-192135706D01*
X59056067Y-192135707D01*
X59266598Y-192192119D01*
X59266600Y-192192119D01*
X59271913Y-192193543D01*
X59500000Y-192213498D01*
X59728087Y-192193543D01*
X59733400Y-192192119D01*
X59733402Y-192192119D01*
X59943933Y-192135707D01*
X59943935Y-192135706D01*
X59949243Y-192134284D01*
X59955518Y-192131358D01*
X60151762Y-192039849D01*
X60151767Y-192039846D01*
X60156749Y-192037523D01*
X60261611Y-191964098D01*
X60339789Y-191909357D01*
X60339792Y-191909355D01*
X60344300Y-191906198D01*
X60506198Y-191744300D01*
X60523057Y-191720224D01*
X60564098Y-191661611D01*
X60637523Y-191556749D01*
X60639846Y-191551767D01*
X60639849Y-191551762D01*
X60731961Y-191354225D01*
X60731961Y-191354224D01*
X60734284Y-191349243D01*
X60745457Y-191307547D01*
X60792119Y-191133402D01*
X60792119Y-191133400D01*
X60793543Y-191128087D01*
X60813498Y-190900000D01*
X60793543Y-190671913D01*
X60779831Y-190620739D01*
X60735707Y-190456067D01*
X60735706Y-190456065D01*
X60734284Y-190450757D01*
X60716561Y-190412749D01*
X60705900Y-190342558D01*
X60734880Y-190277746D01*
X60794300Y-190238889D01*
X60830756Y-190233500D01*
X64869244Y-190233500D01*
X64937365Y-190253502D01*
X64983858Y-190307158D01*
X64993962Y-190377432D01*
X64983439Y-190412749D01*
X64965716Y-190450757D01*
X64964294Y-190456065D01*
X64964293Y-190456067D01*
X64920169Y-190620739D01*
X64906457Y-190671913D01*
X64886502Y-190900000D01*
X64906457Y-191128087D01*
X64907881Y-191133400D01*
X64907881Y-191133402D01*
X64954544Y-191307547D01*
X64965716Y-191349243D01*
X64968039Y-191354224D01*
X64968039Y-191354225D01*
X65060151Y-191551762D01*
X65060154Y-191551767D01*
X65062477Y-191556749D01*
X65135902Y-191661611D01*
X65176944Y-191720224D01*
X65193802Y-191744300D01*
X65355700Y-191906198D01*
X65360208Y-191909355D01*
X65360211Y-191909357D01*
X65438389Y-191964098D01*
X65543251Y-192037523D01*
X65548233Y-192039846D01*
X65548238Y-192039849D01*
X65744482Y-192131358D01*
X65750757Y-192134284D01*
X65756065Y-192135706D01*
X65756067Y-192135707D01*
X65966598Y-192192119D01*
X65966600Y-192192119D01*
X65971913Y-192193543D01*
X66200000Y-192213498D01*
X66428087Y-192193543D01*
X66433400Y-192192119D01*
X66433402Y-192192119D01*
X66643933Y-192135707D01*
X66643935Y-192135706D01*
X66649243Y-192134284D01*
X66655518Y-192131358D01*
X66851762Y-192039849D01*
X66851767Y-192039846D01*
X66856749Y-192037523D01*
X66961611Y-191964098D01*
X67039789Y-191909357D01*
X67039792Y-191909355D01*
X67044300Y-191906198D01*
X67206198Y-191744300D01*
X67223057Y-191720224D01*
X67264098Y-191661611D01*
X67337523Y-191556749D01*
X67339846Y-191551767D01*
X67339849Y-191551762D01*
X67431961Y-191354225D01*
X67431961Y-191354224D01*
X67434284Y-191349243D01*
X67445457Y-191307547D01*
X67492119Y-191133402D01*
X67492119Y-191133400D01*
X67493543Y-191128087D01*
X67513498Y-190900000D01*
X67493543Y-190671913D01*
X67479831Y-190620739D01*
X67435707Y-190456067D01*
X67435706Y-190456065D01*
X67434284Y-190450757D01*
X67413094Y-190405314D01*
X67339849Y-190248238D01*
X67339846Y-190248233D01*
X67337523Y-190243251D01*
X67215721Y-190069300D01*
X67209357Y-190060211D01*
X67209355Y-190060208D01*
X67206198Y-190055700D01*
X67044300Y-189893802D01*
X67039792Y-189890645D01*
X67039789Y-189890643D01*
X66861253Y-189765631D01*
X66856749Y-189762477D01*
X66851767Y-189760154D01*
X66849973Y-189759118D01*
X66800981Y-189707734D01*
X66787546Y-189638021D01*
X66813934Y-189572110D01*
X66849973Y-189540882D01*
X66851767Y-189539846D01*
X66856749Y-189537523D01*
X66958269Y-189466438D01*
X67039789Y-189409357D01*
X67039792Y-189409355D01*
X67044300Y-189406198D01*
X67206198Y-189244300D01*
X67215879Y-189230475D01*
X67291399Y-189122620D01*
X67337523Y-189056749D01*
X67339846Y-189051767D01*
X67339849Y-189051762D01*
X67431961Y-188854225D01*
X67431961Y-188854224D01*
X67434284Y-188849243D01*
X67474746Y-188698240D01*
X67492119Y-188633402D01*
X67492120Y-188633398D01*
X67493543Y-188628087D01*
X67494023Y-188622603D01*
X67494024Y-188622596D01*
X67496681Y-188592235D01*
X67522544Y-188526117D01*
X67580049Y-188484478D01*
X67650936Y-188480538D01*
X67712700Y-188515548D01*
X67723160Y-188527830D01*
X67757301Y-188573551D01*
X67764989Y-188582089D01*
X67912794Y-188718720D01*
X67921919Y-188725721D01*
X68092144Y-188833125D01*
X68102391Y-188838346D01*
X68289332Y-188912928D01*
X68300369Y-188916197D01*
X68353230Y-188926712D01*
X68366106Y-188925560D01*
X68370067Y-188913294D01*
X68879000Y-188913294D01*
X68882806Y-188926256D01*
X68897722Y-188928192D01*
X68920300Y-188924313D01*
X68931417Y-188921334D01*
X69120252Y-188851669D01*
X69130630Y-188846719D01*
X69303606Y-188743809D01*
X69312915Y-188737045D01*
X69464243Y-188604335D01*
X69472153Y-188596000D01*
X69596764Y-188437931D01*
X69603032Y-188428280D01*
X69696743Y-188250164D01*
X69701152Y-188239521D01*
X69760833Y-188047316D01*
X69763227Y-188036054D01*
X69782563Y-187872678D01*
X69783000Y-187865272D01*
X69783000Y-187622115D01*
X69778525Y-187606876D01*
X69777135Y-187605671D01*
X69769452Y-187604000D01*
X68897115Y-187604000D01*
X68881876Y-187608475D01*
X68880671Y-187609865D01*
X68879000Y-187617548D01*
X68879000Y-188913294D01*
X68370067Y-188913294D01*
X68371000Y-188910404D01*
X68371000Y-187622115D01*
X68366525Y-187606876D01*
X68365135Y-187605671D01*
X68357452Y-187604000D01*
X67485115Y-187604000D01*
X67469876Y-187608475D01*
X67450266Y-187631106D01*
X67390541Y-187669491D01*
X67319544Y-187669492D01*
X67259818Y-187631109D01*
X67251828Y-187620866D01*
X67209357Y-187560211D01*
X67209355Y-187560208D01*
X67206198Y-187555700D01*
X67044300Y-187393802D01*
X67039792Y-187390645D01*
X67039789Y-187390643D01*
X66981745Y-187350000D01*
X72711835Y-187350000D01*
X72730465Y-187586711D01*
X72731619Y-187591518D01*
X72731620Y-187591524D01*
X72754614Y-187687301D01*
X72785895Y-187817594D01*
X72787788Y-187822165D01*
X72787789Y-187822167D01*
X72871374Y-188023959D01*
X72876760Y-188036963D01*
X72879346Y-188041183D01*
X72998241Y-188235202D01*
X72998245Y-188235208D01*
X73000824Y-188239416D01*
X73155031Y-188419969D01*
X73335584Y-188574176D01*
X73339792Y-188576755D01*
X73339798Y-188576759D01*
X73527105Y-188691541D01*
X73538037Y-188698240D01*
X73542607Y-188700133D01*
X73542611Y-188700135D01*
X73738000Y-188781067D01*
X73757406Y-188789105D01*
X73829820Y-188806490D01*
X73983476Y-188843380D01*
X73983482Y-188843381D01*
X73988289Y-188844535D01*
X74225000Y-188863165D01*
X74461711Y-188844535D01*
X74466518Y-188843381D01*
X74466524Y-188843380D01*
X74620180Y-188806490D01*
X74692594Y-188789105D01*
X74712000Y-188781067D01*
X74907389Y-188700135D01*
X74907393Y-188700133D01*
X74911963Y-188698240D01*
X74922895Y-188691541D01*
X75110202Y-188576759D01*
X75110208Y-188576755D01*
X75114416Y-188574176D01*
X75294969Y-188419969D01*
X75449176Y-188239416D01*
X75451755Y-188235208D01*
X75451759Y-188235202D01*
X75570654Y-188041183D01*
X75573240Y-188036963D01*
X75578627Y-188023959D01*
X75650230Y-187851092D01*
X78667000Y-187851092D01*
X78667266Y-187856881D01*
X78680984Y-188006176D01*
X78683082Y-188017497D01*
X78737713Y-188211203D01*
X78741837Y-188221950D01*
X78830859Y-188402466D01*
X78836869Y-188412273D01*
X78957299Y-188573549D01*
X78964989Y-188582089D01*
X79112794Y-188718720D01*
X79121919Y-188725721D01*
X79292144Y-188833125D01*
X79302391Y-188838346D01*
X79489332Y-188912928D01*
X79500369Y-188916197D01*
X79553230Y-188926712D01*
X79566106Y-188925560D01*
X79570067Y-188913294D01*
X80079000Y-188913294D01*
X80082806Y-188926256D01*
X80097722Y-188928192D01*
X80120300Y-188924313D01*
X80131417Y-188921334D01*
X80320252Y-188851669D01*
X80330630Y-188846719D01*
X80503606Y-188743809D01*
X80512915Y-188737045D01*
X80664243Y-188604335D01*
X80672153Y-188596000D01*
X80796764Y-188437931D01*
X80803032Y-188428280D01*
X80896743Y-188250164D01*
X80901152Y-188239521D01*
X80960833Y-188047316D01*
X80963227Y-188036054D01*
X80982563Y-187872678D01*
X80983000Y-187865272D01*
X80983000Y-187622115D01*
X80978525Y-187606876D01*
X80977135Y-187605671D01*
X80969452Y-187604000D01*
X80097115Y-187604000D01*
X80081876Y-187608475D01*
X80080671Y-187609865D01*
X80079000Y-187617548D01*
X80079000Y-188913294D01*
X79570067Y-188913294D01*
X79571000Y-188910404D01*
X79571000Y-187622115D01*
X79566525Y-187606876D01*
X79565135Y-187605671D01*
X79557452Y-187604000D01*
X78685115Y-187604000D01*
X78669876Y-187608475D01*
X78668671Y-187609865D01*
X78667000Y-187617548D01*
X78667000Y-187851092D01*
X75650230Y-187851092D01*
X75662211Y-187822167D01*
X75662212Y-187822165D01*
X75664105Y-187817594D01*
X75695386Y-187687301D01*
X75718380Y-187591524D01*
X75718381Y-187591518D01*
X75719535Y-187586711D01*
X75738165Y-187350000D01*
X75719535Y-187113289D01*
X75715385Y-187096000D01*
X75711036Y-187077885D01*
X78667000Y-187077885D01*
X78671475Y-187093124D01*
X78672865Y-187094329D01*
X78680548Y-187096000D01*
X79552885Y-187096000D01*
X79568124Y-187091525D01*
X79569329Y-187090135D01*
X79571000Y-187082452D01*
X79571000Y-187077885D01*
X80079000Y-187077885D01*
X80083475Y-187093124D01*
X80084865Y-187094329D01*
X80092548Y-187096000D01*
X80964885Y-187096000D01*
X80980124Y-187091525D01*
X80981329Y-187090135D01*
X80983000Y-187082452D01*
X80983000Y-186848908D01*
X80982734Y-186843119D01*
X80969016Y-186693824D01*
X80966918Y-186682503D01*
X80912287Y-186488797D01*
X80908163Y-186478050D01*
X80819141Y-186297534D01*
X80813131Y-186287727D01*
X80692701Y-186126451D01*
X80685011Y-186117911D01*
X80537206Y-185981280D01*
X80528081Y-185974279D01*
X80357856Y-185866875D01*
X80347609Y-185861654D01*
X80160668Y-185787072D01*
X80149631Y-185783803D01*
X80096770Y-185773288D01*
X80083894Y-185774440D01*
X80079000Y-185789596D01*
X80079000Y-187077885D01*
X79571000Y-187077885D01*
X79571000Y-185786706D01*
X79567194Y-185773744D01*
X79552278Y-185771808D01*
X79529700Y-185775687D01*
X79518583Y-185778666D01*
X79329748Y-185848331D01*
X79319370Y-185853281D01*
X79146394Y-185956191D01*
X79137085Y-185962955D01*
X78985757Y-186095665D01*
X78977847Y-186104000D01*
X78853236Y-186262069D01*
X78846968Y-186271720D01*
X78753257Y-186449836D01*
X78748848Y-186460479D01*
X78689167Y-186652684D01*
X78686773Y-186663946D01*
X78667437Y-186827322D01*
X78667000Y-186834728D01*
X78667000Y-187077885D01*
X75711036Y-187077885D01*
X75665260Y-186887218D01*
X75664105Y-186882406D01*
X75644356Y-186834728D01*
X75575135Y-186667611D01*
X75575133Y-186667607D01*
X75573240Y-186663037D01*
X75551061Y-186626844D01*
X75451759Y-186464798D01*
X75451755Y-186464792D01*
X75449176Y-186460584D01*
X75294969Y-186280031D01*
X75114416Y-186125824D01*
X75110208Y-186123245D01*
X75110202Y-186123241D01*
X74916183Y-186004346D01*
X74911963Y-186001760D01*
X74907393Y-185999867D01*
X74907389Y-185999865D01*
X74697167Y-185912789D01*
X74697165Y-185912788D01*
X74692594Y-185910895D01*
X74612391Y-185891640D01*
X74466524Y-185856620D01*
X74466518Y-185856619D01*
X74461711Y-185855465D01*
X74225000Y-185836835D01*
X73988289Y-185855465D01*
X73983482Y-185856619D01*
X73983476Y-185856620D01*
X73837609Y-185891640D01*
X73757406Y-185910895D01*
X73752835Y-185912788D01*
X73752833Y-185912789D01*
X73542611Y-185999865D01*
X73542607Y-185999867D01*
X73538037Y-186001760D01*
X73533817Y-186004346D01*
X73339798Y-186123241D01*
X73339792Y-186123245D01*
X73335584Y-186125824D01*
X73155031Y-186280031D01*
X73000824Y-186460584D01*
X72998245Y-186464792D01*
X72998241Y-186464798D01*
X72898939Y-186626844D01*
X72876760Y-186663037D01*
X72874867Y-186667607D01*
X72874865Y-186667611D01*
X72805644Y-186834728D01*
X72785895Y-186882406D01*
X72784740Y-186887218D01*
X72734616Y-187096000D01*
X72730465Y-187113289D01*
X72711835Y-187350000D01*
X66981745Y-187350000D01*
X66930241Y-187313937D01*
X66856749Y-187262477D01*
X66851767Y-187260154D01*
X66851762Y-187260151D01*
X66654225Y-187168039D01*
X66654224Y-187168039D01*
X66649243Y-187165716D01*
X66643935Y-187164294D01*
X66643933Y-187164293D01*
X66433402Y-187107881D01*
X66433400Y-187107881D01*
X66428087Y-187106457D01*
X66200000Y-187086502D01*
X65971913Y-187106457D01*
X65966600Y-187107881D01*
X65966598Y-187107881D01*
X65756067Y-187164293D01*
X65756065Y-187164294D01*
X65750757Y-187165716D01*
X65745776Y-187168039D01*
X65745775Y-187168039D01*
X65548238Y-187260151D01*
X65548233Y-187260154D01*
X65543251Y-187262477D01*
X65469759Y-187313937D01*
X65360211Y-187390643D01*
X65360208Y-187390645D01*
X65355700Y-187393802D01*
X65193802Y-187555700D01*
X65190645Y-187560208D01*
X65190643Y-187560211D01*
X65148172Y-187620866D01*
X65062477Y-187743251D01*
X65060154Y-187748233D01*
X65060151Y-187748238D01*
X64968039Y-187945775D01*
X64965716Y-187950757D01*
X64964294Y-187956065D01*
X64964293Y-187956067D01*
X64942617Y-188036963D01*
X64906457Y-188171913D01*
X64886502Y-188400000D01*
X64906457Y-188628087D01*
X64923460Y-188691541D01*
X64921770Y-188762518D01*
X64890848Y-188813247D01*
X64774500Y-188929595D01*
X64712188Y-188963621D01*
X64685405Y-188966500D01*
X64287660Y-188966500D01*
X64219539Y-188946498D01*
X64173046Y-188892842D01*
X64162942Y-188822568D01*
X64165953Y-188807889D01*
X64193262Y-188705970D01*
X64193262Y-188705968D01*
X64194686Y-188700655D01*
X64213116Y-188490000D01*
X64194686Y-188279345D01*
X64177617Y-188215643D01*
X64141379Y-188080400D01*
X64141378Y-188080398D01*
X64139956Y-188075090D01*
X64116113Y-188023959D01*
X64052912Y-187888423D01*
X64052910Y-187888420D01*
X64050589Y-187883442D01*
X63929301Y-187710224D01*
X63779776Y-187560699D01*
X63606558Y-187439411D01*
X63601580Y-187437090D01*
X63601577Y-187437088D01*
X63419892Y-187352367D01*
X63419891Y-187352366D01*
X63414910Y-187350044D01*
X63409602Y-187348622D01*
X63409600Y-187348621D01*
X63215970Y-187296738D01*
X63215968Y-187296738D01*
X63210655Y-187295314D01*
X63000000Y-187276884D01*
X62994525Y-187277363D01*
X62794816Y-187294835D01*
X62794812Y-187294836D01*
X62789345Y-187295314D01*
X62784039Y-187296736D01*
X62779439Y-187297547D01*
X62708879Y-187289679D01*
X62668462Y-187262557D01*
X62483790Y-187077885D01*
X67467000Y-187077885D01*
X67471475Y-187093124D01*
X67472865Y-187094329D01*
X67480548Y-187096000D01*
X69764885Y-187096000D01*
X69780124Y-187091525D01*
X69781329Y-187090135D01*
X69783000Y-187082452D01*
X69783000Y-186848908D01*
X69782734Y-186843119D01*
X69769016Y-186693824D01*
X69766918Y-186682503D01*
X69712287Y-186488797D01*
X69708163Y-186478050D01*
X69619141Y-186297534D01*
X69613131Y-186287727D01*
X69492701Y-186126451D01*
X69485011Y-186117911D01*
X69337206Y-185981280D01*
X69328081Y-185974279D01*
X69157856Y-185866875D01*
X69147609Y-185861654D01*
X69029021Y-185814342D01*
X68973161Y-185770521D01*
X68949861Y-185703457D01*
X68966517Y-185634442D01*
X69017841Y-185585387D01*
X69043100Y-185575605D01*
X69193761Y-185535236D01*
X69204053Y-185531490D01*
X69401511Y-185439414D01*
X69411006Y-185433931D01*
X69463048Y-185397491D01*
X69471424Y-185387012D01*
X69464356Y-185373566D01*
X68762812Y-184672022D01*
X68748868Y-184664408D01*
X68747035Y-184664539D01*
X68740420Y-184668790D01*
X68034923Y-185374287D01*
X68028493Y-185386062D01*
X68037789Y-185398077D01*
X68088994Y-185433931D01*
X68098489Y-185439414D01*
X68295947Y-185531490D01*
X68306242Y-185535237D01*
X68312534Y-185536923D01*
X68373156Y-185573876D01*
X68404176Y-185637737D01*
X68395746Y-185708231D01*
X68350542Y-185762977D01*
X68323531Y-185776841D01*
X68129748Y-185848331D01*
X68119370Y-185853281D01*
X67946394Y-185956191D01*
X67937085Y-185962955D01*
X67785757Y-186095665D01*
X67777847Y-186104000D01*
X67653236Y-186262069D01*
X67646968Y-186271720D01*
X67553257Y-186449836D01*
X67548848Y-186460479D01*
X67489167Y-186652684D01*
X67486773Y-186663946D01*
X67467437Y-186827322D01*
X67467000Y-186834728D01*
X67467000Y-187077885D01*
X62483790Y-187077885D01*
X62213652Y-186807747D01*
X62206112Y-186799461D01*
X62202000Y-186792982D01*
X62152348Y-186746356D01*
X62149507Y-186743602D01*
X62133842Y-186727937D01*
X62099816Y-186665625D01*
X62104881Y-186594810D01*
X62147428Y-186537974D01*
X62211956Y-186513321D01*
X62232794Y-186511498D01*
X62305174Y-186505166D01*
X62305179Y-186505165D01*
X62310655Y-186504686D01*
X62315968Y-186503262D01*
X62315970Y-186503262D01*
X62509600Y-186451379D01*
X62509602Y-186451378D01*
X62514910Y-186449956D01*
X62557659Y-186430022D01*
X62701577Y-186362912D01*
X62701580Y-186362910D01*
X62706558Y-186360589D01*
X62758440Y-186324261D01*
X63650294Y-186324261D01*
X63659590Y-186336276D01*
X63689189Y-186357001D01*
X63698677Y-186362479D01*
X63880277Y-186447159D01*
X63890571Y-186450907D01*
X64084122Y-186502769D01*
X64094909Y-186504671D01*
X64294525Y-186522135D01*
X64305475Y-186522135D01*
X64505091Y-186504671D01*
X64515878Y-186502769D01*
X64709429Y-186450907D01*
X64719723Y-186447159D01*
X64901323Y-186362479D01*
X64910811Y-186357001D01*
X64941248Y-186335689D01*
X64949623Y-186325212D01*
X64942554Y-186311764D01*
X64312812Y-185682022D01*
X64298868Y-185674408D01*
X64297035Y-185674539D01*
X64290420Y-185678790D01*
X63656724Y-186312486D01*
X63650294Y-186324261D01*
X62758440Y-186324261D01*
X62879776Y-186239301D01*
X63029301Y-186089776D01*
X63102403Y-185985375D01*
X63157860Y-185941046D01*
X63228479Y-185933737D01*
X63284285Y-185959222D01*
X63284787Y-185959623D01*
X63298236Y-185952554D01*
X63927978Y-185322812D01*
X63935592Y-185308868D01*
X63935461Y-185307035D01*
X63931210Y-185300420D01*
X63297514Y-184666724D01*
X63285739Y-184660294D01*
X63282997Y-184662415D01*
X63216879Y-184688278D01*
X63147274Y-184674288D01*
X63102685Y-184635028D01*
X63029301Y-184530224D01*
X62879776Y-184380699D01*
X62757082Y-184294788D01*
X63650377Y-184294788D01*
X63657446Y-184308236D01*
X65302486Y-185953276D01*
X65314261Y-185959706D01*
X65326276Y-185950410D01*
X65347001Y-185920811D01*
X65352479Y-185911323D01*
X65437159Y-185729723D01*
X65440908Y-185719426D01*
X65486110Y-185550730D01*
X65523062Y-185490107D01*
X65586923Y-185459086D01*
X65661067Y-185469146D01*
X65789844Y-185529195D01*
X65800757Y-185534284D01*
X65806065Y-185535706D01*
X65806067Y-185535707D01*
X66016598Y-185592119D01*
X66016600Y-185592119D01*
X66021913Y-185593543D01*
X66250000Y-185613498D01*
X66478087Y-185593543D01*
X66483400Y-185592119D01*
X66483402Y-185592119D01*
X66693933Y-185535707D01*
X66693935Y-185535706D01*
X66699243Y-185534284D01*
X66705235Y-185531490D01*
X66901762Y-185439849D01*
X66901767Y-185439846D01*
X66906749Y-185437523D01*
X67034998Y-185347722D01*
X67089789Y-185309357D01*
X67089792Y-185309355D01*
X67094300Y-185306198D01*
X67256198Y-185144300D01*
X67262686Y-185135035D01*
X67353157Y-185005829D01*
X67387523Y-184956749D01*
X67389847Y-184951765D01*
X67391171Y-184949472D01*
X67442553Y-184900479D01*
X67512267Y-184887043D01*
X67578178Y-184913429D01*
X67609409Y-184949472D01*
X67616066Y-184961002D01*
X67652509Y-185013048D01*
X67662988Y-185021424D01*
X67676434Y-185014356D01*
X68377978Y-184312812D01*
X68384356Y-184301132D01*
X69114408Y-184301132D01*
X69114539Y-184302965D01*
X69118790Y-184309580D01*
X69824287Y-185015077D01*
X69836062Y-185021507D01*
X69848077Y-185012211D01*
X69883931Y-184961006D01*
X69889414Y-184951511D01*
X69981490Y-184754053D01*
X69985236Y-184743761D01*
X70041625Y-184533312D01*
X70043528Y-184522519D01*
X70062517Y-184305475D01*
X70062517Y-184294525D01*
X70043528Y-184077481D01*
X70041625Y-184066688D01*
X69985236Y-183856239D01*
X69981490Y-183845947D01*
X69889414Y-183648489D01*
X69883931Y-183638994D01*
X69847491Y-183586952D01*
X69837012Y-183578576D01*
X69823566Y-183585644D01*
X69122022Y-184287188D01*
X69114408Y-184301132D01*
X68384356Y-184301132D01*
X68385592Y-184298868D01*
X68385461Y-184297035D01*
X68381210Y-184290420D01*
X67675713Y-183584923D01*
X67663938Y-183578493D01*
X67651923Y-183587789D01*
X67616066Y-183638998D01*
X67609409Y-183650528D01*
X67558027Y-183699521D01*
X67488313Y-183712958D01*
X67422402Y-183686571D01*
X67391171Y-183650528D01*
X67389847Y-183648235D01*
X67387523Y-183643251D01*
X67302219Y-183521424D01*
X67259357Y-183460211D01*
X67259355Y-183460208D01*
X67256198Y-183455700D01*
X67094300Y-183293802D01*
X67089792Y-183290645D01*
X67089789Y-183290643D01*
X66978886Y-183212988D01*
X68028576Y-183212988D01*
X68035644Y-183226434D01*
X68737188Y-183927978D01*
X68751132Y-183935592D01*
X68752965Y-183935461D01*
X68759580Y-183931210D01*
X69465077Y-183225713D01*
X69471507Y-183213938D01*
X69462211Y-183201923D01*
X69411006Y-183166069D01*
X69401511Y-183160586D01*
X69204053Y-183068510D01*
X69193761Y-183064764D01*
X68983312Y-183008375D01*
X68972519Y-183006472D01*
X68755475Y-182987483D01*
X68744525Y-182987483D01*
X68527481Y-183006472D01*
X68516688Y-183008375D01*
X68306239Y-183064764D01*
X68295947Y-183068510D01*
X68098489Y-183160586D01*
X68088994Y-183166069D01*
X68036952Y-183202509D01*
X68028576Y-183212988D01*
X66978886Y-183212988D01*
X66963920Y-183202509D01*
X66906749Y-183162477D01*
X66901767Y-183160154D01*
X66901762Y-183160151D01*
X66704225Y-183068039D01*
X66704224Y-183068039D01*
X66699243Y-183065716D01*
X66693935Y-183064294D01*
X66693933Y-183064293D01*
X66483402Y-183007881D01*
X66483400Y-183007881D01*
X66478087Y-183006457D01*
X66250000Y-182986502D01*
X66021913Y-183006457D01*
X66016600Y-183007881D01*
X66016598Y-183007881D01*
X65806067Y-183064293D01*
X65806065Y-183064294D01*
X65800757Y-183065716D01*
X65795776Y-183068039D01*
X65795775Y-183068039D01*
X65598238Y-183160151D01*
X65598233Y-183160154D01*
X65593251Y-183162477D01*
X65536080Y-183202509D01*
X65410211Y-183290643D01*
X65410208Y-183290645D01*
X65405700Y-183293802D01*
X65243802Y-183455700D01*
X65240645Y-183460208D01*
X65240643Y-183460211D01*
X65202226Y-183515077D01*
X65112477Y-183643251D01*
X65110154Y-183648233D01*
X65110151Y-183648238D01*
X65036494Y-183806198D01*
X65015716Y-183850757D01*
X65014294Y-183856065D01*
X65014293Y-183856067D01*
X64966158Y-184035707D01*
X64956457Y-184071913D01*
X64955977Y-184077399D01*
X64955976Y-184077405D01*
X64954376Y-184095686D01*
X64928513Y-184161804D01*
X64871009Y-184203444D01*
X64800122Y-184207384D01*
X64775607Y-184198899D01*
X64719724Y-184172841D01*
X64709429Y-184169093D01*
X64515878Y-184117231D01*
X64505091Y-184115329D01*
X64305475Y-184097865D01*
X64294525Y-184097865D01*
X64094909Y-184115329D01*
X64084122Y-184117231D01*
X63890571Y-184169093D01*
X63880277Y-184172841D01*
X63698677Y-184257521D01*
X63689189Y-184262999D01*
X63658752Y-184284311D01*
X63650377Y-184294788D01*
X62757082Y-184294788D01*
X62706558Y-184259411D01*
X62701580Y-184257090D01*
X62701577Y-184257088D01*
X62519892Y-184172367D01*
X62519891Y-184172366D01*
X62514910Y-184170044D01*
X62509602Y-184168622D01*
X62509600Y-184168621D01*
X62315970Y-184116738D01*
X62315968Y-184116738D01*
X62310655Y-184115314D01*
X62100000Y-184096884D01*
X61889345Y-184115314D01*
X61884032Y-184116738D01*
X61884030Y-184116738D01*
X61690400Y-184168621D01*
X61690398Y-184168622D01*
X61685090Y-184170044D01*
X61680109Y-184172366D01*
X61680108Y-184172367D01*
X61498423Y-184257088D01*
X61498420Y-184257090D01*
X61493442Y-184259411D01*
X61320224Y-184380699D01*
X61170699Y-184530224D01*
X61129591Y-184588933D01*
X61053213Y-184698012D01*
X60997756Y-184742341D01*
X60927137Y-184749650D01*
X60863776Y-184717620D01*
X60846787Y-184698012D01*
X60770409Y-184588933D01*
X60729301Y-184530224D01*
X60579776Y-184380699D01*
X60406558Y-184259411D01*
X60401580Y-184257090D01*
X60401577Y-184257088D01*
X60219892Y-184172367D01*
X60219891Y-184172366D01*
X60214910Y-184170044D01*
X60209602Y-184168622D01*
X60209600Y-184168621D01*
X60015970Y-184116738D01*
X60015968Y-184116738D01*
X60010655Y-184115314D01*
X59800000Y-184096884D01*
X59589345Y-184115314D01*
X59584032Y-184116738D01*
X59584030Y-184116738D01*
X59390400Y-184168621D01*
X59390398Y-184168622D01*
X59385090Y-184170044D01*
X59380109Y-184172366D01*
X59380108Y-184172367D01*
X59198423Y-184257088D01*
X59198420Y-184257090D01*
X59193442Y-184259411D01*
X59020224Y-184380699D01*
X58870699Y-184530224D01*
X58749411Y-184703442D01*
X58747090Y-184708420D01*
X58747088Y-184708423D01*
X58662367Y-184890108D01*
X58660044Y-184895090D01*
X58658622Y-184900398D01*
X58658621Y-184900400D01*
X58614871Y-185063677D01*
X58605314Y-185099345D01*
X58586884Y-185310000D01*
X58605314Y-185520655D01*
X58606738Y-185525968D01*
X58606738Y-185525970D01*
X58658575Y-185719426D01*
X58660044Y-185724910D01*
X58662366Y-185729891D01*
X58662367Y-185729892D01*
X58746232Y-185909740D01*
X58749411Y-185916558D01*
X58794730Y-185981280D01*
X58797146Y-185984731D01*
X58819834Y-186052005D01*
X58802549Y-186120865D01*
X58750779Y-186169449D01*
X58680961Y-186182331D01*
X58615261Y-186155422D01*
X58604838Y-186146096D01*
X55086386Y-182627644D01*
X55052360Y-182565332D01*
X55057425Y-182494517D01*
X55103210Y-182435337D01*
X55153677Y-182400000D01*
X71836807Y-182400000D01*
X71855542Y-182614142D01*
X71856966Y-182619455D01*
X71856966Y-182619457D01*
X71906962Y-182806041D01*
X71911178Y-182821777D01*
X71913500Y-182826757D01*
X71913501Y-182826759D01*
X71997772Y-183007477D01*
X72002024Y-183016596D01*
X72125319Y-183192681D01*
X72277319Y-183344681D01*
X72453403Y-183467976D01*
X72458381Y-183470297D01*
X72458384Y-183470299D01*
X72643241Y-183556499D01*
X72648223Y-183558822D01*
X72653531Y-183560244D01*
X72653533Y-183560245D01*
X72850543Y-183613034D01*
X72850545Y-183613034D01*
X72855858Y-183614458D01*
X73070000Y-183633193D01*
X73284142Y-183614458D01*
X73289455Y-183613034D01*
X73289457Y-183613034D01*
X73486467Y-183560245D01*
X73486469Y-183560244D01*
X73491777Y-183558822D01*
X73496759Y-183556499D01*
X73681616Y-183470299D01*
X73681619Y-183470297D01*
X73686597Y-183467976D01*
X73862681Y-183344681D01*
X74014681Y-183192681D01*
X74137976Y-183016596D01*
X74142229Y-183007477D01*
X74225805Y-182828247D01*
X74272723Y-182774962D01*
X74341000Y-182755501D01*
X74408960Y-182776043D01*
X74454195Y-182828247D01*
X74537772Y-183007477D01*
X74542024Y-183016596D01*
X74665319Y-183192681D01*
X74817319Y-183344681D01*
X74993403Y-183467976D01*
X74998381Y-183470297D01*
X74998384Y-183470299D01*
X75183241Y-183556499D01*
X75188223Y-183558822D01*
X75193531Y-183560244D01*
X75193533Y-183560245D01*
X75390543Y-183613034D01*
X75390545Y-183613034D01*
X75395858Y-183614458D01*
X75610000Y-183633193D01*
X75824142Y-183614458D01*
X75829455Y-183613034D01*
X75829457Y-183613034D01*
X76026467Y-183560245D01*
X76026469Y-183560244D01*
X76031777Y-183558822D01*
X76036759Y-183556499D01*
X76221616Y-183470299D01*
X76221619Y-183470297D01*
X76226597Y-183467976D01*
X76402681Y-183344681D01*
X76554681Y-183192681D01*
X76677976Y-183016596D01*
X76682229Y-183007477D01*
X76765805Y-182828247D01*
X76812723Y-182774962D01*
X76881000Y-182755501D01*
X76948960Y-182776043D01*
X76994195Y-182828247D01*
X77077772Y-183007477D01*
X77082024Y-183016596D01*
X77205319Y-183192681D01*
X77357319Y-183344681D01*
X77533403Y-183467976D01*
X77538381Y-183470297D01*
X77538384Y-183470299D01*
X77723241Y-183556499D01*
X77728223Y-183558822D01*
X77733531Y-183560244D01*
X77733533Y-183560245D01*
X77930543Y-183613034D01*
X77930545Y-183613034D01*
X77935858Y-183614458D01*
X78150000Y-183633193D01*
X78364142Y-183614458D01*
X78369455Y-183613034D01*
X78369457Y-183613034D01*
X78566467Y-183560245D01*
X78566469Y-183560244D01*
X78571777Y-183558822D01*
X78576759Y-183556499D01*
X78761616Y-183470299D01*
X78761619Y-183470297D01*
X78766597Y-183467976D01*
X78942681Y-183344681D01*
X79094681Y-183192681D01*
X79217976Y-183016596D01*
X79222229Y-183007477D01*
X79306499Y-182826759D01*
X79306500Y-182826757D01*
X79308822Y-182821777D01*
X79313039Y-182806041D01*
X79363034Y-182619457D01*
X79363034Y-182619455D01*
X79364458Y-182614142D01*
X79383193Y-182400000D01*
X79364458Y-182185858D01*
X79354445Y-182148489D01*
X79310245Y-181983533D01*
X79310244Y-181983531D01*
X79308822Y-181978223D01*
X79261386Y-181876497D01*
X79220299Y-181788385D01*
X79220297Y-181788382D01*
X79217976Y-181783404D01*
X79094681Y-181607319D01*
X78942681Y-181455319D01*
X78766597Y-181332024D01*
X78761619Y-181329703D01*
X78761616Y-181329701D01*
X78576759Y-181243501D01*
X78576758Y-181243500D01*
X78571777Y-181241178D01*
X78566469Y-181239756D01*
X78566467Y-181239755D01*
X78369457Y-181186966D01*
X78369455Y-181186966D01*
X78364142Y-181185542D01*
X78150000Y-181166807D01*
X77935858Y-181185542D01*
X77930545Y-181186966D01*
X77930543Y-181186966D01*
X77733533Y-181239755D01*
X77733531Y-181239756D01*
X77728223Y-181241178D01*
X77723243Y-181243500D01*
X77723241Y-181243501D01*
X77538385Y-181329701D01*
X77538382Y-181329703D01*
X77533404Y-181332024D01*
X77357319Y-181455319D01*
X77205319Y-181607319D01*
X77082024Y-181783404D01*
X77079703Y-181788382D01*
X77079701Y-181788385D01*
X76994195Y-181971753D01*
X76947277Y-182025038D01*
X76879000Y-182044499D01*
X76811040Y-182023957D01*
X76765805Y-181971753D01*
X76680299Y-181788385D01*
X76680297Y-181788382D01*
X76677976Y-181783404D01*
X76554681Y-181607319D01*
X76402681Y-181455319D01*
X76226597Y-181332024D01*
X76221619Y-181329703D01*
X76221616Y-181329701D01*
X76036759Y-181243501D01*
X76036758Y-181243500D01*
X76031777Y-181241178D01*
X76026469Y-181239756D01*
X76026467Y-181239755D01*
X75829457Y-181186966D01*
X75829455Y-181186966D01*
X75824142Y-181185542D01*
X75610000Y-181166807D01*
X75395858Y-181185542D01*
X75390545Y-181186966D01*
X75390543Y-181186966D01*
X75193533Y-181239755D01*
X75193531Y-181239756D01*
X75188223Y-181241178D01*
X75183243Y-181243500D01*
X75183241Y-181243501D01*
X74998385Y-181329701D01*
X74998382Y-181329703D01*
X74993404Y-181332024D01*
X74817319Y-181455319D01*
X74665319Y-181607319D01*
X74542024Y-181783404D01*
X74539703Y-181788382D01*
X74539701Y-181788385D01*
X74454195Y-181971753D01*
X74407277Y-182025038D01*
X74339000Y-182044499D01*
X74271040Y-182023957D01*
X74225805Y-181971753D01*
X74140299Y-181788385D01*
X74140297Y-181788382D01*
X74137976Y-181783404D01*
X74014681Y-181607319D01*
X73862681Y-181455319D01*
X73686597Y-181332024D01*
X73681619Y-181329703D01*
X73681616Y-181329701D01*
X73496759Y-181243501D01*
X73496758Y-181243500D01*
X73491777Y-181241178D01*
X73486469Y-181239756D01*
X73486467Y-181239755D01*
X73289457Y-181186966D01*
X73289455Y-181186966D01*
X73284142Y-181185542D01*
X73070000Y-181166807D01*
X72855858Y-181185542D01*
X72850545Y-181186966D01*
X72850543Y-181186966D01*
X72653533Y-181239755D01*
X72653531Y-181239756D01*
X72648223Y-181241178D01*
X72643243Y-181243500D01*
X72643241Y-181243501D01*
X72458385Y-181329701D01*
X72458382Y-181329703D01*
X72453404Y-181332024D01*
X72277319Y-181455319D01*
X72125319Y-181607319D01*
X72002024Y-181783404D01*
X71999703Y-181788382D01*
X71999701Y-181788385D01*
X71958614Y-181876497D01*
X71911178Y-181978223D01*
X71909756Y-181983531D01*
X71909755Y-181983533D01*
X71865555Y-182148489D01*
X71855542Y-182185858D01*
X71836807Y-182400000D01*
X55153677Y-182400000D01*
X55232681Y-182344681D01*
X55384681Y-182192681D01*
X55507976Y-182016596D01*
X55536373Y-181955700D01*
X55596499Y-181826759D01*
X55596500Y-181826757D01*
X55598822Y-181821777D01*
X55607165Y-181790643D01*
X55653034Y-181619457D01*
X55653034Y-181619455D01*
X55654458Y-181614142D01*
X55673193Y-181400000D01*
X55654458Y-181185858D01*
X55645787Y-181153497D01*
X55600245Y-180983533D01*
X55600244Y-180983531D01*
X55598822Y-180978223D01*
X55594946Y-180969910D01*
X55510299Y-180788385D01*
X55510297Y-180788382D01*
X55507976Y-180783404D01*
X55384681Y-180607319D01*
X55232681Y-180455319D01*
X55153677Y-180400000D01*
X65136502Y-180400000D01*
X65156457Y-180628087D01*
X65157881Y-180633400D01*
X65157881Y-180633402D01*
X65213724Y-180841807D01*
X65215716Y-180849243D01*
X65218039Y-180854224D01*
X65218039Y-180854225D01*
X65310151Y-181051762D01*
X65310154Y-181051767D01*
X65312477Y-181056749D01*
X65331974Y-181084593D01*
X65440620Y-181239755D01*
X65443802Y-181244300D01*
X65605700Y-181406198D01*
X65610208Y-181409355D01*
X65610211Y-181409357D01*
X65621198Y-181417050D01*
X65793251Y-181537523D01*
X65798233Y-181539846D01*
X65798238Y-181539849D01*
X65945810Y-181608662D01*
X66000757Y-181634284D01*
X66006065Y-181635706D01*
X66006067Y-181635707D01*
X66216598Y-181692119D01*
X66216600Y-181692119D01*
X66221913Y-181693543D01*
X66450000Y-181713498D01*
X66678087Y-181693543D01*
X66683400Y-181692119D01*
X66683402Y-181692119D01*
X66893933Y-181635707D01*
X66893935Y-181635706D01*
X66899243Y-181634284D01*
X66954190Y-181608662D01*
X67101762Y-181539849D01*
X67101767Y-181539846D01*
X67106749Y-181537523D01*
X67180243Y-181486062D01*
X68228493Y-181486062D01*
X68237789Y-181498077D01*
X68288994Y-181533931D01*
X68298489Y-181539414D01*
X68495947Y-181631490D01*
X68506239Y-181635236D01*
X68716688Y-181691625D01*
X68727481Y-181693528D01*
X68944525Y-181712517D01*
X68955475Y-181712517D01*
X69172519Y-181693528D01*
X69183312Y-181691625D01*
X69393761Y-181635236D01*
X69404053Y-181631490D01*
X69601511Y-181539414D01*
X69611006Y-181533931D01*
X69663048Y-181497491D01*
X69671424Y-181487012D01*
X69664356Y-181473566D01*
X68962812Y-180772022D01*
X68948868Y-180764408D01*
X68947035Y-180764539D01*
X68940420Y-180768790D01*
X68234923Y-181474287D01*
X68228493Y-181486062D01*
X67180243Y-181486062D01*
X67278802Y-181417050D01*
X67289789Y-181409357D01*
X67289792Y-181409355D01*
X67294300Y-181406198D01*
X67456198Y-181244300D01*
X67459381Y-181239755D01*
X67584369Y-181061253D01*
X67587523Y-181056749D01*
X67589847Y-181051765D01*
X67591171Y-181049472D01*
X67642553Y-181000479D01*
X67712267Y-180987043D01*
X67778178Y-181013429D01*
X67809409Y-181049472D01*
X67816066Y-181061002D01*
X67852509Y-181113048D01*
X67862988Y-181121424D01*
X67876434Y-181114356D01*
X68577978Y-180412812D01*
X68584356Y-180401132D01*
X69314408Y-180401132D01*
X69314539Y-180402965D01*
X69318790Y-180409580D01*
X70024287Y-181115077D01*
X70036062Y-181121507D01*
X70048077Y-181112211D01*
X70083931Y-181061006D01*
X70089414Y-181051511D01*
X70181490Y-180854053D01*
X70185236Y-180843761D01*
X70241625Y-180633312D01*
X70243528Y-180622519D01*
X70262517Y-180405475D01*
X70262517Y-180394525D01*
X70243528Y-180177481D01*
X70241625Y-180166688D01*
X70185236Y-179956239D01*
X70181490Y-179945947D01*
X70089414Y-179748489D01*
X70083931Y-179738994D01*
X70047491Y-179686952D01*
X70037012Y-179678576D01*
X70023566Y-179685644D01*
X69322022Y-180387188D01*
X69314408Y-180401132D01*
X68584356Y-180401132D01*
X68585592Y-180398868D01*
X68585461Y-180397035D01*
X68581210Y-180390420D01*
X67875713Y-179684923D01*
X67863938Y-179678493D01*
X67851923Y-179687789D01*
X67816066Y-179738998D01*
X67809409Y-179750528D01*
X67758027Y-179799521D01*
X67688313Y-179812958D01*
X67622402Y-179786571D01*
X67591171Y-179750528D01*
X67589847Y-179748235D01*
X67587523Y-179743251D01*
X67496066Y-179612637D01*
X67459357Y-179560211D01*
X67459355Y-179560208D01*
X67456198Y-179555700D01*
X67294300Y-179393802D01*
X67289792Y-179390645D01*
X67289789Y-179390643D01*
X67178886Y-179312988D01*
X68228576Y-179312988D01*
X68235644Y-179326434D01*
X68937188Y-180027978D01*
X68951132Y-180035592D01*
X68952965Y-180035461D01*
X68959580Y-180031210D01*
X69665077Y-179325713D01*
X69671507Y-179313938D01*
X69662211Y-179301923D01*
X69611006Y-179266069D01*
X69601511Y-179260586D01*
X69404053Y-179168510D01*
X69393761Y-179164764D01*
X69183312Y-179108375D01*
X69172519Y-179106472D01*
X68955475Y-179087483D01*
X68944525Y-179087483D01*
X68727481Y-179106472D01*
X68716688Y-179108375D01*
X68506239Y-179164764D01*
X68495947Y-179168510D01*
X68298489Y-179260586D01*
X68288994Y-179266069D01*
X68236952Y-179302509D01*
X68228576Y-179312988D01*
X67178886Y-179312988D01*
X67163920Y-179302509D01*
X67106749Y-179262477D01*
X67101767Y-179260154D01*
X67101762Y-179260151D01*
X66904225Y-179168039D01*
X66904224Y-179168039D01*
X66899243Y-179165716D01*
X66893935Y-179164294D01*
X66893933Y-179164293D01*
X66683402Y-179107881D01*
X66683400Y-179107881D01*
X66678087Y-179106457D01*
X66450000Y-179086502D01*
X66221913Y-179106457D01*
X66216600Y-179107881D01*
X66216598Y-179107881D01*
X66006067Y-179164293D01*
X66006065Y-179164294D01*
X66000757Y-179165716D01*
X65995776Y-179168039D01*
X65995775Y-179168039D01*
X65798238Y-179260151D01*
X65798233Y-179260154D01*
X65793251Y-179262477D01*
X65736080Y-179302509D01*
X65610211Y-179390643D01*
X65610208Y-179390645D01*
X65605700Y-179393802D01*
X65443802Y-179555700D01*
X65440645Y-179560208D01*
X65440643Y-179560211D01*
X65403934Y-179612637D01*
X65312477Y-179743251D01*
X65310154Y-179748233D01*
X65310151Y-179748238D01*
X65233230Y-179913197D01*
X65215716Y-179950757D01*
X65214294Y-179956065D01*
X65214293Y-179956067D01*
X65193019Y-180035461D01*
X65156457Y-180171913D01*
X65136502Y-180400000D01*
X55153677Y-180400000D01*
X55056597Y-180332024D01*
X55051619Y-180329703D01*
X55051616Y-180329701D01*
X54866759Y-180243501D01*
X54866758Y-180243500D01*
X54861777Y-180241178D01*
X54856469Y-180239756D01*
X54856467Y-180239755D01*
X54659457Y-180186966D01*
X54659455Y-180186966D01*
X54654142Y-180185542D01*
X54440000Y-180166807D01*
X54225858Y-180185542D01*
X54220545Y-180186966D01*
X54220543Y-180186966D01*
X54023533Y-180239755D01*
X54023531Y-180239756D01*
X54018223Y-180241178D01*
X54013243Y-180243500D01*
X54013241Y-180243501D01*
X53828385Y-180329701D01*
X53828382Y-180329703D01*
X53823404Y-180332024D01*
X53647319Y-180455319D01*
X53586111Y-180516527D01*
X53523799Y-180550553D01*
X53452984Y-180545488D01*
X53407921Y-180516527D01*
X52854630Y-179963236D01*
X52847090Y-179954950D01*
X52842978Y-179948471D01*
X52793326Y-179901845D01*
X52790485Y-179899091D01*
X52770748Y-179879354D01*
X52767551Y-179876874D01*
X52758529Y-179869169D01*
X52732078Y-179844330D01*
X52726299Y-179838903D01*
X52719353Y-179835084D01*
X52719350Y-179835082D01*
X52708544Y-179829141D01*
X52692025Y-179818290D01*
X52691561Y-179817930D01*
X52676019Y-179805875D01*
X52668750Y-179802730D01*
X52668746Y-179802727D01*
X52635441Y-179788315D01*
X52624791Y-179783098D01*
X52586038Y-179761794D01*
X52566415Y-179756756D01*
X52547712Y-179750352D01*
X52536398Y-179745456D01*
X52536397Y-179745456D01*
X52529123Y-179742308D01*
X52521300Y-179741069D01*
X52521290Y-179741066D01*
X52485454Y-179735390D01*
X52473834Y-179732984D01*
X52438689Y-179723961D01*
X52438688Y-179723961D01*
X52431008Y-179721989D01*
X52410754Y-179721989D01*
X52391043Y-179720438D01*
X52378864Y-179718509D01*
X52371035Y-179717269D01*
X52363143Y-179718015D01*
X52327017Y-179721430D01*
X52315159Y-179721989D01*
X44445084Y-179721989D01*
X44376963Y-179701987D01*
X44355989Y-179685084D01*
X42360905Y-177690000D01*
X58586884Y-177690000D01*
X58605314Y-177900655D01*
X58606738Y-177905968D01*
X58606738Y-177905970D01*
X58648734Y-178062699D01*
X58660044Y-178104910D01*
X58662366Y-178109891D01*
X58662367Y-178109892D01*
X58742800Y-178282380D01*
X58749411Y-178296558D01*
X58870699Y-178469776D01*
X59020224Y-178619301D01*
X59193442Y-178740589D01*
X59198420Y-178742910D01*
X59198423Y-178742912D01*
X59380108Y-178827633D01*
X59385090Y-178829956D01*
X59390398Y-178831378D01*
X59390400Y-178831379D01*
X59584030Y-178883262D01*
X59584032Y-178883262D01*
X59589345Y-178884686D01*
X59800000Y-178903116D01*
X60010655Y-178884686D01*
X60015968Y-178883262D01*
X60015970Y-178883262D01*
X60209600Y-178831379D01*
X60209602Y-178831378D01*
X60214910Y-178829956D01*
X60219892Y-178827633D01*
X60401577Y-178742912D01*
X60401580Y-178742910D01*
X60406558Y-178740589D01*
X60579776Y-178619301D01*
X60729301Y-178469776D01*
X60846787Y-178301988D01*
X60902244Y-178257659D01*
X60972863Y-178250350D01*
X61036224Y-178282380D01*
X61053213Y-178301988D01*
X61170699Y-178469776D01*
X61320224Y-178619301D01*
X61493442Y-178740589D01*
X61498420Y-178742910D01*
X61498423Y-178742912D01*
X61680108Y-178827633D01*
X61685090Y-178829956D01*
X61690398Y-178831378D01*
X61690400Y-178831379D01*
X61884030Y-178883262D01*
X61884032Y-178883262D01*
X61889345Y-178884686D01*
X62100000Y-178903116D01*
X62310655Y-178884686D01*
X62315968Y-178883262D01*
X62315970Y-178883262D01*
X62509600Y-178831379D01*
X62509602Y-178831378D01*
X62514910Y-178829956D01*
X62519892Y-178827633D01*
X62701577Y-178742912D01*
X62701580Y-178742910D01*
X62706558Y-178740589D01*
X62879776Y-178619301D01*
X63029301Y-178469776D01*
X63096788Y-178373394D01*
X63152244Y-178329067D01*
X63222863Y-178321758D01*
X63286224Y-178353789D01*
X63303211Y-178373393D01*
X63370699Y-178469776D01*
X63520224Y-178619301D01*
X63693442Y-178740589D01*
X63698420Y-178742910D01*
X63698423Y-178742912D01*
X63880108Y-178827633D01*
X63885090Y-178829956D01*
X63890398Y-178831378D01*
X63890400Y-178831379D01*
X64084030Y-178883262D01*
X64084032Y-178883262D01*
X64089345Y-178884686D01*
X64300000Y-178903116D01*
X64510655Y-178884686D01*
X64515968Y-178883262D01*
X64515970Y-178883262D01*
X64709600Y-178831379D01*
X64709602Y-178831378D01*
X64714910Y-178829956D01*
X64719892Y-178827633D01*
X64901577Y-178742912D01*
X64901580Y-178742910D01*
X64906558Y-178740589D01*
X65079776Y-178619301D01*
X65229301Y-178469776D01*
X65278158Y-178400000D01*
X70276884Y-178400000D01*
X70295314Y-178610655D01*
X70296738Y-178615968D01*
X70296738Y-178615970D01*
X70334382Y-178756457D01*
X70350044Y-178814910D01*
X70352366Y-178819891D01*
X70352367Y-178819892D01*
X70411869Y-178947493D01*
X70439411Y-179006558D01*
X70560699Y-179179776D01*
X70710224Y-179329301D01*
X70883442Y-179450589D01*
X70888420Y-179452910D01*
X70888423Y-179452912D01*
X71008561Y-179508933D01*
X71075090Y-179539956D01*
X71080398Y-179541378D01*
X71080400Y-179541379D01*
X71274030Y-179593262D01*
X71274032Y-179593262D01*
X71279345Y-179594686D01*
X71490000Y-179613116D01*
X71700655Y-179594686D01*
X71705968Y-179593262D01*
X71705970Y-179593262D01*
X71899600Y-179541379D01*
X71899602Y-179541378D01*
X71904910Y-179539956D01*
X71971439Y-179508933D01*
X72091577Y-179452912D01*
X72091580Y-179452910D01*
X72096558Y-179450589D01*
X72269776Y-179329301D01*
X72419301Y-179179776D01*
X72540589Y-179006558D01*
X72568132Y-178947493D01*
X72627633Y-178819892D01*
X72627634Y-178819891D01*
X72629956Y-178814910D01*
X72645619Y-178756457D01*
X72683262Y-178615970D01*
X72683262Y-178615968D01*
X72684686Y-178610655D01*
X72703116Y-178400000D01*
X77896884Y-178400000D01*
X77915314Y-178610655D01*
X77916738Y-178615968D01*
X77916738Y-178615970D01*
X77954382Y-178756457D01*
X77970044Y-178814910D01*
X77972366Y-178819891D01*
X77972367Y-178819892D01*
X78031869Y-178947493D01*
X78059411Y-179006558D01*
X78180699Y-179179776D01*
X78330224Y-179329301D01*
X78503442Y-179450589D01*
X78508420Y-179452910D01*
X78508423Y-179452912D01*
X78628561Y-179508933D01*
X78695090Y-179539956D01*
X78700398Y-179541378D01*
X78700400Y-179541379D01*
X78894030Y-179593262D01*
X78894032Y-179593262D01*
X78899345Y-179594686D01*
X79110000Y-179613116D01*
X79320655Y-179594686D01*
X79325968Y-179593262D01*
X79325970Y-179593262D01*
X79519600Y-179541379D01*
X79519602Y-179541378D01*
X79524910Y-179539956D01*
X79591439Y-179508933D01*
X79711577Y-179452912D01*
X79711580Y-179452910D01*
X79716558Y-179450589D01*
X79889776Y-179329301D01*
X80039301Y-179179776D01*
X80160589Y-179006558D01*
X80188132Y-178947493D01*
X80247633Y-178819892D01*
X80247634Y-178819891D01*
X80249956Y-178814910D01*
X80265619Y-178756457D01*
X80303262Y-178615970D01*
X80303262Y-178615968D01*
X80304686Y-178610655D01*
X80323116Y-178400000D01*
X80304686Y-178189345D01*
X80288408Y-178128593D01*
X80251379Y-177990400D01*
X80251378Y-177990398D01*
X80249956Y-177985090D01*
X80245199Y-177974889D01*
X80162912Y-177798423D01*
X80162910Y-177798420D01*
X80160589Y-177793442D01*
X80039301Y-177620224D01*
X79889776Y-177470699D01*
X79716558Y-177349411D01*
X79711580Y-177347090D01*
X79711577Y-177347088D01*
X79529892Y-177262367D01*
X79529891Y-177262366D01*
X79524910Y-177260044D01*
X79519602Y-177258622D01*
X79519600Y-177258621D01*
X79325970Y-177206738D01*
X79325968Y-177206738D01*
X79320655Y-177205314D01*
X79110000Y-177186884D01*
X78899345Y-177205314D01*
X78894032Y-177206738D01*
X78894030Y-177206738D01*
X78700400Y-177258621D01*
X78700398Y-177258622D01*
X78695090Y-177260044D01*
X78690109Y-177262366D01*
X78690108Y-177262367D01*
X78508423Y-177347088D01*
X78508420Y-177347090D01*
X78503442Y-177349411D01*
X78330224Y-177470699D01*
X78180699Y-177620224D01*
X78059411Y-177793442D01*
X78057090Y-177798420D01*
X78057088Y-177798423D01*
X77974801Y-177974889D01*
X77970044Y-177985090D01*
X77968622Y-177990398D01*
X77968621Y-177990400D01*
X77931592Y-178128593D01*
X77915314Y-178189345D01*
X77896884Y-178400000D01*
X72703116Y-178400000D01*
X72684686Y-178189345D01*
X72668408Y-178128593D01*
X72631379Y-177990400D01*
X72631378Y-177990398D01*
X72629956Y-177985090D01*
X72625199Y-177974889D01*
X72542912Y-177798423D01*
X72542910Y-177798420D01*
X72540589Y-177793442D01*
X72419301Y-177620224D01*
X72269776Y-177470699D01*
X72096558Y-177349411D01*
X72091580Y-177347090D01*
X72091577Y-177347088D01*
X71909892Y-177262367D01*
X71909891Y-177262366D01*
X71904910Y-177260044D01*
X71899602Y-177258622D01*
X71899600Y-177258621D01*
X71705970Y-177206738D01*
X71705968Y-177206738D01*
X71700655Y-177205314D01*
X71490000Y-177186884D01*
X71279345Y-177205314D01*
X71274032Y-177206738D01*
X71274030Y-177206738D01*
X71080400Y-177258621D01*
X71080398Y-177258622D01*
X71075090Y-177260044D01*
X71070109Y-177262366D01*
X71070108Y-177262367D01*
X70888423Y-177347088D01*
X70888420Y-177347090D01*
X70883442Y-177349411D01*
X70710224Y-177470699D01*
X70560699Y-177620224D01*
X70439411Y-177793442D01*
X70437090Y-177798420D01*
X70437088Y-177798423D01*
X70354801Y-177974889D01*
X70350044Y-177985090D01*
X70348622Y-177990398D01*
X70348621Y-177990400D01*
X70311592Y-178128593D01*
X70295314Y-178189345D01*
X70276884Y-178400000D01*
X65278158Y-178400000D01*
X65350589Y-178296558D01*
X65357201Y-178282380D01*
X65437633Y-178109892D01*
X65437634Y-178109891D01*
X65439956Y-178104910D01*
X65451267Y-178062699D01*
X65493262Y-177905970D01*
X65493262Y-177905968D01*
X65494686Y-177900655D01*
X65513116Y-177690000D01*
X65494686Y-177479345D01*
X65439956Y-177275090D01*
X65432940Y-177260044D01*
X65352912Y-177088423D01*
X65352910Y-177088420D01*
X65350589Y-177083442D01*
X65229301Y-176910224D01*
X65079776Y-176760699D01*
X65063342Y-176749192D01*
X65019014Y-176693735D01*
X65011706Y-176623116D01*
X65043737Y-176559756D01*
X65104939Y-176523771D01*
X65124633Y-176520459D01*
X65305091Y-176504671D01*
X65315878Y-176502769D01*
X65509429Y-176450907D01*
X65519723Y-176447159D01*
X65701323Y-176362479D01*
X65710811Y-176357001D01*
X65741248Y-176335689D01*
X65749623Y-176325212D01*
X65742554Y-176311764D01*
X65112812Y-175682022D01*
X65098868Y-175674408D01*
X65097035Y-175674539D01*
X65090420Y-175678790D01*
X64456724Y-176312486D01*
X64449109Y-176326431D01*
X64450335Y-176343571D01*
X64435243Y-176412945D01*
X64385041Y-176463147D01*
X64313677Y-176478080D01*
X64305479Y-176477363D01*
X64305475Y-176477363D01*
X64300000Y-176476884D01*
X64089345Y-176495314D01*
X64084032Y-176496738D01*
X64084030Y-176496738D01*
X63890400Y-176548621D01*
X63890398Y-176548622D01*
X63885090Y-176550044D01*
X63880109Y-176552366D01*
X63880108Y-176552367D01*
X63698423Y-176637088D01*
X63698420Y-176637090D01*
X63693442Y-176639411D01*
X63520224Y-176760699D01*
X63370699Y-176910224D01*
X63303213Y-177006605D01*
X63247756Y-177050933D01*
X63177137Y-177058242D01*
X63113776Y-177026211D01*
X63096787Y-177006605D01*
X63029301Y-176910224D01*
X62879776Y-176760699D01*
X62706558Y-176639411D01*
X62701580Y-176637090D01*
X62701577Y-176637088D01*
X62519892Y-176552367D01*
X62519891Y-176552366D01*
X62514910Y-176550044D01*
X62509602Y-176548622D01*
X62509600Y-176548621D01*
X62315970Y-176496738D01*
X62315968Y-176496738D01*
X62310655Y-176495314D01*
X62100000Y-176476884D01*
X61889345Y-176495314D01*
X61884032Y-176496738D01*
X61884030Y-176496738D01*
X61690400Y-176548621D01*
X61690398Y-176548622D01*
X61685090Y-176550044D01*
X61680109Y-176552366D01*
X61680108Y-176552367D01*
X61498423Y-176637088D01*
X61498420Y-176637090D01*
X61493442Y-176639411D01*
X61320224Y-176760699D01*
X61170699Y-176910224D01*
X61167540Y-176914736D01*
X61053213Y-177078012D01*
X60997756Y-177122341D01*
X60927137Y-177129650D01*
X60863776Y-177097620D01*
X60846787Y-177078012D01*
X60732460Y-176914736D01*
X60729301Y-176910224D01*
X60579776Y-176760699D01*
X60406558Y-176639411D01*
X60401580Y-176637090D01*
X60401577Y-176637088D01*
X60219892Y-176552367D01*
X60219891Y-176552366D01*
X60214910Y-176550044D01*
X60209602Y-176548622D01*
X60209600Y-176548621D01*
X60015970Y-176496738D01*
X60015968Y-176496738D01*
X60010655Y-176495314D01*
X59800000Y-176476884D01*
X59589345Y-176495314D01*
X59584032Y-176496738D01*
X59584030Y-176496738D01*
X59390400Y-176548621D01*
X59390398Y-176548622D01*
X59385090Y-176550044D01*
X59380109Y-176552366D01*
X59380108Y-176552367D01*
X59198423Y-176637088D01*
X59198420Y-176637090D01*
X59193442Y-176639411D01*
X59020224Y-176760699D01*
X58870699Y-176910224D01*
X58749411Y-177083442D01*
X58747090Y-177088420D01*
X58747088Y-177088423D01*
X58667060Y-177260044D01*
X58660044Y-177275090D01*
X58605314Y-177479345D01*
X58586884Y-177690000D01*
X42360905Y-177690000D01*
X41609152Y-176938247D01*
X41575126Y-176875935D01*
X41576540Y-176816541D01*
X41577508Y-176812928D01*
X41593543Y-176753087D01*
X41613498Y-176525000D01*
X41593543Y-176296913D01*
X41573285Y-176221309D01*
X41535707Y-176081067D01*
X41535706Y-176081065D01*
X41534284Y-176075757D01*
X41480169Y-175959706D01*
X41439849Y-175873238D01*
X41439846Y-175873233D01*
X41437523Y-175868251D01*
X41355487Y-175751092D01*
X44417000Y-175751092D01*
X44417266Y-175756881D01*
X44430984Y-175906176D01*
X44433082Y-175917497D01*
X44487713Y-176111203D01*
X44491837Y-176121950D01*
X44580859Y-176302466D01*
X44586869Y-176312273D01*
X44707299Y-176473549D01*
X44714989Y-176482089D01*
X44862794Y-176618720D01*
X44871919Y-176625721D01*
X45042144Y-176733125D01*
X45052391Y-176738346D01*
X45239332Y-176812928D01*
X45250369Y-176816197D01*
X45303230Y-176826712D01*
X45316106Y-176825560D01*
X45320067Y-176813294D01*
X45829000Y-176813294D01*
X45832806Y-176826256D01*
X45847722Y-176828192D01*
X45870300Y-176824313D01*
X45881417Y-176821334D01*
X46070252Y-176751669D01*
X46080630Y-176746719D01*
X46253606Y-176643809D01*
X46262915Y-176637045D01*
X46414243Y-176504335D01*
X46422153Y-176496000D01*
X46546764Y-176337931D01*
X46553032Y-176328280D01*
X46646743Y-176150164D01*
X46651152Y-176139521D01*
X46710833Y-175947316D01*
X46713227Y-175936054D01*
X46732563Y-175772678D01*
X46733000Y-175765272D01*
X46733000Y-175522115D01*
X46728525Y-175506876D01*
X46727135Y-175505671D01*
X46719452Y-175504000D01*
X45847115Y-175504000D01*
X45831876Y-175508475D01*
X45830671Y-175509865D01*
X45829000Y-175517548D01*
X45829000Y-176813294D01*
X45320067Y-176813294D01*
X45321000Y-176810404D01*
X45321000Y-175522115D01*
X45316525Y-175506876D01*
X45315135Y-175505671D01*
X45307452Y-175504000D01*
X44435115Y-175504000D01*
X44419876Y-175508475D01*
X44418671Y-175509865D01*
X44417000Y-175517548D01*
X44417000Y-175751092D01*
X41355487Y-175751092D01*
X41309357Y-175685211D01*
X41309355Y-175685208D01*
X41306198Y-175680700D01*
X41144300Y-175518802D01*
X41139792Y-175515645D01*
X41139789Y-175515643D01*
X41061611Y-175460902D01*
X40956749Y-175387477D01*
X40951767Y-175385154D01*
X40951762Y-175385151D01*
X40917543Y-175369195D01*
X40864258Y-175322278D01*
X40844797Y-175254001D01*
X40846006Y-175250000D01*
X49661835Y-175250000D01*
X49680465Y-175486711D01*
X49681619Y-175491518D01*
X49681620Y-175491524D01*
X49689105Y-175522699D01*
X49735895Y-175717594D01*
X49737788Y-175722165D01*
X49737789Y-175722167D01*
X49820070Y-175920811D01*
X49826760Y-175936963D01*
X49829346Y-175941183D01*
X49948241Y-176135202D01*
X49948245Y-176135208D01*
X49950824Y-176139416D01*
X50105031Y-176319969D01*
X50285584Y-176474176D01*
X50289792Y-176476755D01*
X50289798Y-176476759D01*
X50413179Y-176552367D01*
X50488037Y-176598240D01*
X50492607Y-176600133D01*
X50492611Y-176600135D01*
X50702833Y-176687211D01*
X50707406Y-176689105D01*
X50787609Y-176708360D01*
X50933476Y-176743380D01*
X50933482Y-176743381D01*
X50938289Y-176744535D01*
X51175000Y-176763165D01*
X51411711Y-176744535D01*
X51416518Y-176743381D01*
X51416524Y-176743380D01*
X51562391Y-176708360D01*
X51642594Y-176689105D01*
X51647167Y-176687211D01*
X51857389Y-176600135D01*
X51857393Y-176600133D01*
X51861963Y-176598240D01*
X51936821Y-176552367D01*
X52060202Y-176476759D01*
X52060208Y-176476755D01*
X52064416Y-176474176D01*
X52244969Y-176319969D01*
X52399176Y-176139416D01*
X52401755Y-176135208D01*
X52401759Y-176135202D01*
X52520654Y-175941183D01*
X52523240Y-175936963D01*
X52529931Y-175920811D01*
X52600230Y-175751092D01*
X55617000Y-175751092D01*
X55617266Y-175756881D01*
X55630984Y-175906176D01*
X55633082Y-175917497D01*
X55687713Y-176111203D01*
X55691837Y-176121950D01*
X55780859Y-176302466D01*
X55786869Y-176312273D01*
X55907299Y-176473549D01*
X55914989Y-176482089D01*
X56062794Y-176618720D01*
X56071919Y-176625721D01*
X56242144Y-176733125D01*
X56252391Y-176738346D01*
X56439332Y-176812928D01*
X56450369Y-176816197D01*
X56503230Y-176826712D01*
X56516106Y-176825560D01*
X56520067Y-176813294D01*
X57029000Y-176813294D01*
X57032806Y-176826256D01*
X57047722Y-176828192D01*
X57070300Y-176824313D01*
X57081417Y-176821334D01*
X57270252Y-176751669D01*
X57280630Y-176746719D01*
X57453606Y-176643809D01*
X57462915Y-176637045D01*
X57614243Y-176504335D01*
X57622153Y-176496000D01*
X57746764Y-176337931D01*
X57753032Y-176328280D01*
X57846743Y-176150164D01*
X57851152Y-176139521D01*
X57910833Y-175947316D01*
X57913227Y-175936054D01*
X57932563Y-175772678D01*
X57933000Y-175765272D01*
X57933000Y-175522115D01*
X57928525Y-175506876D01*
X57927135Y-175505671D01*
X57919452Y-175504000D01*
X57047115Y-175504000D01*
X57031876Y-175508475D01*
X57030671Y-175509865D01*
X57029000Y-175517548D01*
X57029000Y-176813294D01*
X56520067Y-176813294D01*
X56521000Y-176810404D01*
X56521000Y-175522115D01*
X56516525Y-175506876D01*
X56515135Y-175505671D01*
X56507452Y-175504000D01*
X55635115Y-175504000D01*
X55619876Y-175508475D01*
X55618671Y-175509865D01*
X55617000Y-175517548D01*
X55617000Y-175751092D01*
X52600230Y-175751092D01*
X52612211Y-175722167D01*
X52612212Y-175722165D01*
X52614105Y-175717594D01*
X52660895Y-175522699D01*
X52668380Y-175491524D01*
X52668381Y-175491518D01*
X52669535Y-175486711D01*
X52683012Y-175315475D01*
X63887865Y-175315475D01*
X63905329Y-175515091D01*
X63907231Y-175525878D01*
X63959093Y-175719429D01*
X63962841Y-175729723D01*
X64047521Y-175911323D01*
X64052999Y-175920811D01*
X64074311Y-175951248D01*
X64084788Y-175959623D01*
X64098236Y-175952554D01*
X64727978Y-175322812D01*
X64734356Y-175311132D01*
X65464408Y-175311132D01*
X65464539Y-175312965D01*
X65468790Y-175319580D01*
X66102486Y-175953276D01*
X66114261Y-175959706D01*
X66126276Y-175950410D01*
X66147001Y-175920811D01*
X66152479Y-175911323D01*
X66227195Y-175751092D01*
X67417000Y-175751092D01*
X67417266Y-175756881D01*
X67430984Y-175906176D01*
X67433082Y-175917497D01*
X67487713Y-176111203D01*
X67491837Y-176121950D01*
X67580859Y-176302466D01*
X67586869Y-176312273D01*
X67707299Y-176473549D01*
X67714989Y-176482089D01*
X67862794Y-176618720D01*
X67871919Y-176625721D01*
X68042144Y-176733125D01*
X68052391Y-176738346D01*
X68239332Y-176812928D01*
X68250369Y-176816197D01*
X68303230Y-176826712D01*
X68316106Y-176825560D01*
X68320067Y-176813294D01*
X68829000Y-176813294D01*
X68832806Y-176826256D01*
X68847722Y-176828192D01*
X68870300Y-176824313D01*
X68881417Y-176821334D01*
X69070252Y-176751669D01*
X69080630Y-176746719D01*
X69253606Y-176643809D01*
X69262915Y-176637045D01*
X69414243Y-176504335D01*
X69422153Y-176496000D01*
X69546764Y-176337931D01*
X69553032Y-176328280D01*
X69646743Y-176150164D01*
X69651152Y-176139521D01*
X69710833Y-175947316D01*
X69713227Y-175936054D01*
X69732563Y-175772678D01*
X69733000Y-175765272D01*
X69733000Y-175522115D01*
X69728525Y-175506876D01*
X69727135Y-175505671D01*
X69719452Y-175504000D01*
X68847115Y-175504000D01*
X68831876Y-175508475D01*
X68830671Y-175509865D01*
X68829000Y-175517548D01*
X68829000Y-176813294D01*
X68320067Y-176813294D01*
X68321000Y-176810404D01*
X68321000Y-175522115D01*
X68316525Y-175506876D01*
X68315135Y-175505671D01*
X68307452Y-175504000D01*
X67435115Y-175504000D01*
X67419876Y-175508475D01*
X67418671Y-175509865D01*
X67417000Y-175517548D01*
X67417000Y-175751092D01*
X66227195Y-175751092D01*
X66237159Y-175729723D01*
X66240907Y-175719429D01*
X66292769Y-175525878D01*
X66294671Y-175515091D01*
X66312135Y-175315475D01*
X66312135Y-175304525D01*
X66307365Y-175250000D01*
X72661835Y-175250000D01*
X72680465Y-175486711D01*
X72681619Y-175491518D01*
X72681620Y-175491524D01*
X72689105Y-175522699D01*
X72735895Y-175717594D01*
X72737788Y-175722165D01*
X72737789Y-175722167D01*
X72820070Y-175920811D01*
X72826760Y-175936963D01*
X72829346Y-175941183D01*
X72948241Y-176135202D01*
X72948245Y-176135208D01*
X72950824Y-176139416D01*
X73105031Y-176319969D01*
X73285584Y-176474176D01*
X73289792Y-176476755D01*
X73289798Y-176476759D01*
X73413179Y-176552367D01*
X73488037Y-176598240D01*
X73492607Y-176600133D01*
X73492611Y-176600135D01*
X73702833Y-176687211D01*
X73707406Y-176689105D01*
X73787609Y-176708360D01*
X73933476Y-176743380D01*
X73933482Y-176743381D01*
X73938289Y-176744535D01*
X74175000Y-176763165D01*
X74411711Y-176744535D01*
X74416518Y-176743381D01*
X74416524Y-176743380D01*
X74562391Y-176708360D01*
X74642594Y-176689105D01*
X74647167Y-176687211D01*
X74857389Y-176600135D01*
X74857393Y-176600133D01*
X74861963Y-176598240D01*
X74936821Y-176552367D01*
X75060202Y-176476759D01*
X75060208Y-176476755D01*
X75064416Y-176474176D01*
X75244969Y-176319969D01*
X75399176Y-176139416D01*
X75401755Y-176135208D01*
X75401759Y-176135202D01*
X75520654Y-175941183D01*
X75523240Y-175936963D01*
X75529931Y-175920811D01*
X75600230Y-175751092D01*
X78617000Y-175751092D01*
X78617266Y-175756881D01*
X78630984Y-175906176D01*
X78633082Y-175917497D01*
X78687713Y-176111203D01*
X78691837Y-176121950D01*
X78780859Y-176302466D01*
X78786869Y-176312273D01*
X78907299Y-176473549D01*
X78914989Y-176482089D01*
X79062794Y-176618720D01*
X79071919Y-176625721D01*
X79242144Y-176733125D01*
X79252391Y-176738346D01*
X79439332Y-176812928D01*
X79450369Y-176816197D01*
X79503230Y-176826712D01*
X79516106Y-176825560D01*
X79520067Y-176813294D01*
X80029000Y-176813294D01*
X80032806Y-176826256D01*
X80047722Y-176828192D01*
X80070300Y-176824313D01*
X80081417Y-176821334D01*
X80270252Y-176751669D01*
X80280630Y-176746719D01*
X80453606Y-176643809D01*
X80462915Y-176637045D01*
X80614243Y-176504335D01*
X80622153Y-176496000D01*
X80746764Y-176337931D01*
X80753032Y-176328280D01*
X80846743Y-176150164D01*
X80851152Y-176139521D01*
X80910833Y-175947316D01*
X80913227Y-175936054D01*
X80932563Y-175772678D01*
X80933000Y-175765272D01*
X80933000Y-175522115D01*
X80928525Y-175506876D01*
X80927135Y-175505671D01*
X80919452Y-175504000D01*
X80047115Y-175504000D01*
X80031876Y-175508475D01*
X80030671Y-175509865D01*
X80029000Y-175517548D01*
X80029000Y-176813294D01*
X79520067Y-176813294D01*
X79521000Y-176810404D01*
X79521000Y-175522115D01*
X79516525Y-175506876D01*
X79515135Y-175505671D01*
X79507452Y-175504000D01*
X78635115Y-175504000D01*
X78619876Y-175508475D01*
X78618671Y-175509865D01*
X78617000Y-175517548D01*
X78617000Y-175751092D01*
X75600230Y-175751092D01*
X75612211Y-175722167D01*
X75612212Y-175722165D01*
X75614105Y-175717594D01*
X75660895Y-175522699D01*
X75668380Y-175491524D01*
X75668381Y-175491518D01*
X75669535Y-175486711D01*
X75688165Y-175250000D01*
X75669535Y-175013289D01*
X75666969Y-175002598D01*
X75661036Y-174977885D01*
X78617000Y-174977885D01*
X78621475Y-174993124D01*
X78622865Y-174994329D01*
X78630548Y-174996000D01*
X79502885Y-174996000D01*
X79518124Y-174991525D01*
X79519329Y-174990135D01*
X79521000Y-174982452D01*
X79521000Y-174977885D01*
X80029000Y-174977885D01*
X80033475Y-174993124D01*
X80034865Y-174994329D01*
X80042548Y-174996000D01*
X80914885Y-174996000D01*
X80930124Y-174991525D01*
X80931329Y-174990135D01*
X80933000Y-174982452D01*
X80933000Y-174748908D01*
X80932734Y-174743119D01*
X80919016Y-174593824D01*
X80916918Y-174582503D01*
X80862287Y-174388797D01*
X80858163Y-174378050D01*
X80769141Y-174197534D01*
X80763131Y-174187727D01*
X80642701Y-174026451D01*
X80635011Y-174017911D01*
X80487206Y-173881280D01*
X80478081Y-173874279D01*
X80307856Y-173766875D01*
X80297609Y-173761654D01*
X80110668Y-173687072D01*
X80099631Y-173683803D01*
X80046770Y-173673288D01*
X80033894Y-173674440D01*
X80029000Y-173689596D01*
X80029000Y-174977885D01*
X79521000Y-174977885D01*
X79521000Y-173686706D01*
X79517194Y-173673744D01*
X79502278Y-173671808D01*
X79479700Y-173675687D01*
X79468583Y-173678666D01*
X79279748Y-173748331D01*
X79269370Y-173753281D01*
X79096394Y-173856191D01*
X79087085Y-173862955D01*
X78935757Y-173995665D01*
X78927847Y-174004000D01*
X78803236Y-174162069D01*
X78796968Y-174171720D01*
X78703257Y-174349836D01*
X78698848Y-174360479D01*
X78639167Y-174552684D01*
X78636773Y-174563946D01*
X78617437Y-174727322D01*
X78617000Y-174734728D01*
X78617000Y-174977885D01*
X75661036Y-174977885D01*
X75615260Y-174787218D01*
X75614105Y-174782406D01*
X75591289Y-174727322D01*
X75525135Y-174567611D01*
X75525133Y-174567607D01*
X75523240Y-174563037D01*
X75520654Y-174558817D01*
X75401759Y-174364798D01*
X75401755Y-174364792D01*
X75399176Y-174360584D01*
X75244969Y-174180031D01*
X75064416Y-174025824D01*
X75060208Y-174023245D01*
X75060202Y-174023241D01*
X74866183Y-173904346D01*
X74861963Y-173901760D01*
X74857393Y-173899867D01*
X74857389Y-173899865D01*
X74647167Y-173812789D01*
X74647165Y-173812788D01*
X74642594Y-173810895D01*
X74562391Y-173791640D01*
X74416524Y-173756620D01*
X74416518Y-173756619D01*
X74411711Y-173755465D01*
X74175000Y-173736835D01*
X73938289Y-173755465D01*
X73933482Y-173756619D01*
X73933476Y-173756620D01*
X73787609Y-173791640D01*
X73707406Y-173810895D01*
X73702835Y-173812788D01*
X73702833Y-173812789D01*
X73492611Y-173899865D01*
X73492607Y-173899867D01*
X73488037Y-173901760D01*
X73483817Y-173904346D01*
X73289798Y-174023241D01*
X73289792Y-174023245D01*
X73285584Y-174025824D01*
X73105031Y-174180031D01*
X72950824Y-174360584D01*
X72948245Y-174364792D01*
X72948241Y-174364798D01*
X72829346Y-174558817D01*
X72826760Y-174563037D01*
X72824867Y-174567607D01*
X72824865Y-174567611D01*
X72758711Y-174727322D01*
X72735895Y-174782406D01*
X72734740Y-174787218D01*
X72683032Y-175002598D01*
X72680465Y-175013289D01*
X72661835Y-175250000D01*
X66307365Y-175250000D01*
X66294671Y-175104909D01*
X66292769Y-175094122D01*
X66261623Y-174977885D01*
X67417000Y-174977885D01*
X67421475Y-174993124D01*
X67422865Y-174994329D01*
X67430548Y-174996000D01*
X68302885Y-174996000D01*
X68318124Y-174991525D01*
X68319329Y-174990135D01*
X68321000Y-174982452D01*
X68321000Y-174977885D01*
X68829000Y-174977885D01*
X68833475Y-174993124D01*
X68834865Y-174994329D01*
X68842548Y-174996000D01*
X69714885Y-174996000D01*
X69730124Y-174991525D01*
X69731329Y-174990135D01*
X69733000Y-174982452D01*
X69733000Y-174748908D01*
X69732734Y-174743119D01*
X69719016Y-174593824D01*
X69716918Y-174582503D01*
X69662287Y-174388797D01*
X69658163Y-174378050D01*
X69569141Y-174197534D01*
X69563131Y-174187727D01*
X69442701Y-174026451D01*
X69435011Y-174017911D01*
X69287206Y-173881280D01*
X69278081Y-173874279D01*
X69107856Y-173766875D01*
X69097609Y-173761654D01*
X68910668Y-173687072D01*
X68899631Y-173683803D01*
X68846770Y-173673288D01*
X68833894Y-173674440D01*
X68829000Y-173689596D01*
X68829000Y-174977885D01*
X68321000Y-174977885D01*
X68321000Y-173686706D01*
X68317194Y-173673744D01*
X68302278Y-173671808D01*
X68279700Y-173675687D01*
X68268583Y-173678666D01*
X68079748Y-173748331D01*
X68069370Y-173753281D01*
X67896394Y-173856191D01*
X67887085Y-173862955D01*
X67735757Y-173995665D01*
X67727847Y-174004000D01*
X67603236Y-174162069D01*
X67596968Y-174171720D01*
X67503257Y-174349836D01*
X67498848Y-174360479D01*
X67439167Y-174552684D01*
X67436773Y-174563946D01*
X67417437Y-174727322D01*
X67417000Y-174734728D01*
X67417000Y-174977885D01*
X66261623Y-174977885D01*
X66240907Y-174900571D01*
X66237159Y-174890277D01*
X66152479Y-174708677D01*
X66147001Y-174699189D01*
X66125689Y-174668752D01*
X66115212Y-174660377D01*
X66101764Y-174667446D01*
X65472022Y-175297188D01*
X65464408Y-175311132D01*
X64734356Y-175311132D01*
X64735592Y-175308868D01*
X64735461Y-175307035D01*
X64731210Y-175300420D01*
X64097514Y-174666724D01*
X64085739Y-174660294D01*
X64073724Y-174669590D01*
X64052999Y-174699189D01*
X64047521Y-174708677D01*
X63962841Y-174890277D01*
X63959093Y-174900571D01*
X63907231Y-175094122D01*
X63905329Y-175104909D01*
X63887865Y-175304525D01*
X63887865Y-175315475D01*
X52683012Y-175315475D01*
X52688165Y-175250000D01*
X52669535Y-175013289D01*
X52666969Y-175002598D01*
X52661036Y-174977885D01*
X55617000Y-174977885D01*
X55621475Y-174993124D01*
X55622865Y-174994329D01*
X55630548Y-174996000D01*
X56502885Y-174996000D01*
X56518124Y-174991525D01*
X56519329Y-174990135D01*
X56521000Y-174982452D01*
X56521000Y-174977885D01*
X57029000Y-174977885D01*
X57033475Y-174993124D01*
X57034865Y-174994329D01*
X57042548Y-174996000D01*
X57914885Y-174996000D01*
X57930124Y-174991525D01*
X57931329Y-174990135D01*
X57933000Y-174982452D01*
X57933000Y-174748908D01*
X57932734Y-174743119D01*
X57919016Y-174593824D01*
X57916918Y-174582503D01*
X57907225Y-174548134D01*
X58386388Y-174548134D01*
X58393143Y-174610316D01*
X58444273Y-174746705D01*
X58531627Y-174863261D01*
X58648183Y-174950615D01*
X58784572Y-175001745D01*
X58846754Y-175008500D01*
X60543022Y-175008500D01*
X60605204Y-175001745D01*
X60741593Y-174950615D01*
X60858149Y-174863261D01*
X60945503Y-174746705D01*
X60996633Y-174610316D01*
X60998579Y-174611046D01*
X61028433Y-174558795D01*
X61091391Y-174525979D01*
X61162095Y-174532409D01*
X61204888Y-174560498D01*
X61350588Y-174706198D01*
X61355096Y-174709355D01*
X61355099Y-174709357D01*
X61408438Y-174746705D01*
X61538139Y-174837523D01*
X61543121Y-174839846D01*
X61543126Y-174839849D01*
X61740663Y-174931961D01*
X61745645Y-174934284D01*
X61750953Y-174935706D01*
X61750955Y-174935707D01*
X61961486Y-174992119D01*
X61961488Y-174992119D01*
X61966801Y-174993543D01*
X62194888Y-175013498D01*
X62422975Y-174993543D01*
X62428288Y-174992119D01*
X62428290Y-174992119D01*
X62638821Y-174935707D01*
X62638823Y-174935706D01*
X62644131Y-174934284D01*
X62649113Y-174931961D01*
X62846650Y-174839849D01*
X62846655Y-174839846D01*
X62851637Y-174837523D01*
X62981338Y-174746705D01*
X63034677Y-174709357D01*
X63034680Y-174709355D01*
X63039188Y-174706198D01*
X63201086Y-174544300D01*
X63209413Y-174532409D01*
X63258986Y-174461611D01*
X63332411Y-174356749D01*
X63334734Y-174351767D01*
X63334737Y-174351762D01*
X63361304Y-174294788D01*
X64450377Y-174294788D01*
X64457446Y-174308236D01*
X65087188Y-174937978D01*
X65101132Y-174945592D01*
X65102965Y-174945461D01*
X65109580Y-174941210D01*
X65743276Y-174307514D01*
X65749706Y-174295739D01*
X65740410Y-174283724D01*
X65710811Y-174262999D01*
X65701323Y-174257521D01*
X65519723Y-174172841D01*
X65509429Y-174169093D01*
X65315878Y-174117231D01*
X65305091Y-174115329D01*
X65105475Y-174097865D01*
X65094525Y-174097865D01*
X64894909Y-174115329D01*
X64884122Y-174117231D01*
X64690571Y-174169093D01*
X64680277Y-174172841D01*
X64498677Y-174257521D01*
X64489189Y-174262999D01*
X64458752Y-174284311D01*
X64450377Y-174294788D01*
X63361304Y-174294788D01*
X63426849Y-174154225D01*
X63426849Y-174154224D01*
X63429172Y-174149243D01*
X63444254Y-174092959D01*
X63487007Y-173933402D01*
X63487007Y-173933400D01*
X63488431Y-173928087D01*
X63508386Y-173700000D01*
X63488431Y-173471913D01*
X63456840Y-173354013D01*
X63430595Y-173256067D01*
X63430594Y-173256065D01*
X63429172Y-173250757D01*
X63426849Y-173245775D01*
X63334737Y-173048238D01*
X63334734Y-173048233D01*
X63332411Y-173043251D01*
X63227925Y-172894030D01*
X63204245Y-172860211D01*
X63204243Y-172860208D01*
X63201086Y-172855700D01*
X63039188Y-172693802D01*
X63034680Y-172690645D01*
X63034677Y-172690643D01*
X62901942Y-172597701D01*
X62851637Y-172562477D01*
X62846655Y-172560154D01*
X62846650Y-172560151D01*
X62649113Y-172468039D01*
X62649112Y-172468039D01*
X62644131Y-172465716D01*
X62638823Y-172464294D01*
X62638821Y-172464293D01*
X62428290Y-172407881D01*
X62428288Y-172407881D01*
X62422975Y-172406457D01*
X62194888Y-172386502D01*
X61966801Y-172406457D01*
X61961488Y-172407881D01*
X61961486Y-172407881D01*
X61750955Y-172464293D01*
X61750953Y-172464294D01*
X61745645Y-172465716D01*
X61740664Y-172468039D01*
X61740663Y-172468039D01*
X61543126Y-172560151D01*
X61543121Y-172560154D01*
X61538139Y-172562477D01*
X61487834Y-172597701D01*
X61355099Y-172690643D01*
X61355096Y-172690645D01*
X61350588Y-172693802D01*
X61204888Y-172839502D01*
X61142576Y-172873528D01*
X61071761Y-172868463D01*
X61014925Y-172825916D01*
X60997756Y-172789263D01*
X60996633Y-172789684D01*
X60952508Y-172671981D01*
X60945503Y-172653295D01*
X60858149Y-172536739D01*
X60741593Y-172449385D01*
X60605204Y-172398255D01*
X60543022Y-172391500D01*
X58846754Y-172391500D01*
X58784572Y-172398255D01*
X58648183Y-172449385D01*
X58531627Y-172536739D01*
X58444273Y-172653295D01*
X58393143Y-172789684D01*
X58386388Y-172851866D01*
X58386388Y-174548134D01*
X57907225Y-174548134D01*
X57862287Y-174388797D01*
X57858163Y-174378050D01*
X57769141Y-174197534D01*
X57763131Y-174187727D01*
X57642701Y-174026451D01*
X57635011Y-174017911D01*
X57487206Y-173881280D01*
X57478081Y-173874279D01*
X57307856Y-173766875D01*
X57297609Y-173761654D01*
X57110668Y-173687072D01*
X57099631Y-173683803D01*
X57046770Y-173673288D01*
X57033894Y-173674440D01*
X57029000Y-173689596D01*
X57029000Y-174977885D01*
X56521000Y-174977885D01*
X56521000Y-173686706D01*
X56517194Y-173673744D01*
X56502278Y-173671808D01*
X56479700Y-173675687D01*
X56468583Y-173678666D01*
X56279748Y-173748331D01*
X56269370Y-173753281D01*
X56096394Y-173856191D01*
X56087085Y-173862955D01*
X55935757Y-173995665D01*
X55927847Y-174004000D01*
X55803236Y-174162069D01*
X55796968Y-174171720D01*
X55703257Y-174349836D01*
X55698848Y-174360479D01*
X55639167Y-174552684D01*
X55636773Y-174563946D01*
X55617437Y-174727322D01*
X55617000Y-174734728D01*
X55617000Y-174977885D01*
X52661036Y-174977885D01*
X52615260Y-174787218D01*
X52614105Y-174782406D01*
X52591289Y-174727322D01*
X52525135Y-174567611D01*
X52525133Y-174567607D01*
X52523240Y-174563037D01*
X52520654Y-174558817D01*
X52401759Y-174364798D01*
X52401755Y-174364792D01*
X52399176Y-174360584D01*
X52244969Y-174180031D01*
X52064416Y-174025824D01*
X52060208Y-174023245D01*
X52060202Y-174023241D01*
X51866183Y-173904346D01*
X51861963Y-173901760D01*
X51857393Y-173899867D01*
X51857389Y-173899865D01*
X51647167Y-173812789D01*
X51647165Y-173812788D01*
X51642594Y-173810895D01*
X51562391Y-173791640D01*
X51416524Y-173756620D01*
X51416518Y-173756619D01*
X51411711Y-173755465D01*
X51175000Y-173736835D01*
X50938289Y-173755465D01*
X50933482Y-173756619D01*
X50933476Y-173756620D01*
X50787609Y-173791640D01*
X50707406Y-173810895D01*
X50702835Y-173812788D01*
X50702833Y-173812789D01*
X50492611Y-173899865D01*
X50492607Y-173899867D01*
X50488037Y-173901760D01*
X50483817Y-173904346D01*
X50289798Y-174023241D01*
X50289792Y-174023245D01*
X50285584Y-174025824D01*
X50105031Y-174180031D01*
X49950824Y-174360584D01*
X49948245Y-174364792D01*
X49948241Y-174364798D01*
X49829346Y-174558817D01*
X49826760Y-174563037D01*
X49824867Y-174567607D01*
X49824865Y-174567611D01*
X49758711Y-174727322D01*
X49735895Y-174782406D01*
X49734740Y-174787218D01*
X49683032Y-175002598D01*
X49680465Y-175013289D01*
X49661835Y-175250000D01*
X40846006Y-175250000D01*
X40865339Y-175186041D01*
X40917543Y-175140805D01*
X40951762Y-175124849D01*
X40951767Y-175124846D01*
X40956749Y-175122523D01*
X41061611Y-175049098D01*
X41139789Y-174994357D01*
X41139792Y-174994355D01*
X41144300Y-174991198D01*
X41306198Y-174829300D01*
X41311521Y-174821699D01*
X41397303Y-174699189D01*
X41437523Y-174641749D01*
X41439846Y-174636767D01*
X41439849Y-174636762D01*
X41531961Y-174439225D01*
X41531961Y-174439224D01*
X41534284Y-174434243D01*
X41574459Y-174284311D01*
X41592119Y-174218402D01*
X41592119Y-174218400D01*
X41593543Y-174213087D01*
X41613498Y-173985000D01*
X41593543Y-173756913D01*
X41592119Y-173751598D01*
X41535707Y-173541067D01*
X41535706Y-173541065D01*
X41534284Y-173535757D01*
X41507069Y-173477393D01*
X41439849Y-173333238D01*
X41439846Y-173333233D01*
X41437523Y-173328251D01*
X41364098Y-173223389D01*
X41309357Y-173145211D01*
X41309355Y-173145208D01*
X41306198Y-173140700D01*
X41275498Y-173110000D01*
X42386884Y-173110000D01*
X42405314Y-173320655D01*
X42406738Y-173325968D01*
X42406738Y-173325970D01*
X42408686Y-173333238D01*
X42460044Y-173524910D01*
X42462366Y-173529891D01*
X42462367Y-173529892D01*
X42535491Y-173686706D01*
X42549411Y-173716558D01*
X42670699Y-173889776D01*
X42820224Y-174039301D01*
X42993442Y-174160589D01*
X42998420Y-174162910D01*
X42998423Y-174162912D01*
X43094272Y-174207607D01*
X43185090Y-174249956D01*
X43190398Y-174251378D01*
X43190400Y-174251379D01*
X43384030Y-174303262D01*
X43384032Y-174303262D01*
X43389345Y-174304686D01*
X43600000Y-174323116D01*
X43810655Y-174304686D01*
X43815968Y-174303262D01*
X43815970Y-174303262D01*
X44009600Y-174251379D01*
X44009602Y-174251378D01*
X44014910Y-174249956D01*
X44105728Y-174207607D01*
X44201577Y-174162912D01*
X44201580Y-174162910D01*
X44206558Y-174160589D01*
X44379776Y-174039301D01*
X44397748Y-174021329D01*
X44460060Y-173987303D01*
X44530875Y-173992368D01*
X44587711Y-174034915D01*
X44612522Y-174101435D01*
X44598351Y-174169092D01*
X44503257Y-174349836D01*
X44498848Y-174360479D01*
X44439167Y-174552684D01*
X44436773Y-174563946D01*
X44417437Y-174727322D01*
X44417000Y-174734728D01*
X44417000Y-174977885D01*
X44421475Y-174993124D01*
X44422865Y-174994329D01*
X44430548Y-174996000D01*
X45302885Y-174996000D01*
X45318124Y-174991525D01*
X45319329Y-174990135D01*
X45321000Y-174982452D01*
X45321000Y-174977885D01*
X45829000Y-174977885D01*
X45833475Y-174993124D01*
X45834865Y-174994329D01*
X45842548Y-174996000D01*
X46714885Y-174996000D01*
X46730124Y-174991525D01*
X46731329Y-174990135D01*
X46733000Y-174982452D01*
X46733000Y-174748908D01*
X46732734Y-174743119D01*
X46719016Y-174593824D01*
X46716918Y-174582503D01*
X46662287Y-174388797D01*
X46658163Y-174378050D01*
X46569141Y-174197534D01*
X46563131Y-174187727D01*
X46442701Y-174026451D01*
X46435011Y-174017911D01*
X46287206Y-173881280D01*
X46278081Y-173874279D01*
X46107856Y-173766875D01*
X46097609Y-173761654D01*
X45910668Y-173687072D01*
X45899631Y-173683803D01*
X45846770Y-173673288D01*
X45833894Y-173674440D01*
X45829000Y-173689596D01*
X45829000Y-174977885D01*
X45321000Y-174977885D01*
X45321000Y-173686706D01*
X45317194Y-173673744D01*
X45302278Y-173671808D01*
X45279700Y-173675687D01*
X45268583Y-173678666D01*
X45079748Y-173748331D01*
X45069370Y-173753281D01*
X44896394Y-173856191D01*
X44887091Y-173862950D01*
X44794383Y-173944253D01*
X44729978Y-173974130D01*
X44659646Y-173964444D01*
X44605714Y-173918271D01*
X44585307Y-173850271D01*
X44608091Y-173777251D01*
X44650589Y-173716558D01*
X44664510Y-173686706D01*
X44737633Y-173529892D01*
X44737634Y-173529891D01*
X44739956Y-173524910D01*
X44791315Y-173333238D01*
X44793262Y-173325970D01*
X44793262Y-173325968D01*
X44794686Y-173320655D01*
X44813116Y-173110000D01*
X44794686Y-172899345D01*
X44793262Y-172894030D01*
X44741379Y-172700400D01*
X44741378Y-172700398D01*
X44739956Y-172695090D01*
X44726308Y-172665822D01*
X44652912Y-172508423D01*
X44652910Y-172508420D01*
X44650589Y-172503442D01*
X44529301Y-172330224D01*
X44379776Y-172180699D01*
X44206558Y-172059411D01*
X44201580Y-172057090D01*
X44201577Y-172057088D01*
X44019892Y-171972367D01*
X44019891Y-171972366D01*
X44014910Y-171970044D01*
X44009602Y-171968622D01*
X44009600Y-171968621D01*
X43815970Y-171916738D01*
X43815968Y-171916738D01*
X43810655Y-171915314D01*
X43600000Y-171896884D01*
X43389345Y-171915314D01*
X43384032Y-171916738D01*
X43384030Y-171916738D01*
X43190400Y-171968621D01*
X43190398Y-171968622D01*
X43185090Y-171970044D01*
X43180109Y-171972366D01*
X43180108Y-171972367D01*
X42998423Y-172057088D01*
X42998420Y-172057090D01*
X42993442Y-172059411D01*
X42820224Y-172180699D01*
X42670699Y-172330224D01*
X42549411Y-172503442D01*
X42547090Y-172508420D01*
X42547088Y-172508423D01*
X42473692Y-172665822D01*
X42460044Y-172695090D01*
X42458622Y-172700398D01*
X42458621Y-172700400D01*
X42406738Y-172894030D01*
X42405314Y-172899345D01*
X42386884Y-173110000D01*
X41275498Y-173110000D01*
X41144300Y-172978802D01*
X41139792Y-172975645D01*
X41139789Y-172975643D01*
X41023233Y-172894030D01*
X40956749Y-172847477D01*
X40951767Y-172845154D01*
X40951762Y-172845151D01*
X40754225Y-172753039D01*
X40754224Y-172753039D01*
X40749243Y-172750716D01*
X40743935Y-172749294D01*
X40743933Y-172749293D01*
X40533402Y-172692881D01*
X40533400Y-172692881D01*
X40528087Y-172691457D01*
X40300000Y-172671502D01*
X40071913Y-172691457D01*
X39902110Y-172736956D01*
X39831135Y-172735266D01*
X39772339Y-172695472D01*
X39744391Y-172630208D01*
X39743500Y-172615249D01*
X39743500Y-170197315D01*
X39763502Y-170129194D01*
X39797230Y-170094102D01*
X39885264Y-170032460D01*
X39889776Y-170029301D01*
X40039301Y-169879776D01*
X40160589Y-169706558D01*
X40190036Y-169643410D01*
X40247633Y-169519892D01*
X40247634Y-169519891D01*
X40249956Y-169514910D01*
X40265569Y-169456644D01*
X40303262Y-169315970D01*
X40303262Y-169315968D01*
X40304686Y-169310655D01*
X40323116Y-169100000D01*
X40304686Y-168889345D01*
X40303056Y-168883262D01*
X40293644Y-168848134D01*
X58191500Y-168848134D01*
X58198255Y-168910316D01*
X58249385Y-169046705D01*
X58336739Y-169163261D01*
X58453295Y-169250615D01*
X58589684Y-169301745D01*
X58651866Y-169308500D01*
X60348134Y-169308500D01*
X60410316Y-169301745D01*
X60546705Y-169250615D01*
X60663261Y-169163261D01*
X60750615Y-169046705D01*
X60801745Y-168910316D01*
X60803691Y-168911046D01*
X60833545Y-168858795D01*
X60896503Y-168825979D01*
X60967207Y-168832409D01*
X61010000Y-168860498D01*
X61155700Y-169006198D01*
X61160208Y-169009355D01*
X61160211Y-169009357D01*
X61201542Y-169038297D01*
X61343251Y-169137523D01*
X61348233Y-169139846D01*
X61348238Y-169139849D01*
X61545775Y-169231961D01*
X61550757Y-169234284D01*
X61556065Y-169235706D01*
X61556067Y-169235707D01*
X61766598Y-169292119D01*
X61766600Y-169292119D01*
X61771913Y-169293543D01*
X62000000Y-169313498D01*
X62228087Y-169293543D01*
X62233400Y-169292119D01*
X62233402Y-169292119D01*
X62443933Y-169235707D01*
X62443935Y-169235706D01*
X62449243Y-169234284D01*
X62454225Y-169231961D01*
X62651762Y-169139849D01*
X62651767Y-169139846D01*
X62656749Y-169137523D01*
X62798458Y-169038297D01*
X62839789Y-169009357D01*
X62839792Y-169009355D01*
X62844300Y-169006198D01*
X63006198Y-168844300D01*
X63014525Y-168832409D01*
X63078817Y-168740589D01*
X63137523Y-168656749D01*
X63139846Y-168651767D01*
X63139849Y-168651762D01*
X63231961Y-168454225D01*
X63231961Y-168454224D01*
X63234284Y-168449243D01*
X63262838Y-168342681D01*
X63292119Y-168233402D01*
X63292119Y-168233400D01*
X63293543Y-168228087D01*
X63313498Y-168000000D01*
X63293543Y-167771913D01*
X63290457Y-167760396D01*
X63271594Y-167690000D01*
X63886884Y-167690000D01*
X63905314Y-167900655D01*
X63906738Y-167905968D01*
X63906738Y-167905970D01*
X63954148Y-168082904D01*
X63960044Y-168104910D01*
X63962366Y-168109891D01*
X63962367Y-168109892D01*
X64043955Y-168284857D01*
X64049411Y-168296558D01*
X64170699Y-168469776D01*
X64320224Y-168619301D01*
X64493442Y-168740589D01*
X64498420Y-168742910D01*
X64498423Y-168742912D01*
X64676561Y-168825979D01*
X64685090Y-168829956D01*
X64690398Y-168831378D01*
X64690400Y-168831379D01*
X64884030Y-168883262D01*
X64884032Y-168883262D01*
X64889345Y-168884686D01*
X65100000Y-168903116D01*
X65310655Y-168884686D01*
X65315968Y-168883262D01*
X65315970Y-168883262D01*
X65509600Y-168831379D01*
X65509602Y-168831378D01*
X65514910Y-168829956D01*
X65523439Y-168825979D01*
X65701577Y-168742912D01*
X65701580Y-168742910D01*
X65706558Y-168740589D01*
X65879776Y-168619301D01*
X66029301Y-168469776D01*
X66150589Y-168296558D01*
X66156046Y-168284857D01*
X66237633Y-168109892D01*
X66237634Y-168109891D01*
X66239956Y-168104910D01*
X66245853Y-168082904D01*
X66293262Y-167905970D01*
X66293262Y-167905968D01*
X66294686Y-167900655D01*
X66313116Y-167690000D01*
X66294686Y-167479345D01*
X66284478Y-167441248D01*
X66241379Y-167280400D01*
X66241378Y-167280398D01*
X66239956Y-167275090D01*
X66219463Y-167231142D01*
X66152912Y-167088423D01*
X66152910Y-167088420D01*
X66150589Y-167083442D01*
X66029301Y-166910224D01*
X65879776Y-166760699D01*
X65706558Y-166639411D01*
X65701580Y-166637090D01*
X65701577Y-166637088D01*
X65519892Y-166552367D01*
X65519891Y-166552366D01*
X65514910Y-166550044D01*
X65509602Y-166548622D01*
X65509600Y-166548621D01*
X65315970Y-166496738D01*
X65315968Y-166496738D01*
X65310655Y-166495314D01*
X65100000Y-166476884D01*
X64889345Y-166495314D01*
X64884032Y-166496738D01*
X64884030Y-166496738D01*
X64690400Y-166548621D01*
X64690398Y-166548622D01*
X64685090Y-166550044D01*
X64680109Y-166552366D01*
X64680108Y-166552367D01*
X64498423Y-166637088D01*
X64498420Y-166637090D01*
X64493442Y-166639411D01*
X64320224Y-166760699D01*
X64170699Y-166910224D01*
X64049411Y-167083442D01*
X64047090Y-167088420D01*
X64047088Y-167088423D01*
X63980537Y-167231142D01*
X63960044Y-167275090D01*
X63958622Y-167280398D01*
X63958621Y-167280400D01*
X63915522Y-167441248D01*
X63905314Y-167479345D01*
X63886884Y-167690000D01*
X63271594Y-167690000D01*
X63235707Y-167556067D01*
X63235706Y-167556065D01*
X63234284Y-167550757D01*
X63203540Y-167484825D01*
X63139849Y-167348238D01*
X63139846Y-167348233D01*
X63137523Y-167343251D01*
X63049200Y-167217113D01*
X63009357Y-167160211D01*
X63009355Y-167160208D01*
X63006198Y-167155700D01*
X62844300Y-166993802D01*
X62839792Y-166990645D01*
X62839789Y-166990643D01*
X62731382Y-166914736D01*
X62656749Y-166862477D01*
X62651767Y-166860154D01*
X62651762Y-166860151D01*
X62454225Y-166768039D01*
X62454224Y-166768039D01*
X62449243Y-166765716D01*
X62443935Y-166764294D01*
X62443933Y-166764293D01*
X62233402Y-166707881D01*
X62233400Y-166707881D01*
X62228087Y-166706457D01*
X62000000Y-166686502D01*
X61771913Y-166706457D01*
X61766600Y-166707881D01*
X61766598Y-166707881D01*
X61556067Y-166764293D01*
X61556065Y-166764294D01*
X61550757Y-166765716D01*
X61545776Y-166768039D01*
X61545775Y-166768039D01*
X61348238Y-166860151D01*
X61348233Y-166860154D01*
X61343251Y-166862477D01*
X61268618Y-166914736D01*
X61160211Y-166990643D01*
X61160208Y-166990645D01*
X61155700Y-166993802D01*
X61010000Y-167139502D01*
X60947688Y-167173528D01*
X60876873Y-167168463D01*
X60820037Y-167125916D01*
X60802868Y-167089263D01*
X60801745Y-167089684D01*
X60753767Y-166961703D01*
X60750615Y-166953295D01*
X60663261Y-166836739D01*
X60546705Y-166749385D01*
X60410316Y-166698255D01*
X60348134Y-166691500D01*
X58651866Y-166691500D01*
X58589684Y-166698255D01*
X58453295Y-166749385D01*
X58336739Y-166836739D01*
X58249385Y-166953295D01*
X58198255Y-167089684D01*
X58191500Y-167151866D01*
X58191500Y-168848134D01*
X40293644Y-168848134D01*
X40251379Y-168690400D01*
X40251378Y-168690398D01*
X40249956Y-168685090D01*
X40247633Y-168680108D01*
X40162912Y-168498423D01*
X40162910Y-168498420D01*
X40160589Y-168493442D01*
X40039301Y-168320224D01*
X39889776Y-168170699D01*
X39716558Y-168049411D01*
X39711580Y-168047090D01*
X39711577Y-168047088D01*
X39683882Y-168034174D01*
X39630597Y-167987257D01*
X39611136Y-167918980D01*
X39631678Y-167851020D01*
X39664862Y-167816766D01*
X39667082Y-167815212D01*
X39789776Y-167729301D01*
X39939301Y-167579776D01*
X40060589Y-167406558D01*
X40082354Y-167359884D01*
X40147633Y-167219892D01*
X40147634Y-167219891D01*
X40149956Y-167214910D01*
X40162402Y-167168463D01*
X40203262Y-167015970D01*
X40203262Y-167015968D01*
X40204686Y-167010655D01*
X40223116Y-166800000D01*
X40204686Y-166589345D01*
X40191622Y-166540589D01*
X40151379Y-166390400D01*
X40151378Y-166390398D01*
X40149956Y-166385090D01*
X40120417Y-166321743D01*
X40062912Y-166198423D01*
X40062910Y-166198420D01*
X40060589Y-166193442D01*
X39939301Y-166020224D01*
X39789776Y-165870699D01*
X39616558Y-165749411D01*
X39611580Y-165747090D01*
X39611577Y-165747088D01*
X39429892Y-165662367D01*
X39429891Y-165662366D01*
X39424910Y-165660044D01*
X39419602Y-165658622D01*
X39419600Y-165658621D01*
X39225970Y-165606738D01*
X39225968Y-165606738D01*
X39220655Y-165605314D01*
X39010000Y-165586884D01*
X38799345Y-165605314D01*
X38794032Y-165606738D01*
X38794030Y-165606738D01*
X38600400Y-165658621D01*
X38600398Y-165658622D01*
X38595090Y-165660044D01*
X38590109Y-165662366D01*
X38590108Y-165662367D01*
X38408423Y-165747088D01*
X38408420Y-165747090D01*
X38403442Y-165749411D01*
X38230224Y-165870699D01*
X38080699Y-166020224D01*
X37959411Y-166193442D01*
X37957090Y-166198420D01*
X37957088Y-166198423D01*
X37899583Y-166321743D01*
X37870044Y-166385090D01*
X37868622Y-166390398D01*
X37868621Y-166390400D01*
X37828378Y-166540589D01*
X37815314Y-166589345D01*
X37796884Y-166800000D01*
X37815314Y-167010655D01*
X37816738Y-167015968D01*
X37816738Y-167015970D01*
X37857599Y-167168463D01*
X37870044Y-167214910D01*
X37872366Y-167219891D01*
X37872367Y-167219892D01*
X37937647Y-167359884D01*
X37959411Y-167406558D01*
X38080699Y-167579776D01*
X38230224Y-167729301D01*
X38403442Y-167850589D01*
X38408420Y-167852910D01*
X38408423Y-167852912D01*
X38436118Y-167865826D01*
X38489403Y-167912743D01*
X38508864Y-167981020D01*
X38488322Y-168048980D01*
X38455139Y-168083233D01*
X38330224Y-168170699D01*
X38180699Y-168320224D01*
X38059411Y-168493442D01*
X38057090Y-168498420D01*
X38057088Y-168498423D01*
X37972367Y-168680108D01*
X37970044Y-168685090D01*
X37968622Y-168690398D01*
X37968621Y-168690400D01*
X37916944Y-168883262D01*
X37915314Y-168889345D01*
X37896884Y-169100000D01*
X37915314Y-169310655D01*
X37916738Y-169315968D01*
X37916738Y-169315970D01*
X37954432Y-169456644D01*
X37970044Y-169514910D01*
X37972366Y-169519891D01*
X37972367Y-169519892D01*
X38029965Y-169643410D01*
X38059411Y-169706558D01*
X38180699Y-169879776D01*
X38330224Y-170029301D01*
X38334736Y-170032460D01*
X38422770Y-170094102D01*
X38467099Y-170149559D01*
X38476500Y-170197315D01*
X38476500Y-177796233D01*
X38475973Y-177807416D01*
X38474298Y-177814909D01*
X38474547Y-177822835D01*
X38474547Y-177822836D01*
X38476438Y-177882986D01*
X38476500Y-177886945D01*
X38476500Y-177914856D01*
X38476997Y-177918790D01*
X38476997Y-177918791D01*
X38477005Y-177918856D01*
X38477938Y-177930693D01*
X38479327Y-177974889D01*
X38484978Y-177994339D01*
X38488987Y-178013700D01*
X38491526Y-178033797D01*
X38494445Y-178041168D01*
X38494445Y-178041170D01*
X38507804Y-178074912D01*
X38511649Y-178086142D01*
X38518549Y-178109892D01*
X38523982Y-178128593D01*
X38528015Y-178135412D01*
X38528017Y-178135417D01*
X38534293Y-178146028D01*
X38542988Y-178163776D01*
X38550448Y-178182617D01*
X38555110Y-178189033D01*
X38555110Y-178189034D01*
X38576436Y-178218387D01*
X38582952Y-178228307D01*
X38605458Y-178266362D01*
X38619779Y-178280683D01*
X38632619Y-178295716D01*
X38644528Y-178312107D01*
X38650634Y-178317158D01*
X38678605Y-178340298D01*
X38687384Y-178348288D01*
X38990848Y-178651752D01*
X39024874Y-178714064D01*
X39023459Y-178773459D01*
X39007882Y-178831591D01*
X39007881Y-178831598D01*
X39006457Y-178836913D01*
X38986502Y-179065000D01*
X38986981Y-179070475D01*
X38986981Y-179070486D01*
X38988026Y-179082430D01*
X38974038Y-179152035D01*
X38924639Y-179203027D01*
X38855513Y-179219218D01*
X38788607Y-179195466D01*
X38773411Y-179182507D01*
X36720555Y-177129650D01*
X34474916Y-174884011D01*
X34440890Y-174821699D01*
X34438011Y-174794916D01*
X34438011Y-171493278D01*
X34438538Y-171482095D01*
X34440213Y-171474602D01*
X34438073Y-171406511D01*
X34438011Y-171402554D01*
X34438011Y-171374655D01*
X34437507Y-171370664D01*
X34436574Y-171358822D01*
X34435434Y-171322547D01*
X34435185Y-171314622D01*
X34432973Y-171307008D01*
X34432972Y-171307003D01*
X34429534Y-171295170D01*
X34425523Y-171275806D01*
X34423978Y-171263575D01*
X34422985Y-171255714D01*
X34420068Y-171248347D01*
X34420067Y-171248342D01*
X34406709Y-171214603D01*
X34402865Y-171203376D01*
X34392741Y-171168533D01*
X34390529Y-171160918D01*
X34380218Y-171143483D01*
X34371523Y-171125735D01*
X34364063Y-171106894D01*
X34338075Y-171071124D01*
X34331559Y-171061204D01*
X34313091Y-171029976D01*
X34313089Y-171029973D01*
X34309053Y-171023149D01*
X34294732Y-171008828D01*
X34281891Y-170993794D01*
X34274642Y-170983817D01*
X34269983Y-170977404D01*
X34235906Y-170949213D01*
X34227127Y-170941223D01*
X32717443Y-169431538D01*
X32683417Y-169369226D01*
X32682453Y-169320561D01*
X32683264Y-169315961D01*
X32684686Y-169310655D01*
X32685166Y-169305175D01*
X32702637Y-169105475D01*
X32703116Y-169100000D01*
X32684686Y-168889345D01*
X32683056Y-168883262D01*
X32631379Y-168690400D01*
X32631378Y-168690398D01*
X32629956Y-168685090D01*
X32627633Y-168680108D01*
X32542912Y-168498423D01*
X32542910Y-168498420D01*
X32540589Y-168493442D01*
X32419301Y-168320224D01*
X32269776Y-168170699D01*
X32096558Y-168049411D01*
X32091582Y-168047091D01*
X32091574Y-168047086D01*
X32063361Y-168033931D01*
X32010076Y-167987015D01*
X31990614Y-167918738D01*
X32011155Y-167850778D01*
X32020959Y-167840657D01*
X32019937Y-167839840D01*
X32039623Y-167815212D01*
X32032554Y-167801764D01*
X31402812Y-167172022D01*
X31388868Y-167164408D01*
X31387035Y-167164539D01*
X31380420Y-167168790D01*
X30746724Y-167802486D01*
X30740294Y-167814261D01*
X30749590Y-167826276D01*
X30779189Y-167847001D01*
X30788673Y-167852477D01*
X30816591Y-167865495D01*
X30869876Y-167912412D01*
X30889337Y-167980689D01*
X30868795Y-168048649D01*
X30835616Y-168082899D01*
X30710224Y-168170699D01*
X30560699Y-168320224D01*
X30439411Y-168493442D01*
X30437090Y-168498420D01*
X30437088Y-168498423D01*
X30352367Y-168680108D01*
X30350044Y-168685090D01*
X30348622Y-168690398D01*
X30348621Y-168690400D01*
X30296944Y-168883262D01*
X30295314Y-168889345D01*
X30276884Y-169100000D01*
X30295314Y-169310655D01*
X30296738Y-169315968D01*
X30296738Y-169315970D01*
X30334432Y-169456644D01*
X30350044Y-169514910D01*
X30352366Y-169519891D01*
X30352367Y-169519892D01*
X30409965Y-169643410D01*
X30439411Y-169706558D01*
X30560699Y-169879776D01*
X30710224Y-170029301D01*
X30883442Y-170150589D01*
X30888420Y-170152910D01*
X30888423Y-170152912D01*
X30983646Y-170197315D01*
X31075090Y-170239956D01*
X31080398Y-170241378D01*
X31080400Y-170241379D01*
X31274030Y-170293262D01*
X31274032Y-170293262D01*
X31279345Y-170294686D01*
X31490000Y-170313116D01*
X31495475Y-170312637D01*
X31695184Y-170295165D01*
X31695188Y-170295164D01*
X31700655Y-170294686D01*
X31705961Y-170293264D01*
X31710561Y-170292453D01*
X31781121Y-170300321D01*
X31821538Y-170327443D01*
X33134106Y-171640011D01*
X33168132Y-171702323D01*
X33171011Y-171729106D01*
X33171011Y-172597701D01*
X33151009Y-172665822D01*
X33097353Y-172712315D01*
X33027079Y-172722419D01*
X33012407Y-172719410D01*
X32908087Y-172691457D01*
X32680000Y-172671502D01*
X32451913Y-172691457D01*
X32446600Y-172692881D01*
X32446598Y-172692881D01*
X32236067Y-172749293D01*
X32236065Y-172749294D01*
X32230757Y-172750716D01*
X32225776Y-172753039D01*
X32225775Y-172753039D01*
X32028238Y-172845151D01*
X32028233Y-172845154D01*
X32023251Y-172847477D01*
X31956767Y-172894030D01*
X31840211Y-172975643D01*
X31840208Y-172975645D01*
X31835700Y-172978802D01*
X31673802Y-173140700D01*
X31670645Y-173145208D01*
X31670643Y-173145211D01*
X31615902Y-173223389D01*
X31542477Y-173328251D01*
X31540154Y-173333233D01*
X31540151Y-173333238D01*
X31472931Y-173477393D01*
X31445716Y-173535757D01*
X31444294Y-173541065D01*
X31444293Y-173541067D01*
X31387881Y-173751598D01*
X31386457Y-173756913D01*
X31366502Y-173985000D01*
X31386457Y-174213087D01*
X31387881Y-174218400D01*
X31387881Y-174218402D01*
X31405542Y-174284311D01*
X31445716Y-174434243D01*
X31448039Y-174439224D01*
X31448039Y-174439225D01*
X31540151Y-174636762D01*
X31540154Y-174636767D01*
X31542477Y-174641749D01*
X31582697Y-174699189D01*
X31668480Y-174821699D01*
X31673802Y-174829300D01*
X31835700Y-174991198D01*
X31840208Y-174994355D01*
X31840211Y-174994357D01*
X31918389Y-175049098D01*
X32023251Y-175122523D01*
X32028233Y-175124846D01*
X32028238Y-175124849D01*
X32062457Y-175140805D01*
X32115742Y-175187722D01*
X32135203Y-175255999D01*
X32114661Y-175323959D01*
X32062457Y-175369195D01*
X32028238Y-175385151D01*
X32028233Y-175385154D01*
X32023251Y-175387477D01*
X31918389Y-175460902D01*
X31840211Y-175515643D01*
X31840208Y-175515645D01*
X31835700Y-175518802D01*
X31673802Y-175680700D01*
X31670645Y-175685208D01*
X31670643Y-175685211D01*
X31624513Y-175751092D01*
X31542477Y-175868251D01*
X31540154Y-175873233D01*
X31540151Y-175873238D01*
X31499831Y-175959706D01*
X31445716Y-176075757D01*
X31444294Y-176081065D01*
X31444293Y-176081067D01*
X31406715Y-176221309D01*
X31386457Y-176296913D01*
X31366502Y-176525000D01*
X31386457Y-176753087D01*
X31387880Y-176758398D01*
X31387881Y-176758402D01*
X31418317Y-176871988D01*
X31445716Y-176974243D01*
X31448039Y-176979224D01*
X31448039Y-176979225D01*
X31540151Y-177176762D01*
X31540154Y-177176767D01*
X31542477Y-177181749D01*
X31604347Y-177270108D01*
X31662085Y-177352566D01*
X31673802Y-177369300D01*
X31835700Y-177531198D01*
X31840208Y-177534355D01*
X31840211Y-177534357D01*
X31893814Y-177571890D01*
X32023251Y-177662523D01*
X32028233Y-177664846D01*
X32028238Y-177664849D01*
X32062457Y-177680805D01*
X32115742Y-177727722D01*
X32135203Y-177795999D01*
X32114661Y-177863959D01*
X32062457Y-177909195D01*
X32028238Y-177925151D01*
X32028233Y-177925154D01*
X32023251Y-177927477D01*
X31918389Y-178000902D01*
X31840211Y-178055643D01*
X31840208Y-178055645D01*
X31835700Y-178058802D01*
X31673802Y-178220700D01*
X31670645Y-178225208D01*
X31670643Y-178225211D01*
X31617531Y-178301063D01*
X31542477Y-178408251D01*
X31540154Y-178413233D01*
X31540151Y-178413238D01*
X31511971Y-178473671D01*
X31445716Y-178615757D01*
X31444294Y-178621065D01*
X31444293Y-178621067D01*
X31388321Y-178829956D01*
X31386457Y-178836913D01*
X31366502Y-179065000D01*
X31386457Y-179293087D01*
X31387881Y-179298400D01*
X31387881Y-179298402D01*
X31396161Y-179329301D01*
X31445716Y-179514243D01*
X31448039Y-179519224D01*
X31448039Y-179519225D01*
X31540151Y-179716762D01*
X31540154Y-179716767D01*
X31542477Y-179721749D01*
X31587866Y-179786571D01*
X31668583Y-179901846D01*
X31673802Y-179909300D01*
X31835700Y-180071198D01*
X31840208Y-180074355D01*
X31840211Y-180074357D01*
X31918389Y-180129098D01*
X32023251Y-180202523D01*
X32028233Y-180204846D01*
X32028238Y-180204849D01*
X32063049Y-180221081D01*
X32116334Y-180267998D01*
X32135795Y-180336275D01*
X32115253Y-180404235D01*
X32063049Y-180449471D01*
X32028489Y-180465586D01*
X32018993Y-180471069D01*
X31840533Y-180596028D01*
X31832125Y-180603084D01*
X31678084Y-180757125D01*
X31671028Y-180765533D01*
X31546069Y-180943993D01*
X31540586Y-180953489D01*
X31448510Y-181150947D01*
X31444764Y-181161239D01*
X31398606Y-181333503D01*
X31398942Y-181347599D01*
X31406884Y-181351000D01*
X33947967Y-181351000D01*
X33961498Y-181347027D01*
X33962727Y-181338478D01*
X33915236Y-181161239D01*
X33911490Y-181150947D01*
X33819414Y-180953489D01*
X33813931Y-180943993D01*
X33688972Y-180765533D01*
X33681916Y-180757125D01*
X33527875Y-180603084D01*
X33519467Y-180596028D01*
X33341007Y-180471069D01*
X33331511Y-180465586D01*
X33296951Y-180449471D01*
X33243666Y-180402554D01*
X33224205Y-180334277D01*
X33244747Y-180266317D01*
X33296951Y-180221081D01*
X33331762Y-180204849D01*
X33331767Y-180204846D01*
X33336749Y-180202523D01*
X33441611Y-180129098D01*
X33519789Y-180074357D01*
X33519792Y-180074355D01*
X33524300Y-180071198D01*
X33686198Y-179909300D01*
X33691418Y-179901846D01*
X33772134Y-179786571D01*
X33817523Y-179721749D01*
X33819846Y-179716767D01*
X33819849Y-179716762D01*
X33911961Y-179519225D01*
X33911961Y-179519224D01*
X33914284Y-179514243D01*
X33963840Y-179329301D01*
X33972119Y-179298402D01*
X33972119Y-179298400D01*
X33973543Y-179293087D01*
X33993498Y-179065000D01*
X33973543Y-178836913D01*
X33971679Y-178829956D01*
X33915707Y-178621067D01*
X33915706Y-178621065D01*
X33914284Y-178615757D01*
X33848029Y-178473671D01*
X33819849Y-178413238D01*
X33819846Y-178413233D01*
X33817523Y-178408251D01*
X33742469Y-178301063D01*
X33689357Y-178225211D01*
X33689355Y-178225208D01*
X33686198Y-178220700D01*
X33524300Y-178058802D01*
X33519792Y-178055645D01*
X33519789Y-178055643D01*
X33441611Y-178000902D01*
X33336749Y-177927477D01*
X33331767Y-177925154D01*
X33331762Y-177925151D01*
X33297543Y-177909195D01*
X33244258Y-177862278D01*
X33224797Y-177794001D01*
X33245339Y-177726041D01*
X33297543Y-177680805D01*
X33331762Y-177664849D01*
X33331767Y-177664846D01*
X33336749Y-177662523D01*
X33466186Y-177571890D01*
X33519789Y-177534357D01*
X33519792Y-177534355D01*
X33524300Y-177531198D01*
X33686198Y-177369300D01*
X33697916Y-177352566D01*
X33755653Y-177270108D01*
X33817523Y-177181749D01*
X33819846Y-177176767D01*
X33819849Y-177176762D01*
X33911961Y-176979225D01*
X33911961Y-176979224D01*
X33914284Y-176974243D01*
X33941684Y-176871988D01*
X33972119Y-176758402D01*
X33972120Y-176758398D01*
X33973543Y-176753087D01*
X33993498Y-176525000D01*
X33993019Y-176519525D01*
X33993019Y-176519514D01*
X33991974Y-176507570D01*
X34005962Y-176437965D01*
X34055361Y-176386973D01*
X34124487Y-176370782D01*
X34191393Y-176394534D01*
X34206589Y-176407493D01*
X38990848Y-181191752D01*
X39024874Y-181254064D01*
X39023459Y-181313459D01*
X39007882Y-181371591D01*
X39007880Y-181371602D01*
X39006457Y-181376913D01*
X38986502Y-181605000D01*
X39006457Y-181833087D01*
X39007881Y-181838400D01*
X39007881Y-181838402D01*
X39056836Y-182021101D01*
X39065716Y-182054243D01*
X39068039Y-182059224D01*
X39068039Y-182059225D01*
X39160151Y-182256762D01*
X39160154Y-182256767D01*
X39162477Y-182261749D01*
X39220547Y-182344681D01*
X39284204Y-182435592D01*
X39293802Y-182449300D01*
X39455700Y-182611198D01*
X39460208Y-182614355D01*
X39460211Y-182614357D01*
X39467495Y-182619457D01*
X39643251Y-182742523D01*
X39648233Y-182744846D01*
X39648238Y-182744849D01*
X39682457Y-182760805D01*
X39735742Y-182807722D01*
X39755203Y-182875999D01*
X39734661Y-182943959D01*
X39682457Y-182989195D01*
X39648238Y-183005151D01*
X39648233Y-183005154D01*
X39643251Y-183007477D01*
X39594123Y-183041877D01*
X39460211Y-183135643D01*
X39460208Y-183135645D01*
X39455700Y-183138802D01*
X39293802Y-183300700D01*
X39162477Y-183488251D01*
X39160154Y-183493233D01*
X39160151Y-183493238D01*
X39069999Y-183686571D01*
X39065716Y-183695757D01*
X39064294Y-183701065D01*
X39064293Y-183701067D01*
X39014469Y-183887012D01*
X39006457Y-183916913D01*
X38986502Y-184145000D01*
X39006457Y-184373087D01*
X39007879Y-184378392D01*
X39007881Y-184378406D01*
X39023459Y-184436539D01*
X39021771Y-184507516D01*
X38990848Y-184558248D01*
X38886680Y-184662415D01*
X38783231Y-184765864D01*
X38774952Y-184773398D01*
X38768471Y-184777511D01*
X38742136Y-184805555D01*
X38721846Y-184827162D01*
X38719091Y-184830004D01*
X38699354Y-184849741D01*
X38696874Y-184852938D01*
X38689171Y-184861958D01*
X38658903Y-184894190D01*
X38655084Y-184901136D01*
X38655082Y-184901139D01*
X38649141Y-184911945D01*
X38638290Y-184928464D01*
X38625875Y-184944470D01*
X38622730Y-184951739D01*
X38622727Y-184951743D01*
X38608315Y-184985048D01*
X38603098Y-184995698D01*
X38581794Y-185034451D01*
X38579823Y-185042126D01*
X38579823Y-185042127D01*
X38576756Y-185054073D01*
X38570352Y-185072777D01*
X38562308Y-185091366D01*
X38561069Y-185099189D01*
X38561066Y-185099199D01*
X38555390Y-185135035D01*
X38552984Y-185146655D01*
X38551818Y-185151198D01*
X38541989Y-185189481D01*
X38541989Y-185209735D01*
X38540438Y-185229445D01*
X38537269Y-185249454D01*
X38538015Y-185257346D01*
X38541430Y-185293472D01*
X38541989Y-185305330D01*
X38541989Y-189340500D01*
X38521987Y-189408621D01*
X38468331Y-189455114D01*
X38415989Y-189466500D01*
X36358768Y-189466500D01*
X36347585Y-189465973D01*
X36340092Y-189464298D01*
X36332166Y-189464547D01*
X36332165Y-189464547D01*
X36272002Y-189466438D01*
X36268044Y-189466500D01*
X36240144Y-189466500D01*
X36236154Y-189467004D01*
X36224320Y-189467936D01*
X36180111Y-189469326D01*
X36172495Y-189471539D01*
X36172493Y-189471539D01*
X36160652Y-189474979D01*
X36141293Y-189478988D01*
X36139983Y-189479154D01*
X36121203Y-189481526D01*
X36113837Y-189484442D01*
X36113831Y-189484444D01*
X36080098Y-189497800D01*
X36068868Y-189501645D01*
X36034017Y-189511770D01*
X36026407Y-189513981D01*
X36019584Y-189518016D01*
X36008966Y-189524295D01*
X35991213Y-189532992D01*
X35987736Y-189534369D01*
X35972383Y-189540448D01*
X35965968Y-189545109D01*
X35936612Y-189566437D01*
X35926695Y-189572951D01*
X35888638Y-189595458D01*
X35874317Y-189609779D01*
X35859284Y-189622619D01*
X35842893Y-189634528D01*
X35817092Y-189665716D01*
X35814702Y-189668605D01*
X35806712Y-189677384D01*
X34211538Y-191272557D01*
X34149226Y-191306583D01*
X34100561Y-191307547D01*
X34095961Y-191306736D01*
X34090655Y-191305314D01*
X34085188Y-191304836D01*
X34085184Y-191304835D01*
X33885475Y-191287363D01*
X33880000Y-191286884D01*
X33669345Y-191305314D01*
X33664032Y-191306738D01*
X33664030Y-191306738D01*
X33470400Y-191358621D01*
X33470398Y-191358622D01*
X33465090Y-191360044D01*
X33460109Y-191362366D01*
X33460108Y-191362367D01*
X33278423Y-191447088D01*
X33278420Y-191447090D01*
X33273442Y-191449411D01*
X33100224Y-191570699D01*
X32950699Y-191720224D01*
X32829411Y-191893442D01*
X32827090Y-191898420D01*
X32827088Y-191898423D01*
X32754182Y-192054771D01*
X32740044Y-192085090D01*
X32738622Y-192090398D01*
X32738621Y-192090400D01*
X32692721Y-192261703D01*
X32685314Y-192289345D01*
X32666884Y-192500000D01*
X32685314Y-192710655D01*
X32686738Y-192715968D01*
X32686738Y-192715970D01*
X32704625Y-192782723D01*
X32740044Y-192914910D01*
X32742366Y-192919891D01*
X32742367Y-192919892D01*
X32791257Y-193024736D01*
X32829411Y-193106558D01*
X32950699Y-193279776D01*
X33100224Y-193429301D01*
X33125199Y-193446789D01*
X33169526Y-193502243D01*
X33176835Y-193572862D01*
X33144805Y-193636223D01*
X33125204Y-193653208D01*
X33100224Y-193670699D01*
X32950699Y-193820224D01*
X32829411Y-193993442D01*
X32827090Y-193998420D01*
X32827088Y-193998423D01*
X32790032Y-194077890D01*
X32740044Y-194185090D01*
X32738622Y-194190398D01*
X32738621Y-194190400D01*
X32705894Y-194312539D01*
X32685314Y-194389345D01*
X32666884Y-194600000D01*
X32685314Y-194810655D01*
X32686738Y-194815968D01*
X32686738Y-194815970D01*
X32728645Y-194972367D01*
X32740044Y-195014910D01*
X32742366Y-195019891D01*
X32742367Y-195019892D01*
X32817353Y-195180699D01*
X32829411Y-195206558D01*
X32950699Y-195379776D01*
X33100224Y-195529301D01*
X33125199Y-195546789D01*
X33169526Y-195602243D01*
X33176835Y-195672862D01*
X33144805Y-195736223D01*
X33125204Y-195753208D01*
X33100224Y-195770699D01*
X32950699Y-195920224D01*
X32829411Y-196093442D01*
X32827090Y-196098420D01*
X32827088Y-196098423D01*
X32745286Y-196273848D01*
X32740044Y-196285090D01*
X32738622Y-196290398D01*
X32738621Y-196290400D01*
X32687202Y-196482299D01*
X32685314Y-196489345D01*
X32666884Y-196700000D01*
X32685314Y-196910655D01*
X32686738Y-196915968D01*
X32686738Y-196915970D01*
X32733406Y-197090135D01*
X32740044Y-197114910D01*
X32742366Y-197119891D01*
X32742367Y-197119892D01*
X32803681Y-197251379D01*
X32829411Y-197306558D01*
X32950699Y-197479776D01*
X33047828Y-197576905D01*
X33081854Y-197639217D01*
X33076789Y-197710032D01*
X33034242Y-197766868D01*
X32967722Y-197791679D01*
X32958733Y-197792000D01*
X16249328Y-197792000D01*
X16229943Y-197790500D01*
X16215142Y-197788195D01*
X16215139Y-197788195D01*
X16206270Y-197786814D01*
X16186946Y-197789341D01*
X16164430Y-197790253D01*
X15863900Y-197775488D01*
X15851606Y-197774278D01*
X15524861Y-197725809D01*
X15512751Y-197723401D01*
X15192324Y-197643138D01*
X15180493Y-197639549D01*
X14869506Y-197528275D01*
X14858082Y-197523544D01*
X14559477Y-197382315D01*
X14548572Y-197376486D01*
X14265255Y-197206672D01*
X14254974Y-197199802D01*
X13989671Y-197003040D01*
X13980113Y-196995196D01*
X13735370Y-196773374D01*
X13726626Y-196764630D01*
X13504804Y-196519887D01*
X13496960Y-196510329D01*
X13300198Y-196245026D01*
X13293328Y-196234745D01*
X13123514Y-195951428D01*
X13117685Y-195940523D01*
X13110219Y-195924736D01*
X13039207Y-195774594D01*
X12976456Y-195641918D01*
X12971725Y-195630494D01*
X12860451Y-195319507D01*
X12856861Y-195307674D01*
X12840730Y-195243276D01*
X12776599Y-194987249D01*
X12774189Y-194975130D01*
X12773780Y-194972367D01*
X12750327Y-194814261D01*
X14440294Y-194814261D01*
X14449590Y-194826276D01*
X14479189Y-194847001D01*
X14488677Y-194852479D01*
X14670277Y-194937159D01*
X14680571Y-194940907D01*
X14874122Y-194992769D01*
X14884909Y-194994671D01*
X15084525Y-195012135D01*
X15095475Y-195012135D01*
X15295091Y-194994671D01*
X15305878Y-194992769D01*
X15499429Y-194940907D01*
X15509723Y-194937159D01*
X15691323Y-194852479D01*
X15700811Y-194847001D01*
X15731248Y-194825689D01*
X15739623Y-194815212D01*
X15732554Y-194801764D01*
X15102812Y-194172022D01*
X15088868Y-194164408D01*
X15087035Y-194164539D01*
X15080420Y-194168790D01*
X14446724Y-194802486D01*
X14440294Y-194814261D01*
X12750327Y-194814261D01*
X12725722Y-194648394D01*
X12724511Y-194636093D01*
X12723368Y-194612812D01*
X12714580Y-194433931D01*
X12710293Y-194346665D01*
X12711886Y-194319586D01*
X12712264Y-194317340D01*
X12712265Y-194317331D01*
X12713071Y-194312539D01*
X12713224Y-194300000D01*
X12709272Y-194272403D01*
X12708000Y-194254546D01*
X12708000Y-193805475D01*
X13877865Y-193805475D01*
X13895329Y-194005091D01*
X13897231Y-194015878D01*
X13949093Y-194209429D01*
X13952841Y-194219723D01*
X14037521Y-194401323D01*
X14042999Y-194410811D01*
X14064311Y-194441248D01*
X14074788Y-194449623D01*
X14088236Y-194442554D01*
X14717978Y-193812812D01*
X14724356Y-193801132D01*
X15454408Y-193801132D01*
X15454539Y-193802965D01*
X15458790Y-193809580D01*
X16092486Y-194443276D01*
X16104261Y-194449706D01*
X16116276Y-194440410D01*
X16137001Y-194410811D01*
X16142479Y-194401323D01*
X16227159Y-194219723D01*
X16230907Y-194209429D01*
X16282769Y-194015878D01*
X16284671Y-194005091D01*
X16302135Y-193805475D01*
X16302135Y-193800000D01*
X21496884Y-193800000D01*
X21515314Y-194010655D01*
X21516738Y-194015968D01*
X21516738Y-194015970D01*
X21563477Y-194190400D01*
X21570044Y-194214910D01*
X21572366Y-194219891D01*
X21572367Y-194219892D01*
X21653940Y-194394825D01*
X21659411Y-194406558D01*
X21780699Y-194579776D01*
X21930224Y-194729301D01*
X22103442Y-194850589D01*
X22108420Y-194852910D01*
X22108423Y-194852912D01*
X22289092Y-194937159D01*
X22295090Y-194939956D01*
X22300398Y-194941378D01*
X22300400Y-194941379D01*
X22494030Y-194993262D01*
X22494032Y-194993262D01*
X22499345Y-194994686D01*
X22710000Y-195013116D01*
X22920655Y-194994686D01*
X22925968Y-194993262D01*
X22925970Y-194993262D01*
X23119600Y-194941379D01*
X23119602Y-194941378D01*
X23124910Y-194939956D01*
X23130908Y-194937159D01*
X23311577Y-194852912D01*
X23311580Y-194852910D01*
X23316558Y-194850589D01*
X23489776Y-194729301D01*
X23639301Y-194579776D01*
X23760589Y-194406558D01*
X23766061Y-194394825D01*
X23847633Y-194219892D01*
X23847634Y-194219891D01*
X23849956Y-194214910D01*
X23856524Y-194190400D01*
X23867849Y-194148134D01*
X24991500Y-194148134D01*
X24998255Y-194210316D01*
X25049385Y-194346705D01*
X25136739Y-194463261D01*
X25253295Y-194550615D01*
X25389684Y-194601745D01*
X25451866Y-194608500D01*
X27148134Y-194608500D01*
X27210316Y-194601745D01*
X27346705Y-194550615D01*
X27463261Y-194463261D01*
X27521119Y-194386062D01*
X28078493Y-194386062D01*
X28087789Y-194398077D01*
X28138994Y-194433931D01*
X28148489Y-194439414D01*
X28345947Y-194531490D01*
X28356239Y-194535236D01*
X28566688Y-194591625D01*
X28577481Y-194593528D01*
X28794525Y-194612517D01*
X28805475Y-194612517D01*
X29022519Y-194593528D01*
X29033312Y-194591625D01*
X29243761Y-194535236D01*
X29254053Y-194531490D01*
X29451511Y-194439414D01*
X29461006Y-194433931D01*
X29513048Y-194397491D01*
X29521424Y-194387012D01*
X29514356Y-194373566D01*
X28812812Y-193672022D01*
X28798868Y-193664408D01*
X28797035Y-193664539D01*
X28790420Y-193668790D01*
X28084923Y-194374287D01*
X28078493Y-194386062D01*
X27521119Y-194386062D01*
X27550615Y-194346705D01*
X27601745Y-194210316D01*
X27608500Y-194148134D01*
X27608500Y-194144815D01*
X27632153Y-194077890D01*
X27678156Y-194042196D01*
X27677141Y-194040266D01*
X27688000Y-194034558D01*
X27688245Y-194034368D01*
X27688403Y-194034347D01*
X27726434Y-194014356D01*
X28427978Y-193312812D01*
X28434356Y-193301132D01*
X29164408Y-193301132D01*
X29164539Y-193302965D01*
X29168790Y-193309580D01*
X29874287Y-194015077D01*
X29886062Y-194021507D01*
X29898077Y-194012211D01*
X29933931Y-193961006D01*
X29939414Y-193951511D01*
X30031490Y-193754053D01*
X30035236Y-193743761D01*
X30091625Y-193533312D01*
X30093528Y-193522519D01*
X30112517Y-193305475D01*
X30112517Y-193294525D01*
X30093528Y-193077481D01*
X30091625Y-193066688D01*
X30035236Y-192856239D01*
X30031490Y-192845947D01*
X29939414Y-192648489D01*
X29933931Y-192638994D01*
X29897491Y-192586952D01*
X29887012Y-192578576D01*
X29873566Y-192585644D01*
X29172022Y-193287188D01*
X29164408Y-193301132D01*
X28434356Y-193301132D01*
X28435592Y-193298868D01*
X28435461Y-193297035D01*
X28431210Y-193290420D01*
X27725713Y-192584923D01*
X27683971Y-192562129D01*
X27673971Y-192559953D01*
X27623773Y-192509747D01*
X27608549Y-192456186D01*
X27608500Y-192455281D01*
X27608500Y-192451866D01*
X27601745Y-192389684D01*
X27550615Y-192253295D01*
X27520407Y-192212988D01*
X28078576Y-192212988D01*
X28085644Y-192226434D01*
X28787188Y-192927978D01*
X28801132Y-192935592D01*
X28802965Y-192935461D01*
X28809580Y-192931210D01*
X29515077Y-192225713D01*
X29521507Y-192213938D01*
X29512211Y-192201923D01*
X29461006Y-192166069D01*
X29451511Y-192160586D01*
X29254053Y-192068510D01*
X29243761Y-192064764D01*
X29033312Y-192008375D01*
X29022519Y-192006472D01*
X28805475Y-191987483D01*
X28794525Y-191987483D01*
X28577481Y-192006472D01*
X28566688Y-192008375D01*
X28356239Y-192064764D01*
X28345947Y-192068510D01*
X28148489Y-192160586D01*
X28138994Y-192166069D01*
X28086952Y-192202509D01*
X28078576Y-192212988D01*
X27520407Y-192212988D01*
X27463261Y-192136739D01*
X27346705Y-192049385D01*
X27210316Y-191998255D01*
X27148134Y-191991500D01*
X25451866Y-191991500D01*
X25389684Y-191998255D01*
X25253295Y-192049385D01*
X25136739Y-192136739D01*
X25049385Y-192253295D01*
X24998255Y-192389684D01*
X24991500Y-192451866D01*
X24991500Y-194148134D01*
X23867849Y-194148134D01*
X23903262Y-194015970D01*
X23903262Y-194015968D01*
X23904686Y-194010655D01*
X23923116Y-193800000D01*
X23904686Y-193589345D01*
X23903262Y-193584030D01*
X23851379Y-193390400D01*
X23851378Y-193390398D01*
X23849956Y-193385090D01*
X23812831Y-193305475D01*
X23762912Y-193198423D01*
X23762910Y-193198420D01*
X23760589Y-193193442D01*
X23639301Y-193020224D01*
X23489776Y-192870699D01*
X23398394Y-192806713D01*
X23354067Y-192751257D01*
X23346758Y-192680638D01*
X23378789Y-192617277D01*
X23398392Y-192600290D01*
X23499776Y-192529301D01*
X23649301Y-192379776D01*
X23770589Y-192206558D01*
X23789470Y-192166069D01*
X23857633Y-192019892D01*
X23857634Y-192019891D01*
X23859956Y-192014910D01*
X23863676Y-192001029D01*
X23913262Y-191815970D01*
X23913262Y-191815968D01*
X23914686Y-191810655D01*
X23933116Y-191600000D01*
X23914686Y-191389345D01*
X23887232Y-191286884D01*
X23861379Y-191190400D01*
X23861378Y-191190398D01*
X23859956Y-191185090D01*
X23849408Y-191162469D01*
X23772912Y-190998423D01*
X23772910Y-190998420D01*
X23770589Y-190993442D01*
X23649301Y-190820224D01*
X23499776Y-190670699D01*
X23326558Y-190549411D01*
X23321580Y-190547090D01*
X23321577Y-190547088D01*
X23139892Y-190462367D01*
X23139891Y-190462366D01*
X23134910Y-190460044D01*
X23129602Y-190458622D01*
X23129600Y-190458621D01*
X22935970Y-190406738D01*
X22935968Y-190406738D01*
X22930655Y-190405314D01*
X22720000Y-190386884D01*
X22509345Y-190405314D01*
X22504032Y-190406738D01*
X22504030Y-190406738D01*
X22310400Y-190458621D01*
X22310398Y-190458622D01*
X22305090Y-190460044D01*
X22300109Y-190462366D01*
X22300108Y-190462367D01*
X22118423Y-190547088D01*
X22118420Y-190547090D01*
X22113442Y-190549411D01*
X21940224Y-190670699D01*
X21790699Y-190820224D01*
X21669411Y-190993442D01*
X21667090Y-190998420D01*
X21667088Y-190998423D01*
X21590592Y-191162469D01*
X21580044Y-191185090D01*
X21578622Y-191190398D01*
X21578621Y-191190400D01*
X21552768Y-191286884D01*
X21525314Y-191389345D01*
X21506884Y-191600000D01*
X21525314Y-191810655D01*
X21526738Y-191815968D01*
X21526738Y-191815970D01*
X21576325Y-192001029D01*
X21580044Y-192014910D01*
X21582366Y-192019891D01*
X21582367Y-192019892D01*
X21650531Y-192166069D01*
X21669411Y-192206558D01*
X21790699Y-192379776D01*
X21940224Y-192529301D01*
X22031606Y-192593287D01*
X22075933Y-192648743D01*
X22083242Y-192719362D01*
X22051211Y-192782723D01*
X22031608Y-192799710D01*
X21930224Y-192870699D01*
X21780699Y-193020224D01*
X21659411Y-193193442D01*
X21657090Y-193198420D01*
X21657088Y-193198423D01*
X21607169Y-193305475D01*
X21570044Y-193385090D01*
X21568622Y-193390398D01*
X21568621Y-193390400D01*
X21516738Y-193584030D01*
X21515314Y-193589345D01*
X21496884Y-193800000D01*
X16302135Y-193800000D01*
X16302135Y-193794525D01*
X16284671Y-193594909D01*
X16282769Y-193584122D01*
X16230907Y-193390571D01*
X16227159Y-193380277D01*
X16142479Y-193198677D01*
X16137001Y-193189189D01*
X16115689Y-193158752D01*
X16105212Y-193150377D01*
X16091764Y-193157446D01*
X15462022Y-193787188D01*
X15454408Y-193801132D01*
X14724356Y-193801132D01*
X14725592Y-193798868D01*
X14725461Y-193797035D01*
X14721210Y-193790420D01*
X14087514Y-193156724D01*
X14075739Y-193150294D01*
X14063724Y-193159590D01*
X14042999Y-193189189D01*
X14037521Y-193198677D01*
X13952841Y-193380277D01*
X13949093Y-193390571D01*
X13897231Y-193584122D01*
X13895329Y-193594909D01*
X13877865Y-193794525D01*
X13877865Y-193805475D01*
X12708000Y-193805475D01*
X12708000Y-191600000D01*
X13886884Y-191600000D01*
X13905314Y-191810655D01*
X13906738Y-191815968D01*
X13906738Y-191815970D01*
X13956325Y-192001029D01*
X13960044Y-192014910D01*
X13962366Y-192019891D01*
X13962367Y-192019892D01*
X14030531Y-192166069D01*
X14049411Y-192206558D01*
X14170699Y-192379776D01*
X14320224Y-192529301D01*
X14418214Y-192597914D01*
X14462543Y-192653371D01*
X14469852Y-192723990D01*
X14444366Y-192779798D01*
X14440377Y-192784788D01*
X14447446Y-192798236D01*
X15077188Y-193427978D01*
X15091132Y-193435592D01*
X15092965Y-193435461D01*
X15099580Y-193431210D01*
X15733276Y-192797514D01*
X15740107Y-192785005D01*
X15715235Y-192721420D01*
X15729224Y-192651815D01*
X15768482Y-192607230D01*
X15879776Y-192529301D01*
X16029301Y-192379776D01*
X16150589Y-192206558D01*
X16169470Y-192166069D01*
X16237633Y-192019892D01*
X16237634Y-192019891D01*
X16239956Y-192014910D01*
X16243676Y-192001029D01*
X16293262Y-191815970D01*
X16293262Y-191815968D01*
X16294686Y-191810655D01*
X16313116Y-191600000D01*
X16294686Y-191389345D01*
X16267232Y-191286884D01*
X16241379Y-191190400D01*
X16241378Y-191190398D01*
X16239956Y-191185090D01*
X16229408Y-191162469D01*
X16152912Y-190998423D01*
X16152910Y-190998420D01*
X16150589Y-190993442D01*
X16029301Y-190820224D01*
X15879776Y-190670699D01*
X15706558Y-190549411D01*
X15701580Y-190547090D01*
X15701577Y-190547088D01*
X15519892Y-190462367D01*
X15519891Y-190462366D01*
X15514910Y-190460044D01*
X15509602Y-190458622D01*
X15509600Y-190458621D01*
X15315970Y-190406738D01*
X15315968Y-190406738D01*
X15310655Y-190405314D01*
X15100000Y-190386884D01*
X14889345Y-190405314D01*
X14884032Y-190406738D01*
X14884030Y-190406738D01*
X14690400Y-190458621D01*
X14690398Y-190458622D01*
X14685090Y-190460044D01*
X14680109Y-190462366D01*
X14680108Y-190462367D01*
X14498423Y-190547088D01*
X14498420Y-190547090D01*
X14493442Y-190549411D01*
X14320224Y-190670699D01*
X14170699Y-190820224D01*
X14049411Y-190993442D01*
X14047090Y-190998420D01*
X14047088Y-190998423D01*
X13970592Y-191162469D01*
X13960044Y-191185090D01*
X13958622Y-191190398D01*
X13958621Y-191190400D01*
X13932768Y-191286884D01*
X13905314Y-191389345D01*
X13886884Y-191600000D01*
X12708000Y-191600000D01*
X12708000Y-189245987D01*
X21546221Y-189245987D01*
X21555048Y-189257605D01*
X21777781Y-189419430D01*
X21784461Y-189423670D01*
X22054072Y-189571890D01*
X22061207Y-189575247D01*
X22347270Y-189688508D01*
X22354796Y-189690953D01*
X22652779Y-189767462D01*
X22660550Y-189768945D01*
X22965778Y-189807503D01*
X22973669Y-189808000D01*
X23281331Y-189808000D01*
X23289222Y-189807503D01*
X23594450Y-189768945D01*
X23602221Y-189767462D01*
X23900204Y-189690953D01*
X23907730Y-189688508D01*
X24193793Y-189575247D01*
X24200928Y-189571890D01*
X24470539Y-189423670D01*
X24477219Y-189419430D01*
X24700323Y-189257336D01*
X24708746Y-189246413D01*
X24701842Y-189233552D01*
X24693290Y-189225000D01*
X31366502Y-189225000D01*
X31386457Y-189453087D01*
X31387881Y-189458400D01*
X31387881Y-189458402D01*
X31431884Y-189622620D01*
X31445716Y-189674243D01*
X31448039Y-189679224D01*
X31448039Y-189679225D01*
X31540151Y-189876762D01*
X31540154Y-189876767D01*
X31542477Y-189881749D01*
X31615902Y-189986611D01*
X31667438Y-190060211D01*
X31673802Y-190069300D01*
X31835700Y-190231198D01*
X31840208Y-190234355D01*
X31840211Y-190234357D01*
X31867553Y-190253502D01*
X32023251Y-190362523D01*
X32028233Y-190364846D01*
X32028238Y-190364849D01*
X32223858Y-190456067D01*
X32230757Y-190459284D01*
X32236065Y-190460706D01*
X32236067Y-190460707D01*
X32446598Y-190517119D01*
X32446600Y-190517119D01*
X32451913Y-190518543D01*
X32680000Y-190538498D01*
X32908087Y-190518543D01*
X32913400Y-190517119D01*
X32913402Y-190517119D01*
X33123933Y-190460707D01*
X33123935Y-190460706D01*
X33129243Y-190459284D01*
X33136142Y-190456067D01*
X33331762Y-190364849D01*
X33331767Y-190364846D01*
X33336749Y-190362523D01*
X33492447Y-190253502D01*
X33519789Y-190234357D01*
X33519792Y-190234355D01*
X33524300Y-190231198D01*
X33686198Y-190069300D01*
X33692563Y-190060211D01*
X33744098Y-189986611D01*
X33817523Y-189881749D01*
X33819846Y-189876767D01*
X33819849Y-189876762D01*
X33911961Y-189679225D01*
X33911961Y-189679224D01*
X33914284Y-189674243D01*
X33928117Y-189622620D01*
X33972119Y-189458402D01*
X33972119Y-189458400D01*
X33973543Y-189453087D01*
X33993498Y-189225000D01*
X33973543Y-188996913D01*
X33964780Y-188964210D01*
X33915707Y-188781067D01*
X33915706Y-188781065D01*
X33914284Y-188775757D01*
X33899387Y-188743809D01*
X33819849Y-188573238D01*
X33819846Y-188573233D01*
X33817523Y-188568251D01*
X33699712Y-188400000D01*
X33689357Y-188385211D01*
X33689355Y-188385208D01*
X33686198Y-188380700D01*
X33524300Y-188218802D01*
X33519792Y-188215645D01*
X33519789Y-188215643D01*
X33438124Y-188158461D01*
X33336749Y-188087477D01*
X33331767Y-188085154D01*
X33331762Y-188085151D01*
X33297543Y-188069195D01*
X33244258Y-188022278D01*
X33224797Y-187954001D01*
X33245339Y-187886041D01*
X33297543Y-187840805D01*
X33331762Y-187824849D01*
X33331767Y-187824846D01*
X33336749Y-187822523D01*
X33456399Y-187738743D01*
X33519789Y-187694357D01*
X33519792Y-187694355D01*
X33524300Y-187691198D01*
X33686198Y-187529300D01*
X33817523Y-187341749D01*
X33819846Y-187336767D01*
X33819849Y-187336762D01*
X33911961Y-187139225D01*
X33911961Y-187139224D01*
X33914284Y-187134243D01*
X33925731Y-187091525D01*
X33972119Y-186918402D01*
X33972119Y-186918400D01*
X33973543Y-186913087D01*
X33993498Y-186685000D01*
X33973543Y-186456913D01*
X33971647Y-186449836D01*
X33915707Y-186241067D01*
X33915706Y-186241065D01*
X33914284Y-186235757D01*
X33889371Y-186182331D01*
X33819849Y-186033238D01*
X33819846Y-186033233D01*
X33817523Y-186028251D01*
X33742292Y-185920811D01*
X33689357Y-185845211D01*
X33689355Y-185845208D01*
X33686198Y-185840700D01*
X33524300Y-185678802D01*
X33519792Y-185675645D01*
X33519789Y-185675643D01*
X33390890Y-185585387D01*
X33336749Y-185547477D01*
X33331767Y-185545154D01*
X33331762Y-185545151D01*
X33297543Y-185529195D01*
X33244258Y-185482278D01*
X33224797Y-185414001D01*
X33245339Y-185346041D01*
X33297543Y-185300805D01*
X33331762Y-185284849D01*
X33331767Y-185284846D01*
X33336749Y-185282523D01*
X33458303Y-185197410D01*
X33519789Y-185154357D01*
X33519792Y-185154355D01*
X33524300Y-185151198D01*
X33686198Y-184989300D01*
X33694791Y-184977029D01*
X33767099Y-184873762D01*
X33817523Y-184801749D01*
X33819846Y-184796767D01*
X33819849Y-184796762D01*
X33911961Y-184599225D01*
X33911961Y-184599224D01*
X33914284Y-184594243D01*
X33971504Y-184380699D01*
X33972119Y-184378402D01*
X33972119Y-184378400D01*
X33973543Y-184373087D01*
X33993498Y-184145000D01*
X33973543Y-183916913D01*
X33965531Y-183887012D01*
X33915707Y-183701067D01*
X33915706Y-183701065D01*
X33914284Y-183695757D01*
X33910001Y-183686571D01*
X33819849Y-183493238D01*
X33819846Y-183493233D01*
X33817523Y-183488251D01*
X33686198Y-183300700D01*
X33524300Y-183138802D01*
X33519792Y-183135645D01*
X33519789Y-183135643D01*
X33385877Y-183041877D01*
X33336749Y-183007477D01*
X33331767Y-183005154D01*
X33331762Y-183005151D01*
X33296951Y-182988919D01*
X33243666Y-182942002D01*
X33224205Y-182873725D01*
X33244747Y-182805765D01*
X33296951Y-182760529D01*
X33331511Y-182744414D01*
X33341007Y-182738931D01*
X33519467Y-182613972D01*
X33527875Y-182606916D01*
X33681916Y-182452875D01*
X33688972Y-182444467D01*
X33813931Y-182266007D01*
X33819414Y-182256511D01*
X33911490Y-182059053D01*
X33915236Y-182048761D01*
X33961394Y-181876497D01*
X33961058Y-181862401D01*
X33953116Y-181859000D01*
X31412033Y-181859000D01*
X31398502Y-181862973D01*
X31397273Y-181871522D01*
X31444764Y-182048761D01*
X31448510Y-182059053D01*
X31540586Y-182256511D01*
X31546069Y-182266007D01*
X31671028Y-182444467D01*
X31678084Y-182452875D01*
X31832125Y-182606916D01*
X31840533Y-182613972D01*
X32018993Y-182738931D01*
X32028489Y-182744414D01*
X32063049Y-182760529D01*
X32116334Y-182807446D01*
X32135795Y-182875723D01*
X32115253Y-182943683D01*
X32063049Y-182988919D01*
X32028238Y-183005151D01*
X32028233Y-183005154D01*
X32023251Y-183007477D01*
X31974123Y-183041877D01*
X31840211Y-183135643D01*
X31840208Y-183135645D01*
X31835700Y-183138802D01*
X31673802Y-183300700D01*
X31542477Y-183488251D01*
X31540154Y-183493233D01*
X31540151Y-183493238D01*
X31449999Y-183686571D01*
X31445716Y-183695757D01*
X31444294Y-183701065D01*
X31444293Y-183701067D01*
X31394469Y-183887012D01*
X31386457Y-183916913D01*
X31366502Y-184145000D01*
X31386457Y-184373087D01*
X31387881Y-184378400D01*
X31387881Y-184378402D01*
X31388497Y-184380699D01*
X31445716Y-184594243D01*
X31448039Y-184599224D01*
X31448039Y-184599225D01*
X31540151Y-184796762D01*
X31540154Y-184796767D01*
X31542477Y-184801749D01*
X31592901Y-184873762D01*
X31665210Y-184977029D01*
X31673802Y-184989300D01*
X31835700Y-185151198D01*
X31840208Y-185154355D01*
X31840211Y-185154357D01*
X31901697Y-185197410D01*
X32023251Y-185282523D01*
X32028233Y-185284846D01*
X32028238Y-185284849D01*
X32062457Y-185300805D01*
X32115742Y-185347722D01*
X32135203Y-185415999D01*
X32114661Y-185483959D01*
X32062457Y-185529195D01*
X32028238Y-185545151D01*
X32028233Y-185545154D01*
X32023251Y-185547477D01*
X31969110Y-185585387D01*
X31840211Y-185675643D01*
X31840208Y-185675645D01*
X31835700Y-185678802D01*
X31673802Y-185840700D01*
X31670645Y-185845208D01*
X31670643Y-185845211D01*
X31617708Y-185920811D01*
X31542477Y-186028251D01*
X31540154Y-186033233D01*
X31540151Y-186033238D01*
X31470629Y-186182331D01*
X31445716Y-186235757D01*
X31444294Y-186241065D01*
X31444293Y-186241067D01*
X31388353Y-186449836D01*
X31386457Y-186456913D01*
X31366502Y-186685000D01*
X31386457Y-186913087D01*
X31387881Y-186918400D01*
X31387881Y-186918402D01*
X31434270Y-187091525D01*
X31445716Y-187134243D01*
X31448039Y-187139224D01*
X31448039Y-187139225D01*
X31540151Y-187336762D01*
X31540154Y-187336767D01*
X31542477Y-187341749D01*
X31673802Y-187529300D01*
X31835700Y-187691198D01*
X31840208Y-187694355D01*
X31840211Y-187694357D01*
X31903601Y-187738743D01*
X32023251Y-187822523D01*
X32028233Y-187824846D01*
X32028238Y-187824849D01*
X32062457Y-187840805D01*
X32115742Y-187887722D01*
X32135203Y-187955999D01*
X32114661Y-188023959D01*
X32062457Y-188069195D01*
X32028238Y-188085151D01*
X32028233Y-188085154D01*
X32023251Y-188087477D01*
X31921876Y-188158461D01*
X31840211Y-188215643D01*
X31840208Y-188215645D01*
X31835700Y-188218802D01*
X31673802Y-188380700D01*
X31670645Y-188385208D01*
X31670643Y-188385211D01*
X31660288Y-188400000D01*
X31542477Y-188568251D01*
X31540154Y-188573233D01*
X31540151Y-188573238D01*
X31460613Y-188743809D01*
X31445716Y-188775757D01*
X31444294Y-188781065D01*
X31444293Y-188781067D01*
X31395220Y-188964210D01*
X31386457Y-188996913D01*
X31366502Y-189225000D01*
X24693290Y-189225000D01*
X23140312Y-187672022D01*
X23126368Y-187664408D01*
X23124535Y-187664539D01*
X23117920Y-187668790D01*
X21552834Y-189233876D01*
X21546221Y-189245987D01*
X12708000Y-189245987D01*
X12708000Y-187303958D01*
X20614790Y-187303958D01*
X20634107Y-187610994D01*
X20635100Y-187618855D01*
X20692746Y-187921046D01*
X20694717Y-187928723D01*
X20789784Y-188221309D01*
X20792699Y-188228672D01*
X20923689Y-188507041D01*
X20927501Y-188513974D01*
X21092351Y-188773736D01*
X21096995Y-188780129D01*
X21171997Y-188870790D01*
X21184514Y-188879245D01*
X21195252Y-188873038D01*
X22755478Y-187312812D01*
X22761856Y-187301132D01*
X23491908Y-187301132D01*
X23492039Y-187302965D01*
X23496290Y-187309580D01*
X25058645Y-188871935D01*
X25071907Y-188879177D01*
X25082012Y-188871988D01*
X25158005Y-188780129D01*
X25162649Y-188773736D01*
X25327499Y-188513974D01*
X25331311Y-188507041D01*
X25462301Y-188228672D01*
X25465216Y-188221309D01*
X25560283Y-187928723D01*
X25562254Y-187921046D01*
X25619900Y-187618855D01*
X25620893Y-187610994D01*
X25640210Y-187303958D01*
X25640210Y-187296042D01*
X25620893Y-186989006D01*
X25619900Y-186981145D01*
X25562254Y-186678954D01*
X25560283Y-186671277D01*
X25465216Y-186378691D01*
X25462301Y-186371328D01*
X25331311Y-186092959D01*
X25327499Y-186086026D01*
X25162649Y-185826264D01*
X25158005Y-185819871D01*
X25083003Y-185729210D01*
X25070486Y-185720755D01*
X25059748Y-185726962D01*
X23499522Y-187287188D01*
X23491908Y-187301132D01*
X22761856Y-187301132D01*
X22763092Y-187298868D01*
X22762961Y-187297035D01*
X22758710Y-187290420D01*
X21196355Y-185728065D01*
X21183093Y-185720823D01*
X21172988Y-185728012D01*
X21096995Y-185819871D01*
X21092351Y-185826264D01*
X20927501Y-186086026D01*
X20923689Y-186092959D01*
X20792699Y-186371328D01*
X20789784Y-186378691D01*
X20694717Y-186671277D01*
X20692746Y-186678954D01*
X20635100Y-186981145D01*
X20634107Y-186989006D01*
X20614790Y-187296042D01*
X20614790Y-187303958D01*
X12708000Y-187303958D01*
X12708000Y-185353587D01*
X21546254Y-185353587D01*
X21553158Y-185366448D01*
X23114688Y-186927978D01*
X23128632Y-186935592D01*
X23130465Y-186935461D01*
X23137080Y-186931210D01*
X24702166Y-185366124D01*
X24708779Y-185354013D01*
X24699952Y-185342395D01*
X24477219Y-185180570D01*
X24470539Y-185176330D01*
X24200928Y-185028110D01*
X24193793Y-185024753D01*
X23907730Y-184911492D01*
X23900204Y-184909047D01*
X23602221Y-184832538D01*
X23594450Y-184831055D01*
X23289222Y-184792497D01*
X23281331Y-184792000D01*
X22973669Y-184792000D01*
X22965778Y-184792497D01*
X22660550Y-184831055D01*
X22652779Y-184832538D01*
X22354796Y-184909047D01*
X22347270Y-184911492D01*
X22061207Y-185024753D01*
X22054072Y-185028110D01*
X21784461Y-185176330D01*
X21777781Y-185180570D01*
X21554677Y-185342664D01*
X21546254Y-185353587D01*
X12708000Y-185353587D01*
X12708000Y-182555475D01*
X24674983Y-182555475D01*
X24693972Y-182772519D01*
X24695875Y-182783312D01*
X24752264Y-182993761D01*
X24756010Y-183004053D01*
X24848086Y-183201511D01*
X24853569Y-183211006D01*
X24890009Y-183263048D01*
X24900488Y-183271424D01*
X24913934Y-183264356D01*
X25615478Y-182562812D01*
X25623092Y-182548868D01*
X25622961Y-182547035D01*
X25618710Y-182540420D01*
X24913213Y-181834923D01*
X24901438Y-181828493D01*
X24889423Y-181837789D01*
X24853569Y-181888994D01*
X24848086Y-181898489D01*
X24756010Y-182095947D01*
X24752264Y-182106239D01*
X24695875Y-182316688D01*
X24693972Y-182327481D01*
X24674983Y-182544525D01*
X24674983Y-182555475D01*
X12708000Y-182555475D01*
X12708000Y-180050000D01*
X24674002Y-180050000D01*
X24693957Y-180278087D01*
X24695381Y-180283400D01*
X24695381Y-180283402D01*
X24744198Y-180465586D01*
X24753216Y-180499243D01*
X24755539Y-180504224D01*
X24755539Y-180504225D01*
X24847651Y-180701762D01*
X24847654Y-180701767D01*
X24849977Y-180706749D01*
X24890442Y-180764539D01*
X24975919Y-180886612D01*
X24981302Y-180894300D01*
X25143200Y-181056198D01*
X25147708Y-181059355D01*
X25147711Y-181059357D01*
X25224390Y-181113048D01*
X25330751Y-181187523D01*
X25335735Y-181189847D01*
X25338028Y-181191171D01*
X25387021Y-181242553D01*
X25400457Y-181312267D01*
X25374071Y-181378178D01*
X25338028Y-181409409D01*
X25326498Y-181416066D01*
X25274452Y-181452509D01*
X25266076Y-181462988D01*
X25273144Y-181476434D01*
X26257615Y-182460905D01*
X26291641Y-182523217D01*
X26286576Y-182594032D01*
X26257615Y-182639095D01*
X25272423Y-183624287D01*
X25265993Y-183636062D01*
X25275289Y-183648077D01*
X25326494Y-183683931D01*
X25335989Y-183689414D01*
X25533447Y-183781490D01*
X25543739Y-183785236D01*
X25754188Y-183841625D01*
X25764981Y-183843528D01*
X25982025Y-183862517D01*
X25992975Y-183862517D01*
X26210019Y-183843528D01*
X26220812Y-183841625D01*
X26431261Y-183785236D01*
X26441553Y-183781490D01*
X26639011Y-183689414D01*
X26648511Y-183683929D01*
X26649410Y-183683299D01*
X26649870Y-183683144D01*
X26653268Y-183681182D01*
X26653662Y-183681865D01*
X26716684Y-183660612D01*
X26785544Y-183677898D01*
X26811303Y-183700934D01*
X26812507Y-183699730D01*
X26818858Y-183706081D01*
X26824239Y-183713261D01*
X26831419Y-183718642D01*
X26831422Y-183718645D01*
X26894998Y-183766292D01*
X26940795Y-183800615D01*
X27077184Y-183851745D01*
X27139366Y-183858500D01*
X28835634Y-183858500D01*
X28897816Y-183851745D01*
X29034205Y-183800615D01*
X29150761Y-183713261D01*
X29238115Y-183596705D01*
X29289245Y-183460316D01*
X29296000Y-183398134D01*
X29296000Y-181701866D01*
X29289245Y-181639684D01*
X29238115Y-181503295D01*
X29150761Y-181386739D01*
X29034205Y-181299385D01*
X28897816Y-181248255D01*
X28898546Y-181246309D01*
X28846295Y-181216455D01*
X28813479Y-181153497D01*
X28819909Y-181082793D01*
X28847998Y-181040000D01*
X28993698Y-180894300D01*
X28999082Y-180886612D01*
X29084558Y-180764539D01*
X29125023Y-180706749D01*
X29127346Y-180701767D01*
X29127349Y-180701762D01*
X29219461Y-180504225D01*
X29219461Y-180504224D01*
X29221784Y-180499243D01*
X29230803Y-180465586D01*
X29279619Y-180283402D01*
X29279619Y-180283400D01*
X29281043Y-180278087D01*
X29300998Y-180050000D01*
X29281043Y-179821913D01*
X29279619Y-179816598D01*
X29223207Y-179606067D01*
X29223206Y-179606065D01*
X29221784Y-179600757D01*
X29219461Y-179595775D01*
X29127349Y-179398238D01*
X29127346Y-179398233D01*
X29125023Y-179393251D01*
X29031825Y-179260151D01*
X28996857Y-179210211D01*
X28996855Y-179210208D01*
X28993698Y-179205700D01*
X28831800Y-179043802D01*
X28827292Y-179040645D01*
X28827289Y-179040643D01*
X28694257Y-178947493D01*
X28644249Y-178912477D01*
X28639267Y-178910154D01*
X28639262Y-178910151D01*
X28441725Y-178818039D01*
X28441724Y-178818039D01*
X28436743Y-178815716D01*
X28431435Y-178814294D01*
X28431433Y-178814293D01*
X28220902Y-178757881D01*
X28220900Y-178757881D01*
X28215587Y-178756457D01*
X27987500Y-178736502D01*
X27759413Y-178756457D01*
X27754100Y-178757881D01*
X27754098Y-178757881D01*
X27543567Y-178814293D01*
X27543565Y-178814294D01*
X27538257Y-178815716D01*
X27533276Y-178818039D01*
X27533275Y-178818039D01*
X27335738Y-178910151D01*
X27335733Y-178910154D01*
X27330751Y-178912477D01*
X27280743Y-178947493D01*
X27147711Y-179040643D01*
X27147708Y-179040645D01*
X27143200Y-179043802D01*
X27076595Y-179110407D01*
X27014283Y-179144433D01*
X26943468Y-179139368D01*
X26898405Y-179110407D01*
X26831800Y-179043802D01*
X26827292Y-179040645D01*
X26827289Y-179040643D01*
X26694257Y-178947493D01*
X26644249Y-178912477D01*
X26639267Y-178910154D01*
X26639262Y-178910151D01*
X26441725Y-178818039D01*
X26441724Y-178818039D01*
X26436743Y-178815716D01*
X26431435Y-178814294D01*
X26431433Y-178814293D01*
X26220902Y-178757881D01*
X26220900Y-178757881D01*
X26215587Y-178756457D01*
X25987500Y-178736502D01*
X25759413Y-178756457D01*
X25754100Y-178757881D01*
X25754098Y-178757881D01*
X25543567Y-178814293D01*
X25543565Y-178814294D01*
X25538257Y-178815716D01*
X25533276Y-178818039D01*
X25533275Y-178818039D01*
X25335738Y-178910151D01*
X25335733Y-178910154D01*
X25330751Y-178912477D01*
X25280743Y-178947493D01*
X25147711Y-179040643D01*
X25147708Y-179040645D01*
X25143200Y-179043802D01*
X24981302Y-179205700D01*
X24978145Y-179210208D01*
X24978143Y-179210211D01*
X24943175Y-179260151D01*
X24849977Y-179393251D01*
X24847654Y-179398233D01*
X24847651Y-179398238D01*
X24755539Y-179595775D01*
X24753216Y-179600757D01*
X24751794Y-179606065D01*
X24751793Y-179606067D01*
X24695381Y-179816598D01*
X24693957Y-179821913D01*
X24674002Y-180050000D01*
X12708000Y-180050000D01*
X12708000Y-177245987D01*
X21546221Y-177245987D01*
X21555048Y-177257605D01*
X21777781Y-177419430D01*
X21784461Y-177423670D01*
X22054072Y-177571890D01*
X22061207Y-177575247D01*
X22347270Y-177688508D01*
X22354796Y-177690953D01*
X22652779Y-177767462D01*
X22660550Y-177768945D01*
X22965778Y-177807503D01*
X22973669Y-177808000D01*
X23281331Y-177808000D01*
X23289222Y-177807503D01*
X23594450Y-177768945D01*
X23602221Y-177767462D01*
X23900204Y-177690953D01*
X23907730Y-177688508D01*
X24193793Y-177575247D01*
X24200928Y-177571890D01*
X24470539Y-177423670D01*
X24477219Y-177419430D01*
X24700323Y-177257336D01*
X24708746Y-177246413D01*
X24701842Y-177233552D01*
X23140312Y-175672022D01*
X23126368Y-175664408D01*
X23124535Y-175664539D01*
X23117920Y-175668790D01*
X21552834Y-177233876D01*
X21546221Y-177245987D01*
X12708000Y-177245987D01*
X12708000Y-175303958D01*
X20614790Y-175303958D01*
X20634107Y-175610994D01*
X20635100Y-175618855D01*
X20692746Y-175921046D01*
X20694717Y-175928723D01*
X20789784Y-176221309D01*
X20792699Y-176228672D01*
X20923689Y-176507041D01*
X20927501Y-176513974D01*
X21092351Y-176773736D01*
X21096995Y-176780129D01*
X21171997Y-176870790D01*
X21184514Y-176879245D01*
X21195252Y-176873038D01*
X22755478Y-175312812D01*
X22761856Y-175301132D01*
X23491908Y-175301132D01*
X23492039Y-175302965D01*
X23496290Y-175309580D01*
X25058645Y-176871935D01*
X25071907Y-176879177D01*
X25082012Y-176871988D01*
X25158005Y-176780129D01*
X25162649Y-176773736D01*
X25327499Y-176513974D01*
X25331311Y-176507041D01*
X25462301Y-176228672D01*
X25465216Y-176221309D01*
X25560283Y-175928723D01*
X25562254Y-175921046D01*
X25619900Y-175618855D01*
X25620893Y-175610994D01*
X25640210Y-175303958D01*
X25640210Y-175296042D01*
X25620893Y-174989006D01*
X25619900Y-174981145D01*
X25562254Y-174678954D01*
X25560283Y-174671277D01*
X25465216Y-174378691D01*
X25462301Y-174371328D01*
X25331311Y-174092959D01*
X25327499Y-174086026D01*
X25162649Y-173826264D01*
X25158005Y-173819871D01*
X25083003Y-173729210D01*
X25070486Y-173720755D01*
X25059748Y-173726962D01*
X23499522Y-175287188D01*
X23491908Y-175301132D01*
X22761856Y-175301132D01*
X22763092Y-175298868D01*
X22762961Y-175297035D01*
X22758710Y-175290420D01*
X21196355Y-173728065D01*
X21183093Y-173720823D01*
X21172988Y-173728012D01*
X21096995Y-173819871D01*
X21092351Y-173826264D01*
X20927501Y-174086026D01*
X20923689Y-174092959D01*
X20792699Y-174371328D01*
X20789784Y-174378691D01*
X20694717Y-174671277D01*
X20692746Y-174678954D01*
X20635100Y-174981145D01*
X20634107Y-174989006D01*
X20614790Y-175296042D01*
X20614790Y-175303958D01*
X12708000Y-175303958D01*
X12708000Y-173353587D01*
X21546254Y-173353587D01*
X21553158Y-173366448D01*
X23114688Y-174927978D01*
X23128632Y-174935592D01*
X23130465Y-174935461D01*
X23137080Y-174931210D01*
X24702166Y-173366124D01*
X24708779Y-173354013D01*
X24699952Y-173342395D01*
X24477219Y-173180570D01*
X24470539Y-173176330D01*
X24200928Y-173028110D01*
X24193793Y-173024753D01*
X23993366Y-172945398D01*
X23937392Y-172901723D01*
X23913916Y-172834720D01*
X23930392Y-172765662D01*
X23981587Y-172716473D01*
X24028767Y-172702725D01*
X24120655Y-172694686D01*
X24125968Y-172693262D01*
X24125970Y-172693262D01*
X24319600Y-172641379D01*
X24319602Y-172641378D01*
X24324910Y-172639956D01*
X24345815Y-172630208D01*
X24511577Y-172552912D01*
X24511580Y-172552910D01*
X24516558Y-172550589D01*
X24689776Y-172429301D01*
X24839301Y-172279776D01*
X24960589Y-172106558D01*
X24983658Y-172057088D01*
X25047633Y-171919892D01*
X25047634Y-171919891D01*
X25049956Y-171914910D01*
X25104686Y-171710655D01*
X25123116Y-171500000D01*
X25104686Y-171289345D01*
X25081651Y-171203376D01*
X25051379Y-171090400D01*
X25051378Y-171090398D01*
X25049956Y-171085090D01*
X25024256Y-171029976D01*
X24962912Y-170898423D01*
X24962910Y-170898420D01*
X24960589Y-170893442D01*
X24839301Y-170720224D01*
X24689776Y-170570699D01*
X24516558Y-170449411D01*
X24511580Y-170447090D01*
X24511577Y-170447088D01*
X24329892Y-170362367D01*
X24329891Y-170362366D01*
X24324910Y-170360044D01*
X24319602Y-170358622D01*
X24319600Y-170358621D01*
X24125970Y-170306738D01*
X24125968Y-170306738D01*
X24120655Y-170305314D01*
X23910000Y-170286884D01*
X23699345Y-170305314D01*
X23694032Y-170306738D01*
X23694030Y-170306738D01*
X23500400Y-170358621D01*
X23500398Y-170358622D01*
X23495090Y-170360044D01*
X23490109Y-170362366D01*
X23490108Y-170362367D01*
X23308423Y-170447088D01*
X23308420Y-170447090D01*
X23303442Y-170449411D01*
X23130224Y-170570699D01*
X22980699Y-170720224D01*
X22859411Y-170893442D01*
X22857090Y-170898420D01*
X22857088Y-170898423D01*
X22795744Y-171029976D01*
X22770044Y-171085090D01*
X22768622Y-171090398D01*
X22768621Y-171090400D01*
X22738349Y-171203376D01*
X22715314Y-171289345D01*
X22696884Y-171500000D01*
X22715314Y-171710655D01*
X22770044Y-171914910D01*
X22772366Y-171919891D01*
X22772367Y-171919892D01*
X22836343Y-172057088D01*
X22859411Y-172106558D01*
X22980699Y-172279776D01*
X23130224Y-172429301D01*
X23303442Y-172550589D01*
X23308425Y-172552912D01*
X23313195Y-172555667D01*
X23312264Y-172557279D01*
X23359332Y-172598718D01*
X23378796Y-172666994D01*
X23358257Y-172734955D01*
X23304236Y-172781023D01*
X23252800Y-172792000D01*
X22973669Y-172792000D01*
X22965778Y-172792497D01*
X22660550Y-172831055D01*
X22652779Y-172832538D01*
X22354796Y-172909047D01*
X22347270Y-172911492D01*
X22061207Y-173024753D01*
X22054072Y-173028110D01*
X21784461Y-173176330D01*
X21777781Y-173180570D01*
X21554677Y-173342664D01*
X21546254Y-173353587D01*
X12708000Y-173353587D01*
X12708000Y-171500000D01*
X15076884Y-171500000D01*
X15095314Y-171710655D01*
X15150044Y-171914910D01*
X15152366Y-171919891D01*
X15152367Y-171919892D01*
X15216343Y-172057088D01*
X15239411Y-172106558D01*
X15360699Y-172279776D01*
X15510224Y-172429301D01*
X15683442Y-172550589D01*
X15688420Y-172552910D01*
X15688423Y-172552912D01*
X15854185Y-172630208D01*
X15875090Y-172639956D01*
X15880398Y-172641378D01*
X15880400Y-172641379D01*
X16074030Y-172693262D01*
X16074032Y-172693262D01*
X16079345Y-172694686D01*
X16290000Y-172713116D01*
X16500655Y-172694686D01*
X16505968Y-172693262D01*
X16505970Y-172693262D01*
X16699600Y-172641379D01*
X16699602Y-172641378D01*
X16704910Y-172639956D01*
X16725815Y-172630208D01*
X16891577Y-172552912D01*
X16891580Y-172552910D01*
X16896558Y-172550589D01*
X17069776Y-172429301D01*
X17219301Y-172279776D01*
X17340589Y-172106558D01*
X17363658Y-172057088D01*
X17427633Y-171919892D01*
X17427634Y-171919891D01*
X17429956Y-171914910D01*
X17484686Y-171710655D01*
X17503116Y-171500000D01*
X17484686Y-171289345D01*
X17461651Y-171203376D01*
X17431379Y-171090400D01*
X17431378Y-171090398D01*
X17429956Y-171085090D01*
X17404256Y-171029976D01*
X17342912Y-170898423D01*
X17342910Y-170898420D01*
X17340589Y-170893442D01*
X17219301Y-170720224D01*
X17069776Y-170570699D01*
X16896558Y-170449411D01*
X16891580Y-170447090D01*
X16891577Y-170447088D01*
X16709892Y-170362367D01*
X16709891Y-170362366D01*
X16704910Y-170360044D01*
X16699602Y-170358622D01*
X16699600Y-170358621D01*
X16505970Y-170306738D01*
X16505968Y-170306738D01*
X16500655Y-170305314D01*
X16290000Y-170286884D01*
X16079345Y-170305314D01*
X16074032Y-170306738D01*
X16074030Y-170306738D01*
X15880400Y-170358621D01*
X15880398Y-170358622D01*
X15875090Y-170360044D01*
X15870109Y-170362366D01*
X15870108Y-170362367D01*
X15688423Y-170447088D01*
X15688420Y-170447090D01*
X15683442Y-170449411D01*
X15510224Y-170570699D01*
X15360699Y-170720224D01*
X15239411Y-170893442D01*
X15237090Y-170898420D01*
X15237088Y-170898423D01*
X15175744Y-171029976D01*
X15150044Y-171085090D01*
X15148622Y-171090398D01*
X15148621Y-171090400D01*
X15118349Y-171203376D01*
X15095314Y-171289345D01*
X15076884Y-171500000D01*
X12708000Y-171500000D01*
X12708000Y-169453247D01*
X18591500Y-169453247D01*
X18598255Y-169515429D01*
X18649385Y-169651818D01*
X18736739Y-169768374D01*
X18853295Y-169855728D01*
X18989684Y-169906858D01*
X19051866Y-169913613D01*
X20748134Y-169913613D01*
X20810316Y-169906858D01*
X20946705Y-169855728D01*
X21063261Y-169768374D01*
X21150615Y-169651818D01*
X21201745Y-169515429D01*
X21208500Y-169453247D01*
X21208500Y-167756979D01*
X21201745Y-167694797D01*
X21150615Y-167558408D01*
X21063261Y-167441852D01*
X20946705Y-167354498D01*
X20810316Y-167303368D01*
X20766748Y-167298635D01*
X20751514Y-167296980D01*
X20751511Y-167296980D01*
X20748134Y-167296613D01*
X20744815Y-167296613D01*
X20677890Y-167272960D01*
X20642196Y-167226957D01*
X20640266Y-167227972D01*
X20634558Y-167217113D01*
X20634368Y-167216868D01*
X20634347Y-167216710D01*
X20614356Y-167178679D01*
X19912812Y-166477135D01*
X19898868Y-166469521D01*
X19897035Y-166469652D01*
X19890420Y-166473903D01*
X19184923Y-167179400D01*
X19162129Y-167221142D01*
X19159953Y-167231142D01*
X19109747Y-167281340D01*
X19056186Y-167296564D01*
X19055281Y-167296613D01*
X19051866Y-167296613D01*
X19048470Y-167296982D01*
X19048468Y-167296982D01*
X19036121Y-167298323D01*
X18989684Y-167303368D01*
X18853295Y-167354498D01*
X18736739Y-167441852D01*
X18649385Y-167558408D01*
X18598255Y-167694797D01*
X18591500Y-167756979D01*
X18591500Y-169453247D01*
X12708000Y-169453247D01*
X12708000Y-168353207D01*
X12709746Y-168332303D01*
X12712264Y-168317335D01*
X12713071Y-168312539D01*
X12713224Y-168300000D01*
X12711048Y-168284804D01*
X12709927Y-168260763D01*
X12711272Y-168233402D01*
X12724512Y-167963900D01*
X12725723Y-167951601D01*
X12774191Y-167624861D01*
X12776601Y-167612743D01*
X12783884Y-167583671D01*
X12856862Y-167292324D01*
X12860451Y-167280493D01*
X12971725Y-166969506D01*
X12976456Y-166958082D01*
X13095692Y-166705978D01*
X13117687Y-166659473D01*
X13123514Y-166648572D01*
X13130398Y-166637088D01*
X13230833Y-166469521D01*
X13293328Y-166365255D01*
X13300198Y-166354974D01*
X13481447Y-166110588D01*
X18587483Y-166110588D01*
X18606472Y-166327632D01*
X18608375Y-166338425D01*
X18664764Y-166548874D01*
X18668510Y-166559166D01*
X18760586Y-166756624D01*
X18766069Y-166766119D01*
X18802509Y-166818161D01*
X18812988Y-166826537D01*
X18826434Y-166819469D01*
X19527978Y-166117925D01*
X19534356Y-166106245D01*
X20264408Y-166106245D01*
X20264539Y-166108078D01*
X20268790Y-166114693D01*
X20974287Y-166820190D01*
X20986062Y-166826620D01*
X20998077Y-166817324D01*
X21006374Y-166805475D01*
X30177865Y-166805475D01*
X30195329Y-167005091D01*
X30197231Y-167015878D01*
X30249093Y-167209429D01*
X30252841Y-167219723D01*
X30337521Y-167401323D01*
X30342999Y-167410811D01*
X30364311Y-167441248D01*
X30374788Y-167449623D01*
X30388236Y-167442554D01*
X31017978Y-166812812D01*
X31024356Y-166801132D01*
X31754408Y-166801132D01*
X31754539Y-166802965D01*
X31758790Y-166809580D01*
X32392486Y-167443276D01*
X32404261Y-167449706D01*
X32416276Y-167440410D01*
X32437001Y-167410811D01*
X32442479Y-167401323D01*
X32527159Y-167219723D01*
X32530907Y-167209429D01*
X32582769Y-167015878D01*
X32584671Y-167005091D01*
X32602135Y-166805475D01*
X32602135Y-166794525D01*
X32584671Y-166594909D01*
X32582769Y-166584122D01*
X32530907Y-166390571D01*
X32527159Y-166380277D01*
X32442479Y-166198677D01*
X32437001Y-166189189D01*
X32415689Y-166158752D01*
X32405212Y-166150377D01*
X32391764Y-166157446D01*
X31762022Y-166787188D01*
X31754408Y-166801132D01*
X31024356Y-166801132D01*
X31025592Y-166798868D01*
X31025461Y-166797035D01*
X31021210Y-166790420D01*
X30387514Y-166156724D01*
X30375739Y-166150294D01*
X30363724Y-166159590D01*
X30342999Y-166189189D01*
X30337521Y-166198677D01*
X30252841Y-166380277D01*
X30249093Y-166390571D01*
X30197231Y-166584122D01*
X30195329Y-166594909D01*
X30177865Y-166794525D01*
X30177865Y-166805475D01*
X21006374Y-166805475D01*
X21033931Y-166766119D01*
X21039414Y-166756624D01*
X21131490Y-166559166D01*
X21135236Y-166548874D01*
X21191625Y-166338425D01*
X21193528Y-166327632D01*
X21212517Y-166110588D01*
X21212517Y-166099638D01*
X21193528Y-165882594D01*
X21191625Y-165871801D01*
X21168310Y-165784788D01*
X30740377Y-165784788D01*
X30747446Y-165798236D01*
X31377188Y-166427978D01*
X31391132Y-166435592D01*
X31392965Y-166435461D01*
X31399580Y-166431210D01*
X32033276Y-165797514D01*
X32039706Y-165785739D01*
X32030410Y-165773724D01*
X32000811Y-165752999D01*
X31991323Y-165747521D01*
X31809723Y-165662841D01*
X31799429Y-165659093D01*
X31605878Y-165607231D01*
X31595091Y-165605329D01*
X31395475Y-165587865D01*
X31384525Y-165587865D01*
X31184909Y-165605329D01*
X31174122Y-165607231D01*
X30980571Y-165659093D01*
X30970277Y-165662841D01*
X30788677Y-165747521D01*
X30779189Y-165752999D01*
X30748752Y-165774311D01*
X30740377Y-165784788D01*
X21168310Y-165784788D01*
X21135236Y-165661352D01*
X21131490Y-165651060D01*
X21039414Y-165453602D01*
X21033931Y-165444107D01*
X20997491Y-165392065D01*
X20987012Y-165383689D01*
X20973566Y-165390757D01*
X20272022Y-166092301D01*
X20264408Y-166106245D01*
X19534356Y-166106245D01*
X19535592Y-166103981D01*
X19535461Y-166102148D01*
X19531210Y-166095533D01*
X18825713Y-165390036D01*
X18813938Y-165383606D01*
X18801923Y-165392902D01*
X18766069Y-165444107D01*
X18760586Y-165453602D01*
X18668510Y-165651060D01*
X18664764Y-165661352D01*
X18608375Y-165871801D01*
X18606472Y-165882594D01*
X18587483Y-166099638D01*
X18587483Y-166110588D01*
X13481447Y-166110588D01*
X13496960Y-166089671D01*
X13504804Y-166080113D01*
X13726626Y-165835370D01*
X13735370Y-165826626D01*
X13980113Y-165604804D01*
X13989671Y-165596960D01*
X14254974Y-165400198D01*
X14265255Y-165393328D01*
X14548572Y-165223514D01*
X14559477Y-165217685D01*
X14858082Y-165076456D01*
X14869506Y-165071725D01*
X15180493Y-164960451D01*
X15192326Y-164956861D01*
X15512751Y-164876599D01*
X15524861Y-164874191D01*
X15851606Y-164825722D01*
X15863902Y-164824511D01*
X15952656Y-164820151D01*
X16157062Y-164810110D01*
X16182624Y-164811457D01*
X16184857Y-164811805D01*
X16184861Y-164811805D01*
X16193730Y-164813186D01*
X16202632Y-164812022D01*
X16202635Y-164812022D01*
X16222791Y-164809386D01*
X16225252Y-164809064D01*
X16241589Y-164808000D01*
X19084494Y-164808000D01*
X19152615Y-164828002D01*
G37*
%TD.AperFunction*%
%TA.AperFunction,Conductor*%
G36*
X52893252Y-182248276D02*
G01*
X52928435Y-182271671D01*
X52930017Y-182269759D01*
X52957179Y-182292229D01*
X52964094Y-182297950D01*
X52972873Y-182305940D01*
X56330745Y-185663812D01*
X56364771Y-185726124D01*
X56359706Y-185796939D01*
X56317159Y-185853775D01*
X56306073Y-185861192D01*
X56146394Y-185956191D01*
X56137085Y-185962955D01*
X55985757Y-186095665D01*
X55977847Y-186104000D01*
X55853236Y-186262069D01*
X55846968Y-186271720D01*
X55753257Y-186449836D01*
X55748848Y-186460479D01*
X55689167Y-186652684D01*
X55686773Y-186663946D01*
X55667437Y-186827322D01*
X55667000Y-186834728D01*
X55667000Y-187077885D01*
X55671475Y-187093124D01*
X55672865Y-187094329D01*
X55680548Y-187096000D01*
X56953000Y-187096000D01*
X57021121Y-187116002D01*
X57067614Y-187169658D01*
X57079000Y-187222000D01*
X57079000Y-188913294D01*
X57082806Y-188926256D01*
X57097722Y-188928192D01*
X57120300Y-188924313D01*
X57131417Y-188921334D01*
X57320252Y-188851669D01*
X57330630Y-188846719D01*
X57503606Y-188743809D01*
X57512915Y-188737045D01*
X57664243Y-188604335D01*
X57672153Y-188596000D01*
X57796764Y-188437931D01*
X57803032Y-188428280D01*
X57896743Y-188250164D01*
X57901152Y-188239521D01*
X57960833Y-188047316D01*
X57963227Y-188036054D01*
X57982563Y-187872678D01*
X57983000Y-187865272D01*
X57983000Y-187620257D01*
X58003002Y-187552136D01*
X58056658Y-187505643D01*
X58126932Y-187495539D01*
X58191512Y-187525033D01*
X58198095Y-187531162D01*
X58259180Y-187592247D01*
X58266724Y-187600537D01*
X58270837Y-187607018D01*
X58285584Y-187620866D01*
X58312261Y-187645918D01*
X58348227Y-187707131D01*
X58345388Y-187778071D01*
X58340203Y-187791018D01*
X58275991Y-187928723D01*
X58265716Y-187950757D01*
X58264294Y-187956065D01*
X58264293Y-187956067D01*
X58242617Y-188036963D01*
X58206457Y-188171913D01*
X58186502Y-188400000D01*
X58206457Y-188628087D01*
X58207880Y-188633398D01*
X58207881Y-188633402D01*
X58254260Y-188806490D01*
X58252570Y-188877466D01*
X58212776Y-188936262D01*
X58147512Y-188964210D01*
X58136511Y-188965039D01*
X58092002Y-188966438D01*
X58088044Y-188966500D01*
X58060144Y-188966500D01*
X58056154Y-188967004D01*
X58044320Y-188967936D01*
X58000111Y-188969326D01*
X57992495Y-188971539D01*
X57992493Y-188971539D01*
X57980652Y-188974979D01*
X57961293Y-188978988D01*
X57959983Y-188979154D01*
X57941203Y-188981526D01*
X57933837Y-188984442D01*
X57933831Y-188984444D01*
X57900098Y-188997800D01*
X57888868Y-189001645D01*
X57854017Y-189011770D01*
X57846407Y-189013981D01*
X57839584Y-189018016D01*
X57828966Y-189024295D01*
X57811213Y-189032992D01*
X57803568Y-189036019D01*
X57792383Y-189040448D01*
X57785968Y-189045109D01*
X57756612Y-189066437D01*
X57746695Y-189072951D01*
X57708638Y-189095458D01*
X57694317Y-189109779D01*
X57679284Y-189122619D01*
X57662893Y-189134528D01*
X57657843Y-189140632D01*
X57657838Y-189140637D01*
X57634707Y-189168598D01*
X57626717Y-189177379D01*
X56874499Y-189929596D01*
X56812187Y-189963621D01*
X56785404Y-189966500D01*
X41734500Y-189966500D01*
X41666379Y-189946498D01*
X41619886Y-189892842D01*
X41608500Y-189840500D01*
X41608500Y-188864594D01*
X41628502Y-188796473D01*
X41645405Y-188775499D01*
X42569812Y-187851092D01*
X44467000Y-187851092D01*
X44467266Y-187856881D01*
X44480984Y-188006176D01*
X44483082Y-188017497D01*
X44537713Y-188211203D01*
X44541837Y-188221950D01*
X44630859Y-188402466D01*
X44636869Y-188412273D01*
X44757299Y-188573549D01*
X44764989Y-188582089D01*
X44912794Y-188718720D01*
X44921919Y-188725721D01*
X45092144Y-188833125D01*
X45102391Y-188838346D01*
X45289332Y-188912928D01*
X45300369Y-188916197D01*
X45353230Y-188926712D01*
X45366106Y-188925560D01*
X45370067Y-188913294D01*
X45879000Y-188913294D01*
X45882806Y-188926256D01*
X45897722Y-188928192D01*
X45920300Y-188924313D01*
X45931417Y-188921334D01*
X46120252Y-188851669D01*
X46130630Y-188846719D01*
X46303606Y-188743809D01*
X46312915Y-188737045D01*
X46464243Y-188604335D01*
X46472153Y-188596000D01*
X46596764Y-188437931D01*
X46603032Y-188428280D01*
X46696743Y-188250164D01*
X46701152Y-188239521D01*
X46760833Y-188047316D01*
X46763227Y-188036054D01*
X46782563Y-187872678D01*
X46783000Y-187865272D01*
X46783000Y-187622115D01*
X46778525Y-187606876D01*
X46777135Y-187605671D01*
X46769452Y-187604000D01*
X45897115Y-187604000D01*
X45881876Y-187608475D01*
X45880671Y-187609865D01*
X45879000Y-187617548D01*
X45879000Y-188913294D01*
X45370067Y-188913294D01*
X45371000Y-188910404D01*
X45371000Y-187622115D01*
X45366525Y-187606876D01*
X45365135Y-187605671D01*
X45357452Y-187604000D01*
X44485115Y-187604000D01*
X44469876Y-187608475D01*
X44468671Y-187609865D01*
X44467000Y-187617548D01*
X44467000Y-187851092D01*
X42569812Y-187851092D01*
X43070904Y-187350000D01*
X49711835Y-187350000D01*
X49730465Y-187586711D01*
X49731619Y-187591518D01*
X49731620Y-187591524D01*
X49754614Y-187687301D01*
X49785895Y-187817594D01*
X49787788Y-187822165D01*
X49787789Y-187822167D01*
X49871374Y-188023959D01*
X49876760Y-188036963D01*
X49879346Y-188041183D01*
X49998241Y-188235202D01*
X49998245Y-188235208D01*
X50000824Y-188239416D01*
X50155031Y-188419969D01*
X50335584Y-188574176D01*
X50339792Y-188576755D01*
X50339798Y-188576759D01*
X50527105Y-188691541D01*
X50538037Y-188698240D01*
X50542607Y-188700133D01*
X50542611Y-188700135D01*
X50738000Y-188781067D01*
X50757406Y-188789105D01*
X50829820Y-188806490D01*
X50983476Y-188843380D01*
X50983482Y-188843381D01*
X50988289Y-188844535D01*
X51225000Y-188863165D01*
X51461711Y-188844535D01*
X51466518Y-188843381D01*
X51466524Y-188843380D01*
X51620180Y-188806490D01*
X51692594Y-188789105D01*
X51712000Y-188781067D01*
X51907389Y-188700135D01*
X51907393Y-188700133D01*
X51911963Y-188698240D01*
X51922895Y-188691541D01*
X52110202Y-188576759D01*
X52110208Y-188576755D01*
X52114416Y-188574176D01*
X52294969Y-188419969D01*
X52449176Y-188239416D01*
X52451755Y-188235208D01*
X52451759Y-188235202D01*
X52570654Y-188041183D01*
X52573240Y-188036963D01*
X52578627Y-188023959D01*
X52650230Y-187851092D01*
X55667000Y-187851092D01*
X55667266Y-187856881D01*
X55680984Y-188006176D01*
X55683082Y-188017497D01*
X55737713Y-188211203D01*
X55741837Y-188221950D01*
X55830859Y-188402466D01*
X55836869Y-188412273D01*
X55957299Y-188573549D01*
X55964989Y-188582089D01*
X56112794Y-188718720D01*
X56121919Y-188725721D01*
X56292144Y-188833125D01*
X56302391Y-188838346D01*
X56489332Y-188912928D01*
X56500369Y-188916197D01*
X56553230Y-188926712D01*
X56566106Y-188925560D01*
X56571000Y-188910404D01*
X56571000Y-187622115D01*
X56566525Y-187606876D01*
X56565135Y-187605671D01*
X56557452Y-187604000D01*
X55685115Y-187604000D01*
X55669876Y-187608475D01*
X55668671Y-187609865D01*
X55667000Y-187617548D01*
X55667000Y-187851092D01*
X52650230Y-187851092D01*
X52662211Y-187822167D01*
X52662212Y-187822165D01*
X52664105Y-187817594D01*
X52695386Y-187687301D01*
X52718380Y-187591524D01*
X52718381Y-187591518D01*
X52719535Y-187586711D01*
X52738165Y-187350000D01*
X52719535Y-187113289D01*
X52715385Y-187096000D01*
X52665260Y-186887218D01*
X52664105Y-186882406D01*
X52644356Y-186834728D01*
X52575135Y-186667611D01*
X52575133Y-186667607D01*
X52573240Y-186663037D01*
X52551061Y-186626844D01*
X52451759Y-186464798D01*
X52451755Y-186464792D01*
X52449176Y-186460584D01*
X52294969Y-186280031D01*
X52114416Y-186125824D01*
X52110208Y-186123245D01*
X52110202Y-186123241D01*
X51916183Y-186004346D01*
X51911963Y-186001760D01*
X51907393Y-185999867D01*
X51907389Y-185999865D01*
X51697167Y-185912789D01*
X51697165Y-185912788D01*
X51692594Y-185910895D01*
X51612391Y-185891640D01*
X51466524Y-185856620D01*
X51466518Y-185856619D01*
X51461711Y-185855465D01*
X51225000Y-185836835D01*
X50988289Y-185855465D01*
X50983482Y-185856619D01*
X50983476Y-185856620D01*
X50837609Y-185891640D01*
X50757406Y-185910895D01*
X50752835Y-185912788D01*
X50752833Y-185912789D01*
X50542611Y-185999865D01*
X50542607Y-185999867D01*
X50538037Y-186001760D01*
X50533817Y-186004346D01*
X50339798Y-186123241D01*
X50339792Y-186123245D01*
X50335584Y-186125824D01*
X50155031Y-186280031D01*
X50000824Y-186460584D01*
X49998245Y-186464792D01*
X49998241Y-186464798D01*
X49898939Y-186626844D01*
X49876760Y-186663037D01*
X49874867Y-186667607D01*
X49874865Y-186667611D01*
X49805644Y-186834728D01*
X49785895Y-186882406D01*
X49784740Y-186887218D01*
X49734616Y-187096000D01*
X49730465Y-187113289D01*
X49711835Y-187350000D01*
X43070904Y-187350000D01*
X43825020Y-186595885D01*
X43887332Y-186561859D01*
X43914115Y-186558980D01*
X44357404Y-186558980D01*
X44425525Y-186578982D01*
X44472018Y-186632638D01*
X44482531Y-186699790D01*
X44467436Y-186827324D01*
X44467000Y-186834728D01*
X44467000Y-187077885D01*
X44471475Y-187093124D01*
X44472865Y-187094329D01*
X44480548Y-187096000D01*
X46764885Y-187096000D01*
X46780124Y-187091525D01*
X46781329Y-187090135D01*
X46783000Y-187082452D01*
X46783000Y-186848908D01*
X46782734Y-186843119D01*
X46769263Y-186696509D01*
X46782948Y-186626844D01*
X46832124Y-186575636D01*
X46894734Y-186558980D01*
X47295753Y-186558980D01*
X47306936Y-186559507D01*
X47314429Y-186561182D01*
X47322355Y-186560933D01*
X47322356Y-186560933D01*
X47382506Y-186559042D01*
X47386465Y-186558980D01*
X47414376Y-186558980D01*
X47418311Y-186558483D01*
X47418376Y-186558475D01*
X47430213Y-186557542D01*
X47462471Y-186556528D01*
X47466490Y-186556402D01*
X47474409Y-186556153D01*
X47493863Y-186550501D01*
X47513220Y-186546493D01*
X47525450Y-186544948D01*
X47525451Y-186544948D01*
X47533317Y-186543954D01*
X47540688Y-186541035D01*
X47540690Y-186541035D01*
X47574432Y-186527676D01*
X47585662Y-186523831D01*
X47620503Y-186513709D01*
X47620504Y-186513709D01*
X47628113Y-186511498D01*
X47634932Y-186507465D01*
X47634937Y-186507463D01*
X47645548Y-186501187D01*
X47663296Y-186492492D01*
X47682137Y-186485032D01*
X47717907Y-186459044D01*
X47727827Y-186452528D01*
X47759055Y-186434060D01*
X47759058Y-186434058D01*
X47765882Y-186430022D01*
X47780203Y-186415701D01*
X47795237Y-186402860D01*
X47805214Y-186395611D01*
X47811627Y-186390952D01*
X47839818Y-186356875D01*
X47847808Y-186348096D01*
X51552071Y-182643833D01*
X51614383Y-182609807D01*
X51673776Y-182611221D01*
X51679996Y-182612887D01*
X51685858Y-182614458D01*
X51900000Y-182633193D01*
X52114142Y-182614458D01*
X52119455Y-182613034D01*
X52119457Y-182613034D01*
X52316467Y-182560245D01*
X52316469Y-182560244D01*
X52321777Y-182558822D01*
X52328955Y-182555475D01*
X52511616Y-182470299D01*
X52511619Y-182470297D01*
X52516597Y-182467976D01*
X52692681Y-182344681D01*
X52760125Y-182277237D01*
X52822437Y-182243211D01*
X52893252Y-182248276D01*
G37*
%TD.AperFunction*%
%TA.AperFunction,Conductor*%
G36*
X41811393Y-178934534D02*
G01*
X41826589Y-178947493D01*
X43626832Y-180747736D01*
X43634376Y-180756026D01*
X43638489Y-180762507D01*
X43644266Y-180767932D01*
X43688156Y-180809147D01*
X43690998Y-180811902D01*
X43710719Y-180831623D01*
X43713914Y-180834101D01*
X43722936Y-180841807D01*
X43755168Y-180872075D01*
X43762117Y-180875895D01*
X43772921Y-180881835D01*
X43789445Y-180892688D01*
X43805448Y-180905102D01*
X43846032Y-180922665D01*
X43856662Y-180927872D01*
X43895429Y-180949184D01*
X43903106Y-180951155D01*
X43903111Y-180951157D01*
X43915047Y-180954221D01*
X43933755Y-180960626D01*
X43952344Y-180968670D01*
X43960169Y-180969909D01*
X43960171Y-180969910D01*
X43996008Y-180975586D01*
X44007629Y-180977993D01*
X44042778Y-180987017D01*
X44050459Y-180988989D01*
X44070720Y-180988989D01*
X44090429Y-180990540D01*
X44110432Y-180993708D01*
X44118324Y-180992962D01*
X44123551Y-180992468D01*
X44154443Y-180989548D01*
X44166300Y-180988989D01*
X48034086Y-180988989D01*
X48102207Y-181008991D01*
X48148700Y-181062647D01*
X48158804Y-181132921D01*
X48155793Y-181147600D01*
X48150647Y-181166807D01*
X48145542Y-181185858D01*
X48126807Y-181400000D01*
X48145542Y-181614142D01*
X48146966Y-181619455D01*
X48146966Y-181619457D01*
X48192836Y-181790643D01*
X48201178Y-181821777D01*
X48203500Y-181826757D01*
X48203501Y-181826759D01*
X48263628Y-181955700D01*
X48292024Y-182016596D01*
X48415319Y-182192681D01*
X48567319Y-182344681D01*
X48672770Y-182418518D01*
X48717099Y-182473975D01*
X48726500Y-182521731D01*
X48726500Y-182989687D01*
X48706498Y-183057808D01*
X48689595Y-183078782D01*
X46962822Y-184805555D01*
X46900510Y-184839581D01*
X46873727Y-184842460D01*
X43492091Y-184842460D01*
X43480908Y-184841933D01*
X43473415Y-184840258D01*
X43465489Y-184840507D01*
X43465488Y-184840507D01*
X43405325Y-184842398D01*
X43401367Y-184842460D01*
X43373467Y-184842460D01*
X43369477Y-184842964D01*
X43357643Y-184843896D01*
X43313434Y-184845286D01*
X43305820Y-184847498D01*
X43305815Y-184847499D01*
X43293982Y-184850937D01*
X43274619Y-184854948D01*
X43254526Y-184857486D01*
X43247159Y-184860403D01*
X43247154Y-184860404D01*
X43213415Y-184873762D01*
X43202188Y-184877606D01*
X43159730Y-184889942D01*
X43152904Y-184893979D01*
X43142295Y-184900253D01*
X43124547Y-184908948D01*
X43105706Y-184916408D01*
X43099290Y-184921070D01*
X43099289Y-184921070D01*
X43069936Y-184942396D01*
X43060016Y-184948912D01*
X43028788Y-184967380D01*
X43028785Y-184967382D01*
X43021961Y-184971418D01*
X43007640Y-184985739D01*
X42992607Y-184998579D01*
X42976216Y-185010488D01*
X42964415Y-185024753D01*
X42948025Y-185044565D01*
X42940045Y-185053334D01*
X41978781Y-186014597D01*
X41916471Y-186048621D01*
X41889688Y-186051500D01*
X41519394Y-186051500D01*
X41451273Y-186031498D01*
X41416181Y-185997771D01*
X41309357Y-185845211D01*
X41309355Y-185845208D01*
X41306198Y-185840700D01*
X41144300Y-185678802D01*
X41139792Y-185675645D01*
X41139789Y-185675643D01*
X41010890Y-185585387D01*
X40956749Y-185547477D01*
X40951767Y-185545154D01*
X40951762Y-185545151D01*
X40917543Y-185529195D01*
X40864258Y-185482278D01*
X40844797Y-185414001D01*
X40865339Y-185346041D01*
X40917543Y-185300805D01*
X40951762Y-185284849D01*
X40951767Y-185284846D01*
X40956749Y-185282523D01*
X41078303Y-185197410D01*
X41139789Y-185154357D01*
X41139792Y-185154355D01*
X41144300Y-185151198D01*
X41306198Y-184989300D01*
X41314791Y-184977029D01*
X41387099Y-184873762D01*
X41437523Y-184801749D01*
X41439846Y-184796767D01*
X41439849Y-184796762D01*
X41531961Y-184599225D01*
X41531961Y-184599224D01*
X41534284Y-184594243D01*
X41591504Y-184380699D01*
X41592119Y-184378402D01*
X41592119Y-184378400D01*
X41593543Y-184373087D01*
X41613498Y-184145000D01*
X41593543Y-183916913D01*
X41585531Y-183887012D01*
X41535707Y-183701067D01*
X41535706Y-183701065D01*
X41534284Y-183695757D01*
X41530001Y-183686571D01*
X41439849Y-183493238D01*
X41439846Y-183493233D01*
X41437523Y-183488251D01*
X41306198Y-183300700D01*
X41144300Y-183138802D01*
X41139792Y-183135645D01*
X41139789Y-183135643D01*
X41005877Y-183041877D01*
X40956749Y-183007477D01*
X40951767Y-183005154D01*
X40951762Y-183005151D01*
X40917543Y-182989195D01*
X40864258Y-182942278D01*
X40844797Y-182874001D01*
X40865339Y-182806041D01*
X40917543Y-182760805D01*
X40951762Y-182744849D01*
X40951767Y-182744846D01*
X40956749Y-182742523D01*
X41132505Y-182619457D01*
X41139789Y-182614357D01*
X41139792Y-182614355D01*
X41144300Y-182611198D01*
X41306198Y-182449300D01*
X41313976Y-182438192D01*
X41416181Y-182292229D01*
X41471638Y-182247901D01*
X41519394Y-182238500D01*
X41690406Y-182238500D01*
X41758527Y-182258502D01*
X41779501Y-182275405D01*
X41890848Y-182386752D01*
X41924874Y-182449064D01*
X41923459Y-182508459D01*
X41907882Y-182566591D01*
X41907880Y-182566602D01*
X41906457Y-182571913D01*
X41886502Y-182800000D01*
X41906457Y-183028087D01*
X41907881Y-183033400D01*
X41907881Y-183033402D01*
X41953194Y-183202509D01*
X41965716Y-183249243D01*
X41968039Y-183254224D01*
X41968039Y-183254225D01*
X42060151Y-183451762D01*
X42060154Y-183451767D01*
X42062477Y-183456749D01*
X42134946Y-183560245D01*
X42190087Y-183638994D01*
X42193802Y-183644300D01*
X42355700Y-183806198D01*
X42360208Y-183809355D01*
X42360211Y-183809357D01*
X42412467Y-183845947D01*
X42543251Y-183937523D01*
X42548233Y-183939846D01*
X42548238Y-183939849D01*
X42744765Y-184031490D01*
X42750757Y-184034284D01*
X42756065Y-184035706D01*
X42756067Y-184035707D01*
X42966598Y-184092119D01*
X42966600Y-184092119D01*
X42971913Y-184093543D01*
X43200000Y-184113498D01*
X43428087Y-184093543D01*
X43433400Y-184092119D01*
X43433402Y-184092119D01*
X43643933Y-184035707D01*
X43643935Y-184035706D01*
X43649243Y-184034284D01*
X43655235Y-184031490D01*
X43851762Y-183939849D01*
X43851767Y-183939846D01*
X43856749Y-183937523D01*
X43930243Y-183886062D01*
X44978493Y-183886062D01*
X44987789Y-183898077D01*
X45038994Y-183933931D01*
X45048489Y-183939414D01*
X45245947Y-184031490D01*
X45256239Y-184035236D01*
X45466688Y-184091625D01*
X45477481Y-184093528D01*
X45694525Y-184112517D01*
X45705475Y-184112517D01*
X45922519Y-184093528D01*
X45933312Y-184091625D01*
X46143761Y-184035236D01*
X46154053Y-184031490D01*
X46351511Y-183939414D01*
X46361006Y-183933931D01*
X46413048Y-183897491D01*
X46421424Y-183887012D01*
X46414356Y-183873566D01*
X45712812Y-183172022D01*
X45698868Y-183164408D01*
X45697035Y-183164539D01*
X45690420Y-183168790D01*
X44984923Y-183874287D01*
X44978493Y-183886062D01*
X43930243Y-183886062D01*
X43987533Y-183845947D01*
X44039789Y-183809357D01*
X44039792Y-183809355D01*
X44044300Y-183806198D01*
X44206198Y-183644300D01*
X44209914Y-183638994D01*
X44315465Y-183488251D01*
X44337523Y-183456749D01*
X44339847Y-183451765D01*
X44341171Y-183449472D01*
X44392553Y-183400479D01*
X44462267Y-183387043D01*
X44528178Y-183413429D01*
X44559409Y-183449472D01*
X44566066Y-183461002D01*
X44602509Y-183513048D01*
X44612988Y-183521424D01*
X44626434Y-183514356D01*
X45327978Y-182812812D01*
X45334356Y-182801132D01*
X46064408Y-182801132D01*
X46064539Y-182802965D01*
X46068790Y-182809580D01*
X46774287Y-183515077D01*
X46786062Y-183521507D01*
X46798077Y-183512211D01*
X46833931Y-183461006D01*
X46839414Y-183451511D01*
X46931490Y-183254053D01*
X46935236Y-183243761D01*
X46991625Y-183033312D01*
X46993528Y-183022519D01*
X47012517Y-182805475D01*
X47012517Y-182794525D01*
X46993528Y-182577481D01*
X46991625Y-182566688D01*
X46935236Y-182356239D01*
X46931490Y-182345947D01*
X46839414Y-182148489D01*
X46833931Y-182138994D01*
X46797491Y-182086952D01*
X46787012Y-182078576D01*
X46773566Y-182085644D01*
X46072022Y-182787188D01*
X46064408Y-182801132D01*
X45334356Y-182801132D01*
X45335592Y-182798868D01*
X45335461Y-182797035D01*
X45331210Y-182790420D01*
X44625713Y-182084923D01*
X44613938Y-182078493D01*
X44601923Y-182087789D01*
X44566066Y-182138998D01*
X44559409Y-182150528D01*
X44508027Y-182199521D01*
X44438313Y-182212958D01*
X44372402Y-182186571D01*
X44341171Y-182150528D01*
X44339847Y-182148235D01*
X44337523Y-182143251D01*
X44253992Y-182023957D01*
X44209357Y-181960211D01*
X44209355Y-181960208D01*
X44206198Y-181955700D01*
X44044300Y-181793802D01*
X44039792Y-181790645D01*
X44039789Y-181790643D01*
X43928886Y-181712988D01*
X44978576Y-181712988D01*
X44985644Y-181726434D01*
X45687188Y-182427978D01*
X45701132Y-182435592D01*
X45702965Y-182435461D01*
X45709580Y-182431210D01*
X46415077Y-181725713D01*
X46421507Y-181713938D01*
X46412211Y-181701923D01*
X46361006Y-181666069D01*
X46351511Y-181660586D01*
X46154053Y-181568510D01*
X46143761Y-181564764D01*
X45933312Y-181508375D01*
X45922519Y-181506472D01*
X45705475Y-181487483D01*
X45694525Y-181487483D01*
X45477481Y-181506472D01*
X45466688Y-181508375D01*
X45256239Y-181564764D01*
X45245947Y-181568510D01*
X45048489Y-181660586D01*
X45038994Y-181666069D01*
X44986952Y-181702509D01*
X44978576Y-181712988D01*
X43928886Y-181712988D01*
X43913920Y-181702509D01*
X43856749Y-181662477D01*
X43851767Y-181660154D01*
X43851762Y-181660151D01*
X43654225Y-181568039D01*
X43654224Y-181568039D01*
X43649243Y-181565716D01*
X43643935Y-181564294D01*
X43643933Y-181564293D01*
X43433402Y-181507881D01*
X43433400Y-181507881D01*
X43428087Y-181506457D01*
X43200000Y-181486502D01*
X42971913Y-181506457D01*
X42908458Y-181523460D01*
X42837482Y-181521770D01*
X42786753Y-181490848D01*
X42508652Y-181212747D01*
X42501112Y-181204461D01*
X42497000Y-181197982D01*
X42447348Y-181151356D01*
X42444507Y-181148602D01*
X42424770Y-181128865D01*
X42421573Y-181126385D01*
X42412551Y-181118680D01*
X42408714Y-181115077D01*
X42380321Y-181088414D01*
X42373375Y-181084595D01*
X42373372Y-181084593D01*
X42362566Y-181078652D01*
X42346047Y-181067801D01*
X42337605Y-181061253D01*
X42330041Y-181055386D01*
X42322772Y-181052241D01*
X42322768Y-181052238D01*
X42289463Y-181037826D01*
X42278813Y-181032609D01*
X42240060Y-181011305D01*
X42220437Y-181006267D01*
X42201734Y-180999863D01*
X42190420Y-180994967D01*
X42190419Y-180994967D01*
X42183145Y-180991819D01*
X42175322Y-180990580D01*
X42175312Y-180990577D01*
X42139476Y-180984901D01*
X42127856Y-180982495D01*
X42092711Y-180973472D01*
X42092710Y-180973472D01*
X42085030Y-180971500D01*
X42064776Y-180971500D01*
X42045065Y-180969949D01*
X42032886Y-180968020D01*
X42025057Y-180966780D01*
X41991946Y-180969910D01*
X41981039Y-180970941D01*
X41969181Y-180971500D01*
X41519394Y-180971500D01*
X41451273Y-180951498D01*
X41416181Y-180917771D01*
X41309357Y-180765211D01*
X41309355Y-180765208D01*
X41306198Y-180760700D01*
X41144300Y-180598802D01*
X41139792Y-180595645D01*
X41139789Y-180595643D01*
X40994532Y-180493933D01*
X40956749Y-180467477D01*
X40951767Y-180465154D01*
X40951762Y-180465151D01*
X40917543Y-180449195D01*
X40864258Y-180402278D01*
X40844797Y-180334001D01*
X40865339Y-180266041D01*
X40917543Y-180220805D01*
X40951762Y-180204849D01*
X40951767Y-180204846D01*
X40956749Y-180202523D01*
X41061611Y-180129098D01*
X41139789Y-180074357D01*
X41139792Y-180074355D01*
X41144300Y-180071198D01*
X41306198Y-179909300D01*
X41311418Y-179901846D01*
X41392134Y-179786571D01*
X41437523Y-179721749D01*
X41439846Y-179716767D01*
X41439849Y-179716762D01*
X41531961Y-179519225D01*
X41531961Y-179519224D01*
X41534284Y-179514243D01*
X41583840Y-179329301D01*
X41592119Y-179298402D01*
X41592119Y-179298400D01*
X41593543Y-179293087D01*
X41613498Y-179065000D01*
X41613019Y-179059525D01*
X41613019Y-179059514D01*
X41611974Y-179047570D01*
X41625962Y-178977965D01*
X41675361Y-178926973D01*
X41744487Y-178910782D01*
X41811393Y-178934534D01*
G37*
%TD.AperFunction*%
%TD*%
M02*
